<svg width="113" height="106" viewBox="0 0 113 106" fill="none" xmlns="http://www.w3.org/2000/svg">
<path d="M76.6276 93.7741L78.8789 94.7371C78.9211 94.7511 78.9633 94.7651 78.9915 94.7651C79.0759 94.7651 79.1603 94.7232 79.2166 94.6534L80.4548 93.2159C80.5392 93.1182 80.5533 92.9786 80.4829 92.867L79.1462 90.8153C79.09 90.7316 79.0055 90.6897 78.9211 90.6758C78.8226 90.6758 78.7382 90.7037 78.6678 90.7735L76.5151 93.2996C76.4588 93.3694 76.4307 93.4671 76.4588 93.5648C76.4729 93.6625 76.5432 93.7323 76.6276 93.7741ZM78.8648 91.4713L79.8498 92.9926L78.907 94.0951L77.2327 93.3694L78.8648 91.4713Z" fill="#A7A9AC"/>
<path d="M78.9075 94.7225L81.398 95.6995C81.4402 95.7134 81.4683 95.7274 81.5105 95.7274C81.595 95.7274 81.6794 95.6995 81.7357 95.6297C81.8201 95.532 81.8342 95.4064 81.7779 95.2947L80.4834 92.9082C80.4412 92.8244 80.3427 92.7686 80.2583 92.7546C80.1598 92.7407 80.0613 92.7825 80.005 92.8523L78.809 94.248C78.7527 94.3178 78.7246 94.4155 78.7527 94.5132C78.7527 94.6108 78.8231 94.6806 78.9075 94.7225ZM80.1598 93.5641L80.8492 94.8481L79.5125 94.3178L80.1598 93.5641Z" fill="#A7A9AC"/>
<path d="M76.7405 93.8017C76.7546 93.8017 76.7546 93.8017 76.7686 93.8017C76.8531 93.8017 76.9234 93.7598 76.9656 93.704L78.3868 92.0432L78.4008 92.0292L79.1325 91.1778C79.2451 91.0522 79.2169 90.8708 79.1044 90.7592L71.1405 84.06C71.0842 84.0042 70.9998 83.9902 70.9294 83.9902C70.845 83.9902 70.7746 84.0321 70.7324 84.0879L68.5796 86.6141C68.5233 86.6699 68.5093 86.7536 68.5093 86.8234C68.5093 86.9071 68.5515 86.9769 68.6078 87.0188L76.5717 93.7179C76.6139 93.7738 76.6702 93.8017 76.7405 93.8017ZM70.9716 84.702L78.4852 91.0104L77.9646 91.6245L77.9506 91.6384L76.7124 93.0899L69.1987 86.7815L70.9716 84.702Z" fill="#A7A9AC"/>
<path d="M77.5847 92.4201C77.6692 92.4201 77.7536 92.3783 77.8099 92.3085C77.9224 92.1829 77.8943 92.0014 77.7677 91.8898L70.1274 85.4977C70.0008 85.386 69.8178 85.4139 69.7053 85.5396C69.5927 85.6652 69.6209 85.8466 69.7475 85.9583L77.3877 92.3503C77.444 92.3922 77.5144 92.4201 77.5847 92.4201Z" fill="#A7A9AC"/>
<path d="M112.113 78.6736L106.767 76.4824L109.721 81.4091C110.734 80.7252 111.565 79.7762 112.113 78.6736Z" fill="#A7A9AC"/>
<path d="M104.656 67.4392C104.6 67.3834 104.515 67.3555 104.431 67.3555C100.379 67.509 97.1987 70.7748 97.1987 74.7943C97.1987 78.8976 100.562 82.2471 104.712 82.2471C105.936 82.2471 107.147 81.954 108.216 81.3818C108.286 81.3399 108.343 81.2841 108.371 81.2004C108.399 81.1166 108.385 81.0329 108.343 80.9631L104.755 74.9758V74.9618V74.9478C104.755 74.9339 104.755 74.9339 104.755 74.9199V74.906V67.6486C104.755 67.5788 104.726 67.495 104.656 67.4392ZM107.667 81.005C106.753 81.4376 105.74 81.6609 104.726 81.6609C100.913 81.6609 97.8178 78.5905 97.8178 74.8083C97.8178 71.2075 100.576 68.2626 104.164 67.9835V74.9478C104.164 74.9618 104.164 74.9758 104.164 74.9897C104.164 75.0455 104.178 75.0874 104.178 75.1153C104.178 75.1293 104.192 75.1432 104.192 75.1572C104.206 75.213 104.234 75.2549 104.262 75.2968L107.667 81.005Z" fill="#A7A9AC"/>
<path d="M111.973 77.5013C112.015 77.5153 112.043 77.5292 112.085 77.5292C112.128 77.5292 112.17 77.5153 112.212 77.5013C112.282 77.4734 112.339 77.4036 112.367 77.3338C112.662 76.5243 112.817 75.673 112.817 74.8077C112.817 70.9278 109.764 67.6759 105.88 67.3828C105.796 67.3828 105.711 67.4107 105.655 67.4666C105.599 67.5224 105.557 67.6061 105.557 67.6899V74.6681C105.557 74.7937 105.627 74.8914 105.74 74.9473L111.973 77.5013ZM106.148 67.9969C109.581 68.4156 112.212 71.3465 112.212 74.7937C112.212 75.4916 112.113 76.1615 111.902 76.8174L106.148 74.4588V67.9969Z" fill="#A7A9AC"/>
<path d="M69.03 106C70.2119 106 71.3235 105.623 72.2662 104.911C74.5878 103.139 75.024 99.831 73.2371 97.5282C72.224 96.2302 70.6903 95.4766 69.03 95.4766C67.8481 95.4766 66.7365 95.8534 65.7938 96.5652C63.4721 98.3377 63.036 101.645 64.8229 103.948C65.836 105.26 67.3697 106 69.03 106ZM66.1596 97.0397C66.9898 96.3977 67.9888 96.0627 69.03 96.0627C70.5074 96.0627 71.8722 96.7327 72.7587 97.8771C74.3486 99.9147 73.9547 102.86 71.9004 104.437C71.0702 105.079 70.0712 105.414 69.03 105.414C67.5526 105.414 66.1877 104.744 65.3013 103.599C63.7113 101.548 64.0912 98.6168 66.1596 97.0397Z" fill="#A7A9AC"/>
<path d="M69.03 104.674C69.9165 104.674 70.7467 104.395 71.4502 103.851C73.1809 102.525 73.5045 100.055 72.1678 98.338C71.408 97.361 70.2683 96.8027 69.03 96.8027C68.1436 96.8027 67.3134 97.0819 66.6099 97.6262C64.8792 98.952 64.5556 101.422 65.8923 103.139C66.6521 104.116 67.7918 104.674 69.03 104.674ZM66.9758 98.1007C67.5667 97.6401 68.2843 97.4029 69.03 97.4029C70.0853 97.4029 71.0562 97.8774 71.7034 98.7008C72.8291 100.152 72.5617 102.26 71.0984 103.376C70.5075 103.837 69.7899 104.074 69.0441 104.074C67.9888 104.074 67.018 103.6 66.3707 102.776C65.231 101.325 65.5124 99.2172 66.9758 98.1007Z" fill="#A7A9AC"/>
<path d="M67.5245 100.849C67.82 101.226 68.2421 101.268 68.7627 101.114L69.4381 100.905C69.7336 100.807 70.0009 100.835 70.1416 101.017C70.3245 101.24 70.1838 101.533 69.9024 101.756C69.5366 102.035 69.0723 102.133 68.7205 102.189C68.6642 102.342 68.7205 102.622 68.8331 102.775C69.1004 102.761 69.5366 102.649 69.9446 102.412L70.2542 102.817C70.3105 102.789 70.423 102.705 70.4793 102.663C70.5356 102.622 70.6341 102.538 70.6904 102.482L70.3808 102.091C70.9155 101.603 71.014 101.003 70.6482 100.542C70.3245 100.137 69.818 100.081 69.3115 100.249L68.6502 100.444C68.3547 100.542 68.1718 100.57 68.0311 100.389C67.8622 100.179 67.9466 99.914 68.2281 99.6907C68.4672 99.5093 68.8471 99.3557 69.1989 99.272C69.2411 99.0906 69.1989 98.8533 69.0723 98.6858C68.7768 98.7556 68.425 98.8673 68.0733 99.0906L67.7497 98.6719C67.6793 98.6998 67.5808 98.7696 67.5105 98.8254C67.4542 98.8673 67.3557 98.951 67.3135 99.0068L67.6512 99.4395C67.2572 99.8861 67.2009 100.444 67.5245 100.849Z" fill="#A7A9AC"/>
<path d="M45.9258 98.5887L41.7188 103.46C41.9017 103.557 42.577 103.725 42.9429 103.711L47.1499 98.8399C46.953 98.7422 46.2776 98.5748 45.9258 98.5887Z" fill="#A7A9AC"/>
<path d="M42.7601 97.8354C42.3662 97.7516 42.0285 97.7935 41.7049 98.0028C41.2968 98.268 41.0998 98.7984 41.0013 99.3008C40.9028 99.8032 40.8606 100.375 41.142 100.78C41.3531 101.101 41.6486 101.255 42.0426 101.338C42.4365 101.422 42.7883 101.394 43.0978 101.171C43.5199 100.906 43.7029 100.375 43.8014 99.8591C43.8998 99.3566 43.9421 98.7984 43.6607 98.3936C43.4496 98.0866 43.1541 97.9191 42.7601 97.8354ZM42.7883 99.6497C42.6757 100.194 42.5491 100.627 42.1973 100.557C41.8596 100.487 41.9159 100.041 42.0285 99.4962C42.141 98.9519 42.2677 98.5332 42.6054 98.603C42.9431 98.6728 42.8868 99.1194 42.7883 99.6497Z" fill="#A7A9AC"/>
<path d="M45.771 101.129C45.3629 101.394 45.18 101.924 45.0674 102.427C44.969 102.929 44.9267 103.501 45.1941 103.892C45.4051 104.213 45.7006 104.367 46.0946 104.45C46.4886 104.534 46.8262 104.492 47.1358 104.283C47.5579 104.032 47.7408 103.487 47.8534 102.985C47.9519 102.482 47.9941 101.924 47.7127 101.519C47.5157 101.212 47.2061 101.045 46.8262 100.961C46.4323 100.891 46.0946 100.933 45.771 101.129ZM46.6715 101.729C47.0092 101.799 46.9529 102.245 46.8403 102.79C46.7278 103.334 46.6011 103.766 46.2634 103.697C45.9257 103.627 45.968 103.18 46.0805 102.636C46.2072 102.092 46.3338 101.659 46.6715 101.729Z" fill="#A7A9AC"/>
<path d="M52.3843 96.5518L51.526 96.3843C51.3853 96.3564 51.2446 96.4262 51.1883 96.5657C51.0898 96.803 51.0336 96.9705 50.9913 97.1938C50.9491 97.431 50.9351 97.5985 50.9351 97.8358C50.9351 97.9753 51.0336 98.087 51.1743 98.1149L52.2155 98.3103C52.2155 100.767 53.327 102.288 55.4376 102.693C55.7612 102.748 56.0989 102.79 56.4366 102.79C57.4356 102.79 58.4346 102.525 59.3492 102.023C59.4477 101.967 59.504 101.855 59.504 101.744C59.4758 101.241 59.2085 100.697 58.8427 100.348C58.7582 100.264 58.6175 100.25 58.505 100.306C57.703 100.697 56.7462 100.878 56.0567 100.739C55.0999 100.557 54.6215 99.9293 54.5512 98.7569L57.506 99.3291C57.6467 99.357 57.7733 99.2873 57.8296 99.1617C57.9281 98.9384 57.9844 98.7848 58.0266 98.5476C58.0688 98.3103 58.0829 98.1568 58.0829 97.8916C58.0829 97.752 57.9844 97.6264 57.8437 97.6125L54.6637 96.9984C54.6778 96.8867 54.7059 96.7611 54.7341 96.6495L54.8044 96.3145L57.9844 96.9286C58.1251 96.9565 58.2517 96.8867 58.308 96.7611C58.4065 96.5378 58.4628 96.3843 58.505 96.147C58.5472 95.9237 58.5613 95.7423 58.5613 95.4911C58.5613 95.3515 58.4628 95.2259 58.3221 95.212L55.3391 94.6397C55.7753 93.7326 56.3522 93.286 57.0839 93.286C57.2246 93.286 57.3653 93.2999 57.506 93.3278C58.1954 93.4674 58.9974 93.9698 59.6025 94.6397C59.6869 94.7374 59.8135 94.7653 59.9261 94.7235C60.3904 94.556 60.8547 94.1233 61.0799 93.6767C61.1362 93.579 61.1221 93.4534 61.0377 93.3557C60.1372 92.2811 58.913 91.5274 57.6607 91.2762C55.5502 90.8715 53.9321 91.8903 53.0034 94.1792L51.9622 93.9838C51.8215 93.9559 51.6808 94.0256 51.6245 94.1652C51.526 94.3885 51.4697 94.57 51.4275 94.7933C51.3853 95.0305 51.3712 95.198 51.3712 95.4353C51.3712 95.5748 51.4697 95.6865 51.6104 95.7144L52.4687 95.8819C52.4406 95.9935 52.4265 96.0912 52.3984 96.2029C52.4265 96.3006 52.4125 96.4262 52.3843 96.5518ZM53.1441 95.4632C53.1019 95.3934 53.0316 95.3376 52.9471 95.3236L52.0185 95.1422C52.0185 95.0584 52.0326 94.9747 52.0607 94.863C52.0748 94.7653 52.1029 94.6676 52.131 94.5839L53.1723 94.7793C53.313 94.8072 53.4537 94.7235 53.51 94.5839C54.312 92.3788 55.6768 91.4576 57.5763 91.8205C58.6316 92.0299 59.6728 92.6439 60.4608 93.5372C60.3341 93.7186 60.1372 93.914 59.912 94.0396C59.2366 93.3418 58.3924 92.8533 57.6326 92.6998C56.2818 92.4346 55.2688 93.1185 54.6497 94.7095C54.6215 94.7933 54.6215 94.877 54.6637 94.9607C54.7059 95.0445 54.7763 95.0863 54.8748 95.1143L57.9703 95.7144C57.9703 95.8121 57.9562 95.8958 57.9281 96.0075C57.914 96.1052 57.8859 96.1889 57.8577 96.2726L54.6356 95.6446C54.4667 95.6167 54.312 95.7144 54.2838 95.8819L54.1572 96.5099C54.115 96.7332 54.0728 96.9565 54.0446 97.1798C54.0306 97.3333 54.1291 97.4729 54.2838 97.5008L57.4919 98.1289C57.4919 98.2266 57.4778 98.3103 57.4497 98.422C57.4356 98.5197 57.4075 98.6034 57.3793 98.6871L54.2979 98.087C54.2135 98.073 54.115 98.087 54.0446 98.1428C53.9743 98.1987 53.9321 98.2824 53.9321 98.3661C53.918 100.041 54.5934 101.032 55.9301 101.283C56.1271 101.325 56.3381 101.339 56.5633 101.339C57.2105 101.339 57.8999 101.185 58.5613 100.892C58.7301 101.102 58.8286 101.353 58.8849 101.562C58.111 101.953 57.2808 102.148 56.4507 102.148C56.1411 102.148 55.8457 102.12 55.5642 102.065C53.6647 101.702 52.7642 100.376 52.8346 98.0312C52.8346 97.8916 52.7361 97.766 52.5954 97.7381L51.5542 97.5427C51.5542 97.459 51.5682 97.3752 51.5964 97.2636C51.6104 97.1519 51.6386 97.0682 51.6667 96.9844L52.5954 97.1659C52.6798 97.1798 52.7642 97.1659 52.8346 97.11C52.9049 97.0682 52.9471 96.9844 52.9612 96.9007C52.9893 96.7053 53.0316 96.482 53.0738 96.2587C53.116 96.0633 53.1441 95.8679 53.2004 95.6725C53.2004 95.6167 53.1863 95.533 53.1441 95.4632Z" fill="#A7A9AC"/>
<path d="M84.5493 84.6463C84.0146 86.1675 84.1553 87.619 84.9573 88.8472C85.9704 90.4243 87.8981 91.3873 89.277 91.5268C89.4318 91.5408 89.6006 91.5548 89.7695 91.5548C91.3031 91.5548 92.8087 90.9546 93.8077 89.9498C94.8489 88.903 95.3695 87.4655 95.3414 85.6791C95.3132 83.6693 93.1323 80.9199 92.5554 80.222L93.5966 78.4217C93.6388 78.3379 93.6529 78.2402 93.6107 78.1565C93.5685 78.0727 93.4981 78.003 93.3996 77.989L89.5584 77.1376C89.4599 77.1097 89.3614 77.1376 89.2911 77.2074C89.2207 77.2772 89.1785 77.3749 89.1926 77.4586L89.5162 79.901C88.686 80.3895 85.281 82.5667 84.5493 84.6463ZM89.9805 80.3058C90.079 80.25 90.1353 80.1243 90.1212 80.0127L89.8257 77.8076L92.8509 78.4775L91.9082 80.1104C91.8519 80.222 91.8519 80.3616 91.9363 80.4454C91.9645 80.4733 94.6941 83.6274 94.7223 85.6791C94.7363 87.312 94.2861 88.596 93.3574 89.5311C92.0348 90.8569 90.2619 90.9546 89.7413 90.9546C89.5865 90.9546 89.4458 90.9546 89.3051 90.9407C88.1091 90.8151 86.3363 89.9358 85.4357 88.5401C84.7322 87.4515 84.6196 86.2094 85.098 84.8556C85.8579 82.7342 89.9383 80.3337 89.9805 80.3058Z" fill="#A7A9AC"/>
<path d="M92.1334 80.5431C92.1475 80.5431 92.1616 80.5431 92.1897 80.5431C92.2038 80.5431 92.2178 80.5431 92.2319 80.5431L95.2993 80.0686C95.4681 80.0407 95.5807 79.8872 95.5525 79.7336C95.5244 79.5801 95.3696 79.4545 95.2148 79.4824L92.1897 79.943L89.9103 79.5522C89.7414 79.5243 89.5867 79.6359 89.5585 79.7895C89.5304 79.9569 89.6429 80.1105 89.7977 80.1384L92.1334 80.5431Z" fill="#A7A9AC"/>
<path d="M89.7696 87.4102C89.1224 87.2985 88.6018 86.9357 88.2078 86.6286C87.9967 86.7263 87.7575 87.0334 87.7153 87.2846C87.9827 87.5498 88.5173 87.8707 89.1505 88.0801L89.0239 88.7919C89.1083 88.8198 89.3053 88.8617 89.3897 88.8756C89.5023 88.8896 89.6711 88.9175 89.7837 88.9175L89.8963 88.2336C90.9093 88.3174 91.6269 87.8568 91.7676 87.0473C91.8943 86.3355 91.4581 85.7633 90.8108 85.4005L89.9807 84.9259C89.6008 84.7166 89.4038 84.5491 89.446 84.256C89.5164 83.8792 89.8681 83.7257 90.3465 83.8094C90.7686 83.8792 91.2752 84.1164 91.6973 84.3956C91.9224 84.27 92.1194 83.9908 92.1757 83.7117C91.838 83.4744 91.3737 83.2372 90.8249 83.0837L90.9515 82.3579C90.853 82.3161 90.6842 82.2742 90.5716 82.2602C90.4872 82.2463 90.2902 82.2184 90.1917 82.2323L90.0651 82.972C89.2068 82.972 88.6018 83.4465 88.4751 84.1583C88.3626 84.8143 88.7143 85.2888 89.3756 85.6656L90.2339 86.1401C90.6138 86.3495 90.8249 86.6565 90.7827 86.9636C90.6842 87.3544 90.2621 87.4939 89.7696 87.4102Z" fill="#A7A9AC"/>
<path d="M87.8701 3.29449L85.1967 7.27211L82.7906 5.69501L79.8921 9.7145L80.5393 10.1751L83.0017 6.78363L85.4077 8.37467L88.0952 4.39706L91.05 6.25328L92.6118 3.72714L93.3013 4.67619L93.8641 0.921875L90.7545 3.14097L91.9223 3.30844L90.7967 5.15071L87.8701 3.29449Z" fill="#A7A9AC"/>
<path d="M30.983 21.7157L44.4906 25.6793C44.6454 25.7212 44.8143 25.7491 44.9831 25.7491C45.7429 25.7491 46.4324 25.2467 46.6434 24.5209L50.1329 12.8114C50.4002 11.9042 49.8796 10.9412 48.965 10.676L35.4574 6.71236C35.3026 6.67049 35.1338 6.64258 34.9649 6.64258C34.2051 6.64258 33.5157 7.14501 33.3046 7.87076L29.8151 19.5803C29.6885 20.0269 29.7307 20.4875 29.9558 20.8922C30.181 21.283 30.5468 21.5761 30.983 21.7157ZM30.392 19.7478L33.8815 8.03823C34.0222 7.56371 34.4725 7.22875 34.9649 7.22875C35.0775 7.22875 35.176 7.24271 35.2886 7.27062L48.7962 11.2343C49.4012 11.4157 49.7389 12.0438 49.556 12.6299L46.0665 24.3395C45.9258 24.814 45.4756 25.149 44.9831 25.149C44.8705 25.149 44.772 25.135 44.6595 25.1071L31.1518 21.1434C30.8564 21.0597 30.6172 20.8643 30.4764 20.5991C30.3357 20.334 30.3076 20.0269 30.392 19.7478Z" fill="#A7A9AC"/>
<path d="M31.4475 20.0123L45.0395 24.0039C45.0677 24.0179 45.0958 24.0179 45.124 24.0179C45.2506 24.0179 45.3772 23.9341 45.4054 23.8085L48.0647 14.9043C48.1069 14.7507 48.0225 14.5832 47.8677 14.5414L34.2756 10.5498C34.1209 10.5079 33.952 10.5917 33.9098 10.7452L31.2505 19.6495C31.2223 19.7193 31.2364 19.803 31.2786 19.8728C31.3068 19.9426 31.3771 19.9984 31.4475 20.0123ZM34.3882 11.1918L47.4034 15.0159L44.9129 23.348L31.8977 19.5239L34.3882 11.1918Z" fill="#A7A9AC"/>
<path d="M38.5247 8.69416L39.0312 7.00542C39.186 6.47507 38.8905 5.91681 38.3418 5.76329C37.8071 5.60977 37.2443 5.90285 37.0895 6.44716L36.583 8.12195C36.4282 8.65229 36.7237 9.21056 37.2724 9.36408C37.793 9.53156 38.3558 9.22451 38.5247 8.69416Z" fill="#A7A9AC"/>
<path d="M47.2625 11.2625L47.769 9.57378C47.9238 9.04343 47.6283 8.48517 47.0796 8.33165C46.5449 8.17813 45.9821 8.47121 45.8273 9.01552L45.3207 10.7043C45.166 11.2346 45.4615 11.7929 46.0102 11.9464C46.5308 12.0999 47.0936 11.7929 47.2625 11.2625Z" fill="#A7A9AC"/>
<path d="M36.2033 17.85C36.1329 18.0872 36.0766 18.2966 36.0063 18.5338C35.8656 18.492 35.556 18.3943 35.4294 18.3524L34.4867 18.0733C34.4163 18.2128 34.36 18.3524 34.3178 18.5059C34.2756 18.6455 34.2475 18.785 34.2334 18.9525L38.0747 20.083C38.145 19.9574 38.2013 19.8039 38.2435 19.6643C38.2857 19.5108 38.3279 19.3573 38.342 19.2037L37.6385 18.9944C37.5118 18.9525 37.1882 18.8688 37.0334 18.8269C37.1038 18.5897 37.1741 18.3943 37.2445 18.157L38.736 13.1466C38.5671 13.0489 38.3983 12.9931 38.2576 12.9512C38.1169 12.9093 37.9339 12.8675 37.737 12.8535C37.2726 13.3839 36.4284 13.9142 35.2465 14.2352C35.2183 14.5143 35.3168 14.8074 35.5138 14.9889C36.0907 14.9191 36.7802 14.6958 37.3008 14.3329C37.1601 14.7516 36.9631 15.282 36.8787 15.5471L36.2033 17.85Z" fill="#A7A9AC"/>
<path d="M41.311 20.2363C40.7623 20.0689 40.3824 19.7479 40.0588 19.3431C39.8055 19.4269 39.51 19.706 39.3975 19.9153C39.7211 20.4178 40.312 20.8923 41.1141 21.1296C42.2819 21.4645 43.6749 21.0598 44.1533 19.4269C44.5472 18.1289 43.9563 17.0822 42.7181 16.7193C42.3945 16.6216 42.0708 16.6076 41.7613 16.6355L41.8739 16.3843L42.1271 15.6865L42.2819 15.1841L42.6759 15.2957L44.4347 15.8121C44.7442 15.8959 44.9553 15.7842 45.0397 15.4911C45.0679 15.3795 45.1101 15.198 45.096 15.0305L41.6347 14.0117L41.5362 14.0675L40.4809 17.0682C40.5231 17.2496 40.706 17.4869 40.8889 17.5706C41.3251 17.3892 41.7754 17.3613 42.1693 17.4729C42.7603 17.6404 43.3372 18.1429 43.0276 19.1617C42.7462 20.1666 41.9864 20.4457 41.311 20.2363Z" fill="#A7A9AC"/>
<path d="M3.17985 22.6649C3.06729 22.6928 2.98286 22.7765 2.95472 22.8882L1.82909 27.5636C1.78687 27.7171 1.88537 27.8846 2.05421 27.9265L9.42714 29.6571C9.45528 29.6571 9.46935 29.6711 9.4975 29.6711C9.55378 29.6711 9.61006 29.6571 9.65227 29.6292C9.72262 29.5873 9.76483 29.5175 9.79297 29.4477L10.9186 24.7723C10.9468 24.6606 10.9045 24.549 10.8201 24.4792C10.7357 24.4094 10.6091 24.3955 10.5106 24.4373L6.35978 26.2238L3.4894 22.7626C3.40498 22.6788 3.29242 22.6369 3.17985 22.6649ZM6.38792 26.8518L10.1869 25.2189L9.27237 29.0291L2.47633 27.4101L3.39091 23.6L6.03616 26.7681C6.12058 26.8658 6.26129 26.9077 6.38792 26.8518Z" fill="#A7A9AC"/>
<path d="M7.4293 21.0036L3.1378 22.6784C3.05338 22.7063 2.98303 22.79 2.95489 22.8738C2.92675 22.9575 2.95489 23.0692 3.01117 23.139L6.03632 26.7677C6.0926 26.8375 6.17703 26.8793 6.26145 26.8793C6.30366 26.8793 6.34587 26.8654 6.37401 26.8514L10.7218 24.9673C10.8062 24.9254 10.8766 24.8556 10.8906 24.7579C10.9047 24.6602 10.8906 24.5625 10.8203 24.4927L7.75292 21.0734C7.68257 20.9897 7.55593 20.9617 7.4293 21.0036ZM10.1168 24.5904L6.35994 26.2234L3.74283 23.0831L7.45744 21.6317L10.1168 24.5904Z" fill="#A7A9AC"/>
<path d="M23.2304 90.7455C23.3993 90.7455 23.5681 90.7176 23.737 90.6758L27.733 89.6569C28.2536 89.5174 28.6898 89.1964 28.9571 88.7358C29.2244 88.2752 29.3089 87.7449 29.1682 87.2285L28.1269 83.2648C27.9018 82.3856 27.0998 81.7715 26.1852 81.7715C26.0164 81.7715 25.8475 81.7994 25.6787 81.8413L21.6827 82.874C20.6133 83.1532 19.9661 84.2418 20.2475 85.3025L21.2887 89.2661C21.5138 90.1315 22.3158 90.7455 23.2304 90.7455ZM21.8374 83.4323L25.8335 82.3995C25.946 82.3716 26.0727 82.3577 26.1852 82.3577C26.8325 82.3577 27.3953 82.7903 27.55 83.4044L28.5913 87.3681C28.6898 87.7309 28.6335 88.1078 28.4365 88.4288C28.2395 88.7498 27.944 88.987 27.5782 89.0708L23.5822 90.1035C23.4696 90.1315 23.343 90.1454 23.2304 90.1454C22.5832 90.1454 22.0204 89.7128 21.8656 89.0987L20.8244 85.135C20.6274 84.3953 21.0917 83.6277 21.8374 83.4323Z" fill="#A7A9AC"/>
<path d="M22.71 86.3349C22.71 86.4744 22.7381 86.5861 22.7803 86.7396C22.8225 86.8931 22.8647 87.0187 22.921 87.1304L23.9482 86.8652C24.0889 86.8233 24.2436 86.7815 24.3843 86.7396C24.4266 86.8792 24.4547 87.0466 24.4828 87.1722L24.7783 88.2888C24.919 88.2748 25.0597 88.2609 25.2286 88.219C25.3693 88.1771 25.51 88.1353 25.6366 88.0794L25.3411 86.9629C25.313 86.8373 25.2567 86.6838 25.2145 86.5302C25.3552 86.4884 25.51 86.4605 25.6648 86.4186L26.6919 86.1534C26.6919 86.0278 26.6638 85.8882 26.6216 85.7347C26.5793 85.5812 26.5512 85.4835 26.4809 85.3439L25.4537 85.6091C25.313 85.651 25.1442 85.6929 25.0175 85.7347C24.9753 85.5952 24.9472 85.4277 24.905 85.2881L24.6095 84.1855C24.4828 84.1855 24.3281 84.2135 24.1733 84.2553C24.0185 84.2972 23.8919 84.3391 23.7512 84.3949L24.0467 85.4975C24.0748 85.637 24.1311 85.7906 24.1733 85.9301C24.0326 85.972 23.8637 85.9999 23.723 86.0418L22.71 86.3349Z" fill="#A7A9AC"/>
<path d="M32.3339 88.4001C32.5028 88.4001 32.6716 88.3722 32.8405 88.3304L36.8365 87.2976C37.3571 87.158 37.7933 86.837 38.0606 86.3764C38.3279 85.9159 38.4124 85.3855 38.2717 84.8691L37.2304 80.9055C37.0053 80.0262 36.2033 79.4121 35.2887 79.4121C35.1199 79.4121 34.951 79.44 34.7822 79.4819L30.7862 80.5147C29.7168 80.7938 29.0696 81.8824 29.351 82.9431L30.3922 86.9068C30.6173 87.786 31.4194 88.4001 32.3339 88.4001ZM30.955 81.0869L34.951 80.0541C35.0636 80.0262 35.1902 80.0122 35.3028 80.0122C35.95 80.0122 36.5129 80.4449 36.6676 81.059L37.7088 85.0226C37.8073 85.3855 37.7511 85.7623 37.5541 86.0833C37.3571 86.4043 37.0616 86.6416 36.6958 86.7254L32.6998 87.7581C32.5872 87.786 32.4606 87.8 32.348 87.8C31.7008 87.8 31.1379 87.3673 30.9832 86.7533L29.942 82.7896C29.745 82.0499 30.1952 81.2823 30.955 81.0869Z" fill="#A7A9AC"/>
<path d="M35.0356 84.0182C35.0356 83.8786 35.0074 83.7251 34.9793 83.6134C34.9512 83.4878 34.8949 83.3343 34.8245 83.2227L32.5732 83.7949C32.5732 83.9344 32.6014 84.088 32.6295 84.2136C32.6577 84.3252 32.7139 84.4787 32.7843 84.5904L35.0356 84.0182Z" fill="#A7A9AC"/>
<path d="M25.4956 99.4118C25.6645 99.4118 25.8333 99.3839 26.0022 99.3421L29.9982 98.3093C30.5188 98.1697 30.955 97.8487 31.2223 97.3881C31.4897 96.9276 31.5741 96.3972 31.4334 95.8808L30.4062 91.9172C30.1811 91.0379 29.3791 90.4238 28.4645 90.4238C28.2957 90.4238 28.1268 90.4517 27.958 90.4936L23.962 91.5264C22.8926 91.8055 22.2454 92.8941 22.5268 93.9548L23.568 97.9185C23.779 98.7977 24.5811 99.4118 25.4956 99.4118ZM24.1027 92.0986L28.0987 91.0658C28.2112 91.0379 28.3379 91.024 28.4504 91.024C29.0977 91.024 29.6605 91.4566 29.8153 92.0707L30.8424 96.0343C30.9409 96.3972 30.8846 96.7741 30.6877 97.0951C30.4907 97.4161 30.1952 97.6533 29.8294 97.737L25.8333 98.7698C25.7208 98.7978 25.5941 98.8117 25.4816 98.8117C24.8343 98.8117 24.2715 98.3791 24.1167 97.765L23.0755 93.8013C22.8926 93.0616 23.3569 92.294 24.1027 92.0986Z" fill="#A7A9AC"/>
<path d="M34.5992 97.0681C34.768 97.0681 34.9368 97.0402 35.1057 96.9983L39.1017 95.9655C40.1711 95.6864 40.8183 94.5978 40.5369 93.5371L39.4957 89.5734C39.2706 88.6942 38.4685 88.0801 37.554 88.0801C37.3851 88.0801 37.2163 88.108 37.0474 88.1499L33.0655 89.1826C32.5449 89.3222 32.1087 89.6432 31.8413 90.1038C31.574 90.5643 31.4896 91.0947 31.6303 91.6111L32.6715 95.5747C32.8826 96.454 33.6846 97.0681 34.5992 97.0681ZM32.3479 90.4108C32.5449 90.0898 32.8404 89.8526 33.2062 89.7688L37.2022 88.736C37.3148 88.7081 37.4414 88.6942 37.554 88.6942C38.2012 88.6942 38.764 89.1268 38.9188 89.7409L39.96 93.7046C40.157 94.4582 39.7067 95.2119 38.9469 95.4073L34.9509 96.4401C34.8384 96.468 34.7117 96.4819 34.5992 96.4819C33.9519 96.4819 33.3891 96.0493 33.2343 95.4352L32.1931 91.4715C32.1087 91.1087 32.165 90.7318 32.3479 90.4108Z" fill="#A7A9AC"/>
<path d="M37.5261 90.9815C37.4276 90.8698 37.315 90.7721 37.1884 90.6884C37.0618 90.6186 36.9211 90.5628 36.7804 90.5488L36.1331 91.6793C36.0768 91.777 36.0065 91.9166 35.9221 92.0282C35.8095 91.9584 35.6829 91.8747 35.5844 91.8049L34.4587 91.149C34.3462 91.2327 34.2477 91.3444 34.1773 91.47C34.0929 91.6095 34.0507 91.7351 34.0366 91.8747L35.1623 92.5307L35.5 92.74C35.4296 92.8517 35.3592 92.9633 35.303 93.075L34.6417 94.1915C34.7261 94.3171 34.8527 94.4008 34.9653 94.4706C35.0919 94.5404 35.2185 94.5962 35.3733 94.6241L36.0346 93.4937L36.2316 93.1587L36.5834 93.3541L37.709 94.01C37.8216 93.9263 37.9341 93.8147 38.0045 93.689C38.0748 93.5634 38.1171 93.4378 38.1452 93.2843L37.0196 92.6284C36.9211 92.5725 36.7804 92.5027 36.6678 92.4469C36.7382 92.3353 36.8226 92.2097 36.8789 92.098L37.5261 90.9815Z" fill="#A7A9AC"/>
<path d="M25.0455 95.4071C25.0736 95.5327 25.1299 95.6862 25.1862 95.7979L28.9711 94.8209C28.9711 94.6953 28.943 94.5418 28.9008 94.4162C28.8726 94.2906 28.8164 94.151 28.7601 94.0254L24.9751 95.0023C24.9751 95.1419 25.0032 95.2815 25.0455 95.4071Z" fill="#A7A9AC"/>
<path d="M26.6777 93.8151C26.8465 93.7732 27.0435 93.6755 27.1139 93.5917C27.142 93.494 27.1279 93.3126 27.0998 93.187C27.0717 93.0614 26.9872 92.9078 26.9169 92.8241C26.8043 92.7822 26.5792 92.7962 26.4244 92.8381C26.2556 92.8799 26.0727 92.9776 25.9882 93.0614C25.9742 93.173 25.9742 93.3405 26.0023 93.4661C26.0305 93.5917 26.1149 93.7453 26.1852 93.829C26.2978 93.8709 26.5089 93.8569 26.6777 93.8151Z" fill="#A7A9AC"/>
<path d="M27.2547 96.0354C27.0859 96.0772 26.903 96.1749 26.8186 96.2587C26.7904 96.3564 26.8045 96.5378 26.8326 96.6634C26.8608 96.803 26.9452 96.9425 27.0155 97.0263C27.1281 97.0681 27.3392 97.0542 27.508 97.0123C27.6769 96.9704 27.8739 96.8727 27.9442 96.789C27.9583 96.6774 27.9583 96.5099 27.9301 96.3843C27.902 96.2726 27.8176 96.1051 27.7472 96.0214C27.6487 95.9935 27.4236 95.9935 27.2547 96.0354Z" fill="#A7A9AC"/>
<path d="M89.812 61.0305L103.474 63.3193C103.573 63.3333 103.686 63.3472 103.784 63.3472C104.685 63.3472 105.458 62.7052 105.599 61.812L107.105 52.9496C107.273 51.9587 106.598 51.0097 105.585 50.8422L91.9226 48.5533C91.8241 48.5393 91.7115 48.5254 91.613 48.5254C90.7125 48.5254 89.9387 49.1674 89.798 50.0606L88.2924 58.923C88.208 59.4115 88.3206 59.886 88.616 60.2908C88.8974 60.6955 89.3336 60.9607 89.812 61.0305ZM88.8834 59.0207L90.3889 50.1583C90.4874 49.5582 91.008 49.1255 91.6271 49.1255C91.6975 49.1255 91.7678 49.1255 91.8382 49.1395L105.501 51.4284C106.176 51.54 106.64 52.182 106.528 52.8519L105.022 61.7143C104.924 62.3145 104.403 62.7471 103.784 62.7471C103.714 62.7471 103.643 62.7471 103.573 62.7332L89.9105 60.4443C89.5869 60.3885 89.2914 60.207 89.0944 59.9419C88.9115 59.6767 88.8412 59.3417 88.8834 59.0207Z" fill="#A7A9AC"/>
<path d="M100.773 50.6334L102.222 50.8707C102.236 50.8707 102.251 50.8707 102.279 50.8707C102.349 50.8707 102.405 50.8428 102.462 50.8149C102.532 50.759 102.574 50.6892 102.574 50.6055C102.785 48.6097 101.378 46.7814 99.3801 46.4465C99.1691 46.4046 98.9439 46.3906 98.7329 46.3906C96.9459 46.3906 95.3982 47.6048 94.9901 49.3355C94.9761 49.4192 94.9901 49.5029 95.0324 49.5727C95.0746 49.6425 95.1449 49.6844 95.2293 49.6983L96.6786 49.9356C96.8334 49.9635 96.9741 49.8658 97.0163 49.7262C97.2414 48.9586 97.9449 48.4283 98.747 48.4283C98.8454 48.4283 98.9439 48.4422 99.0424 48.4562C99.9429 48.6097 100.59 49.4052 100.534 50.3124C100.506 50.4659 100.618 50.6055 100.773 50.6334ZM99.1269 47.884C99.0002 47.8561 98.8595 47.8561 98.7329 47.8561C97.762 47.8561 96.8897 48.4422 96.5238 49.3215L95.6655 49.1819C96.1158 47.884 97.3399 47.0047 98.747 47.0047C98.9299 47.0047 99.1128 47.0187 99.2957 47.0466C100.872 47.3118 102.011 48.6795 102.011 50.2426L101.153 50.1031C101.055 48.9865 100.238 48.0654 99.1269 47.884Z" fill="#A7A9AC"/>
<path d="M105.529 59.5511C105.543 59.5511 105.557 59.5511 105.585 59.5511C105.726 59.5511 105.853 59.4534 105.881 59.2999C105.909 59.1324 105.796 58.9789 105.642 58.9649L89.1228 56.2016C88.9539 56.1736 88.7992 56.2853 88.7851 56.4388C88.7569 56.6063 88.8695 56.7598 89.0243 56.7738L105.529 59.5511Z" fill="#A7A9AC"/>
<path d="M92.4573 58.7139C92.8512 58.7837 93.2171 58.5185 93.2874 58.1278L93.4422 57.2206L91.1909 56.8438L91.0361 57.7509C90.9658 58.1417 91.2331 58.5046 91.6271 58.5744L92.4573 58.7139Z" fill="#A7A9AC"/>
<path d="M102.419 60.3761C102.813 60.4458 103.179 60.1807 103.249 59.7899L103.404 58.8827L101.153 58.5059L100.998 59.413C100.928 59.8038 101.195 60.1667 101.589 60.2365L102.419 60.3761Z" fill="#A7A9AC"/>
<path d="M17.4333 74.3472C17.4755 74.3611 17.5177 74.3751 17.5459 74.3751C17.5881 74.3751 17.6162 74.3611 17.6584 74.3472L33.4033 68.1086C33.4736 68.0807 33.5299 68.0249 33.5721 67.9551C33.6003 67.8853 33.6003 67.8016 33.5721 67.7318L30.5188 60.1534C30.4626 59.9999 30.2796 59.9301 30.1249 59.9859L14.38 66.2384C14.2252 66.2943 14.1549 66.4757 14.2111 66.6292L17.2644 74.2076C17.3067 74.2634 17.3629 74.3193 17.4333 74.3472ZM30.0686 60.6419L32.8968 67.662L17.7288 73.6912L14.9006 66.6711L30.0686 60.6419Z" fill="#A7A9AC"/>
<path d="M28.6191 66.3496C29.1257 66.1403 29.3789 65.568 29.1679 65.0656C28.9568 64.5632 28.3799 64.312 27.8734 64.5213C27.3669 64.7307 27.1136 65.3029 27.3246 65.8053C27.5357 66.3077 28.1126 66.559 28.6191 66.3496Z" fill="#A7A9AC"/>
<path d="M16.5045 67.8018C16.4905 67.8157 16.4623 67.8157 16.4483 67.8157H16.4201C16.3357 67.8436 16.2653 67.8995 16.2231 67.9692C16.1809 68.039 16.1809 68.1367 16.2091 68.2205L17.602 71.6817C17.6302 71.7654 17.7005 71.8213 17.785 71.8492C17.8694 71.8771 17.9538 71.8771 18.0242 71.8352L18.0523 71.8213C18.0664 71.8073 18.0804 71.8073 18.1086 71.7934C18.193 71.7654 18.2774 71.7375 18.3619 71.7375C18.6433 71.7375 18.8965 71.905 19.0091 72.1562C19.0513 72.2679 19.1639 72.3377 19.2905 72.3377C19.3327 72.3377 19.3609 72.3377 19.4031 72.3097L30.7579 67.8018C30.9127 67.7459 30.9831 67.5785 30.9268 67.4249C30.8002 67.076 30.969 66.6852 31.3208 66.5457C31.3348 66.5317 31.363 66.5317 31.3771 66.5317L31.4052 66.5178C31.4896 66.4899 31.56 66.434 31.6022 66.3642C31.6444 66.2945 31.6444 66.1968 31.6162 66.113L30.2233 62.6518C30.1951 62.568 30.1248 62.5122 30.0404 62.4843C29.9559 62.4564 29.8715 62.4564 29.8012 62.4983L29.773 62.5122C29.7589 62.5262 29.7449 62.5262 29.7167 62.5401C29.6323 62.568 29.5479 62.596 29.4635 62.596C29.1821 62.596 28.9288 62.4285 28.8162 62.1773C28.8162 62.1633 28.8162 62.1493 28.8022 62.1493C28.774 62.0796 28.7177 62.0098 28.6474 61.9819C28.577 61.954 28.4926 61.954 28.4082 61.9819L17.0533 66.4898C16.9829 66.5178 16.9126 66.5736 16.8844 66.6573C16.8563 66.7271 16.8563 66.8108 16.8844 66.8946C16.8844 66.9085 16.8985 66.9085 16.8985 66.9225C17.0252 67.2714 16.8563 67.6622 16.5045 67.8018ZM17.5176 66.9504L28.366 62.6518C28.6052 63.0007 28.9991 63.224 29.4353 63.224C29.5479 63.224 29.6464 63.2101 29.7449 63.1821L30.9268 66.0991C30.4625 66.3642 30.2092 66.8667 30.2796 67.3831L19.4171 71.6817C19.1779 71.3607 18.784 71.1513 18.3759 71.1513C18.2634 71.1513 18.1649 71.1653 18.0664 71.1932L16.8844 68.2763C17.3628 68.0111 17.6161 67.4808 17.5176 66.9504Z" fill="#A7A9AC"/>
<path d="M19.8252 69.8398C20.3317 69.6305 20.585 69.0583 20.3739 68.5558C20.1629 68.0534 19.586 67.8022 19.0794 68.0115C18.5729 68.2209 18.3196 68.7931 18.5307 69.2955C18.7277 69.798 19.3186 70.0492 19.8252 69.8398Z" fill="#A7A9AC"/>
<path d="M24.7361 69.2243C25.8899 68.7638 26.4527 67.4658 25.9884 66.3353C25.524 65.1909 24.2155 64.6326 23.0758 65.0932C21.922 65.5538 21.3592 66.8517 21.8235 67.9822C22.2738 69.1266 23.5823 69.6849 24.7361 69.2243ZM23.2728 66.112L23.1321 65.7771C23.1743 65.7491 23.2587 65.7073 23.2868 65.6933C23.3431 65.6794 23.4135 65.6514 23.4698 65.6375L23.5964 65.9585C23.8637 65.8887 24.1029 65.8748 24.2999 65.8748C24.3562 66.0004 24.3421 66.1678 24.2718 66.2655C24.0326 66.2516 23.7652 66.2795 23.5682 66.3632C23.3572 66.447 23.2446 66.6005 23.315 66.768C23.3713 66.9075 23.4979 66.9215 23.6949 66.9075L24.1451 66.8936C24.4969 66.8796 24.8205 67.0052 24.9472 67.3262C25.0879 67.6891 24.919 68.052 24.4828 68.2753L24.6095 68.5823C24.5673 68.6102 24.4969 68.6382 24.4406 68.6661C24.3984 68.68 24.314 68.7079 24.2718 68.7219L24.1451 68.4009C23.8356 68.4707 23.5401 68.4707 23.3572 68.4288C23.315 68.3172 23.3291 68.1218 23.3994 68.038C23.6386 68.0659 23.9482 68.0799 24.2296 67.9682C24.4547 67.8845 24.5954 67.717 24.511 67.5356C24.4547 67.396 24.2999 67.3262 24.0889 67.3262L23.6245 67.3402C23.2587 67.3542 23.0054 67.2425 22.8788 66.9494C22.7944 66.6703 22.921 66.3214 23.2728 66.112Z" fill="#A7A9AC"/>
<path d="M6.8522 51.6951L5.43108 59.7341C5.40294 59.9016 5.51551 60.0551 5.67028 60.083L22.3719 62.972C22.386 62.972 22.4001 62.972 22.4282 62.972C22.5689 62.972 22.6956 62.8743 22.7237 62.7208L24.1448 54.6818C24.1589 54.5981 24.1448 54.5283 24.0885 54.4585C24.0463 54.3887 23.976 54.3469 23.8916 54.3329L7.20396 51.4579C7.03512 51.4299 6.88034 51.5276 6.8522 51.6951ZM7.38688 52.0859L23.4976 54.8772L22.189 62.33L6.07833 59.5387L7.38688 52.0859Z" fill="#A7A9AC"/>
<path d="M20.3882 58.1857C20.4867 57.6414 20.1209 57.139 19.5722 57.0413C19.0234 56.9436 18.5169 57.3065 18.4184 57.8508C18.3199 58.3951 18.6857 58.8975 19.2345 58.9952C19.7832 59.079 20.3038 58.7161 20.3882 58.1857Z" fill="#A7A9AC"/>
<path d="M8.96257 53.3564C8.89221 53.6774 8.6108 53.9147 8.27311 53.9147C8.2309 53.9147 8.18869 53.9147 8.14648 53.9007C8.13241 53.9007 8.10427 53.8868 8.0902 53.8868L8.06206 53.8728C7.97763 53.8449 7.89321 53.8589 7.82286 53.9007C7.7525 53.9426 7.69622 54.0124 7.68215 54.0961L7.03491 57.7807C7.02084 57.8644 7.04898 57.9481 7.09119 58.0179C7.14747 58.0877 7.2319 58.1296 7.31632 58.1296H7.34446C7.35853 58.1296 7.38667 58.1296 7.40074 58.1296C7.78065 58.1994 8.01984 58.5343 7.96356 58.9111C7.93542 59.0647 8.04798 59.2182 8.20276 59.2461L20.2471 61.3256C20.2612 61.3256 20.2752 61.3256 20.3034 61.3256C20.4441 61.3256 20.5707 61.2279 20.5989 61.0884C20.6692 60.7255 21.035 60.4743 21.4009 60.544C21.4149 60.544 21.4431 60.558 21.4572 60.558L21.4853 60.572C21.5697 60.5999 21.6541 60.5859 21.7245 60.544C21.7948 60.5022 21.8511 60.4324 21.8652 60.3487L22.5124 56.6641C22.5265 56.5804 22.4984 56.4967 22.4562 56.4269C22.3999 56.3571 22.3295 56.3152 22.231 56.3152H22.2029C22.1888 56.3152 22.1607 56.3152 22.1466 56.3152C21.7667 56.2454 21.5134 55.8965 21.5697 55.5337C21.5697 55.5197 21.5697 55.5057 21.5838 55.5057C21.5979 55.422 21.5838 55.3522 21.5416 55.2824C21.4994 55.2127 21.429 55.1708 21.3446 55.1568L9.30026 53.0773C9.21583 53.0633 9.14548 53.0773 9.07513 53.1331C9.00478 53.175 8.96257 53.2448 8.9485 53.3285C8.96257 53.3425 8.96257 53.3425 8.96257 53.3564ZM9.48317 53.7053L20.9928 55.7011C21.021 56.2315 21.3727 56.706 21.8933 56.8735L21.3446 59.9718C20.8099 59.9579 20.3315 60.2649 20.1205 60.7255L8.58266 58.7297C8.54045 58.2133 8.18869 57.7667 7.68215 57.6132L8.2309 54.5148C8.77965 54.5288 9.28619 54.1938 9.48317 53.7053Z" fill="#A7A9AC"/>
<path d="M9.90535 57.376C10.4541 57.4737 10.9606 57.1109 11.0591 56.5666C11.1576 56.0223 10.7918 55.5198 10.243 55.4221C9.6943 55.3244 9.18776 55.6873 9.08926 56.2316C8.99077 56.762 9.3566 57.2784 9.90535 57.376Z" fill="#A7A9AC"/>
<path d="M16.9972 57.5993C17.2082 56.3851 16.3921 55.2406 15.168 55.0173C13.9439 54.808 12.7901 55.6175 12.565 56.8317C12.3539 58.0459 13.17 59.1903 14.3941 59.4136C15.6183 59.623 16.7861 58.8135 16.9972 57.5993ZM13.6906 58.0599C13.7187 57.9342 13.8313 57.7947 13.9298 57.7389C14.1127 57.8924 14.366 58.0599 14.6755 58.1157C14.9147 58.1576 15.1117 58.0878 15.1539 57.9063C15.1821 57.7528 15.0836 57.6133 14.9007 57.5156L14.4926 57.2783C14.1831 57.0969 14.0142 56.8596 14.0705 56.5526C14.1268 56.2176 14.4223 55.9803 14.8303 55.9943L14.8866 55.6454C14.9288 55.6454 15.0273 55.6454 15.0695 55.6593C15.1258 55.6733 15.2102 55.6872 15.2524 55.7152L15.1961 56.0641C15.4635 56.1339 15.6745 56.2595 15.8434 56.3711C15.8152 56.5107 15.7308 56.6363 15.6183 56.6921C15.4213 56.5526 15.168 56.4409 14.971 56.413C14.7459 56.3711 14.577 56.4549 14.5348 56.6223C14.5067 56.7619 14.6052 56.8456 14.7881 56.9433L15.1821 57.1666C15.4916 57.3341 15.6886 57.6133 15.6323 57.9482C15.562 58.339 15.2243 58.5623 14.7459 58.5204L14.6896 58.8414C14.6333 58.8414 14.563 58.8275 14.5067 58.8275C14.4645 58.8135 14.366 58.7996 14.3238 58.7856L14.3801 58.4506C14.0705 58.339 13.8172 58.1855 13.6906 58.0599Z" fill="#A7A9AC"/>
<path d="M70.0706 28.0531C70.0988 28.067 70.1269 28.067 70.1691 28.067C70.2114 28.067 70.2676 28.0531 70.3098 28.0391C70.3802 27.9973 70.4365 27.9414 70.4646 27.8717L75.8114 11.9054C75.8677 11.7518 75.7833 11.5844 75.6285 11.5285L67.8194 8.96053C67.749 8.93261 67.6646 8.94657 67.5942 8.97448C67.5239 9.01635 67.4676 9.07218 67.4395 9.14196L62.0927 25.1083C62.0364 25.2618 62.1208 25.4293 62.2756 25.4851L70.0706 28.0531ZM67.8897 9.61649L75.136 11.9891L69.9862 27.3832L62.7399 24.9966L67.8897 9.61649Z" fill="#A7A9AC"/>
<path d="M71.365 14.4043C71.5338 13.8879 71.2524 13.3296 70.7318 13.1482C70.2112 12.9807 69.6484 13.2598 69.4655 13.7762C69.2966 14.2926 69.578 14.8509 70.0987 15.0323C70.6193 15.1998 71.1821 14.9207 71.365 14.4043Z" fill="#A7A9AC"/>
<path d="M73.279 12.4496L73.2931 12.4217C73.3353 12.338 73.3353 12.2542 73.2931 12.1844C73.2649 12.1007 73.1946 12.0449 73.1101 12.017L69.5363 10.8446C69.4518 10.8167 69.3674 10.8306 69.2971 10.8725C69.2267 10.9144 69.1704 10.9842 69.1563 11.0679V11.0958C69.1563 11.1098 69.1563 11.1377 69.1423 11.1516C69.0438 11.4308 68.7764 11.6262 68.481 11.6262C68.4106 11.6262 68.3403 11.6122 68.2699 11.5983C68.2558 11.5983 68.2418 11.5843 68.2418 11.5843C68.1714 11.5564 68.087 11.5564 68.0166 11.5983C67.9463 11.6401 67.89 11.696 67.8619 11.7657L64.0065 23.2659C63.9784 23.3357 63.9925 23.4195 64.0206 23.4892C64.0628 23.559 64.1191 23.6148 64.2035 23.6428C64.2176 23.6428 64.2317 23.6428 64.2317 23.6567C64.4005 23.7125 64.5412 23.8381 64.6257 24.0056C64.7101 24.1731 64.7241 24.3545 64.6679 24.536C64.6679 24.5499 64.6538 24.5639 64.6397 24.5918L64.6257 24.6197C64.5834 24.7035 64.5834 24.7872 64.6257 24.8709C64.6538 24.9547 64.7241 25.0105 64.8086 25.0384L68.3825 26.2108C68.4106 26.2247 68.4388 26.2247 68.481 26.2247C68.5372 26.2247 68.5795 26.2108 68.6357 26.1828C68.7061 26.141 68.7624 26.0712 68.7764 25.9875V25.9595C68.7764 25.9456 68.7764 25.9177 68.7905 25.9037C68.889 25.6246 69.1563 25.4292 69.4518 25.4292C69.5222 25.4292 69.5925 25.4431 69.6629 25.4571C69.8177 25.499 69.9865 25.4152 70.0287 25.2617L73.87 13.7336C73.9262 13.5801 73.8418 13.4126 73.687 13.3568C73.3212 13.2312 73.1383 12.8404 73.2649 12.4915C73.2649 12.4775 73.2649 12.4636 73.279 12.4496ZM69.5222 24.8151C69.494 24.8151 69.4659 24.8151 69.4378 24.8151C68.9312 24.8151 68.495 25.0942 68.2699 25.5269L65.2729 24.536C65.3292 24.2568 65.287 23.9777 65.1603 23.7265C65.0478 23.5032 64.8789 23.3218 64.6679 23.1961L68.3543 12.1984C68.3965 12.1984 68.4528 12.2123 68.495 12.2123C69.0016 12.2123 69.4378 11.9332 69.6629 11.4866L72.6599 12.4775C72.5614 12.9939 72.7865 13.5103 73.2368 13.7894L69.5222 24.8151Z" fill="#A7A9AC"/>
<path d="M68.368 23.3222C68.5368 22.8059 68.2554 22.2476 67.7348 22.0662C67.2142 21.8987 66.6513 22.1778 66.4684 22.6942C66.2996 23.2106 66.581 23.7689 67.1016 23.9503C67.6363 24.1178 68.1991 23.8386 68.368 23.3222Z" fill="#A7A9AC"/>
<path d="M71.0694 19.2048C71.4634 18.0324 70.8302 16.7763 69.6483 16.3855C68.4663 15.9948 67.2 16.6228 66.806 17.7952C66.4121 18.9675 67.0593 20.2236 68.2272 20.6144C69.4091 21.0052 70.6754 20.3632 71.0694 19.2048ZM67.7206 18.2976L67.3829 18.1859C67.3829 18.1441 67.4111 18.0464 67.4251 18.0045C67.4392 17.9487 67.4673 17.8789 67.4955 17.837L67.8332 17.9487C67.9457 17.6975 68.1005 17.5021 68.2272 17.3625C68.3538 17.4044 68.4663 17.516 68.5226 17.6277C68.3538 17.8091 68.2131 18.0324 68.1427 18.2138C68.0724 18.4372 68.1146 18.6186 68.2975 18.6744C68.4382 18.7163 68.5367 18.6325 68.6633 18.479L68.9447 18.1301C69.1558 17.851 69.4654 17.6975 69.789 17.7952C70.1689 17.9208 70.3377 18.2836 70.2252 18.7582L70.5488 18.8698C70.5488 18.9117 70.5206 18.9954 70.5066 19.0512C70.4925 19.0931 70.4644 19.1768 70.4362 19.2187L70.1126 19.1071C69.9719 19.3862 69.7749 19.6095 69.6342 19.7212C69.5216 19.6793 69.3809 19.5537 69.3528 19.442C69.5216 19.2885 69.7468 19.0652 69.8453 18.7721C69.9156 18.5488 69.8875 18.3395 69.7045 18.2697C69.5638 18.2278 69.395 18.2976 69.2684 18.4651L68.9729 18.8279C68.7478 19.1071 68.4945 19.2327 68.1849 19.135C67.8332 19.0233 67.6503 18.7023 67.7206 18.2976Z" fill="#A7A9AC"/>
<path d="M21.5 27.5218C20.8809 27.5218 20.3322 27.2706 19.9382 27.0473C19.7553 27.1729 19.5864 27.4939 19.5864 27.7311C19.8819 27.9265 20.4166 28.1498 21.0357 28.2336V28.9035C21.1201 28.9175 21.303 28.9314 21.3874 28.9314C21.4859 28.9314 21.6548 28.9175 21.7533 28.9035V28.2475C22.7101 28.1638 23.287 27.6334 23.287 26.8519C23.287 26.168 22.7945 25.7214 22.1473 25.4841L21.303 25.1771C20.9231 25.0515 20.7121 24.9259 20.7121 24.6328C20.7121 24.2839 21.0216 24.0745 21.4719 24.0745C21.8658 24.0745 22.3864 24.2141 22.8086 24.4095C23.0056 24.256 23.1322 23.9768 23.1322 23.6977C22.7804 23.5302 22.3161 23.3767 21.7814 23.3348V22.651C21.6829 22.623 21.5282 22.623 21.4156 22.623C21.3312 22.623 21.1482 22.637 21.0638 22.651V23.3627C20.2759 23.4884 19.7834 24.0187 19.7834 24.7026C19.7834 25.3167 20.1774 25.7074 20.8528 25.9587L21.7251 26.2657C22.1191 26.4053 22.3583 26.6425 22.3583 26.9496C22.3442 27.3264 21.9643 27.5218 21.5 27.5218Z" fill="#A7A9AC"/>
<path d="M24.8348 29.4068C26.7343 27.5227 26.7343 24.4522 24.8348 22.5681C23.9202 21.6609 22.682 21.1445 21.3875 21.1445C20.079 21.1445 18.8548 21.647 17.9403 22.5681C16.0407 24.4522 16.0407 27.5227 17.9403 29.4068C18.8548 30.314 20.093 30.8304 21.3875 30.8304C22.682 30.8304 23.9061 30.3279 24.8348 29.4068ZM18.3483 22.9868C19.1503 22.1913 20.2337 21.7447 21.3735 21.7447C22.5132 21.7447 23.5966 22.1913 24.3986 22.9868C26.073 24.6476 26.073 27.3412 24.3986 28.9881C23.5966 29.7836 22.5132 30.2302 21.3735 30.2302C20.2337 30.2302 19.1503 29.7836 18.3483 28.9881C16.688 27.3412 16.688 24.6476 18.3483 22.9868Z" fill="#A7A9AC"/>
<path d="M29.7451 36.6641C30.2094 36.6641 30.6456 36.4827 30.9833 36.1617L31.6446 35.5057C31.9682 35.1847 32.1511 34.752 32.1511 34.2775C32.1511 33.817 31.9682 33.3843 31.6446 33.0493L27.339 28.7786C27.2687 28.7089 27.1702 28.6809 27.0858 28.6949C26.9873 28.7089 26.9169 28.7647 26.8606 28.8484C26.5792 29.3927 26.1993 29.8812 25.7631 30.3139C25.327 30.7465 24.8204 31.1094 24.2857 31.4025C24.2013 31.4443 24.145 31.5281 24.131 31.6258C24.1169 31.7235 24.145 31.8072 24.2154 31.877L28.5209 36.1477C28.8446 36.4827 29.2808 36.6641 29.7451 36.6641ZM26.1712 30.7465C26.5511 30.3697 26.8888 29.937 27.1702 29.4765L31.2084 33.482C31.4195 33.6913 31.5461 33.9844 31.5461 34.2775C31.5461 34.5706 31.4335 34.8637 31.2084 35.073L30.5471 35.729C30.336 35.9384 30.0406 36.064 29.7451 36.064C29.4355 36.064 29.1541 35.9523 28.9431 35.729L24.9048 31.7374C25.3692 31.4583 25.7913 31.1373 26.1712 30.7465Z" fill="#A7A9AC"/>
<path d="M21.3733 32.7139C22.4848 32.7139 23.5823 32.4487 24.5532 31.9323C25.1442 31.6253 25.6929 31.2205 26.1713 30.746C26.6497 30.2715 27.0578 29.7272 27.3673 29.141C28.7744 26.5172 28.2819 23.3351 26.1713 21.2276C24.8909 19.9576 23.1884 19.2598 21.3733 19.2598C19.5582 19.2598 17.8557 19.9576 16.5752 21.2276C13.93 23.8515 13.93 28.1222 16.5752 30.746C17.8557 32.0161 19.5723 32.7139 21.3733 32.7139ZM16.9974 21.6463C18.1652 20.4879 19.727 19.8459 21.3733 19.8459C23.0195 19.8459 24.5814 20.4879 25.7492 21.6463C27.6769 23.5723 28.1271 26.4613 26.8467 28.8619C26.5653 29.4062 26.1854 29.8947 25.7492 30.3273C25.313 30.76 24.8065 31.1228 24.2718 31.4159C23.3854 31.8765 22.3864 32.1277 21.3733 32.1277C19.727 32.1277 18.1652 31.4857 16.9974 30.3273C14.5913 27.9407 14.5913 24.0469 16.9974 21.6463Z" fill="#A7A9AC"/>
<path d="M81.5745 81.7981C95.4928 67.9925 95.4928 45.6091 81.5745 31.8034C67.6561 17.9978 45.09 17.9978 31.1716 31.8034C17.2533 45.6091 17.2533 67.9925 31.1716 81.7981C45.09 95.6038 67.6561 95.6038 81.5745 81.7981Z" fill="#8E363D"/>
<path d="M56.3801 91.1087C76.2037 91.1087 92.2739 75.1686 92.2739 55.5055C92.2739 35.8424 76.2037 19.9023 56.3801 19.9023C36.5565 19.9023 20.4863 35.8424 20.4863 55.5055C20.4863 75.1686 36.5565 91.1087 56.3801 91.1087Z" fill="url(#paint0_linear)"/>
<path d="M75.7497 74.7163C86.4481 64.1045 86.4481 46.8994 75.7497 36.2876C65.0513 25.6759 47.7058 25.6759 37.0074 36.2876C26.309 46.8994 26.309 64.1045 37.0074 74.7163C47.7058 85.328 65.0513 85.328 75.7497 74.7163Z" fill="white"/>
<g opacity="0.5">
<path opacity="0.5" d="M45.2506 81.618C48.7682 83.0974 52.511 83.8511 56.3663 83.8511C60.2216 83.8511 63.9644 83.0974 67.482 81.618C70.887 80.1945 73.9403 78.1429 76.5574 75.547C79.1745 72.951 81.2429 69.9085 82.6781 66.545C84.1696 63.0558 84.9294 59.3434 84.9294 55.5193C84.9294 51.6952 84.1696 47.9828 82.6781 44.4936C81.2429 41.1161 79.1745 38.0876 76.5574 35.4916C73.9403 32.8957 70.873 30.8441 67.482 29.4205C63.9644 27.9412 60.2216 27.1875 56.3663 27.1875C52.511 27.1875 48.7682 27.9412 45.2506 29.4205C41.8456 30.8441 38.7923 32.8957 36.1752 35.4916C33.5581 38.0876 31.4897 41.1301 30.0545 44.4936C28.563 47.9828 27.8032 51.6952 27.8032 55.5193C27.8032 59.3434 28.563 63.0558 30.0545 66.545C31.4897 69.9225 33.5581 72.951 36.1752 75.547C38.8063 78.1429 41.8596 80.1805 45.2506 81.618ZM28.9851 55.5053C28.9851 40.5021 41.2405 28.3319 56.3804 28.3319C71.5061 28.3319 83.7756 40.5021 83.7756 55.5053C83.7756 70.5086 71.5061 82.6788 56.3804 82.6788C41.2405 82.6788 28.9851 70.5086 28.9851 55.5053Z" fill="#EC352B"/>
</g>
<path d="M56.3801 76.216C67.9121 76.216 77.2607 66.9431 77.2607 55.5045C77.2607 44.0658 67.9121 34.793 56.3801 34.793C44.8481 34.793 35.4995 44.0658 35.4995 55.5045C35.4995 66.9431 44.8481 76.216 56.3801 76.216Z" fill="url(#paint1_linear)"/>
<path d="M70.0147 55.5044C70.0147 48.0376 63.9081 41.9805 56.3804 41.9805C48.8527 41.9805 42.7461 48.0376 42.7461 55.5044C42.7461 62.9711 48.8527 69.0282 56.3804 69.0282C63.9081 69.0282 70.0147 62.9711 70.0147 55.5044Z" fill="white"/>
<g opacity="0.5">
<path opacity="0.5" d="M71.1824 55.5046C71.1824 47.4098 64.5411 40.8223 56.3803 40.8223C48.2194 40.8223 41.5781 47.4098 41.5781 55.5046C41.5781 63.5994 48.2194 70.1868 56.3803 70.1868C64.5411 70.1868 71.1824 63.5994 71.1824 55.5046ZM42.746 55.5046C42.746 48.0378 48.8526 41.9807 56.3803 41.9807C63.908 41.9807 70.0146 48.0378 70.0146 55.5046C70.0146 62.9713 63.908 69.0285 56.3803 69.0285C48.8526 69.0285 42.746 62.9713 42.746 55.5046Z" fill="#EC352B"/>
</g>
<path d="M64.7525 55.5056C64.7525 50.9139 60.9957 47.1875 56.3665 47.1875C51.7373 47.1875 47.9805 50.9139 47.9805 55.5056C47.9805 60.0973 51.7373 63.8237 56.3665 63.8237C61.0097 63.8237 64.7525 60.0973 64.7525 55.5056Z" fill="url(#paint2_linear)"/>
<path opacity="0.6" d="M59.2929 55.4074C59.2929 53.7885 57.9703 52.4766 56.3381 52.4766C54.7059 52.4766 53.3833 53.7885 53.3833 55.4074C53.3833 57.0264 54.7059 58.3383 56.3381 58.3383C57.9703 58.3523 59.2929 57.0404 59.2929 55.4074Z" fill="#AA1A28"/>
<path d="M1.12554 83.8376C2.16676 87.6059 5.64217 90.2437 9.5819 90.2437C10.3698 90.2437 11.1437 90.132 11.9035 89.9366C16.5749 88.6666 19.3327 83.8655 18.0523 79.2459C17.0111 75.4776 13.5357 72.8398 9.59597 72.8398C8.80802 72.8398 8.03415 72.9515 7.27434 73.1469C2.60294 74.4169 -0.154868 79.204 1.12554 83.8376ZM7.42912 73.7191C8.13264 73.5237 8.8643 73.426 9.59597 73.426C13.2684 73.426 16.5046 75.8824 17.4754 79.3994C18.6714 83.712 16.0965 88.192 11.7488 89.3644C11.0452 89.5598 10.3136 89.6575 9.5819 89.6575C5.9095 89.6575 2.6733 87.2011 1.70243 83.6841C0.506444 79.3715 3.06727 74.8915 7.42912 73.7191Z" fill="#A7A9AC"/>
<path d="M3.02507 77.8369C2.02607 79.5815 1.7728 81.5912 2.30748 83.5312C3.20799 86.7831 6.19093 89.044 9.58191 89.044C10.2573 89.044 10.9327 88.9603 11.5799 88.7789C13.5216 88.2485 15.1538 87.0064 16.1388 85.2618C17.1378 83.5172 17.391 81.5075 16.8564 79.5675C15.9558 76.3157 12.9729 74.0547 9.58191 74.0547C8.90653 74.0547 8.23115 74.1384 7.58391 74.3199C5.64218 74.8502 4.02407 76.0924 3.02507 77.8369ZM7.75275 74.8921C8.35778 74.7246 8.97688 74.6409 9.59598 74.6409C12.7196 74.6409 15.4774 76.7344 16.2935 79.7211C16.786 81.4935 16.5468 83.3637 15.6322 84.9548C14.7176 86.5598 13.2262 87.7042 11.4251 88.1927C10.8201 88.3602 10.201 88.4439 9.58191 88.4439C6.45827 88.4439 3.70045 86.3504 2.88437 83.3637C2.3919 81.5912 2.6311 79.7211 3.54568 78.13C4.46026 76.525 5.95173 75.3806 7.75275 74.8921Z" fill="#A7A9AC"/>
<path d="M4.13651 82.3443C3.78475 82.442 3.57369 82.8049 3.67218 83.1538C3.77067 83.5028 4.13651 83.7121 4.48827 83.6144C4.84003 83.5167 5.05109 83.1538 4.95259 82.8049C4.8541 82.456 4.48827 82.2467 4.13651 82.3443Z" fill="#A7A9AC"/>
<path d="M15.0268 80.7394C15.3786 80.6417 15.5897 80.2788 15.4912 79.9299C15.3927 79.581 15.0268 79.3717 14.6751 79.4693C14.3233 79.567 14.1123 79.9299 14.2108 80.2788C14.3092 80.6277 14.6751 80.8371 15.0268 80.7394Z" fill="#A7A9AC"/>
<path d="M7.96366 75.6861C7.61189 75.7838 7.40084 76.1467 7.49933 76.4956C7.59782 76.8445 7.96366 77.0539 8.31542 76.9562C8.66718 76.8585 8.87824 76.4956 8.77974 76.1467C8.68125 75.7978 8.31542 75.5885 7.96366 75.6861Z" fill="#A7A9AC"/>
<path d="M11.1997 87.3956C11.5515 87.2979 11.7625 86.9351 11.664 86.5862C11.5655 86.2373 11.1997 86.0279 10.8479 86.1256C10.4962 86.2233 10.2851 86.5862 10.3836 86.9351C10.4962 87.284 10.8479 87.4933 11.1997 87.3956Z" fill="#A7A9AC"/>
<path d="M9.28656 82.2058C9.59611 82.4012 10.0042 82.3035 10.2011 81.9964L13.0997 77.4047C13.2966 77.0977 13.1981 76.6929 12.8886 76.4975C12.579 76.3021 12.171 76.3998 11.974 76.7069L9.0755 81.2986C8.87851 81.6056 8.97701 82.0104 9.28656 82.2058Z" fill="#A7A9AC"/>
<path d="M5.74049 80.2647C5.61385 80.5997 5.79677 80.9765 6.13446 81.1021L9.41288 82.2605C9.75057 82.3862 10.1305 82.2047 10.2571 81.8697C10.3837 81.5348 10.2008 81.158 9.86314 81.0324L6.58472 79.874C6.23295 79.7483 5.85305 79.9298 5.74049 80.2647Z" fill="#A7A9AC"/>
<path d="M2.04018 42.2598C1.95576 42.2598 1.87134 42.2737 1.80099 42.2877L1.01304 42.4272C0.689418 42.497 0.393938 42.6785 0.211022 42.9576C0.0281057 43.2367 -0.0422467 43.5717 0.0140352 43.8927L0.661277 47.1864C0.773841 47.7726 1.29445 48.1913 1.89948 48.1913C1.9839 48.1913 2.06832 48.1773 2.13868 48.1634L2.91255 48.0099C3.23617 47.9401 3.53165 47.7586 3.71457 47.4795C3.89749 47.2004 3.96784 46.8654 3.91156 46.5444L3.27839 43.2646C3.15175 42.6785 2.63114 42.2598 2.04018 42.2598ZM3.23617 47.1725C3.13768 47.312 2.98291 47.4097 2.81406 47.4516L2.04018 47.6051C1.99797 47.6191 1.95576 47.6191 1.91355 47.6191C1.604 47.6191 1.32259 47.3958 1.26631 47.0887L0.619066 43.795C0.590925 43.6275 0.619066 43.4461 0.717559 43.3065C0.816052 43.1669 0.970828 43.0692 1.13967 43.0274L1.91355 42.8739C1.95576 42.8599 1.99797 42.8599 2.04018 42.8599C2.34973 42.8599 2.63114 43.0832 2.68743 43.3902L3.33467 46.684C3.36281 46.8515 3.33467 47.0189 3.23617 47.1725Z" fill="#A7A9AC"/>
<path d="M4.65746 36.2871C4.57304 36.2871 4.48862 36.3011 4.41826 36.315L3.64439 36.4685C3.32077 36.5383 3.02529 36.7198 2.84237 36.9989C2.65945 37.278 2.5891 37.613 2.64538 37.934L4.33384 46.4894C4.4464 47.0755 4.96701 47.4942 5.57204 47.4942C5.65647 47.4942 5.74089 47.4803 5.81124 47.4663L6.58512 47.3128C7.2605 47.1872 7.71076 46.5173 7.58412 45.8473L5.89566 37.292C5.7831 36.7198 5.26249 36.2871 4.65746 36.2871ZM6.47255 46.7406L5.69868 46.8941C5.65647 46.908 5.61425 46.908 5.57204 46.908C5.26249 46.908 4.98108 46.6847 4.9248 46.3777L3.23634 37.8223C3.2082 37.6549 3.23634 37.4734 3.33484 37.3339C3.43333 37.1943 3.58811 37.0966 3.75695 37.0547L4.53083 36.9012C4.57304 36.8872 4.61525 36.8872 4.65746 36.8872C4.96701 36.8872 5.24842 37.1105 5.3047 37.4176L6.99316 45.973C7.06351 46.3219 6.82432 46.6708 6.47255 46.7406Z" fill="#A7A9AC"/>
<path d="M7.69661 37.7244C7.02123 37.85 6.57097 38.5199 6.69761 39.1898L7.99209 45.7773C8.10466 46.3635 8.62526 46.7822 9.23029 46.7822C9.31472 46.7822 9.39914 46.7683 9.46949 46.7543L10.2434 46.6008C10.567 46.531 10.8625 46.3496 11.0454 46.0704C11.2283 45.7913 11.2987 45.4563 11.2424 45.1353L9.94789 38.5478C9.83533 37.9617 9.31472 37.543 8.70969 37.543C8.62526 37.543 8.54084 37.5569 8.47049 37.5709L7.69661 37.7244ZM8.70969 38.1431C9.01924 38.1431 9.30065 38.3664 9.35693 38.6735L10.6514 45.2609C10.6796 45.4284 10.6514 45.6099 10.5529 45.7494C10.4544 45.889 10.2997 45.9867 10.1308 46.0286L9.35693 46.1821C9.31472 46.196 9.27251 46.196 9.23029 46.196C8.92074 46.196 8.63934 45.9727 8.58305 45.6657L7.28857 39.0782C7.21822 38.7293 7.45741 38.3804 7.80918 38.3106L8.58305 38.1571C8.62526 38.1431 8.66748 38.1431 8.70969 38.1431Z" fill="#A7A9AC"/>
<path d="M12.9446 46.0705C13.029 46.0705 13.1135 46.0565 13.1838 46.0426L13.9577 45.889C14.6331 45.7634 15.0833 45.0935 14.9567 44.4236L14.0421 39.79C13.9296 39.2039 13.409 38.7852 12.8039 38.7852C12.7195 38.7852 12.6351 38.7991 12.5647 38.8131L11.7908 38.9666C11.1155 39.0922 10.6652 39.7621 10.7918 40.432L11.7064 45.0656C11.8331 45.6378 12.3537 46.0705 12.9446 46.0705ZM11.9175 39.5388L12.6914 39.3853C12.7336 39.3713 12.7758 39.3713 12.818 39.3713C13.1275 39.3713 13.409 39.5946 13.4652 39.9017L14.3798 44.5353C14.4502 44.8842 14.211 45.2331 13.8592 45.3029L13.0853 45.4564C13.0431 45.4703 13.0009 45.4703 12.9587 45.4703C12.6491 45.4703 12.3677 45.247 12.3115 44.94L11.3969 40.3064C11.3265 39.9435 11.5517 39.5946 11.9175 39.5388Z" fill="#A7A9AC"/>
<path d="M96.3685 38.0582C96.1012 38.1001 95.862 38.2396 95.7072 38.463C95.5524 38.6863 95.4821 38.9514 95.5243 39.2166L95.6228 39.7888C95.7072 40.2773 96.1293 40.6402 96.6218 40.6402C96.678 40.6402 96.7343 40.6402 96.7906 40.6262L96.9735 40.5983C97.072 40.7937 97.1987 40.9891 97.3253 41.1566L97.2127 41.2961C97.058 41.5194 96.9876 41.7846 97.0298 42.0498C97.072 42.315 97.2127 42.5522 97.4378 42.7057L97.9162 43.0546C98.0851 43.1803 98.2961 43.25 98.5072 43.25C98.8308 43.25 99.1404 43.0965 99.3374 42.8313L99.4499 42.6918C99.661 42.7616 99.872 42.8034 100.097 42.8453L100.125 43.0267C100.21 43.5152 100.632 43.8781 101.124 43.8781C101.181 43.8781 101.237 43.8781 101.293 43.8641L101.87 43.7664C102.419 43.6827 102.799 43.1663 102.714 42.608L102.686 42.4266C102.883 42.3289 103.08 42.2033 103.249 42.0777L103.39 42.1893C103.558 42.315 103.77 42.3847 103.981 42.3847C104.304 42.3847 104.614 42.2312 104.811 41.966L105.163 41.4915C105.317 41.2682 105.388 41.003 105.345 40.7379C105.303 40.4727 105.163 40.2354 104.937 40.0819L104.797 39.9703C104.867 39.7609 104.909 39.5516 104.951 39.3283L105.134 39.3003C105.683 39.2166 106.063 38.7002 105.979 38.1419L105.88 37.5697C105.796 37.0813 105.374 36.7184 104.881 36.7184C104.825 36.7184 104.769 36.7184 104.712 36.7323L104.529 36.7603C104.431 36.5649 104.304 36.3695 104.178 36.202L104.29 36.0624C104.445 35.8391 104.515 35.5739 104.473 35.3088C104.431 35.0436 104.29 34.8063 104.065 34.6528L103.587 34.3039C103.418 34.1783 103.207 34.1085 102.996 34.1085C102.672 34.1085 102.363 34.262 102.166 34.5272L102.053 34.6668C101.842 34.597 101.631 34.5551 101.406 34.5133L101.378 34.3318C101.293 33.8433 100.871 33.4805 100.379 33.4805C100.322 33.4805 100.266 33.4805 100.21 33.4944L99.6328 33.5921C99.3655 33.634 99.1263 33.7736 98.9715 33.9969C98.8168 34.2202 98.7464 34.4853 98.7886 34.7505L98.8168 34.9319C98.6198 35.0296 98.4228 35.1553 98.2539 35.2809L98.1132 35.1692C97.9444 35.0436 97.7333 34.9738 97.5223 34.9738C97.1986 34.9738 96.8891 35.1273 96.6921 35.3925L96.3404 35.867C96.1856 36.0903 96.1152 36.3555 96.1574 36.6207C96.1997 36.8859 96.3404 37.1231 96.5655 37.2766L96.7062 37.3883C96.6358 37.5976 96.5936 37.807 96.5514 38.0303L96.3685 38.0582ZM97.2409 37.0394L96.9172 36.8021C96.8328 36.7323 96.7625 36.6346 96.7484 36.5369C96.7343 36.4253 96.7625 36.3136 96.8187 36.2299L97.1705 35.7554C97.2971 35.574 97.5786 35.5321 97.7615 35.6577L98.0851 35.895C98.1976 35.9787 98.3384 35.9647 98.4509 35.881C98.7042 35.6716 98.9715 35.5042 99.2811 35.3786C99.4077 35.3227 99.4781 35.1971 99.4499 35.0576L99.3796 34.6668C99.3655 34.5551 99.3936 34.4435 99.4499 34.3597C99.5203 34.276 99.6188 34.2062 99.7173 34.1923L100.294 34.0946C100.533 34.0527 100.73 34.2202 100.773 34.4435L100.843 34.8343C100.871 34.9738 100.97 35.0715 101.11 35.0855C101.434 35.1134 101.757 35.1971 102.053 35.3088C102.18 35.3506 102.32 35.3088 102.405 35.2111L102.644 34.8901C102.771 34.7086 103.052 34.6668 103.235 34.7924L103.713 35.1413C103.798 35.2111 103.868 35.3088 103.882 35.4065C103.896 35.5181 103.868 35.6298 103.812 35.7135L103.573 36.0345C103.488 36.1462 103.502 36.2857 103.587 36.3974C103.798 36.6486 103.967 36.9138 104.093 37.2208C104.149 37.3464 104.276 37.4162 104.417 37.3883L104.811 37.3185C105.05 37.2766 105.261 37.4441 105.289 37.6674L105.388 38.2396C105.43 38.463 105.275 38.6723 105.036 38.7142L104.642 38.7839C104.501 38.8119 104.403 38.9096 104.389 39.0491C104.361 39.3701 104.276 39.6911 104.164 39.9842C104.121 40.1098 104.164 40.2494 104.262 40.3331L104.586 40.5704C104.67 40.6402 104.74 40.7379 104.754 40.8356C104.769 40.9472 104.74 41.0589 104.684 41.1426L104.332 41.6171C104.248 41.7288 104.135 41.7846 103.995 41.7846C103.91 41.7846 103.826 41.7567 103.755 41.7009L103.432 41.4636C103.319 41.3799 103.179 41.3938 103.066 41.4776C102.813 41.6869 102.545 41.8544 102.236 41.98C102.109 42.0358 102.039 42.1614 102.067 42.301L102.137 42.6918C102.18 42.9151 102.025 43.1244 101.786 43.1663L101.209 43.264C100.97 43.3059 100.773 43.1384 100.73 42.9151L100.66 42.5243C100.632 42.3847 100.533 42.287 100.393 42.2731C100.069 42.2452 99.7454 42.1614 99.4499 42.0498C99.4218 42.0358 99.3796 42.0358 99.3374 42.0358C99.2389 42.0358 99.1544 42.0777 99.0982 42.1614L98.859 42.4824C98.7745 42.5941 98.662 42.6499 98.5213 42.6499C98.4369 42.6499 98.3524 42.622 98.2821 42.5662L97.8037 42.2173C97.7193 42.1475 97.6489 42.0498 97.6348 41.9521C97.6208 41.8404 97.6489 41.7288 97.7052 41.645L97.9444 41.324C98.0288 41.2124 98.0147 41.0728 97.9303 40.9612C97.7333 40.71 97.5504 40.4448 97.4238 40.1377C97.3675 40.0121 97.2409 39.9423 97.1002 39.9703L96.7062 40.04C96.467 40.0819 96.27 39.9144 96.2278 39.6911L96.1293 39.1189C96.1152 39.0073 96.1434 38.8956 96.1997 38.8119C96.27 38.7281 96.3685 38.6583 96.467 38.6444L96.861 38.5746C97.0017 38.5467 97.1002 38.449 97.1142 38.3094C97.1424 37.9884 97.2268 37.6674 97.3394 37.3743C97.3956 37.2627 97.3534 37.1092 97.2409 37.0394Z" fill="#A7A9AC"/>
<path d="M100.744 41.6305C100.899 41.6305 101.068 41.6165 101.223 41.5886C102.841 41.3234 103.953 39.8161 103.685 38.1972C103.446 36.7596 102.222 35.7129 100.744 35.7129C100.59 35.7129 100.421 35.7268 100.266 35.7548C99.4781 35.8804 98.7887 36.2991 98.3244 36.9411C97.86 37.5831 97.6771 38.3646 97.8037 39.1462C98.0429 40.5837 99.2812 41.6305 100.744 41.6305ZM98.8168 37.29C99.1827 36.7736 99.7455 36.4386 100.365 36.3409C100.491 36.327 100.618 36.313 100.744 36.313C101.912 36.313 102.911 37.1504 103.094 38.2949C103.305 39.5789 102.419 40.7931 101.124 41.0024C100.998 41.0164 100.871 41.0303 100.744 41.0303C99.5766 41.0303 98.5776 40.1929 98.3947 39.0485C98.2962 38.4344 98.451 37.8064 98.8168 37.29Z" fill="#A7A9AC"/>
<path d="M108.216 36.0067C108.427 36.0625 108.624 36.0904 108.835 36.0904C109.933 36.0904 110.889 35.3507 111.171 34.304C111.509 33.02 110.749 31.708 109.454 31.3591C109.243 31.3033 109.046 31.2754 108.835 31.2754C107.738 31.2754 106.781 32.0151 106.499 33.0618C106.148 34.3458 106.922 35.6577 108.216 36.0067ZM107.062 33.2154C107.273 32.4198 108.005 31.8616 108.821 31.8616C108.976 31.8616 109.131 31.8755 109.285 31.9174C110.256 32.1686 110.847 33.1735 110.58 34.1365C110.369 34.932 109.637 35.4903 108.821 35.4903C108.666 35.4903 108.512 35.4763 108.357 35.4344C107.386 35.1693 106.809 34.1784 107.062 33.2154Z" fill="#A7A9AC"/>
<path d="M105.88 31.764C105.81 31.7501 105.726 31.7361 105.655 31.7361C105.261 31.7361 104.924 32.0013 104.811 32.3781L104.684 32.8247C104.628 33.048 104.656 33.2853 104.769 33.4807C104.881 33.6761 105.078 33.8156 105.303 33.8854L105.402 33.9133C105.416 34.0668 105.43 34.2064 105.458 34.3599L105.374 34.4158C105.177 34.5274 105.036 34.7228 104.966 34.9461C104.91 35.1694 104.938 35.4067 105.05 35.6021L105.289 36.0068C105.444 36.272 105.726 36.4395 106.035 36.4395C106.19 36.4395 106.345 36.3976 106.471 36.3278L106.556 36.272C106.668 36.3697 106.781 36.4534 106.908 36.5371L106.879 36.6348C106.753 37.0954 107.034 37.5699 107.498 37.6816L107.949 37.8072C108.019 37.8211 108.104 37.8351 108.174 37.8351C108.568 37.8351 108.906 37.5699 109.018 37.1931L109.046 37.0954C109.201 37.0814 109.342 37.0675 109.496 37.0396L109.553 37.1233C109.708 37.3885 109.989 37.556 110.298 37.556C110.453 37.556 110.608 37.5141 110.735 37.4443L111.143 37.2071C111.34 37.0954 111.48 36.9 111.551 36.6767C111.607 36.4534 111.579 36.2161 111.466 36.0208L111.41 35.937C111.509 35.8254 111.593 35.7137 111.677 35.5881L111.776 35.616C111.846 35.63 111.931 35.6439 112.001 35.6439C112.395 35.6439 112.733 35.3788 112.845 35.0019L112.972 34.5553C113.028 34.332 113 34.0948 112.887 33.8994C112.775 33.704 112.578 33.5644 112.353 33.4946L112.254 33.4667C112.24 33.3132 112.226 33.1736 112.198 33.0201L112.282 32.9643C112.479 32.8526 112.62 32.6572 112.69 32.4339C112.747 32.2106 112.719 31.9734 112.606 31.778L112.367 31.3732C112.212 31.1081 111.931 30.9406 111.621 30.9406C111.466 30.9406 111.312 30.9824 111.185 31.0522L111.101 31.1081C110.988 31.0104 110.875 30.9266 110.749 30.8429L110.777 30.7452C110.904 30.2846 110.622 29.8101 110.158 29.6984L109.708 29.5728C109.637 29.5589 109.553 29.5449 109.482 29.5449C109.088 29.5449 108.751 29.8101 108.638 30.1869L108.61 30.2846C108.455 30.2986 108.315 30.3125 108.16 30.3404L108.104 30.2567C107.949 29.9915 107.667 29.8241 107.358 29.8241C107.203 29.8241 107.062 29.8659 106.922 29.9357L106.514 30.173C106.317 30.2846 106.176 30.48 106.106 30.7033C106.049 30.9266 106.077 31.1639 106.19 31.3593L106.246 31.443C106.148 31.5547 106.063 31.6663 105.979 31.7919L105.88 31.764ZM106.373 32.2804C106.499 32.0571 106.654 31.8617 106.823 31.6942C106.922 31.5965 106.936 31.457 106.865 31.3314L106.711 31.0522C106.668 30.9964 106.668 30.9127 106.682 30.8429C106.696 30.7731 106.739 30.7173 106.809 30.6754L107.217 30.4381C107.344 30.3684 107.513 30.4102 107.583 30.5358L107.738 30.815C107.808 30.9266 107.949 30.9824 108.075 30.9545C108.315 30.8847 108.568 30.8568 108.821 30.8568C108.962 30.8568 109.074 30.7731 109.117 30.6335L109.201 30.3265C109.243 30.1869 109.384 30.1032 109.525 30.1311L109.975 30.2567C110.116 30.2986 110.2 30.4381 110.172 30.5777L110.087 30.8847C110.059 31.0104 110.116 31.1499 110.228 31.2197C110.453 31.3453 110.65 31.4988 110.819 31.6663C110.918 31.764 111.058 31.778 111.185 31.7082L111.466 31.5547C111.593 31.4849 111.762 31.5268 111.832 31.6524L112.071 32.0571C112.114 32.1129 112.114 32.1967 112.1 32.2664C112.085 32.3362 112.043 32.3921 111.973 32.4339L111.691 32.5874C111.579 32.6572 111.523 32.7968 111.551 32.9224C111.621 33.1597 111.649 33.4109 111.649 33.6621C111.649 33.8017 111.734 33.9133 111.874 33.9552L112.184 34.0389C112.254 34.0529 112.311 34.0948 112.353 34.1645C112.395 34.2204 112.395 34.3041 112.381 34.3739L112.254 34.8205C112.212 34.9601 112.071 35.0438 111.917 35.0159L111.607 34.9321C111.48 34.9042 111.34 34.9601 111.269 35.0717C111.143 35.295 110.988 35.4904 110.819 35.6579C110.721 35.7556 110.707 35.8951 110.777 36.0208L110.932 36.2999C110.974 36.3557 110.974 36.4395 110.96 36.5092C110.946 36.579 110.904 36.6348 110.833 36.6767L110.425 36.914C110.298 36.9838 110.13 36.9419 110.059 36.8163L109.905 36.5371C109.834 36.4255 109.693 36.3697 109.567 36.3976C109.328 36.4674 109.074 36.4953 108.821 36.4953C108.68 36.4953 108.568 36.579 108.526 36.7186L108.441 37.0256C108.399 37.1652 108.258 37.2489 108.118 37.221L107.667 37.0954C107.527 37.0535 107.442 36.914 107.47 36.7604L107.555 36.4534C107.583 36.3278 107.527 36.1882 107.414 36.1184C107.189 35.9928 106.992 35.8393 106.823 35.6718C106.767 35.616 106.682 35.5881 106.612 35.5881C106.556 35.5881 106.514 35.6021 106.457 35.63L106.176 35.7835C106.049 35.8533 105.88 35.8114 105.81 35.6858L105.571 35.2811C105.529 35.2252 105.529 35.1415 105.543 35.0717C105.557 35.0019 105.599 34.9461 105.669 34.9042L105.951 34.7507C106.063 34.6809 106.12 34.5414 106.091 34.4158C106.021 34.1785 105.993 33.9273 105.993 33.6761C105.993 33.5365 105.909 33.4248 105.768 33.383L105.458 33.2992C105.388 33.2853 105.332 33.2434 105.289 33.1736C105.247 33.1178 105.247 33.0341 105.261 32.9643L105.388 32.5177C105.43 32.3781 105.571 32.2944 105.712 32.3223L106.021 32.406C106.176 32.4618 106.317 32.406 106.373 32.2804Z" fill="#A7A9AC"/>
<path d="M60.4609 8.12271C61.1223 7.21554 61.9524 6.0711 61.868 4.70336C61.6991 2.4424 60.2077 0 57.3091 0C56.9292 0 56.5353 0.0418696 56.1132 0.125609C54.087 0.516392 53.0739 1.67479 52.5815 2.58196C51.9202 3.79618 51.8076 5.31745 52.286 6.47584C52.9332 8.02502 54.0167 8.55537 54.875 8.97406C55.3815 9.22528 55.8177 9.43463 56.1132 9.7975C56.1976 9.90915 56.3946 10.5651 56.5353 11.0955C56.5634 11.235 56.69 11.3188 56.8308 11.3188C56.8448 11.3188 56.873 11.3188 56.887 11.3188L59.476 10.8163C59.6308 10.7884 59.7433 10.6349 59.7152 10.4814C59.6871 10.286 59.6167 9.6998 59.7152 9.36484C59.8137 9.00197 60.1232 8.58328 60.4609 8.12271ZM59.1524 9.16945C59.0539 9.51837 59.082 9.96498 59.1102 10.2581L57.07 10.6488C56.9433 10.1743 56.7604 9.58815 56.6056 9.40671C56.2257 8.94615 55.7192 8.69493 55.1704 8.42976C54.3121 8.01106 53.4257 7.57841 52.8629 6.23858C52.4548 5.24766 52.5533 3.92179 53.1302 2.86109C53.5523 2.07953 54.4388 1.0607 56.2398 0.711784C56.6197 0.642001 56.9715 0.600132 57.3091 0.600132C58.6599 0.600132 61.0238 1.47939 61.2489 4.75918C61.3333 5.91758 60.6016 6.90849 59.9544 7.78775C59.5886 8.30415 59.2649 8.75076 59.1524 9.16945Z" fill="#A7A9AC"/>
<path d="M56.9434 12.5182C56.9997 12.5182 57.0559 12.5182 57.1263 12.5043L59.659 12.0019C59.8982 11.96 60.1092 11.8204 60.2359 11.6111C60.3625 11.4017 60.4188 11.1645 60.3766 10.9272C60.2922 10.5085 59.9123 10.1875 59.4761 10.1875C59.4198 10.1875 59.3635 10.1875 59.2931 10.2015L56.7464 10.6899C56.5072 10.7318 56.2961 10.8714 56.1695 11.0807C56.0288 11.2761 55.9866 11.5273 56.0288 11.7646C56.1273 12.2112 56.5072 12.5182 56.9434 12.5182ZM56.676 11.4296C56.7182 11.3599 56.7886 11.318 56.873 11.2901L59.4198 10.8016C59.4339 10.8016 59.462 10.8016 59.4761 10.8016C59.6308 10.8016 59.7575 10.9132 59.7856 11.0528C59.7997 11.1365 59.7856 11.2203 59.7434 11.2901C59.7012 11.3599 59.6308 11.4017 59.5464 11.4296L56.9997 11.9181C56.8308 11.946 56.662 11.8344 56.6338 11.6669C56.6057 11.5832 56.6338 11.4994 56.676 11.4296Z" fill="#A7A9AC"/>
<path d="M57.1686 13.7188C57.2249 13.7188 57.2811 13.7188 57.3515 13.7049L59.8983 13.2164C60.3907 13.1187 60.7143 12.6442 60.6158 12.1557C60.5314 11.737 60.1515 11.416 59.7153 11.416C59.6591 11.416 59.6028 11.416 59.5324 11.43L56.9857 11.9185C56.7465 11.9603 56.5354 12.0999 56.4088 12.3092C56.2681 12.5046 56.2258 12.7558 56.2681 12.9931C56.3666 13.4118 56.7324 13.7188 57.1686 13.7188ZM56.9153 12.6302C56.9575 12.5605 57.0279 12.5186 57.1123 12.4907L59.6591 12.0022C59.6731 12.0022 59.7013 12.0022 59.7153 12.0022C59.8701 12.0022 59.9967 12.1138 60.0249 12.2534C60.053 12.4209 59.9405 12.5884 59.7716 12.6163L57.2389 13.1187C57.0701 13.1466 56.9012 13.035 56.8731 12.8675C56.845 12.7838 56.859 12.7 56.9153 12.6302Z" fill="#A7A9AC"/>
<path d="M58.4631 14.4458C58.5757 14.4458 58.7023 14.4318 58.8149 14.4178C59.2088 14.3481 59.5465 14.1527 59.7857 13.8735C60.039 13.5804 60.1375 13.2176 60.0671 12.8826C60.039 12.7151 59.8842 12.6174 59.7154 12.6454L57.2952 13.1199C57.1264 13.1478 57.0279 13.3013 57.056 13.4688C57.1827 14.041 57.7455 14.4458 58.4631 14.4458ZM59.448 13.2874C59.4199 13.3571 59.3777 13.413 59.3355 13.4827C59.1807 13.6642 58.9696 13.7758 58.7023 13.8317C58.6179 13.8456 58.5475 13.8596 58.4631 13.8596C58.1957 13.8596 57.9565 13.7619 57.8018 13.6223L59.448 13.2874Z" fill="#A7A9AC"/>
<path d="M96.2279 17.8091C96.7907 17.2509 96.7907 16.3297 96.2279 15.7715L55.2969 56.3711C55.8597 56.9294 56.7883 56.9294 57.3512 56.3711L96.2279 17.8091Z" fill="#392736"/>
<path d="M92.5835 18.2688L92.6398 7.67578L77.0356 23.1396L77.303 32.7557L77.7814 32.9371L92.5835 18.2688Z" fill="#FCC412"/>
<path d="M104.346 19.3027L93.906 19.5819L79.0054 34.0827L79.0898 34.5991L88.7562 34.7666L104.346 19.3027Z" fill="#F3A414"/>
<path d="M79.442 20.7676L78.8511 21.3398L79.245 31.5141L79.836 30.9279L79.442 20.7676Z" fill="white"/>
<path d="M81.2006 32.1699L80.6519 32.7003L90.5715 32.9655L91.1062 32.4351L81.2006 32.1699Z" fill="#FCEAB0"/>
<path d="M82.0871 18.1289L81.5103 18.7151L81.8902 28.8754L82.4811 28.3032L82.0871 18.1289Z" fill="white"/>
<path d="M83.8457 29.5449L83.311 30.0753L93.2167 30.3404L93.7654 29.7961L83.8457 29.5449Z" fill="#FCEAB0"/>
<path d="M84.7462 15.5059L84.1553 16.0781L84.5493 26.2524L85.1402 25.6662L84.7462 15.5059Z" fill="white"/>
<path d="M96.4104 27.1734L86.5048 26.9082L85.9561 27.4525L95.8757 27.7037L96.4104 27.1734Z" fill="#FCEAB0"/>
<path d="M87.3913 12.8672L86.8145 13.4534L87.1944 23.6277L87.7853 23.0415L87.3913 12.8672Z" fill="white"/>
<path d="M99.0555 24.5344L89.1499 24.2832L88.6152 24.8136L98.5209 25.0787L99.0555 24.5344Z" fill="#FCEAB0"/>
<path d="M90.0509 10.2441L89.46 10.8303L89.8539 20.9907L90.4308 20.4045L90.0509 10.2441Z" fill="white"/>
<path d="M101.715 21.9117L91.7954 21.6465L91.2607 22.1908L101.18 22.442L101.715 21.9117Z" fill="#FCEAB0"/>
<path d="M94.1738 15.7703L55.2971 54.3322C54.7343 54.8905 54.7343 55.8116 55.2971 56.3699L96.2281 15.7703C95.6653 15.212 94.7367 15.212 94.1738 15.7703Z" fill="#847082"/>
<defs>
<linearGradient id="paint0_linear" x1="77.2758" y1="25.6839" x2="36.2097" y2="85.2382" gradientUnits="userSpaceOnUse">
<stop stop-color="#ED352B"/>
<stop offset="0.3256" stop-color="#E9332B"/>
<stop offset="0.6293" stop-color="#DE2C2C"/>
<stop offset="0.9234" stop-color="#CB222D"/>
<stop offset="1" stop-color="#C51E2D"/>
</linearGradient>
<linearGradient id="paint1_linear" x1="71.4933" y1="40.5084" x2="41.8775" y2="70.366" gradientUnits="userSpaceOnUse">
<stop stop-color="#ED352B"/>
<stop offset="0.3256" stop-color="#E9332B"/>
<stop offset="0.6293" stop-color="#DE2C2C"/>
<stop offset="0.9234" stop-color="#CB222D"/>
<stop offset="1" stop-color="#C51E2D"/>
</linearGradient>
<linearGradient id="paint2_linear" x1="61.9239" y1="50.3737" x2="50.4276" y2="61.1808" gradientUnits="userSpaceOnUse">
<stop stop-color="#ED352B"/>
<stop offset="0.3256" stop-color="#E9332B"/>
<stop offset="0.6293" stop-color="#DE2C2C"/>
<stop offset="0.9234" stop-color="#CB222D"/>
<stop offset="1" stop-color="#C51E2D"/>
</linearGradient>
</defs>
</svg>
