<svg width="138" height="73" viewBox="0 0 138 73" fill="none" xmlns="http://www.w3.org/2000/svg">
<path d="M80.7873 24.4508C80.7873 33.3618 73.5032 40.1658 64.5416 40.1658C55.58 40.1658 48.2959 33.3618 48.2959 24.4508C48.2959 15.5398 55.58 8.29688 64.5416 8.29688C73.5032 8.29687 80.7873 15.5398 80.7873 24.4508Z" fill="#FFC30D"/>
<path d="M64.5414 42.448C52.4455 42.448 42.9541 33.2297 42.9541 21.4654C42.9541 9.61335 52.6662 0 64.5414 0C76.4608 0 86.1288 9.65725 86.1288 21.4654C86.1729 33.2297 76.6815 42.448 64.5414 42.448Z" fill="#FFDD00"/>
<path d="M64.5414 4.21484C54.5203 4.21484 46.3975 12.3357 46.3975 22.2563C46.3975 32.0892 54.3879 39.7711 64.5414 39.7711C74.7391 39.7711 82.6854 32.0892 82.6854 22.2563C82.7295 12.3357 74.5625 4.21484 64.5414 4.21484Z" fill="white"/>
<path d="M64.7182 3.24805C54.6971 3.24805 46.5742 11.3689 46.5742 21.2895C46.5742 31.1224 54.5646 38.8043 64.7182 38.8043C74.9159 38.8043 82.8621 31.1224 82.8621 21.2895C82.8621 11.3689 74.7393 3.24805 64.7182 3.24805Z" fill="#F0A700"/>
<path d="M64.5414 3.90625C54.5203 3.90625 46.3975 12.0271 46.3975 21.9477C46.3975 31.7806 54.3879 39.4625 64.5414 39.4625C74.7391 39.4625 82.6854 31.7806 82.6854 21.9477C82.7295 11.9832 74.5625 3.90625 64.5414 3.90625Z" fill="#FFC000"/>
<path d="M70.2362 6.49609L49.5317 27.0836C50.0173 28.3127 50.6795 29.4979 51.43 30.5514L73.7678 8.33975C72.7083 7.59351 71.5164 6.93506 70.2362 6.49609Z" fill="#FFDD00"/>
<path d="M61.4512 36.7407L80.2573 17.9969C79.551 14.8363 77.9618 12.0709 75.7103 9.91992L53.0635 32.4389C55.3149 34.5898 58.2285 36.1262 61.4512 36.7407Z" fill="#FFDD00"/>
<path d="M42.38 72.999H0.264875C0.132438 72.999 0 72.8673 0 72.7356V64.4392C0 64.3075 0.132438 64.1758 0.264875 64.1758H42.38C42.5125 64.1758 42.6449 64.3075 42.6449 64.4392V72.7356C42.6449 72.8673 42.5125 72.999 42.38 72.999Z" fill="#D48200"/>
<path d="M42.38 72.5604H0.264875C0.132438 72.5604 0 72.4287 0 72.297V63.0349C0 62.9032 0.132438 62.7715 0.264875 62.7715H42.38C42.5125 62.7715 42.6449 62.9032 42.6449 63.0349V72.297C42.6449 72.4726 42.5125 72.5604 42.38 72.5604Z" fill="#FFC000"/>
<path d="M2.46885 72.5762H11.4746L11.4746 62.7872H2.46885L2.46885 72.5762Z" fill="#FFAF00"/>
<path d="M34.1298 72.5762H37.2642V62.7872H34.1298V72.5762Z" fill="#FFDE00"/>
<g opacity="0.6">
<g opacity="0.6">
<path opacity="0.6" d="M2.0309 71.9028C1.85432 71.9028 1.67773 71.7273 1.67773 71.5517V63.9137C1.67773 63.7381 1.85432 63.5625 2.0309 63.5625C2.20748 63.5625 2.38407 63.7381 2.38407 63.9137V71.5517C2.38407 71.7712 2.20748 71.9028 2.0309 71.9028Z" fill="#FFE600"/>
</g>
<g opacity="0.6">
<path opacity="0.6" d="M4.76772 71.9028C4.59113 71.9028 4.41455 71.7273 4.41455 71.5517V63.9137C4.41455 63.7381 4.59113 63.5625 4.76772 63.5625C4.9443 63.5625 5.12089 63.7381 5.12089 63.9137V71.5517C5.12089 71.7712 4.98845 71.9028 4.76772 71.9028Z" fill="#FFE600"/>
</g>
<g opacity="0.6">
<path opacity="0.6" d="M7.54897 71.9028C7.37238 71.9028 7.1958 71.7273 7.1958 71.5517V63.9137C7.1958 63.7381 7.37238 63.5625 7.54897 63.5625C7.72555 63.5625 7.90213 63.7381 7.90213 63.9137V71.5517C7.90213 71.7712 7.72555 71.9028 7.54897 71.9028Z" fill="#FFE600"/>
</g>
<g opacity="0.6">
<path opacity="0.6" d="M10.2863 71.9028C10.1097 71.9028 9.93311 71.7273 9.93311 71.5517V63.9137C9.93311 63.7381 10.1097 63.5625 10.2863 63.5625C10.4629 63.5625 10.6394 63.7381 10.6394 63.9137V71.5517C10.6394 71.7712 10.507 71.9028 10.2863 71.9028Z" fill="#FFE600"/>
</g>
<g opacity="0.6">
<path opacity="0.6" d="M13.0675 71.9028C12.8909 71.9028 12.7144 71.7273 12.7144 71.5517V63.9137C12.7144 63.7381 12.8909 63.5625 13.0675 63.5625C13.2441 63.5625 13.4207 63.7381 13.4207 63.9137V71.5517C13.4207 71.7712 13.2441 71.9028 13.0675 71.9028Z" fill="#FFE600"/>
</g>
<g opacity="0.6">
<path opacity="0.6" d="M15.8043 71.9028C15.6278 71.9028 15.4512 71.7273 15.4512 71.5517V63.9137C15.4512 63.7381 15.6278 63.5625 15.8043 63.5625C15.9809 63.5625 16.1575 63.7381 16.1575 63.9137V71.5517C16.1575 71.7712 16.0251 71.9028 15.8043 71.9028Z" fill="#FFE600"/>
</g>
<g opacity="0.6">
<path opacity="0.6" d="M18.5856 71.9028C18.409 71.9028 18.2324 71.7273 18.2324 71.5517V63.9137C18.2324 63.7381 18.409 63.5625 18.5856 63.5625C18.7622 63.5625 18.9388 63.7381 18.9388 63.9137V71.5517C18.9388 71.7712 18.7622 71.9028 18.5856 71.9028Z" fill="#FFE600"/>
</g>
<g opacity="0.6">
<path opacity="0.6" d="M21.3229 71.9028C21.1463 71.9028 20.9697 71.7273 20.9697 71.5517V63.9137C20.9697 63.7381 21.1463 63.5625 21.3229 63.5625C21.4995 63.5625 21.6761 63.7381 21.6761 63.9137V71.5517C21.6761 71.7712 21.4995 71.9028 21.3229 71.9028Z" fill="#FFE600"/>
</g>
<g opacity="0.6">
<path opacity="0.6" d="M24.0597 71.9028C23.8831 71.9028 23.7065 71.7273 23.7065 71.5517V63.9137C23.7065 63.7381 23.8831 63.5625 24.0597 63.5625C24.2363 63.5625 24.4129 63.7381 24.4129 63.9137V71.5517C24.4129 71.7712 24.2804 71.9028 24.0597 71.9028Z" fill="#FFE600"/>
</g>
<g opacity="0.6">
<path opacity="0.6" d="M26.841 71.9028C26.6644 71.9028 26.4878 71.7273 26.4878 71.5517V63.9137C26.4878 63.7381 26.6644 63.5625 26.841 63.5625C27.0175 63.5625 27.1941 63.7381 27.1941 63.9137V71.5517C27.1941 71.7712 27.0175 71.9028 26.841 71.9028Z" fill="#FFE600"/>
</g>
<g opacity="0.6">
<path opacity="0.6" d="M29.5778 71.9028C29.4012 71.9028 29.2246 71.7273 29.2246 71.5517V63.9137C29.2246 63.7381 29.4012 63.5625 29.5778 63.5625C29.7544 63.5625 29.931 63.7381 29.931 63.9137V71.5517C29.931 71.7712 29.7985 71.9028 29.5778 71.9028Z" fill="#FFE600"/>
</g>
<g opacity="0.6">
<path opacity="0.6" d="M32.359 71.9028C32.1824 71.9028 32.0059 71.7273 32.0059 71.5517V63.9137C32.0059 63.7381 32.1824 63.5625 32.359 63.5625C32.5356 63.5625 32.7122 63.7381 32.7122 63.9137V71.5517C32.7122 71.7712 32.5356 71.9028 32.359 71.9028Z" fill="#FFE600"/>
</g>
<g opacity="0.6">
<path opacity="0.6" d="M35.0963 71.9028C34.9197 71.9028 34.7432 71.7273 34.7432 71.5517V63.9137C34.7432 63.7381 34.9197 63.5625 35.0963 63.5625C35.2729 63.5625 35.4495 63.7381 35.4495 63.9137V71.5517C35.4495 71.7712 35.3171 71.9028 35.0963 71.9028Z" fill="#FFE600"/>
</g>
<g opacity="0.6">
<path opacity="0.6" d="M37.8776 71.9028C37.701 71.9028 37.5244 71.7273 37.5244 71.5517V63.9137C37.5244 63.7381 37.701 63.5625 37.8776 63.5625C38.0542 63.5625 38.2307 63.7381 38.2307 63.9137V71.5517C38.2307 71.7712 38.0542 71.9028 37.8776 71.9028Z" fill="#FFE600"/>
</g>
<g opacity="0.6">
<path opacity="0.6" d="M40.6144 71.9028C40.4378 71.9028 40.2612 71.7273 40.2612 71.5517V63.9137C40.2612 63.7381 40.4378 63.5625 40.6144 63.5625C40.791 63.5625 40.9676 63.7381 40.9676 63.9137V71.5517C40.9676 71.7712 40.791 71.9028 40.6144 71.9028Z" fill="#FFE600"/>
</g>
</g>
<path d="M87.8944 72.999H45.7351C45.6027 72.999 45.4702 72.8673 45.4702 72.7356V64.4392C45.4702 64.3075 45.6027 64.1758 45.7351 64.1758H87.8944C88.0268 64.1758 88.1593 64.3075 88.1593 64.4392V72.7356C88.1593 72.8673 88.0268 72.999 87.8944 72.999Z" fill="#D48200"/>
<path d="M87.8944 72.5604H45.7351C45.6027 72.5604 45.4702 72.4287 45.4702 72.297V63.0349C45.4702 62.9032 45.6027 62.7715 45.7351 62.7715H87.8944C88.0268 62.7715 88.1593 62.9032 88.1593 63.0349V72.297C88.1593 72.4726 88.0268 72.5604 87.8944 72.5604Z" fill="#FFC000"/>
<path d="M45.4933 72.5762H54.499V62.7872H45.4933V72.5762Z" fill="#FFAF00"/>
<path opacity="0.21" d="M45.4983 72.5762H48.2354V62.7872H45.4983V72.5762Z" fill="#A20012"/>
<path d="M79.643 72.5762H82.7773V62.7872H79.643V72.5762Z" fill="#FFDE00"/>
<g opacity="0.6">
<g opacity="0.6">
<path opacity="0.6" d="M47.5451 71.9028C47.3685 71.9028 47.1919 71.7273 47.1919 71.5517V63.9137C47.1919 63.7381 47.3685 63.5625 47.5451 63.5625C47.7216 63.5625 47.8982 63.7381 47.8982 63.9137V71.5517C47.8982 71.7712 47.7216 71.9028 47.5451 71.9028Z" fill="#FFE600"/>
</g>
<g opacity="0.6">
<path opacity="0.6" d="M50.2819 71.9028C50.1053 71.9028 49.9287 71.7273 49.9287 71.5517V63.9137C49.9287 63.7381 50.1053 63.5625 50.2819 63.5625C50.4585 63.5625 50.635 63.7381 50.635 63.9137V71.5517C50.635 71.7712 50.5026 71.9028 50.2819 71.9028Z" fill="#FFE600"/>
</g>
<g opacity="0.6">
<path opacity="0.6" d="M53.0631 71.9028C52.8865 71.9028 52.71 71.7273 52.71 71.5517V63.9137C52.71 63.7381 52.8865 63.5625 53.0631 63.5625C53.2397 63.5625 53.4163 63.7381 53.4163 63.9137V71.5517C53.4163 71.7712 53.2397 71.9028 53.0631 71.9028Z" fill="#FFE600"/>
</g>
<g opacity="0.6">
<path opacity="0.6" d="M55.8004 71.9028C55.6238 71.9028 55.4473 71.7273 55.4473 71.5517V63.9137C55.4473 63.7381 55.6238 63.5625 55.8004 63.5625C55.977 63.5625 56.1536 63.7381 56.1536 63.9137V71.5517C56.1536 71.7712 56.0212 71.9028 55.8004 71.9028Z" fill="#FFE600"/>
</g>
<g opacity="0.6">
<path opacity="0.6" d="M58.5817 71.9028C58.4051 71.9028 58.2285 71.7273 58.2285 71.5517V63.9137C58.2285 63.7381 58.4051 63.5625 58.5817 63.5625C58.7583 63.5625 58.9349 63.7381 58.9349 63.9137V71.5517C58.9349 71.7712 58.7583 71.9028 58.5817 71.9028Z" fill="#FFE600"/>
</g>
<g opacity="0.6">
<path opacity="0.6" d="M61.3185 71.9028C61.1419 71.9028 60.9653 71.7273 60.9653 71.5517V63.9137C60.9653 63.7381 61.1419 63.5625 61.3185 63.5625C61.4951 63.5625 61.6717 63.7381 61.6717 63.9137V71.5517C61.6717 71.7712 61.4951 71.9028 61.3185 71.9028Z" fill="#FFE600"/>
</g>
<g opacity="0.6">
<path opacity="0.6" d="M64.0998 71.9028C63.9232 71.9028 63.7466 71.7273 63.7466 71.5517V63.9137C63.7466 63.7381 63.9232 63.5625 64.0998 63.5625C64.2763 63.5625 64.4529 63.7381 64.4529 63.9137V71.5517C64.4088 71.7712 64.2763 71.9028 64.0998 71.9028Z" fill="#FFE600"/>
</g>
<g opacity="0.6">
<path opacity="0.6" d="M66.837 71.9028C66.6605 71.9028 66.4839 71.7273 66.4839 71.5517V63.9137C66.4839 63.7381 66.6605 63.5625 66.837 63.5625C67.0136 63.5625 67.1902 63.7381 67.1902 63.9137V71.5517C67.1902 71.7712 67.0136 71.9028 66.837 71.9028Z" fill="#FFE600"/>
</g>
<g opacity="0.6">
<path opacity="0.6" d="M69.5739 71.9028C69.3973 71.9028 69.2207 71.7273 69.2207 71.5517V63.9137C69.2207 63.7381 69.3973 63.5625 69.5739 63.5625C69.7505 63.5625 69.927 63.7381 69.927 63.9137V71.5517C69.927 71.7712 69.7946 71.9028 69.5739 71.9028Z" fill="#FFE600"/>
</g>
<g opacity="0.6">
<path opacity="0.6" d="M72.3551 71.9028C72.1785 71.9028 72.002 71.7273 72.002 71.5517V63.9137C72.002 63.7381 72.1785 63.5625 72.3551 63.5625C72.5317 63.5625 72.7083 63.7381 72.7083 63.9137V71.5517C72.7083 71.7712 72.5317 71.9028 72.3551 71.9028Z" fill="#FFE600"/>
</g>
<g opacity="0.6">
<path opacity="0.6" d="M75.0919 71.9028C74.9154 71.9028 74.7388 71.7273 74.7388 71.5517V63.9137C74.7388 63.7381 74.9154 63.5625 75.0919 63.5625C75.2685 63.5625 75.4451 63.7381 75.4451 63.9137V71.5517C75.4451 71.7712 75.3127 71.9028 75.0919 71.9028Z" fill="#FFE600"/>
</g>
<g opacity="0.6">
<path opacity="0.6" d="M77.8732 71.9028C77.6966 71.9028 77.52 71.7273 77.52 71.5517V63.9137C77.52 63.7381 77.6966 63.5625 77.8732 63.5625C78.0498 63.5625 78.2263 63.7381 78.2263 63.9137V71.5517C78.2263 71.7712 78.0498 71.9028 77.8732 71.9028Z" fill="#FFE600"/>
</g>
<g opacity="0.6">
<path opacity="0.6" d="M80.6105 71.9028C80.4339 71.9028 80.2573 71.7273 80.2573 71.5517V63.9137C80.2573 63.7381 80.4339 63.5625 80.6105 63.5625C80.7871 63.5625 80.9637 63.7381 80.9637 63.9137V71.5517C80.9637 71.7712 80.8312 71.9028 80.6105 71.9028Z" fill="#FFE600"/>
</g>
<g opacity="0.6">
<path opacity="0.6" d="M83.3917 71.9028C83.2152 71.9028 83.0386 71.7273 83.0386 71.5517V63.9137C83.0386 63.7381 83.2152 63.5625 83.3917 63.5625C83.5683 63.5625 83.7449 63.7381 83.7449 63.9137V71.5517C83.7449 71.7712 83.5683 71.9028 83.3917 71.9028Z" fill="#FFE600"/>
</g>
<g opacity="0.6">
<path opacity="0.6" d="M86.1286 71.9028C85.952 71.9028 85.7754 71.7273 85.7754 71.5517V63.9137C85.7754 63.7381 85.952 63.5625 86.1286 63.5625C86.3051 63.5625 86.4817 63.7381 86.4817 63.9137V71.5517C86.4817 71.7712 86.3051 71.9028 86.1286 71.9028Z" fill="#FFE600"/>
</g>
</g>
<path d="M137.735 72.999H95.5759C95.4435 72.999 95.311 72.8673 95.311 72.7356V64.4392C95.311 64.3075 95.4435 64.1758 95.5759 64.1758H137.735C137.868 64.1758 138 64.3075 138 64.4392V72.7356C138 72.8673 137.868 72.999 137.735 72.999Z" fill="#D48200"/>
<path d="M137.735 72.5604H95.5759C95.4435 72.5604 95.311 72.4287 95.311 72.297V63.0349C95.311 62.9032 95.4435 62.7715 95.5759 62.7715H137.735C137.868 62.7715 138 62.9032 138 63.0349V72.297C138 72.4726 137.868 72.5604 137.735 72.5604Z" fill="#FFC000"/>
<path d="M95.3082 72.5762H104.314V62.7872H95.3082V72.5762Z" fill="#FFAF00"/>
<path opacity="0.21" d="M95.3128 72.5762H98.0498V62.7872H95.3128V72.5762Z" fill="#A20012"/>
<path d="M129.458 72.5762H132.592V62.7872H129.458V72.5762Z" fill="#FFDE00"/>
<g opacity="0.6">
<g opacity="0.6">
<path opacity="0.6" d="M97.3859 71.9028C97.2093 71.9028 97.0327 71.7273 97.0327 71.5517V63.9137C97.0327 63.7381 97.2093 63.5625 97.3859 63.5625C97.5625 63.5625 97.739 63.7381 97.739 63.9137V71.5517C97.739 71.7712 97.5625 71.9028 97.3859 71.9028Z" fill="#FFE600"/>
</g>
<g opacity="0.6">
<path opacity="0.6" d="M100.123 71.9028C99.9461 71.9028 99.7695 71.7273 99.7695 71.5517V63.9137C99.7695 63.7381 99.9461 63.5625 100.123 63.5625C100.299 63.5625 100.476 63.7381 100.476 63.9137V71.5517C100.476 71.7712 100.299 71.9028 100.123 71.9028Z" fill="#FFE600"/>
</g>
<g opacity="0.6">
<path opacity="0.6" d="M102.904 71.9028C102.727 71.9028 102.551 71.7273 102.551 71.5517V63.9137C102.551 63.7381 102.727 63.5625 102.904 63.5625C103.081 63.5625 103.257 63.7381 103.257 63.9137V71.5517C103.213 71.7712 103.081 71.9028 102.904 71.9028Z" fill="#FFE600"/>
</g>
<g opacity="0.6">
<path opacity="0.6" d="M105.641 71.9028C105.465 71.9028 105.288 71.7273 105.288 71.5517V63.9137C105.288 63.7381 105.465 63.5625 105.641 63.5625C105.818 63.5625 105.994 63.7381 105.994 63.9137V71.5517C105.994 71.7712 105.818 71.9028 105.641 71.9028Z" fill="#FFE600"/>
</g>
<g opacity="0.6">
<path opacity="0.6" d="M108.378 71.9028C108.201 71.9028 108.025 71.7273 108.025 71.5517V63.9137C108.025 63.7381 108.201 63.5625 108.378 63.5625C108.555 63.5625 108.731 63.7381 108.731 63.9137V71.5517C108.731 71.7712 108.599 71.9028 108.378 71.9028Z" fill="#FFE600"/>
</g>
<g opacity="0.6">
<path opacity="0.6" d="M111.159 71.9028C110.983 71.9028 110.806 71.7273 110.806 71.5517V63.9137C110.806 63.7381 110.983 63.5625 111.159 63.5625C111.336 63.5625 111.512 63.7381 111.512 63.9137V71.5517C111.512 71.7712 111.336 71.9028 111.159 71.9028Z" fill="#FFE600"/>
</g>
<g opacity="0.6">
<path opacity="0.6" d="M113.897 71.9028C113.72 71.9028 113.543 71.7273 113.543 71.5517V63.9137C113.543 63.7381 113.72 63.5625 113.897 63.5625C114.073 63.5625 114.25 63.7381 114.25 63.9137V71.5517C114.25 71.7712 114.117 71.9028 113.897 71.9028Z" fill="#FFE600"/>
</g>
<g opacity="0.6">
<path opacity="0.6" d="M116.678 71.9028C116.501 71.9028 116.325 71.7273 116.325 71.5517V63.9137C116.325 63.7381 116.501 63.5625 116.678 63.5625C116.854 63.5625 117.031 63.7381 117.031 63.9137V71.5517C117.031 71.7712 116.854 71.9028 116.678 71.9028Z" fill="#FFE600"/>
</g>
<g opacity="0.6">
<path opacity="0.6" d="M119.415 71.9028C119.238 71.9028 119.062 71.7273 119.062 71.5517V63.9137C119.062 63.7381 119.238 63.5625 119.415 63.5625C119.591 63.5625 119.768 63.7381 119.768 63.9137V71.5517C119.768 71.7712 119.635 71.9028 119.415 71.9028Z" fill="#FFE600"/>
</g>
<g opacity="0.6">
<path opacity="0.6" d="M122.196 71.9028C122.019 71.9028 121.843 71.7273 121.843 71.5517V63.9137C121.843 63.7381 122.019 63.5625 122.196 63.5625C122.373 63.5625 122.549 63.7381 122.549 63.9137V71.5517C122.505 71.7712 122.373 71.9028 122.196 71.9028Z" fill="#FFE600"/>
</g>
<g opacity="0.6">
<path opacity="0.6" d="M124.933 71.9028C124.756 71.9028 124.58 71.7273 124.58 71.5517V63.9137C124.58 63.7381 124.756 63.5625 124.933 63.5625C125.109 63.5625 125.286 63.7381 125.286 63.9137V71.5517C125.286 71.7712 125.109 71.9028 124.933 71.9028Z" fill="#FFE600"/>
</g>
<g opacity="0.6">
<path opacity="0.6" d="M127.67 71.9028C127.493 71.9028 127.317 71.7273 127.317 71.5517V63.9137C127.317 63.7381 127.493 63.5625 127.67 63.5625C127.847 63.5625 128.023 63.7381 128.023 63.9137V71.5517C128.023 71.7712 127.891 71.9028 127.67 71.9028Z" fill="#FFE600"/>
</g>
<g opacity="0.6">
<path opacity="0.6" d="M130.451 71.9028C130.275 71.9028 130.098 71.7273 130.098 71.5517V63.9137C130.098 63.7381 130.275 63.5625 130.451 63.5625C130.628 63.5625 130.804 63.7381 130.804 63.9137V71.5517C130.804 71.7712 130.628 71.9028 130.451 71.9028Z" fill="#FFE600"/>
</g>
<g opacity="0.6">
<path opacity="0.6" d="M133.188 71.9028C133.012 71.9028 132.835 71.7273 132.835 71.5517V63.9137C132.835 63.7381 133.012 63.5625 133.188 63.5625C133.365 63.5625 133.541 63.7381 133.541 63.9137V71.5517C133.541 71.7712 133.409 71.9028 133.188 71.9028Z" fill="#FFE600"/>
</g>
<g opacity="0.6">
<path opacity="0.6" d="M135.969 71.9028C135.793 71.9028 135.616 71.7273 135.616 71.5517V63.9137C135.616 63.7381 135.793 63.5625 135.969 63.5625C136.146 63.5625 136.323 63.7381 136.323 63.9137V71.5517C136.323 71.7712 136.146 71.9028 135.969 71.9028Z" fill="#FFE600"/>
</g>
</g>
<path d="M123.741 62.7724H81.5818C81.4493 62.7724 81.3169 62.6407 81.3169 62.5091V54.2126C81.3169 54.0809 81.4493 53.9492 81.5818 53.9492H123.741C123.874 53.9492 124.006 54.0809 124.006 54.2126V62.5091C124.006 62.6846 123.874 62.7724 123.741 62.7724Z" fill="#D48200"/>
<path d="M123.741 62.3788H81.5818C81.4493 62.3788 81.3169 62.2471 81.3169 62.1154V52.8532C81.3169 52.7215 81.4493 52.5898 81.5818 52.5898H123.741C123.874 52.5898 124.006 52.7215 124.006 52.8532V62.1154C124.006 62.2471 123.874 62.3788 123.741 62.3788Z" fill="#FFC000"/>
<path opacity="0.15" d="M81.3238 62.3457L123.969 62.3457V52.5568L81.3238 52.5568V62.3457Z" fill="#A20012"/>
<path opacity="0.21" d="M81.363 62.3457H85.292V52.5568H81.363V62.3457Z" fill="#A20012"/>
<path opacity="0.25" d="M115.453 62.3457H118.587V52.5568H115.453V62.3457Z" fill="#FFDE00"/>
<g opacity="0.6">
<g opacity="0.6">
<path opacity="0.6" d="M83.3917 61.7193C83.2152 61.7193 83.0386 61.5437 83.0386 61.3681V53.7301C83.0386 53.5545 83.2152 53.3789 83.3917 53.3789C83.5683 53.3789 83.7449 53.5545 83.7449 53.7301V61.3681C83.7008 61.5437 83.5683 61.7193 83.3917 61.7193Z" fill="#FFE600"/>
</g>
<g opacity="0.6">
<path opacity="0.6" d="M86.1286 61.7193C85.952 61.7193 85.7754 61.5437 85.7754 61.3681V53.7301C85.7754 53.5545 85.952 53.3789 86.1286 53.3789C86.3051 53.3789 86.4817 53.5545 86.4817 53.7301V61.3681C86.4817 61.5437 86.3051 61.7193 86.1286 61.7193Z" fill="#FFE600"/>
</g>
<g opacity="0.6">
<path opacity="0.6" d="M88.8659 61.7193C88.6893 61.7193 88.5127 61.5437 88.5127 61.3681V53.7301C88.5127 53.5545 88.6893 53.3789 88.8659 53.3789C89.0424 53.3789 89.219 53.5545 89.219 53.7301V61.3681C89.219 61.5437 89.0866 61.7193 88.8659 61.7193Z" fill="#FFE600"/>
</g>
<g opacity="0.6">
<path opacity="0.6" d="M91.6471 61.7193C91.4705 61.7193 91.2939 61.5437 91.2939 61.3681V53.7301C91.2939 53.5545 91.4705 53.3789 91.6471 53.3789C91.8237 53.3789 92.0003 53.5545 92.0003 53.7301V61.3681C92.0003 61.5437 91.8237 61.7193 91.6471 61.7193Z" fill="#FFE600"/>
</g>
<g opacity="0.6">
<path opacity="0.6" d="M94.3839 61.7193C94.2073 61.7193 94.0308 61.5437 94.0308 61.3681V53.7301C94.0308 53.5545 94.2073 53.3789 94.3839 53.3789C94.5605 53.3789 94.7371 53.5545 94.7371 53.7301V61.3681C94.7371 61.5437 94.6047 61.7193 94.3839 61.7193Z" fill="#FFE600"/>
</g>
<g opacity="0.6">
<path opacity="0.6" d="M97.1652 61.7193C96.9886 61.7193 96.812 61.5437 96.812 61.3681V53.7301C96.812 53.5545 96.9886 53.3789 97.1652 53.3789C97.3418 53.3789 97.5183 53.5545 97.5183 53.7301V61.3681C97.5183 61.5437 97.3418 61.7193 97.1652 61.7193Z" fill="#FFE600"/>
</g>
<g opacity="0.6">
<path opacity="0.6" d="M99.9025 61.7193C99.7259 61.7193 99.5493 61.5437 99.5493 61.3681V53.7301C99.5493 53.5545 99.7259 53.3789 99.9025 53.3789C100.079 53.3789 100.256 53.5545 100.256 53.7301V61.3681C100.256 61.5437 100.123 61.7193 99.9025 61.7193Z" fill="#FFE600"/>
</g>
<g opacity="0.6">
<path opacity="0.6" d="M102.684 61.7193C102.507 61.7193 102.331 61.5437 102.331 61.3681V53.7301C102.331 53.5545 102.507 53.3789 102.684 53.3789C102.86 53.3789 103.037 53.5545 103.037 53.7301V61.3681C103.037 61.5437 102.86 61.7193 102.684 61.7193Z" fill="#FFE600"/>
</g>
<g opacity="0.6">
<path opacity="0.6" d="M105.421 61.7193C105.244 61.7193 105.067 61.5437 105.067 61.3681V53.7301C105.067 53.5545 105.244 53.3789 105.421 53.3789C105.597 53.3789 105.774 53.5545 105.774 53.7301V61.3681C105.774 61.5437 105.597 61.7193 105.421 61.7193Z" fill="#FFE600"/>
</g>
<g opacity="0.6">
<path opacity="0.6" d="M108.157 61.7193C107.981 61.7193 107.804 61.5437 107.804 61.3681V53.7301C107.804 53.5545 107.981 53.3789 108.157 53.3789C108.334 53.3789 108.511 53.5545 108.511 53.7301V61.3681C108.511 61.5437 108.378 61.7193 108.157 61.7193Z" fill="#FFE600"/>
</g>
<g opacity="0.6">
<path opacity="0.6" d="M110.939 61.7193C110.762 61.7193 110.585 61.5437 110.585 61.3681V53.7301C110.585 53.5545 110.762 53.3789 110.939 53.3789C111.115 53.3789 111.292 53.5545 111.292 53.7301V61.3681C111.292 61.5437 111.115 61.7193 110.939 61.7193Z" fill="#FFE600"/>
</g>
<g opacity="0.6">
<path opacity="0.6" d="M113.676 61.7193C113.499 61.7193 113.323 61.5437 113.323 61.3681V53.7301C113.323 53.5545 113.499 53.3789 113.676 53.3789C113.852 53.3789 114.029 53.5545 114.029 53.7301V61.3681C114.029 61.5437 113.897 61.7193 113.676 61.7193Z" fill="#FFE600"/>
</g>
<g opacity="0.6">
<path opacity="0.6" d="M116.457 61.7193C116.281 61.7193 116.104 61.5437 116.104 61.3681V53.7301C116.104 53.5545 116.281 53.3789 116.457 53.3789C116.634 53.3789 116.81 53.5545 116.81 53.7301V61.3681C116.81 61.5437 116.634 61.7193 116.457 61.7193Z" fill="#FFE600"/>
</g>
<g opacity="0.6">
<path opacity="0.6" d="M119.194 61.7193C119.017 61.7193 118.841 61.5437 118.841 61.3681V53.7301C118.841 53.5545 119.017 53.3789 119.194 53.3789C119.371 53.3789 119.547 53.5545 119.547 53.7301V61.3681C119.547 61.5437 119.415 61.7193 119.194 61.7193Z" fill="#FFE600"/>
</g>
<g opacity="0.6">
<path opacity="0.6" d="M121.975 61.7193C121.799 61.7193 121.622 61.5437 121.622 61.3681V53.7301C121.622 53.5545 121.799 53.3789 121.975 53.3789C122.152 53.3789 122.328 53.5545 122.328 53.7301V61.3681C122.328 61.5437 122.152 61.7193 121.975 61.7193Z" fill="#FFE600"/>
</g>
</g>
<path d="M78.9328 62.7724H36.8176C36.6852 62.7724 36.5527 62.6407 36.5527 62.5091V54.2126C36.5527 54.0809 36.6852 53.9492 36.8176 53.9492H78.9769C79.1093 53.9492 79.2418 54.0809 79.2418 54.2126V62.5091C79.1976 62.6846 79.0652 62.7724 78.9328 62.7724Z" fill="#D48200"/>
<path d="M78.9333 62.3788H36.8181C36.6857 62.3788 36.5532 62.2471 36.5532 62.1154V52.8532C36.5532 52.7215 36.6857 52.5898 36.8181 52.5898H78.9774C79.1098 52.5898 79.2423 52.7215 79.2423 52.8532V62.1154C79.1981 62.2471 79.0657 62.3788 78.9333 62.3788Z" fill="#FFC000"/>
<path d="M36.5287 62.3457H56.4385V52.5568H36.5287V62.3457Z" fill="#FFAF00"/>
<path opacity="0.21" d="M36.5227 62.3457H39.2598V52.5568H36.5227V62.3457Z" fill="#A20012"/>
<path d="M70.6679 62.3457H73.8022V52.5568H70.6679V62.3457Z" fill="#FFDE00"/>
<g opacity="0.6">
<g opacity="0.6">
<path opacity="0.6" d="M38.5836 61.7193C38.4071 61.7193 38.2305 61.5437 38.2305 61.3681V53.7301C38.2305 53.5545 38.4071 53.3789 38.5836 53.3789C38.7602 53.3789 38.9368 53.5545 38.9368 53.7301V61.3681C38.9368 61.5437 38.7602 61.7193 38.5836 61.7193Z" fill="#FFE600"/>
</g>
<g opacity="0.6">
<path opacity="0.6" d="M41.3204 61.7193C41.1439 61.7193 40.9673 61.5437 40.9673 61.3681V53.7301C40.9673 53.5545 41.1439 53.3789 41.3204 53.3789C41.497 53.3789 41.6736 53.5545 41.6736 53.7301V61.3681C41.6736 61.5437 41.5412 61.7193 41.3204 61.7193Z" fill="#FFE600"/>
</g>
<g opacity="0.6">
<path opacity="0.6" d="M44.1017 61.7193C43.9251 61.7193 43.7485 61.5437 43.7485 61.3681V53.7301C43.7485 53.5545 43.9251 53.3789 44.1017 53.3789C44.2783 53.3789 44.4549 53.5545 44.4549 53.7301V61.3681C44.4549 61.5437 44.2783 61.7193 44.1017 61.7193Z" fill="#FFE600"/>
</g>
<g opacity="0.6">
<path opacity="0.6" d="M46.839 61.7193C46.6624 61.7193 46.4858 61.5437 46.4858 61.3681V53.7301C46.4858 53.5545 46.6624 53.3789 46.839 53.3789C47.0156 53.3789 47.1922 53.5545 47.1922 53.7301V61.3681C47.1922 61.5437 47.0156 61.7193 46.839 61.7193Z" fill="#FFE600"/>
</g>
<g opacity="0.6">
<path opacity="0.6" d="M49.6203 61.7193C49.4437 61.7193 49.2671 61.5437 49.2671 61.3681V53.7301C49.2671 53.5545 49.4437 53.3789 49.6203 53.3789C49.7968 53.3789 49.9734 53.5545 49.9734 53.7301V61.3681C49.9293 61.5437 49.7968 61.7193 49.6203 61.7193Z" fill="#FFE600"/>
</g>
<g opacity="0.6">
<path opacity="0.6" d="M52.3571 61.7193C52.1805 61.7193 52.0039 61.5437 52.0039 61.3681V53.7301C52.0039 53.5545 52.1805 53.3789 52.3571 53.3789C52.5337 53.3789 52.7102 53.5545 52.7102 53.7301V61.3681C52.7102 61.5437 52.5337 61.7193 52.3571 61.7193Z" fill="#FFE600"/>
</g>
<g opacity="0.6">
<path opacity="0.6" d="M55.0944 61.7193C54.9178 61.7193 54.7412 61.5437 54.7412 61.3681V53.7301C54.7412 53.5545 54.9178 53.3789 55.0944 53.3789C55.271 53.3789 55.4475 53.5545 55.4475 53.7301V61.3681C55.4475 61.5437 55.3151 61.7193 55.0944 61.7193Z" fill="#FFE600"/>
</g>
<g opacity="0.6">
<path opacity="0.6" d="M57.8756 61.7193C57.699 61.7193 57.5225 61.5437 57.5225 61.3681V53.7301C57.5225 53.5545 57.699 53.3789 57.8756 53.3789C58.0522 53.3789 58.2288 53.5545 58.2288 53.7301V61.3681C58.2288 61.5437 58.0522 61.7193 57.8756 61.7193Z" fill="#FFE600"/>
</g>
<g opacity="0.6">
<path opacity="0.6" d="M60.6124 61.7193C60.4359 61.7193 60.2593 61.5437 60.2593 61.3681V53.7301C60.2593 53.5545 60.4359 53.3789 60.6124 53.3789C60.789 53.3789 60.9656 53.5545 60.9656 53.7301V61.3681C60.9656 61.5437 60.8332 61.7193 60.6124 61.7193Z" fill="#FFE600"/>
</g>
<g opacity="0.6">
<path opacity="0.6" d="M63.3937 61.7193C63.2171 61.7193 63.0405 61.5437 63.0405 61.3681V53.7301C63.0405 53.5545 63.2171 53.3789 63.3937 53.3789C63.5703 53.3789 63.7469 53.5545 63.7469 53.7301V61.3681C63.7469 61.5437 63.5703 61.7193 63.3937 61.7193Z" fill="#FFE600"/>
</g>
<g opacity="0.6">
<path opacity="0.6" d="M66.1305 61.7193C65.9539 61.7193 65.7773 61.5437 65.7773 61.3681V53.7301C65.7773 53.5545 65.9539 53.3789 66.1305 53.3789C66.3071 53.3789 66.4837 53.5545 66.4837 53.7301V61.3681C66.4837 61.5437 66.3512 61.7193 66.1305 61.7193Z" fill="#FFE600"/>
</g>
<g opacity="0.6">
<path opacity="0.6" d="M68.9118 61.7193C68.7352 61.7193 68.5586 61.5437 68.5586 61.3681V53.7301C68.5586 53.5545 68.7352 53.3789 68.9118 53.3789C69.0883 53.3789 69.2649 53.5545 69.2649 53.7301V61.3681C69.2649 61.5437 69.0883 61.7193 68.9118 61.7193Z" fill="#FFE600"/>
</g>
<g opacity="0.6">
<path opacity="0.6" d="M71.6491 61.7193C71.4725 61.7193 71.2959 61.5437 71.2959 61.3681V53.7301C71.2959 53.5545 71.4725 53.3789 71.6491 53.3789C71.8257 53.3789 72.0022 53.5545 72.0022 53.7301V61.3681C72.0022 61.5437 71.8257 61.7193 71.6491 61.7193Z" fill="#FFE600"/>
</g>
<g opacity="0.6">
<path opacity="0.6" d="M74.3859 61.7193C74.2093 61.7193 74.0327 61.5437 74.0327 61.3681V53.7301C74.0327 53.5545 74.2093 53.3789 74.3859 53.3789C74.5625 53.3789 74.739 53.5545 74.739 53.7301V61.3681C74.739 61.5437 74.6066 61.7193 74.3859 61.7193Z" fill="#FFE600"/>
</g>
<g opacity="0.6">
<path opacity="0.6" d="M77.1671 61.7193C76.9905 61.7193 76.814 61.5437 76.814 61.3681V53.7301C76.814 53.5545 76.9905 53.3789 77.1671 53.3789C77.3437 53.3789 77.5203 53.5545 77.5203 53.7301V61.3681C77.5203 61.5437 77.3437 61.7193 77.1671 61.7193Z" fill="#FFE600"/>
</g>
</g>
<path d="M74.43 52.5009H32.2707C32.1383 52.5009 32.0059 52.3693 32.0059 52.2376V43.9411C32.0059 43.8094 32.1383 43.6777 32.2707 43.6777H74.43C74.5625 43.6777 74.6949 43.8094 74.6949 43.9411V52.2376C74.6508 52.4132 74.5625 52.5009 74.43 52.5009Z" fill="#D48200"/>
<path d="M74.43 52.1053H32.2707C32.1383 52.1053 32.0059 51.9736 32.0059 51.842V42.5798C32.0059 42.4481 32.1383 42.3164 32.2707 42.3164H74.43C74.5625 42.3164 74.6949 42.4481 74.6949 42.5798V51.842C74.6508 51.9736 74.5625 52.1053 74.43 52.1053Z" fill="#FFC000"/>
<path d="M32.0062 52.082H53.417V42.2931H32.0062V52.082Z" fill="#FFAF00"/>
<path opacity="0.21" d="M32.013 52.082H34.75V42.2931H32.013V52.082Z" fill="#A20012"/>
<path d="M66.1137 52.082H69.248V42.2931H66.1137V52.082Z" fill="#FFDE00"/>
<g opacity="0.6">
<g opacity="0.6">
<path opacity="0.6" d="M34.0368 51.4478C33.8602 51.4478 33.6836 51.2722 33.6836 51.0966V43.4586C33.6836 43.283 33.8602 43.1074 34.0368 43.1074C34.2133 43.1074 34.3899 43.283 34.3899 43.4586V51.0966C34.3899 51.2722 34.2575 51.4478 34.0368 51.4478Z" fill="#FFE600"/>
</g>
<g opacity="0.6">
<path opacity="0.6" d="M36.818 51.4478C36.6414 51.4478 36.4648 51.2722 36.4648 51.0966V43.4586C36.4648 43.283 36.6414 43.1074 36.818 43.1074C36.9946 43.1074 37.1712 43.283 37.1712 43.4586V51.0966C37.1712 51.2722 36.9946 51.4478 36.818 51.4478Z" fill="#FFE600"/>
</g>
<g opacity="0.6">
<path opacity="0.6" d="M39.5548 51.4478C39.3782 51.4478 39.2017 51.2722 39.2017 51.0966V43.4586C39.2017 43.283 39.3782 43.1074 39.5548 43.1074C39.7314 43.1074 39.908 43.283 39.908 43.4586V51.0966C39.908 51.2722 39.7314 51.4478 39.5548 51.4478Z" fill="#FFE600"/>
</g>
<g opacity="0.6">
<path opacity="0.6" d="M42.3361 51.4478C42.1595 51.4478 41.9829 51.2722 41.9829 51.0966V43.4586C41.9829 43.283 42.1595 43.1074 42.3361 43.1074C42.5127 43.1074 42.6892 43.283 42.6892 43.4586V51.0966C42.6451 51.2722 42.5127 51.4478 42.3361 51.4478Z" fill="#FFE600"/>
</g>
<g opacity="0.6">
<path opacity="0.6" d="M45.0734 51.4478C44.8968 51.4478 44.7202 51.2722 44.7202 51.0966V43.4586C44.7202 43.283 44.8968 43.1074 45.0734 43.1074C45.25 43.1074 45.4266 43.283 45.4266 43.4586V51.0966C45.4266 51.2722 45.25 51.4478 45.0734 51.4478Z" fill="#FFE600"/>
</g>
<g opacity="0.6">
<path opacity="0.6" d="M47.8102 51.4478C47.6336 51.4478 47.457 51.2722 47.457 51.0966V43.4586C47.457 43.283 47.6336 43.1074 47.8102 43.1074C47.9868 43.1074 48.1634 43.283 48.1634 43.4586V51.0966C48.1634 51.2722 48.0309 51.4478 47.8102 51.4478Z" fill="#FFE600"/>
</g>
<g opacity="0.6">
<path opacity="0.6" d="M50.5914 51.4478C50.4149 51.4478 50.2383 51.2722 50.2383 51.0966V43.4586C50.2383 43.283 50.4149 43.1074 50.5914 43.1074C50.768 43.1074 50.9446 43.283 50.9446 43.4586V51.0966C50.9446 51.2722 50.768 51.4478 50.5914 51.4478Z" fill="#FFE600"/>
</g>
<g opacity="0.6">
<path opacity="0.6" d="M53.3288 51.4478C53.1522 51.4478 52.9756 51.2722 52.9756 51.0966V43.4586C52.9756 43.283 53.1522 43.1074 53.3288 43.1074C53.5053 43.1074 53.6819 43.283 53.6819 43.4586V51.0966C53.6819 51.2722 53.5495 51.4478 53.3288 51.4478Z" fill="#FFE600"/>
</g>
<g opacity="0.6">
<path opacity="0.6" d="M56.1095 51.4478C55.9329 51.4478 55.7563 51.2722 55.7563 51.0966V43.4586C55.7563 43.283 55.9329 43.1074 56.1095 43.1074C56.2861 43.1074 56.4627 43.283 56.4627 43.4586V51.0966C56.4627 51.2722 56.2861 51.4478 56.1095 51.4478Z" fill="#FFE600"/>
</g>
<g opacity="0.6">
<path opacity="0.6" d="M58.8468 51.4478C58.6702 51.4478 58.4937 51.2722 58.4937 51.0966V43.4586C58.4937 43.283 58.6702 43.1074 58.8468 43.1074C59.0234 43.1074 59.2 43.283 59.2 43.4586V51.0966C59.2 51.2722 59.0234 51.4478 58.8468 51.4478Z" fill="#FFE600"/>
</g>
<g opacity="0.6">
<path opacity="0.6" d="M61.6281 51.4478C61.4515 51.4478 61.2749 51.2722 61.2749 51.0966V43.4586C61.2749 43.283 61.4515 43.1074 61.6281 43.1074C61.8047 43.1074 61.9812 43.283 61.9812 43.4586V51.0966C61.9371 51.2722 61.8047 51.4478 61.6281 51.4478Z" fill="#FFE600"/>
</g>
<g opacity="0.6">
<path opacity="0.6" d="M64.3649 51.4478C64.1883 51.4478 64.0117 51.2722 64.0117 51.0966V43.4586C64.0117 43.283 64.1883 43.1074 64.3649 43.1074C64.5415 43.1074 64.718 43.283 64.718 43.4586V51.0966C64.718 51.2722 64.5415 51.4478 64.3649 51.4478Z" fill="#FFE600"/>
</g>
<g opacity="0.6">
<path opacity="0.6" d="M67.1022 51.4478C66.9256 51.4478 66.749 51.2722 66.749 51.0966V43.4586C66.749 43.283 66.9256 43.1074 67.1022 43.1074C67.2788 43.1074 67.4554 43.283 67.4554 43.4586V51.0966C67.4554 51.2722 67.3229 51.4478 67.1022 51.4478Z" fill="#FFE600"/>
</g>
<g opacity="0.6">
<path opacity="0.6" d="M69.8834 51.4478C69.7069 51.4478 69.5303 51.2722 69.5303 51.0966V43.4586C69.5303 43.283 69.7069 43.1074 69.8834 43.1074C70.06 43.1074 70.2366 43.283 70.2366 43.4586V51.0966C70.2366 51.2722 70.06 51.4478 69.8834 51.4478Z" fill="#FFE600"/>
</g>
<g opacity="0.6">
<path opacity="0.6" d="M72.6203 51.4478C72.4437 51.4478 72.2671 51.2722 72.2671 51.0966V43.4586C72.2671 43.283 72.4437 43.1074 72.6203 43.1074C72.7968 43.1074 72.9734 43.283 72.9734 43.4586V51.0966C72.9734 51.2722 72.841 51.4478 72.6203 51.4478Z" fill="#FFE600"/>
</g>
</g>
<path d="M126.08 52.5009H83.9211C83.7887 52.5009 83.6562 52.3693 83.6562 52.2376V43.9411C83.6562 43.8094 83.7887 43.6777 83.9211 43.6777H126.08C126.213 43.6777 126.345 43.8094 126.345 43.9411V52.2376C126.345 52.4132 126.213 52.5009 126.08 52.5009Z" fill="#D48200"/>
<path d="M126.08 52.1053H83.9211C83.7887 52.1053 83.6562 51.9736 83.6562 51.842V42.5798C83.6562 42.4481 83.7887 42.3164 83.9211 42.3164H126.08C126.213 42.3164 126.345 42.4481 126.345 42.5798V51.842C126.345 51.9736 126.213 52.1053 126.08 52.1053Z" fill="#FFC000"/>
<path d="M83.6542 52.082H105.065V42.2931H83.6542V52.082Z" fill="#FFAF00"/>
<path opacity="0.21" d="M83.6521 52.082H86.3892V42.2931H83.6521V52.082Z" fill="#A20012"/>
<path d="M117.797 52.082H120.932V42.2931H117.797V52.082Z" fill="#FFDE00"/>
<g opacity="0.6">
<g opacity="0.6">
<path opacity="0.6" d="M85.7311 51.4478C85.5545 51.4478 85.3779 51.2722 85.3779 51.0966V43.4586C85.3779 43.283 85.5545 43.1074 85.7311 43.1074C85.9077 43.1074 86.0843 43.283 86.0843 43.4586V51.0966C86.0843 51.2722 85.9077 51.4478 85.7311 51.4478Z" fill="#FFE600"/>
</g>
<g opacity="0.6">
<path opacity="0.6" d="M88.4684 51.4478C88.2918 51.4478 88.1152 51.2722 88.1152 51.0966V43.4586C88.1152 43.283 88.2918 43.1074 88.4684 43.1074C88.645 43.1074 88.8216 43.283 88.8216 43.4586V51.0966C88.8216 51.2722 88.645 51.4478 88.4684 51.4478Z" fill="#FFE600"/>
</g>
<g opacity="0.6">
<path opacity="0.6" d="M91.2052 51.4478C91.0286 51.4478 90.8521 51.2722 90.8521 51.0966V43.4586C90.8521 43.283 91.0286 43.1074 91.2052 43.1074C91.3818 43.1074 91.5584 43.283 91.5584 43.4586V51.0966C91.5584 51.2722 91.426 51.4478 91.2052 51.4478Z" fill="#FFE600"/>
</g>
<g opacity="0.6">
<path opacity="0.6" d="M93.9865 51.4478C93.8099 51.4478 93.6333 51.2722 93.6333 51.0966V43.4586C93.6333 43.283 93.8099 43.1074 93.9865 43.1074C94.1631 43.1074 94.3396 43.283 94.3396 43.4586V51.0966C94.3396 51.2722 94.1631 51.4478 93.9865 51.4478Z" fill="#FFE600"/>
</g>
<g opacity="0.6">
<path opacity="0.6" d="M96.7233 51.4478C96.5467 51.4478 96.3701 51.2722 96.3701 51.0966V43.4586C96.3701 43.283 96.5467 43.1074 96.7233 43.1074C96.8999 43.1074 97.0765 43.283 97.0765 43.4586V51.0966C97.0765 51.2722 96.944 51.4478 96.7233 51.4478Z" fill="#FFE600"/>
</g>
<g opacity="0.6">
<path opacity="0.6" d="M99.5045 51.4478C99.3279 51.4478 99.1514 51.2722 99.1514 51.0966V43.4586C99.1514 43.283 99.3279 43.1074 99.5045 43.1074C99.6811 43.1074 99.8577 43.283 99.8577 43.4586V51.0966C99.8577 51.2722 99.6811 51.4478 99.5045 51.4478Z" fill="#FFE600"/>
</g>
<g opacity="0.6">
<path opacity="0.6" d="M102.242 51.4478C102.065 51.4478 101.889 51.2722 101.889 51.0966V43.4586C101.889 43.283 102.065 43.1074 102.242 43.1074C102.418 43.1074 102.595 43.283 102.595 43.4586V51.0966C102.595 51.2722 102.463 51.4478 102.242 51.4478Z" fill="#FFE600"/>
</g>
<g opacity="0.6">
<path opacity="0.6" d="M105.023 51.4478C104.847 51.4478 104.67 51.2722 104.67 51.0966V43.4586C104.67 43.283 104.847 43.1074 105.023 43.1074C105.2 43.1074 105.376 43.283 105.376 43.4586V51.0966C105.376 51.2722 105.2 51.4478 105.023 51.4478Z" fill="#FFE600"/>
</g>
<g opacity="0.6">
<path opacity="0.6" d="M107.76 51.4478C107.583 51.4478 107.407 51.2722 107.407 51.0966V43.4586C107.407 43.283 107.583 43.1074 107.76 43.1074C107.936 43.1074 108.113 43.283 108.113 43.4586V51.0966C108.113 51.2722 107.936 51.4478 107.76 51.4478Z" fill="#FFE600"/>
</g>
<g opacity="0.6">
<path opacity="0.6" d="M110.541 51.4478C110.365 51.4478 110.188 51.2722 110.188 51.0966V43.4586C110.188 43.283 110.365 43.1074 110.541 43.1074C110.718 43.1074 110.894 43.283 110.894 43.4586V51.0966C110.85 51.2722 110.718 51.4478 110.541 51.4478Z" fill="#FFE600"/>
</g>
<g opacity="0.6">
<path opacity="0.6" d="M113.278 51.4478C113.101 51.4478 112.925 51.2722 112.925 51.0966V43.4586C112.925 43.283 113.101 43.1074 113.278 43.1074C113.455 43.1074 113.631 43.283 113.631 43.4586V51.0966C113.631 51.2722 113.455 51.4478 113.278 51.4478Z" fill="#FFE600"/>
</g>
<g opacity="0.6">
<path opacity="0.6" d="M116.015 51.4478C115.839 51.4478 115.662 51.2722 115.662 51.0966V43.4586C115.662 43.283 115.839 43.1074 116.015 43.1074C116.192 43.1074 116.368 43.283 116.368 43.4586V51.0966C116.368 51.2722 116.236 51.4478 116.015 51.4478Z" fill="#FFE600"/>
</g>
<g opacity="0.6">
<path opacity="0.6" d="M118.797 51.4478C118.62 51.4478 118.443 51.2722 118.443 51.0966V43.4586C118.443 43.283 118.62 43.1074 118.797 43.1074C118.973 43.1074 119.15 43.283 119.15 43.4586V51.0966C119.15 51.2722 118.973 51.4478 118.797 51.4478Z" fill="#FFE600"/>
</g>
<g opacity="0.6">
<path opacity="0.6" d="M121.533 51.4478C121.357 51.4478 121.18 51.2722 121.18 51.0966V43.4586C121.18 43.283 121.357 43.1074 121.533 43.1074C121.71 43.1074 121.887 43.283 121.887 43.4586V51.0966C121.887 51.2722 121.754 51.4478 121.533 51.4478Z" fill="#FFE600"/>
</g>
<g opacity="0.6">
<path opacity="0.6" d="M124.315 51.4478C124.138 51.4478 123.961 51.2722 123.961 51.0966V43.4586C123.961 43.283 124.138 43.1074 124.315 43.1074C124.491 43.1074 124.668 43.283 124.668 43.4586V51.0966C124.668 51.2722 124.491 51.4478 124.315 51.4478Z" fill="#FFE600"/>
</g>
</g>
<path d="M126.08 42.4052H83.9211C83.7887 42.4052 83.6562 42.2736 83.6562 42.1419V33.8454C83.6562 33.7137 83.7887 33.582 83.9211 33.582H126.08C126.213 33.582 126.345 33.7137 126.345 33.8454V42.1419C126.345 42.3174 126.213 42.4052 126.08 42.4052Z" fill="#D48200"/>
<path d="M126.08 42.0096H83.9211C83.7887 42.0096 83.6562 41.878 83.6562 41.7463V32.4841C83.6562 32.3524 83.7887 32.2207 83.9211 32.2207H126.08C126.213 32.2207 126.345 32.3524 126.345 32.4841V41.7463C126.345 41.878 126.213 42.0096 126.08 42.0096Z" fill="#FABC00"/>
<path d="M83.6572 41.9941H104.715V32.2052H83.6572V41.9941Z" fill="#FFAF00"/>
<path opacity="0.11" d="M83.6681 41.9941L126.313 41.9941V32.2052L83.6681 32.2052V41.9941Z" fill="#A20012"/>
<path opacity="0.59" d="M117.797 41.9941H120.932V32.2052H117.797V41.9941Z" fill="#FFDE00"/>
<g opacity="0.6">
<g opacity="0.6">
<path opacity="0.6" d="M85.7311 41.3501C85.5545 41.3501 85.3779 41.1745 85.3779 40.9989V33.3609C85.3779 33.1854 85.5545 33.0098 85.7311 33.0098C85.9077 33.0098 86.0843 33.1854 86.0843 33.3609V40.9989C86.0843 41.1745 85.9077 41.3501 85.7311 41.3501Z" fill="#FFE600"/>
</g>
<g opacity="0.6">
<path opacity="0.6" d="M88.4679 41.3501C88.2913 41.3501 88.1147 41.1745 88.1147 40.9989V33.3609C88.1147 33.1854 88.2913 33.0098 88.4679 33.0098C88.6445 33.0098 88.8211 33.1854 88.8211 33.3609V40.9989C88.8211 41.1745 88.6445 41.3501 88.4679 41.3501Z" fill="#FFE600"/>
</g>
<g opacity="0.6">
<path opacity="0.6" d="M91.2052 41.3501C91.0286 41.3501 90.8521 41.1745 90.8521 40.9989V33.3609C90.8521 33.1854 91.0286 33.0098 91.2052 33.0098C91.3818 33.0098 91.5584 33.1854 91.5584 33.3609V40.9989C91.5584 41.1745 91.4259 41.3501 91.2052 41.3501Z" fill="#FFE600"/>
</g>
<g opacity="0.6">
<path opacity="0.6" d="M93.9865 41.3501C93.8099 41.3501 93.6333 41.1745 93.6333 40.9989V33.3609C93.6333 33.1854 93.8099 33.0098 93.9865 33.0098C94.1631 33.0098 94.3396 33.1854 94.3396 33.3609V40.9989C94.3396 41.1745 94.1631 41.3501 93.9865 41.3501Z" fill="#FFE600"/>
</g>
<g opacity="0.6">
<path opacity="0.6" d="M96.7233 41.3501C96.5467 41.3501 96.3701 41.1745 96.3701 40.9989V33.3609C96.3701 33.1854 96.5467 33.0098 96.7233 33.0098C96.8999 33.0098 97.0764 33.1854 97.0764 33.3609V40.9989C97.0764 41.1745 96.944 41.3501 96.7233 41.3501Z" fill="#FFE600"/>
</g>
<g opacity="0.6">
<path opacity="0.6" d="M99.5045 41.3501C99.3279 41.3501 99.1514 41.1745 99.1514 40.9989V33.3609C99.1514 33.1854 99.3279 33.0098 99.5045 33.0098C99.6811 33.0098 99.8577 33.1854 99.8577 33.3609V40.9989C99.8577 41.1745 99.6811 41.3501 99.5045 41.3501Z" fill="#FFE600"/>
</g>
<g opacity="0.6">
<path opacity="0.6" d="M102.242 41.3501C102.065 41.3501 101.889 41.1745 101.889 40.9989V33.3609C101.889 33.1854 102.065 33.0098 102.242 33.0098C102.418 33.0098 102.595 33.1854 102.595 33.3609V40.9989C102.595 41.1745 102.463 41.3501 102.242 41.3501Z" fill="#FFE600"/>
</g>
<g opacity="0.6">
<path opacity="0.6" d="M105.023 41.3501C104.846 41.3501 104.67 41.1745 104.67 40.9989V33.3609C104.67 33.1854 104.846 33.0098 105.023 33.0098C105.2 33.0098 105.376 33.1854 105.376 33.3609V40.9989C105.376 41.1745 105.2 41.3501 105.023 41.3501Z" fill="#FFE600"/>
</g>
<g opacity="0.6">
<path opacity="0.6" d="M107.76 41.3501C107.583 41.3501 107.407 41.1745 107.407 40.9989V33.3609C107.407 33.1854 107.583 33.0098 107.76 33.0098C107.936 33.0098 108.113 33.1854 108.113 33.3609V40.9989C108.113 41.1745 107.936 41.3501 107.76 41.3501Z" fill="#FFE600"/>
</g>
<g opacity="0.6">
<path opacity="0.6" d="M110.541 41.3501C110.365 41.3501 110.188 41.1745 110.188 40.9989V33.3609C110.188 33.1854 110.365 33.0098 110.541 33.0098C110.718 33.0098 110.894 33.1854 110.894 33.3609V40.9989C110.85 41.1745 110.718 41.3501 110.541 41.3501Z" fill="#FFE600"/>
</g>
<g opacity="0.6">
<path opacity="0.6" d="M113.278 41.3501C113.101 41.3501 112.925 41.1745 112.925 40.9989V33.3609C112.925 33.1854 113.101 33.0098 113.278 33.0098C113.455 33.0098 113.631 33.1854 113.631 33.3609V40.9989C113.631 41.1745 113.455 41.3501 113.278 41.3501Z" fill="#FFE600"/>
</g>
<g opacity="0.6">
<path opacity="0.6" d="M116.015 41.3501C115.839 41.3501 115.662 41.1745 115.662 40.9989V33.3609C115.662 33.1854 115.839 33.0098 116.015 33.0098C116.192 33.0098 116.368 33.1854 116.368 33.3609V40.9989C116.368 41.1745 116.236 41.3501 116.015 41.3501Z" fill="#FFE600"/>
</g>
<g opacity="0.6">
<path opacity="0.6" d="M118.797 41.3501C118.62 41.3501 118.443 41.1745 118.443 40.9989V33.3609C118.443 33.1854 118.62 33.0098 118.797 33.0098C118.973 33.0098 119.15 33.1854 119.15 33.3609V40.9989C119.15 41.1745 118.973 41.3501 118.797 41.3501Z" fill="#FFE600"/>
</g>
<g opacity="0.6">
<path opacity="0.6" d="M121.533 41.3501C121.357 41.3501 121.18 41.1745 121.18 40.9989V33.3609C121.18 33.1854 121.357 33.0098 121.533 33.0098C121.71 33.0098 121.887 33.1854 121.887 33.3609V40.9989C121.887 41.1745 121.754 41.3501 121.533 41.3501Z" fill="#FFE600"/>
</g>
<g opacity="0.6">
<path opacity="0.6" d="M124.315 41.3501C124.138 41.3501 123.961 41.1745 123.961 40.9989V33.3609C123.961 33.1854 124.138 33.0098 124.315 33.0098C124.491 33.0098 124.668 33.1854 124.668 33.3609V40.9989C124.668 41.1745 124.491 41.3501 124.315 41.3501Z" fill="#FFE600"/>
</g>
</g>
<path d="M128.553 32.2197H86.3933C86.2609 32.2197 86.1284 32.088 86.1284 31.9563V23.6599C86.1284 23.5282 86.2609 23.3965 86.3933 23.3965H128.553C128.685 23.3965 128.817 23.5282 128.817 23.6599V31.9563C128.817 32.088 128.685 32.2197 128.553 32.2197Z" fill="#D48200"/>
<path d="M128.553 31.7811H86.3933C86.2609 31.7811 86.1284 31.6494 86.1284 31.5177V22.2556C86.1284 22.1239 86.2609 21.9922 86.3933 21.9922H128.553C128.685 21.9922 128.817 22.1239 128.817 22.2556V31.5177C128.817 31.6933 128.685 31.7811 128.553 31.7811Z" fill="#FFC000"/>
<path d="M86.1711 31.8047L107.405 31.8047V22.0158H86.1711V31.8047Z" fill="#FFAF00"/>
<path opacity="0.21" d="M86.1419 31.8047H88.8789V22.0158H86.1419V31.8047Z" fill="#A20012"/>
<path opacity="0.21" d="M83.6521 42.0801H86.3892V32.2911H83.6521V42.0801Z" fill="#A20012"/>
<path d="M120.287 31.8047H123.421V22.0158H120.287V31.8047Z" fill="#FFE745"/>
<g opacity="0.6">
<g opacity="0.6">
<path opacity="0.6" d="M88.2033 31.1236C88.0267 31.1236 87.8501 30.948 87.8501 30.7724V23.1344C87.8501 22.9588 88.0267 22.7832 88.2033 22.7832C88.3799 22.7832 88.5564 22.9588 88.5564 23.1344V30.7724C88.5564 30.9919 88.3799 31.1236 88.2033 31.1236Z" fill="#FFE600"/>
</g>
<g opacity="0.6">
<path opacity="0.6" d="M90.9401 31.1236C90.7635 31.1236 90.5869 30.948 90.5869 30.7724V23.1344C90.5869 22.9588 90.7635 22.7832 90.9401 22.7832C91.1167 22.7832 91.2933 22.9588 91.2933 23.1344V30.7724C91.2933 30.9919 91.1608 31.1236 90.9401 31.1236Z" fill="#FFE600"/>
</g>
<g opacity="0.6">
<path opacity="0.6" d="M93.7213 31.1236C93.5447 31.1236 93.3682 30.948 93.3682 30.7724V23.1344C93.3682 22.9588 93.5447 22.7832 93.7213 22.7832C93.8979 22.7832 94.0745 22.9588 94.0745 23.1344V30.7724C94.0745 30.9919 93.8979 31.1236 93.7213 31.1236Z" fill="#FFE600"/>
</g>
<g opacity="0.6">
<path opacity="0.6" d="M96.4586 31.1236C96.2821 31.1236 96.1055 30.948 96.1055 30.7724V23.1344C96.1055 22.9588 96.2821 22.7832 96.4586 22.7832C96.6352 22.7832 96.8118 22.9588 96.8118 23.1344V30.7724C96.8118 30.9919 96.6352 31.1236 96.4586 31.1236Z" fill="#FFE600"/>
</g>
<g opacity="0.6">
<path opacity="0.6" d="M99.2399 31.1236C99.0633 31.1236 98.8867 30.948 98.8867 30.7724V23.1344C98.8867 22.9588 99.0633 22.7832 99.2399 22.7832C99.4165 22.7832 99.593 22.9588 99.593 23.1344V30.7724C99.5489 30.9919 99.4165 31.1236 99.2399 31.1236Z" fill="#FFE600"/>
</g>
<g opacity="0.6">
<path opacity="0.6" d="M101.977 31.1236C101.8 31.1236 101.624 30.948 101.624 30.7724V23.1344C101.624 22.9588 101.8 22.7832 101.977 22.7832C102.153 22.7832 102.33 22.9588 102.33 23.1344V30.7724C102.33 30.9919 102.153 31.1236 101.977 31.1236Z" fill="#FFE600"/>
</g>
<g opacity="0.6">
<path opacity="0.6" d="M104.714 31.1236C104.537 31.1236 104.361 30.948 104.361 30.7724V23.1344C104.361 22.9588 104.537 22.7832 104.714 22.7832C104.891 22.7832 105.067 22.9588 105.067 23.1344V30.7724C105.067 30.9919 104.935 31.1236 104.714 31.1236Z" fill="#FFE600"/>
</g>
<g opacity="0.6">
<path opacity="0.6" d="M107.495 31.1236C107.319 31.1236 107.142 30.948 107.142 30.7724V23.1344C107.142 22.9588 107.319 22.7832 107.495 22.7832C107.672 22.7832 107.848 22.9588 107.848 23.1344V30.7724C107.848 30.9919 107.672 31.1236 107.495 31.1236Z" fill="#FFE600"/>
</g>
<g opacity="0.6">
<path opacity="0.6" d="M110.232 31.1236C110.055 31.1236 109.879 30.948 109.879 30.7724V23.1344C109.879 22.9588 110.055 22.7832 110.232 22.7832C110.409 22.7832 110.585 22.9588 110.585 23.1344V30.7724C110.585 30.9919 110.453 31.1236 110.232 31.1236Z" fill="#FFE600"/>
</g>
<g opacity="0.6">
<path opacity="0.6" d="M113.013 31.1236C112.837 31.1236 112.66 30.948 112.66 30.7724V23.1344C112.66 22.9588 112.837 22.7832 113.013 22.7832C113.19 22.7832 113.367 22.9588 113.367 23.1344V30.7724C113.367 30.9919 113.19 31.1236 113.013 31.1236Z" fill="#FFE600"/>
</g>
<g opacity="0.6">
<path opacity="0.6" d="M115.75 31.1236C115.574 31.1236 115.397 30.948 115.397 30.7724V23.1344C115.397 22.9588 115.574 22.7832 115.75 22.7832C115.927 22.7832 116.103 22.9588 116.103 23.1344V30.7724C116.103 30.9919 115.971 31.1236 115.75 31.1236Z" fill="#FFE600"/>
</g>
<g opacity="0.6">
<path opacity="0.6" d="M118.531 31.1236C118.355 31.1236 118.178 30.948 118.178 30.7724V23.1344C118.178 22.9588 118.355 22.7832 118.531 22.7832C118.708 22.7832 118.885 22.9588 118.885 23.1344V30.7724C118.84 30.9919 118.708 31.1236 118.531 31.1236Z" fill="#FFE600"/>
</g>
<g opacity="0.6">
<path opacity="0.6" d="M121.269 31.1236C121.092 31.1236 120.916 30.948 120.916 30.7724V23.1344C120.916 22.9588 121.092 22.7832 121.269 22.7832C121.445 22.7832 121.622 22.9588 121.622 23.1344V30.7724C121.622 30.9919 121.445 31.1236 121.269 31.1236Z" fill="#FFE600"/>
</g>
<g opacity="0.6">
<path opacity="0.6" d="M124.006 31.1236C123.829 31.1236 123.652 30.948 123.652 30.7724V23.1344C123.652 22.9588 123.829 22.7832 124.006 22.7832C124.182 22.7832 124.359 22.9588 124.359 23.1344V30.7724C124.359 30.9919 124.226 31.1236 124.006 31.1236Z" fill="#FFE600"/>
</g>
<g opacity="0.6">
<path opacity="0.6" d="M126.787 31.1236C126.61 31.1236 126.434 30.948 126.434 30.7724V23.1344C126.434 22.9588 126.61 22.7832 126.787 22.7832C126.963 22.7832 127.14 22.9588 127.14 23.1344V30.7724C127.14 30.9919 126.963 31.1236 126.787 31.1236Z" fill="#FFE600"/>
</g>
</g>
<path opacity="0.21" d="M74.7387 52.1045V42.4473H70.6331L63.7905 52.1045H74.7387Z" fill="#A20012"/>
<path opacity="0.21" d="M79.1979 62.2891V52.8953C79.1979 52.7636 79.1096 52.6758 78.9771 52.6758H75.0923L77.7852 62.2891H79.1979Z" fill="#A20012"/>
<path opacity="0.21" d="M88.2035 72.4727V62.8594H78.2266L81.7141 72.4727H88.2035Z" fill="#A20012"/>
<path opacity="0.21" d="M42.8656 72.4727V62.8594H36.5527L38.9366 72.4727H42.8656Z" fill="#A20012"/>
<path opacity="0.21" d="M114.249 72.4727L116.457 62.8594H95.355V72.4727H114.249Z" fill="#A20012"/>
<path d="M115.397 42.7554C121.468 42.7554 126.389 42.6571 126.389 42.5359C126.389 42.4147 121.468 42.3164 115.397 42.3164C109.326 42.3164 104.405 42.4147 104.405 42.5359C104.405 42.6571 109.326 42.7554 115.397 42.7554Z" fill="white"/>
<path d="M128.332 63.2104C133.623 63.2104 137.912 63.1122 137.912 62.991C137.912 62.8697 133.623 62.7715 128.332 62.7715C123.041 62.7715 118.752 62.8697 118.752 62.991C118.752 63.1122 123.041 63.2104 128.332 63.2104Z" fill="white"/>
<path d="M117.869 22.3433C123.94 22.3433 128.862 22.245 128.862 22.1238C128.862 22.0026 123.94 21.9043 117.869 21.9043C111.798 21.9043 106.877 22.0026 106.877 22.1238C106.877 22.245 111.798 22.3433 117.869 22.3433Z" fill="white"/>
<path d="M66.3956 52.8511C71.2718 52.8511 75.2248 52.7528 75.2248 52.6316C75.2248 52.5104 71.2718 52.4121 66.3956 52.4121C61.5194 52.4121 57.5664 52.5104 57.5664 52.6316C57.5664 52.7528 61.5194 52.8511 66.3956 52.8511Z" fill="white"/>
<path d="M19.4681 63.1226C27.0507 63.1226 33.1975 63.0243 33.1975 62.9031C33.1975 62.7819 27.0507 62.6836 19.4681 62.6836C11.8856 62.6836 5.73877 62.7819 5.73877 62.9031C5.73877 63.0243 11.8856 63.1226 19.4681 63.1226Z" fill="white"/>
<path d="M74.9596 42.448C74.9596 42.3163 70.9865 42.2285 66.1304 42.2285C61.2744 42.2285 57.3013 42.3163 57.3013 42.448C57.3013 42.5797 61.2744 42.6675 66.1304 42.6675C70.9865 42.6675 74.9596 42.5797 74.9596 42.448Z" fill="white"/>
<path d="M78.7122 62.9031C78.7122 62.7714 75.1363 62.6836 70.6776 62.6836C66.263 62.6836 62.6431 62.7714 62.6431 62.9031C62.6431 63.0348 66.2189 63.1226 70.6776 63.1226C75.1363 63.1226 78.7122 63.0348 78.7122 62.9031Z" fill="white"/>
</svg>
