<svg width="92" height="106" viewBox="0 0 92 106" fill="none" xmlns="http://www.w3.org/2000/svg">
<path d="M0.285645 44.4761C0.333267 44.2846 0.38089 44.0931 0.476128 43.9016C0.571365 43.7101 0.666603 43.5664 0.857079 43.4707C0.999939 43.3749 1.14279 43.3749 1.23803 43.3749C1.28564 43.3749 1.38089 43.3749 1.4285 43.3271C1.57137 43.2792 1.76184 43.2313 1.95232 43.1834C1.99993 43.1834 1.99994 43.1355 2.04755 43.1355L2.14279 43.0877L2.19041 42.944C2.23803 42.0822 2.23803 41.0768 2.23803 39.7841C2.23803 38.6351 2.19041 37.2945 2.4285 35.9061C2.61898 34.4698 3.09518 33.1771 3.71423 32.2674C4.33327 31.3578 5.19041 30.6875 6.14279 30.3045C6.33327 30.2087 6.57137 30.1608 6.76184 30.113L6.9047 30.0651L6.95232 29.9693C6.99993 29.8736 6.99994 29.8257 7.04755 29.7299C7.19041 29.3948 7.61899 28.8203 8.33327 28.3415C8.95232 27.9585 9.71422 27.6712 10.5237 27.5755C11.3333 27.4797 12.1904 27.5276 12.9999 27.6712H13.0952L13.238 27.6233C13.2857 27.6233 13.3333 27.5755 13.3809 27.5755C13.9523 27.384 14.6666 27.3361 15.4285 27.384H15.5237L15.6666 27.3361C17.4761 25.7561 19.1428 23.7453 20.619 21.3993C21.4761 20.0588 22.238 18.6224 22.9523 17.0425C23.5714 15.6541 24.0952 14.122 24.5714 12.3984C24.9999 10.7706 25.3809 9.04702 25.6666 7.6107C25.7142 7.32344 25.7618 7.03618 25.8095 6.74891C26.0476 5.45623 26.2857 4.11567 26.8571 2.82299C27.4285 1.38667 28.8571 -0.0496411 30.7142 0.285499C31.1428 0.381253 31.4761 0.668516 31.7618 0.907902C31.9047 1.05153 32.0476 1.14729 32.1428 1.29092C32.2857 1.43455 32.4761 1.57818 32.619 1.72181C33.1904 2.24846 33.8095 2.72723 34.5238 3.206C37.1904 5.02534 40.238 6.27014 43.3333 6.84467L43.619 6.89254H43.6666C45.7618 6.22226 47.8571 5.83925 49.8095 5.74349C52.5714 5.59986 55.3333 5.88713 57.9523 6.60528C59.2857 6.9883 60.5714 7.46707 61.7618 8.0416C62.5237 8.37674 63.2857 8.85551 63.9999 9.43003L64.0476 9.57367H64.238C67.238 9.14277 70.0476 7.94584 72.4285 6.07863C72.9999 5.64774 73.5714 5.12109 74.0952 4.59444L74.2857 4.40293C74.7142 3.97204 75.1904 3.44539 75.8095 3.15813C76.4761 2.82299 77.3333 2.77511 78.0476 3.06237C78.7618 3.30176 79.4285 3.82841 79.8571 4.45081C80.7142 5.79137 81.0476 7.32344 81.2857 8.80763C81.3809 9.38216 81.4285 10.0046 81.5237 10.5791C81.619 11.4888 81.7142 12.4463 81.9523 13.356C82.5237 16.2765 83.4761 19.197 84.7618 22.0696C85.9999 24.7986 87.5237 27.4797 89.2857 30.113L89.5237 30.4481C89.9047 30.9747 90.238 31.5014 90.5714 32.028C90.7618 32.3632 90.9999 32.6983 91.1904 33.0335L91.2857 33.225C91.4285 33.5122 91.5714 33.7516 91.6666 34.0868C91.9523 35.0443 91.5714 35.954 91.3333 36.3849C90.9999 37.0551 90.4761 37.6297 89.7618 38.1084C88.4761 38.9702 87.0476 39.449 85.4761 39.8799C83.9999 40.2629 82.4285 40.5023 80.9047 40.5502C79.238 40.5981 77.5714 40.4544 75.8571 40.1193L75.0952 39.9757L75.619 40.5502C76.3333 41.3162 76.9999 42.178 77.5237 43.0877C78.8571 45.29 79.8571 47.7317 80.4761 50.3171C81.0952 52.9504 81.3333 55.5836 81.1428 58.169C80.9523 60.6586 80.3809 63.2918 79.3809 65.8772C78.7618 67.505 77.9999 69.085 77.1904 70.617L77.1428 70.7128C76.9999 71.9097 76.8095 73.1066 76.5237 74.2078C76.1428 75.7399 75.5714 77.2719 74.8095 78.7083L74.7618 78.8519L74.8095 78.9476C75.2857 79.7616 75.9523 80.4318 76.7142 80.9106L76.9523 81.0542L77.0952 80.8149C77.238 80.6234 77.3333 80.4318 77.5237 80.3361C77.9047 80.0967 78.3809 80.0009 78.7142 80.1446C78.9047 80.2403 79.0952 80.3361 79.2857 80.4797C79.4285 80.6234 79.619 80.7191 79.8095 80.8149C80.0476 80.9585 80.3333 81.0064 80.5714 81.0064C80.619 81.0064 80.6666 81.0064 80.6666 81.0064C80.6666 81.0542 80.619 81.15 80.5714 81.2458C80.4285 81.533 80.2857 81.7245 80.1904 81.916C79.9047 82.3469 79.5237 82.6342 79.1428 82.8257C78.619 83.113 77.9999 83.1608 77.5714 83.0172C77.238 82.8736 77.0476 82.5863 76.9523 82.3469L76.9047 82.1554L76.7142 82.2033C76.4285 82.2512 76.1904 82.2512 75.9999 82.2512C75.4761 82.2512 74.9999 82.1554 74.4285 82.0118L74.1428 81.916L74.0952 82.2033C73.8095 85.5068 73.9523 88.8582 74.4761 92.1617C74.6666 93.4065 74.9523 94.6514 75.2857 95.8962C75.4761 96.5664 75.619 97.1888 75.8095 97.7155C75.9523 98.0985 76.0952 98.4815 76.2857 99.0082L76.3809 99.2476C76.4761 99.4391 76.5237 99.6306 76.619 99.8221L76.6666 99.9178L76.7618 100.061C76.8095 100.061 76.8571 100.109 76.8571 100.109C77.2857 100.444 77.5714 100.875 77.619 101.354C77.6666 101.881 77.238 102.312 76.8571 102.599C76.5714 102.79 76.2857 102.886 75.9999 102.934C75.8571 102.934 75.6666 102.982 75.4761 102.934H75.3333L75.238 103.03C74.9523 103.365 74.4761 103.7 73.9999 103.94C73.4761 104.179 72.9523 104.275 72.4761 104.323H72.3809L72.2857 104.418C71.9047 104.897 71.3809 105.232 70.7618 105.424C69.9047 105.711 68.8095 105.711 67.9999 105.376L67.9523 105.328H67.9047C66.6666 105.567 65.4761 105.663 64.3333 105.663C63.0476 105.663 61.7618 105.567 60.5714 105.376C59.1904 105.136 57.9999 104.849 56.9047 104.37C56.2857 104.131 55.7142 103.844 55.238 103.509L54.8571 103.221C54.7142 103.126 54.619 103.03 54.5238 102.886C54.3333 102.647 54.1904 102.407 53.9999 102.072C53.7142 101.498 53.4761 100.923 53.2857 100.301C53.0476 99.6785 52.8571 99.1039 52.5714 98.5773C51.9047 97.3325 51.238 96.2792 50.5238 95.4174L50.3809 95.2738C49.9999 94.8429 49.619 94.412 49.1904 94.1247C49.0952 94.0768 48.9523 94.0289 48.8571 93.9811L48.7142 93.9332L48.619 94.0289C47.8095 94.8429 47.1428 95.7046 46.5238 96.6622C45.8095 97.7634 45.4285 99.0082 45.1428 99.9657L44.5714 101.833C44.5238 101.929 44.5237 102.024 44.4761 102.12C44.4285 102.264 44.3333 102.407 44.238 102.551C44.0476 102.838 43.8095 103.03 43.5714 103.221C42.5238 103.94 41.2857 104.323 40.1904 104.61C37.7142 105.376 35.2857 105.663 32.9523 105.472C32.2857 105.424 31.5714 105.328 30.7142 105.184H30.619L30.3809 105.28C29.619 105.615 28.4761 105.615 27.5714 105.328C26.9523 105.136 26.4285 104.801 26.0476 104.323L25.9523 104.227H25.8571C25.3809 104.227 24.8571 104.083 24.3333 103.844C23.8095 103.604 23.3333 103.269 23.0952 102.934L22.9999 102.838H22.8571C22.6666 102.838 22.5237 102.838 22.3333 102.838C22.0476 102.79 21.7618 102.695 21.4761 102.503C21.0952 102.216 20.619 101.785 20.7142 101.258C20.7618 100.78 21.0476 100.301 21.4761 100.014C21.6666 99.87 21.9047 99.7263 22.1428 99.6785L22.2857 99.6306L22.3333 99.4869C24.5237 92.6405 24.8571 84.6929 23.3809 77.1283C22.238 74.5908 21.5237 71.8618 21.238 68.9413L21.1904 68.5104L20.8095 68.7977C20.6666 68.8934 20.4761 68.9892 20.1428 69.085L19.9523 69.1328V69.3243C19.9523 69.6595 19.9047 69.9467 19.8095 70.234C19.5714 70.9522 19.0952 71.5267 18.4761 71.8618C17.7618 72.2449 16.9523 72.2448 16.3809 72.1491C16.1904 72.1012 15.9999 72.0533 15.8095 72.0055L15.7142 71.9576L15.4761 72.1012C14.9523 72.4364 14.4285 72.8194 13.8095 73.0588C13.0476 73.3939 12.1904 73.4418 11.3809 73.2503C10.619 73.0588 9.9047 72.6757 9.19041 72.0533C8.57137 71.5267 8.04755 70.8085 7.71422 70.0904C7.33327 69.2765 7.14279 68.4626 6.95232 67.7444C6.71422 66.8347 6.57137 66.0208 6.52374 65.3027C6.38089 63.7706 6.47613 62.1428 6.85708 60.4192L6.95232 60.0841C7.23803 58.5999 7.57137 57.1157 7.38089 55.6315C7.33327 55.3442 7.28564 55.1048 7.19041 54.8176C7.14279 54.7218 7.09517 54.5782 7.09517 54.4345C6.99993 54.1473 6.90469 53.6685 7.09517 53.1897C7.23803 52.8067 7.47613 52.4716 7.85708 52.1843C8.19041 51.9449 8.57137 51.7534 8.95232 51.6577C9.71423 51.4662 10.5714 51.6577 11.2857 52.2322C11.9047 52.7589 12.3809 53.477 12.5238 54.2909C12.6666 54.9612 12.619 55.6794 12.4285 56.3975L12.238 57.1635L12.8095 56.6848C14.9047 54.9612 17.4761 53.86 20.1428 53.5249H20.3333L20.3809 53.2376C20.3809 53.1897 20.3809 53.1419 20.4285 53.0461C21.1904 50.0299 22.7142 47.253 24.7618 44.9549L24.9523 44.7634L24.7142 44.6197C23.7142 43.9016 22.7618 43.0877 21.9047 42.2738C21.4285 41.8429 20.9999 41.3641 20.5714 40.8853C20.0952 40.3587 19.6666 39.832 19.2857 39.3054L19.0952 39.066L18.8571 38.9702C18.7618 38.9224 18.7142 38.9224 18.619 38.8745C16.8571 38.1563 15.4761 37.1988 14.5714 36.0497C14.3809 35.8103 14.238 35.571 14.0952 35.3794L14.0476 35.2837H13.9523C13.5714 35.2358 13.1904 35.1879 12.8095 35.1879C11.0952 35.1879 9.47613 35.8582 8.33327 37.0073C7.19041 38.1563 6.52374 39.7841 6.52374 41.5077C6.52374 41.8429 6.52374 42.1301 6.52374 42.4174V42.6089L6.71422 42.6568C6.80946 42.7046 6.95232 42.7046 7.04755 42.7046C7.19041 42.7046 7.33327 42.6568 7.52375 42.6089C7.76184 42.561 7.99993 42.4653 8.28565 42.4653C8.57137 42.4653 8.76184 42.6568 8.85708 42.7525C8.99993 42.8962 9.09518 43.0877 9.19041 43.3271C9.33327 43.7579 9.33327 44.2367 9.19041 44.5719C8.9047 45.29 7.95232 45.9603 7.19041 45.7209C6.90469 45.6252 6.61899 45.4815 6.33327 45.29C6.1428 45.1943 5.95232 45.0506 5.76184 44.9549C5.19041 44.6676 4.71423 44.5719 4.19041 44.5719H4.04755L3.6666 45.0985C3.4285 45.4336 3.14279 45.8645 2.6666 46.056C1.95232 46.3912 0.999939 46.1039 0.571365 45.4336C0.333267 45.29 0.238029 44.8591 0.285645 44.4761Z" fill="#BFBFBF"/>
<path d="M56.381 12.7818C56.1905 12.8776 56 12.8297 55.8096 12.7818C54.762 12.4467 53.762 12.1116 52.7143 11.7764C52.1429 11.5849 51.4762 11.2976 51.3334 10.7231C51.2381 10.1965 51.6667 9.66982 52.1429 9.52619C52.6667 9.38256 53.1905 9.47831 53.7143 9.66982C54.1905 9.81345 57.6667 12.0637 56.381 12.7818Z" fill="#969696"/>
<path d="M43.8571 12.4469C42.7143 12.6863 41.9524 13.5481 40.8571 13.9311C39.5714 14.4098 41.1428 11.633 41.3333 11.3457C41.9524 10.5318 42.8571 9.81364 43.9524 10.1488C44.4286 10.2924 45.0476 10.9627 45.0476 11.4415C45.0476 12.016 44.3333 12.3511 43.8571 12.4469Z" fill="#969696"/>
<path d="M64.0952 27.7666C61.4286 26.043 57.9524 25.8036 54.9048 26.7133C53.7619 27.0484 52.6667 27.5751 51.6191 28.1975C50.5238 27.0484 49.9524 25.4206 49.8095 23.8406C49.6667 22.2607 49.8571 20.6329 50.0476 19.0529C50.1905 17.8081 50.4286 16.4676 51.381 15.7015C52 15.1749 52.8095 15.0312 53.6191 15.0312C54.5714 15.0791 55.5238 15.3185 56.4762 15.4621C57.381 15.5579 58.3333 15.8452 59.1905 16.1803C60.9048 16.8506 62.4762 17.9518 63.7619 19.3402C64.5238 20.202 65.1905 21.1595 65.5238 22.2607C65.8095 23.314 65.7619 24.4152 65.4286 25.4206C65.0952 26.2345 64.5714 27.0005 64.0952 27.7666Z" fill="#969696"/>
<path d="M44.4286 25.1338C44.5238 25.1338 44.6191 25.1338 44.7143 25.1338C44.2857 25.4689 43.8572 25.7562 43.4762 26.1392C43.4762 26.1392 43.4762 26.1392 43.4762 26.1871H43.4286C43.1905 26.4743 42.9524 26.8095 42.9048 27.1925C42.8572 27.4319 42.7619 28.7724 43.0953 28.8682C41.8572 28.4852 40.4762 28.7246 39.4286 29.4906C38.4286 30.2566 37.8096 31.5972 37.9048 32.8899C37.0953 32.2196 36.0953 31.8366 35.0953 31.7408C35.9048 31.1663 36.7619 30.6396 37.5715 30.0651L35.2857 31.5493C34.4286 31.6451 33.5715 31.7408 32.7143 31.8366C31.4286 31.9802 30.0953 32.1238 28.8096 32.2675C28.8096 32.2675 28.8096 32.2675 28.8096 32.3153H28.7619C28.5715 32.3153 28.381 32.3632 28.1905 32.3632C28.1905 32.3153 28.1905 32.3153 28.1905 32.2675C28.1905 32.2196 28.1905 32.1238 28.1905 32.076C27.6191 31.8366 27.0476 31.5493 26.4286 31.3099C26.0476 31.1663 25.6191 30.9748 25.3334 30.8311C24.8572 30.6396 24.4286 30.4481 23.9524 30.3045C23.0477 30.0651 22.2857 30.1609 21.4286 29.6342C20.6191 29.1554 19.8572 28.6767 18.9524 28.3894C18.7619 28.3415 17.5715 27.767 16.7143 27.4797C16.6667 27.5276 16.6191 27.5276 16.6191 27.5755C16.3334 27.6234 16 27.6713 15.7143 27.6713C15.8572 27.5276 16 27.384 16.1429 27.2404C16 27.1925 15.9048 27.1925 15.9048 27.1925C16.1429 26.9052 16.4286 26.7616 16.7143 26.6658C21.6191 21.3036 24.9048 14.4572 25.9524 7.22771C26.1429 5.7914 26.2857 4.30721 26.8572 2.91877C27.2381 2.0091 28.4762 0.237647 29.6191 0.381279C29.3334 1.05156 28.5238 1.62608 28.1429 2.24849C27.5238 3.20603 27.0953 4.3072 26.7619 5.45626C26.2381 7.37134 26.0953 9.33431 25.7619 11.2973C24.7143 17.0425 21.8572 22.5005 17.6667 26.5701C18.6191 26.6658 19.6191 27.1446 20.3334 27.5755C20.6667 27.767 20.9524 28.0543 21.2857 28.2937C21.381 28.3894 21.9524 28.9639 22 28.9639C22.4286 28.9639 23.0476 29.0118 23.6667 29.1554C23.8572 29.2033 24.0953 29.2512 24.2857 29.347C25.381 26.2349 28.8572 24.272 30.1905 21.16C30.7619 19.8673 30.9048 18.4788 31 17.0425C30.9524 16.3722 30.8572 15.7498 30.9048 15.0796C30.9048 14.5529 31 14.0741 31.1905 13.5954C31.1429 11.8718 30.8572 10.1961 29.8572 8.75978C29.5238 8.28101 29.0477 7.80224 28.4762 7.80224C28 7.75436 27.4762 8.23313 27.4762 8.66403C27.2381 7.70648 27.0476 6.70106 27.0953 5.69564C27.1429 4.59447 27.5715 3.49329 28.4286 2.87089C28.7143 2.63151 29.0477 2.48787 29.4286 2.44C30.4286 2.24849 31.4286 2.77514 32.1429 3.54117C32.8572 4.25933 33.3334 5.16899 33.9048 6.03078C34.4762 6.84469 35.2381 7.65861 36.1905 7.94587C37.1905 8.23313 38.2381 7.99375 39.2381 7.70648C39.6667 7.61073 41.8572 6.89257 42.0953 7.4671C42.2857 7.94587 40.0953 8.32889 39.6667 8.47252C38.6667 8.85553 37.7619 9.38218 37.0476 10.1482C36.9524 10.244 36.8572 10.3876 36.7619 10.5312C37 10.2918 37.2857 10.1003 37.5715 9.90883C37.9048 9.66945 39.2381 8.66403 39.5238 8.90341C39.4286 8.80766 36.9048 11.7282 36.7143 12.0633C36.381 12.6378 36.2381 13.2124 36.1905 13.7869C36.1429 14.5529 36.2857 15.3189 36.4286 16.1329C36.5715 16.8989 36.2381 17.8564 37.0476 18.3352C37.5715 17.8564 38.1905 17.4734 38.8096 17.1862C40.0477 16.6116 41.4286 16.3722 42.7619 16.1807C43.9524 16.0371 44.9524 15.6541 46 16.468C46.7143 16.9946 47.1429 17.8564 47.2857 18.7182C47.4762 19.58 47.4286 20.4897 47.3334 21.3515C47.2381 22.0217 47.1429 22.692 47.1429 23.3623C47.1905 24.0326 47.381 24.7507 47.8572 25.2295C46.8096 24.5592 45.4762 24.6071 44.4286 25.1338ZM39.2857 24.4156C38.3334 24.6071 37.4286 25.3732 38.2857 26.3307C38.5715 26.618 38.9524 26.7616 39.3334 26.7137C38.4762 26.8095 37.5715 26.5701 36.8096 26.0434C36.8096 26.0913 36.8096 26.0913 36.8572 26.1392C36.8096 26.0913 36.8096 26.0434 36.7619 26.0434C36.5238 25.8998 36.3334 25.7083 36.1429 25.5647C35.9048 25.4689 35.6667 25.421 35.381 25.421C34.5715 25.4689 33.8572 26.2828 33.3334 26.8573C32.7143 27.5276 32.1429 28.2937 31.8572 29.2033C31.6667 29.8736 31.7143 30.6396 32.0476 31.2142C32.3334 31.1184 32.6191 31.0705 32.8572 31.0227C33.6667 30.9269 34.5238 31.0227 35.1429 31.5014C35.6191 29.5385 37.5715 28.0064 39.6191 28.15C40.1905 26.5701 41.7143 25.4689 43.3334 25.2295C42.1905 24.4156 40.6667 24.1762 39.2857 24.4156Z" fill="#969696"/>
<path d="M52.9524 36.6245C53.0953 36.9596 53.0001 37.4384 52.7143 37.6778C52.5239 37.8214 51.8572 36.1936 52.2858 35.8105C52.5715 36.0021 52.8572 36.2893 52.9524 36.6245Z" fill="#969696"/>
<path d="M57.1904 43.0387C57.0476 43.8048 56.0476 44.3314 55.3809 44.3793C55.0476 44.3793 54.6666 44.2835 54.5714 43.9484C55.0952 43.8526 55.5714 43.6611 56.0476 43.4696C56.3809 43.326 56.9047 42.8472 57.1904 43.0387Z" fill="#969696"/>
<path d="M54.8573 37.582C55.0954 37.6299 56.4287 37.965 56.5239 37.6778C56.4287 38.0608 56.2858 38.2044 56.0477 38.4917C55.9049 38.6832 55.6192 38.9705 55.8573 39.2099C55.3811 38.7311 55.0477 38.2044 54.8573 37.582Z" fill="#969696"/>
<path d="M8.57136 29.9689C7.23803 29.7774 5.95232 30.6871 5.28565 31.8361C4.61898 32.9852 4.42851 34.3736 4.42851 35.7621C4.38089 37.1026 4.47613 38.4911 4.23803 39.7837C3.99994 41.1243 3.33327 42.417 2.19041 43.1351C2.42851 41.4594 2.38089 39.7359 2.47613 38.0602C2.57137 36.3845 2.76185 34.6609 3.47613 33.1288C4.19042 31.5967 5.47613 30.2562 7.09517 29.8253C7.19041 29.7774 7.52375 29.155 7.61898 29.0593C7.85708 28.8199 8.09517 28.5805 8.38088 28.389C8.95231 28.0538 9.61898 27.8145 10.2856 27.8145C9.38088 28.1975 8.6666 28.9635 8.57136 29.9689Z" fill="#969696"/>
<path d="M4.66666 43.8062C4.99999 43.6625 5.38094 43.7104 5.66665 43.9019C5.99998 44.0934 6.19046 44.4765 6.47617 44.7158C6.90474 45.0989 7.52379 45.1946 8.09522 45.0031C8.61903 44.8116 8.85713 44.0456 9.2857 43.9019C9.33332 44.0934 9.28569 44.2849 9.23807 44.4765C9.09522 44.7637 8.90475 44.9552 8.71427 45.1946C8.42856 45.4819 8.14284 45.7691 7.71427 45.8649C7.23808 45.9128 6.80951 45.6255 6.42856 45.3861C5.71427 44.9552 4.85713 44.668 4.04761 44.5722C4.09523 44.2371 4.33332 43.9498 4.66666 43.8062Z" fill="#969696"/>
<path d="M0.618964 43.806C0.80944 43.6624 0.999911 43.5666 1.23801 43.5187C1.61896 43.423 1.95229 43.2793 2.33324 43.1836C1.99991 43.3272 1.66658 43.423 1.42849 43.6624C1.19039 43.9018 0.999917 44.2369 1.09515 44.572C1.19039 44.9551 1.61896 45.2423 1.99991 45.2902C2.38087 45.3381 2.7142 45.2902 3.04753 45.1944C3.33324 45.1466 3.52373 44.9072 3.47611 45.2902C3.42849 45.769 2.52372 46.152 2.14277 46.1999C1.33325 46.2477 0.571342 45.7211 0.333247 44.9551C0.238009 44.572 0.285631 44.0933 0.618964 43.806Z" fill="#969696"/>
<path d="M67.7144 60.6105C65.9048 60.8977 64.0001 60.5626 62.1429 60.8977C60.2858 61.2329 58.4763 61.9989 57.1429 63.3874C56.3334 64.2491 55.7143 65.3024 55.4286 66.4036C55.762 65.0152 55.4763 63.531 54.762 62.3341C57.0477 61.0414 59.7144 60.419 62.3334 60.5626C62.1429 58.0251 62.4763 55.4398 63.4286 53.0459C63.6191 52.615 63.762 52.1841 64.0953 51.849C64.381 51.5138 64.8572 51.2266 65.2858 51.2266C64.9048 51.2266 65.6191 55.727 65.7144 56.11C66.0953 57.7857 67.0001 59.0784 67.7144 60.6105Z" fill="#969696"/>
<path d="M51.0476 62.3825C49.9524 61.5207 48.6667 60.9941 47.3333 60.7547C47.2857 60.7068 47.2381 60.611 47.1905 60.5153C46.5714 60.3717 45.9047 60.4195 45.3809 60.7068C45.1905 59.9408 45.0476 59.1268 45.0476 58.3129C45.0476 57.499 45.2381 56.6851 45.7619 56.0627C46.0476 55.7276 47 54.9615 47.5238 55.2488C47.5714 55.2488 47.619 55.2967 47.619 55.3445C48.1428 54.77 48.8571 54.2434 49.5238 54.1955C50.2857 54.1476 50 54.5306 49.619 54.8658C49.1428 55.2967 48.8095 55.8233 48.619 56.3978C48.2857 57.499 48.4762 58.6959 48.9524 59.7014C49.4762 60.7547 50.2381 61.6165 51.0476 62.3825Z" fill="#969696"/>
<path d="M52.8095 76.6023C51.5238 77.1768 50.1428 77.5119 48.7142 77.5119C47.1428 77.5119 45.5238 77.1289 44.0952 76.4107C43.7142 76.698 43.2857 76.9853 42.8095 77.081C41.4285 77.4162 40 76.4107 39.5714 75.0702C39.3333 74.352 39.3333 72.006 40.1428 71.4315C39.6666 70.7134 39.4285 69.8037 39.5238 68.9419C39.5714 68.3195 39.8095 67.6971 40.1904 67.2183C40.5714 66.7396 40.7619 66.7874 40.8095 67.2183C41 66.8353 41.1904 66.5002 41.4761 66.2129C41.4761 66.165 41.4761 66.165 41.4285 66.1172C41.1904 66.3087 40.9523 66.5002 40.8095 66.7874C40.2857 65.9735 40.0952 64.9202 40.3809 63.9627C40.5238 63.436 40.8571 62.9094 41.2381 62.5264C41.5714 62.1912 42 61.8082 42.0952 62.1433C42.6666 61.4252 43.5238 60.8985 44.4285 60.707C43.7142 60.8507 43.2381 62.287 43.1428 62.8615C43.0952 63.3403 43.0952 63.7712 43.1904 64.2499C43.2857 64.633 43.9047 65.1117 43.7142 65.4947C43.619 65.6863 43.2857 65.9735 43.1428 66.165C42.7142 66.7874 42.2381 67.362 42.1904 68.128C42.1904 68.6546 42.238 69.1813 42.4761 69.6601C42.8095 70.3782 43.1428 70.5697 42.4285 71.0964C41.9047 71.4794 41.4285 71.8145 41.3809 72.4848C41.3333 72.9157 41.3333 74.0169 42.0476 73.6339C42.2857 73.5381 42.4761 73.2509 42.7142 73.2509C43 73.2509 43.4285 73.7296 43.7142 73.8733C44.0952 74.1126 44.5238 74.3041 44.9523 74.4478C45.8095 74.7829 46.7619 74.9266 47.6666 74.9744C49.4761 75.0702 51.3333 74.5914 52.8095 73.5381C53.1428 73.2987 53.5238 73.0115 53.9047 72.9636C54.3333 72.9157 54.7619 73.1072 55.1428 73.2509C56.7142 73.9211 58.3333 74.3999 59.9523 74.735C62.9523 75.3574 66.0476 75.4053 69.0952 74.9744C71.1428 74.6872 73.4761 74.2084 75.3333 73.1072C75.6666 72.7242 76 72.3891 76.1904 72.4369C75.619 74.0169 74.4761 75.6926 73 76.5065C72.1428 76.9853 71.0952 77.1768 70.1428 77.3683C64.8095 78.1822 59.2857 77.6556 54.1904 75.932C53.7619 76.2671 53.1428 76.5065 52.8095 76.6023Z" fill="#969696"/>
<path d="M7.47623 55.6318C7.33338 55.0572 7.09528 54.4827 7.09528 53.9082C7.09528 53.1422 7.57147 52.6155 8.19052 52.3283C8.52385 52.1846 8.90481 52.0889 9.28576 51.9931C9.42861 51.9452 9.71433 51.8016 9.85718 51.8495C9.95242 51.8495 10.2381 52.041 10.2858 52.0889C9.66671 52.0889 9.04766 52.5676 8.85718 53.19C8.66671 53.8124 8.85718 54.4348 9.09528 55.0572C9.33337 55.6318 9.61909 56.2063 9.76195 56.8287C9.80957 57.116 9.80956 57.3554 9.80956 57.6426C10.1905 57.5947 10.6667 57.4511 10.8096 57.3554C11.3334 57.1638 11.7619 56.6372 12.2381 56.4936C12.3334 56.8287 12.2858 57.2596 12.0953 57.5469C11.9524 57.7384 11.7143 57.882 11.4762 57.9778C11.4762 58.3129 10.8572 58.8395 10.6191 59.1268C10.2858 59.5577 10 60.0365 9.76195 60.5152C9.28576 61.5207 8.95242 62.6218 8.85718 63.723C8.66671 65.9254 9.33338 68.2235 10.7143 69.9949C11.0953 70.5216 11.6191 71.0003 12.1905 71.3355C12.6667 71.5749 13.2381 71.6706 13.7619 71.7185C14.9048 71.7664 16.0953 71.4312 17 70.6652C17.2858 70.4258 17.5715 70.1864 17.9048 70.1385C18.2381 70.1385 18.6191 70.5694 18.381 70.8088C18.8096 70.9046 19.8096 70.6173 19.8572 70.0428C19.8096 70.9525 19.2381 71.7664 18.4762 72.1494C17.6667 72.5324 16.6667 72.4845 15.9524 71.9579C14.6191 73.5857 12 73.9208 10.1905 72.9633C8.47623 72.1015 7.57147 70.1385 7.1429 68.3192C6.61909 65.9732 6.42861 64.0103 7.00004 61.6643C7.38099 59.6535 7.95242 57.5947 7.47623 55.6318Z" fill="#969696"/>
<path d="M14.6666 61.9031C14.7618 61.5201 15.0952 61.2807 15.4761 61.1849C16.5714 60.8019 18.3809 61.2807 18.0475 62.0946C17.8571 62.5734 17.5237 62.2382 17.1428 62.0946C16.7618 61.951 16.3809 61.8073 15.9999 61.7594C15.9047 61.7594 14.6666 61.8552 14.6666 61.9031Z" fill="#969696"/>
<path d="M18.8096 66.3084C18.7143 66.5478 18.5715 66.8351 18.4762 67.1223C17.9048 66.8351 17.2858 66.7393 16.6667 66.7872C17.1905 66.2606 18.0953 66.0212 18.8096 66.3084Z" fill="#969696"/>
<path d="M38.381 84.406C38.4762 84.8369 38.1905 85.3157 37.8095 85.4593C37.4286 85.6029 36.9048 85.4593 36.6191 85.1242C36.3333 84.789 36.2857 84.3103 36.4286 83.8794C36.5714 83.4485 36.9524 83.1612 37.381 83.0176C37.2857 83.6879 37.7619 84.3581 38.381 84.5496L38.1905 84.406C38.2381 84.4539 38.2857 84.406 38.381 84.406Z" fill="#969696"/>
<path d="M74.2856 79.4742C74.3809 79.3306 74.4285 79.1391 74.5713 79.0433C74.7142 78.9475 74.9523 78.9475 75.0475 79.0912C75.1428 79.2348 75.0952 79.4263 75.0475 79.5699C74.9523 80.0966 75.0952 80.6232 75.4285 81.0541C75.8571 81.5808 77.0475 81.5329 76.9047 82.3468C75.9523 82.3468 74.9999 82.0596 74.0475 81.9159C73.9047 82.1074 73.7142 82.2989 73.5713 82.4426C72.7618 83.3522 71.7618 84.0704 70.6666 84.597C71.9047 83.2565 73.0475 81.8202 73.9999 80.2881C74.0952 80.0487 74.1904 79.7615 74.2856 79.4742Z" fill="#969696"/>
<path d="M69.0476 93.9815C69.4761 94.3166 68.5714 94.7475 68.2857 94.7475C67.8095 94.7954 67.238 94.4124 67.2857 93.9336C67.5714 94.0772 67.8571 94.1251 68.1904 94.1251C68.3333 94.173 68.9999 93.9336 69.0476 93.9815Z" fill="#969696"/>
<path d="M23.1905 76.794C22.4762 74.9268 22 72.9638 21.5238 71.0009C21.381 70.2827 21.1905 69.6124 21.0953 68.8943C20.6667 68.9421 20.1905 69.0379 19.7619 69.0858C19.9048 68.2719 19.4286 67.3622 18.6667 67.027C19.4762 65.9737 19.5715 64.5853 19.5715 63.2448C19.5715 61.9042 19.4762 60.5636 19.8572 59.3188C20.1429 58.3613 20.7619 57.4995 21 56.5419C21.1905 55.8238 21.1429 55.1535 20.9048 54.4832C20.8572 54.3396 20.8096 54.196 20.7143 54.1002C20.6191 54.0045 20.4286 53.9566 20.3334 54.0045C20.381 53.1905 20.4286 52.1372 20.7143 51.4191C20.9524 50.8446 21.381 50.3179 21.6667 49.7913C21.7143 49.6476 22.1429 48.8337 22.5715 48.1634C22.4762 48.1156 22.4286 48.0677 22.3334 48.0677C23.1905 47.0623 24.0477 46.009 24.9048 45.0036C22.9524 43.663 21.0477 42.0352 19.7619 40.1201C19.4762 39.6892 19.2381 39.1625 18.8096 38.8753C18.5238 38.6838 18.1905 38.6359 17.9048 38.588C17.0953 38.3965 16.4286 37.9656 15.7619 37.4868C15.0953 37.0081 14.8096 36.2899 14.2381 35.7633C13.8572 35.4281 13.3334 35.2845 12.8096 35.2366C12.0953 35.1887 11 35.1887 10.3334 35.6675C10.1429 35.8111 9.80956 36.1463 9.57146 36.0026C11.381 33.8003 15.0477 33.6088 17.5715 34.4227C20.4286 35.3324 22.8096 37.439 24.9524 39.5456C27.0953 41.6522 29.2381 43.9024 31.9048 45.3387C35.7619 47.3974 40.4286 47.4932 44.7619 46.775C45.6667 46.009 46.4762 45.0036 47.6191 44.812H47.6667C47.9524 44.5248 48.2381 44.2375 48.5238 43.9503C49.0477 43.4715 49.7619 43.9981 50.381 44.2375C50.1429 44.5248 49.9524 44.8599 49.7143 45.1472C49.8572 45.1951 50 45.2429 50.1429 45.2908C52.0477 45.9611 54.0953 46.2005 56.1429 46.1047C59.2858 45.9132 62.2858 44.8599 65 43.28C66.3334 42.5139 67.5715 41.6043 68.7619 40.6467C69.7619 39.8807 70.7143 39.0668 71.6667 38.2529C71.7143 38.205 71.8096 38.1571 71.8572 38.0614C73.0477 35.8111 73.1905 32.9864 72.2381 30.6404C73.5715 32.2204 75 33.8003 76.7143 34.9972C78.4286 36.1942 80.4762 37.0081 82.5715 36.9602C84.4286 36.9123 86.1905 34.9972 86.7143 33.3215C87 32.364 87.0477 31.3586 86.7619 30.401C86.3334 29.1083 85.1905 28.4381 84.4762 27.3848C83.6667 26.2357 83 24.943 82.4762 23.6503C81.381 21.0171 80.7143 18.2881 79.6667 15.6549C79.1905 14.4579 78.6191 13.261 77.7619 12.2556C76.9048 11.2502 75.7143 10.532 74.4286 10.4841C73.2858 10.4841 72.2858 10.915 71.6191 11.8247C71.6667 11.2502 72.381 10.4841 72.7143 10.0054C73.1429 9.33508 73.5715 8.61692 74.0477 7.94664C74.8096 6.74971 75.8096 5.45703 77.1905 5.45703C78.6191 5.50491 79.5715 6.94122 79.9524 8.32966C80.2858 9.47871 80.4762 10.6278 80.5715 11.7768C80.6667 12.9259 80.9048 13.9792 81.1429 15.0803C81.9524 18.0487 82.8096 21.2086 84.381 23.9376C85.9524 26.6666 87.8096 29.2041 89.6667 31.7416C89.9048 32.0767 90.1905 32.4597 90.381 32.8428C90.381 32.5076 90.1905 32.1246 90.2381 31.7895C91.0477 32.2204 91.4286 33.6088 91.5238 34.4706C91.6191 35.5239 91.2381 36.6251 90.5715 37.439C89.8572 38.3486 88.7619 38.8753 87.7143 39.3062C85.0477 40.3595 82.1429 40.7904 79.2858 40.5031C76.7619 40.2637 74.2858 39.5456 71.8096 38.7795C71.7143 38.9232 71.6191 39.1147 71.5238 39.2583C71.5238 39.3062 71.4762 39.3062 71.4762 39.354C71.4762 39.354 71.4762 39.354 71.5238 39.354C71.8096 39.2583 72.1429 39.2104 72.4286 39.2104C72.4762 39.1147 72.5238 39.0668 72.5238 38.971C72.7143 39.0668 72.9524 39.1625 73.1429 39.2583C73.5238 39.354 73.8572 39.4977 74.1905 39.6413C74.3334 39.6892 74.7143 39.9765 75.0477 40.2637C75.7143 40.7425 76.2858 41.317 76.9048 41.9394C75.9048 41.3649 74.6667 41.5564 73.6191 41.1734C73.5715 41.1734 73.0953 40.9819 72.6667 40.7904C71.2858 43.3279 68.8572 45.2429 66.2858 46.6793C59.5715 50.4615 51.5238 51.6585 43.9524 50.2222C43.1905 50.5094 42.381 50.7009 41.5715 50.8446C38.5715 51.4191 35.5238 51.467 32.5238 51.084C27.4762 58.4092 25.8096 68.1282 28.9048 76.4588C32.0477 84.981 40.381 91.5401 49.4286 91.7795C51.5715 91.8274 54 91.6838 55.4762 93.2637C56.5715 94.4128 56.6667 96.1842 57.0477 97.7163C57.9524 101.259 60.6191 104.323 64.0477 105.616C60.6191 105.76 57.1905 104.754 54.4286 102.743C54.1429 102.025 53.8096 101.259 53.5238 100.541C53 99.2484 52.4286 97.9557 51.6667 96.7588C51.1429 95.9448 50.5238 95.1788 49.8096 94.5564C49.4762 94.2691 49.1429 94.0776 48.7619 93.934C47.2381 95.0352 46.3334 96.8545 45.6191 98.626C45.2381 99.6793 44.8572 100.685 44.4286 101.738C44.0477 102.743 43.1905 103.557 42.1905 103.892C42.4762 103.797 43.1429 102.36 43.2858 102.073C43.4762 101.546 43.6191 100.876 43.7619 100.35C44.0477 99.0569 44 97.6205 43.2858 96.4715C42.5238 95.2267 41.1429 94.5085 39.8572 93.8382C37.381 92.5456 34.8572 91.3008 32.381 90.0081C31.8096 89.7208 31.2381 89.4335 30.6191 89.4814C30 89.5293 29.4762 90.0081 29.0953 90.5347C28.7619 91.0614 28.5715 91.6838 28.381 92.2583C28.0953 93.2637 27.7619 94.2691 27.5238 95.3224C27.8096 95.4182 28.1429 95.514 28.4286 95.6576C28.1429 95.897 27.7619 96.0885 27.381 96.1364C27.2381 96.9024 27.0953 97.7163 27.0953 98.5302C27 100.637 27.4762 102.887 28.8572 104.515C26.9048 102.839 24.4762 101.738 21.9524 101.355C24.381 93.7904 25 85.6513 23.6667 77.7994C23.4762 77.4643 23.2858 77.1291 23.1905 76.794Z" fill="#969696"/>
<path d="M27.4287 8.61719C27.4287 8.71294 27.4763 8.76082 27.4763 8.85657C27.4287 8.76082 27.4287 8.66506 27.4287 8.61719Z" fill="#969696"/>
<path d="M54.9518 37.6295C54.9994 37.6295 55.047 37.6295 55.047 37.6295C54.2851 37.5816 53.5708 37.1986 53.1899 36.5762C52.2851 39.3052 50.7613 41.7469 48.7137 43.7577C50.1899 43.9492 51.7613 43.7577 53.2375 43.4226C54.2375 43.1832 55.2851 42.8002 55.7613 41.8905C56.0947 41.2681 56.0947 40.5021 55.9518 39.7839C55.7613 39.1137 55.2851 38.2519 54.9518 37.6295Z" fill="white"/>
<path d="M51.3809 40.3583C51.619 40.0231 51.7618 39.688 51.9523 39.305C51.9523 39.2571 52.0475 39.2092 52.0951 39.1135C52.2856 38.8262 52.4285 38.4911 52.619 38.2038C52.619 38.2038 52.619 38.1559 52.6666 38.1559C52.8571 37.8208 53.0475 37.2941 52.9047 36.959C53.2856 37.1026 53.619 37.2462 53.9999 37.3899C54.0475 37.3899 54.0951 37.3899 54.238 37.4378C54.3332 37.4856 54.4761 37.5335 54.5713 37.6293C54.619 37.6293 54.619 37.6771 54.6666 37.6771C54.7142 37.6771 54.7142 37.725 54.7618 37.7729C54.9523 37.9165 55.1428 38.1559 55.238 38.3474C55.5237 38.8262 55.6666 39.4007 55.8571 39.9274C55.9999 40.454 56.1428 41.0285 55.9999 41.6031C55.8571 42.1776 55.4285 42.6085 54.9523 42.8957C54.9523 42.9436 54.9999 42.9436 54.9999 42.9915C54.9523 43.0873 54.8094 43.0873 54.7142 43.0394C54.238 43.2788 53.7142 43.4224 53.238 43.5182C53.6666 43.2788 54.0951 43.0394 54.5237 42.7521C54.1904 42.2733 53.9999 41.6988 53.9523 41.1243C53.4761 41.0764 52.9999 41.1722 52.619 41.4594C52.1904 41.6988 52.1904 42.2733 52.3332 42.7042C52.4285 43.0873 52.7142 43.4224 53.0475 43.6139C52.857 43.6139 52.6666 43.6618 52.4761 43.6618C52.4285 43.6618 52.3332 43.6618 52.2856 43.6618C52.0475 43.566 52.0951 43.183 52.0475 42.9915C51.9523 42.6564 51.8094 42.3212 51.6666 41.9861C51.4285 42.3212 51.238 42.7042 50.9999 43.0394C50.8094 43.3266 50.619 43.6139 50.7142 43.949C50.4285 43.949 50.0951 43.8533 49.8094 43.8054C49.7142 43.8054 49.0475 43.6139 48.9999 43.7097C49.7618 42.6085 50.6666 41.5073 51.3809 40.3583ZM54.4285 42.034C54.4761 42.1776 54.5713 42.3691 54.6666 42.5127C54.9523 42.2733 55.1904 41.9382 55.3332 41.6031C55.5237 41.1243 55.5237 40.5498 55.4285 40.0231C54.9999 40.2625 54.5713 40.5498 54.4285 41.0285C54.238 41.3158 54.2856 41.6988 54.4285 42.034ZM54.2856 39.4965C54.619 39.7359 54.9999 39.8316 55.3809 39.8316C55.238 39.305 55.0475 38.8741 54.7618 38.4911C54.7142 38.4911 54.6666 38.4911 54.6666 38.4432C54.4285 38.3953 54.1904 38.3474 53.9999 38.4911C53.5237 38.7304 53.9999 39.305 54.2856 39.4965ZM52.6666 40.9807C52.9047 40.9807 53.1904 40.7413 53.3809 40.5976C53.5713 40.4061 53.7618 40.1189 53.7618 39.8795C53.7618 39.3528 53.2856 39.2092 52.8571 39.2092C52.8571 39.4007 52.7618 39.5922 52.6666 39.7837C52.4761 40.071 52.238 40.3104 52.2856 40.5976C52.2856 40.7892 52.4761 40.9807 52.6666 40.9807Z" fill="#D6D2D2"/>
<path d="M55.4762 15.1279C55.7143 15.0321 56.2857 15.2715 56.5238 15.3194C56.8571 15.3672 57.0952 15.463 57.3809 15.5588C58.7619 16.1812 60.0476 16.8514 61.3333 17.6654C61.9524 18.0484 62.5714 18.4793 63.1905 18.9102C63.4286 19.1017 63.619 19.2453 63.7143 19.4368C63.8571 19.6762 64 19.9156 64.0952 20.2986C64.4762 21.4476 64.5714 22.7403 64.3333 23.9373C64.2381 24.5597 64 25.1342 63.7619 25.6608C63.6667 25.8045 62.9524 27.1929 62.7619 27.145C59.619 25.9002 55.7619 26.0438 52.7619 27.5759C50.9524 25.8045 50.0952 23.0755 50.619 20.5859C51.2381 18.0962 53.0952 15.9418 55.4762 15.1279Z" fill="white"/>
<path d="M36 21.3044C36.1428 20.2032 36.7619 19.3414 37 18.2881C37.5714 18.0487 37.9523 17.7615 38.4762 17.4742C39.2857 16.9954 40.1904 16.7082 41.0952 16.4209C41.7619 16.2294 42.4762 15.99 43.1428 16.1337H43.1904C44.7142 16.5167 45.9047 18.5275 46.2381 19.916C46.6666 21.5917 46.3333 23.411 45.4285 24.8952C44.8095 24.7994 44.0476 24.9909 43.619 25.4697C41.5238 24.177 38.9047 23.794 36.5714 24.5122C36.4285 24.56 36.0476 23.1716 36 23.028C35.9047 22.4056 35.9047 21.831 36 21.3044Z" fill="white"/>
<path d="M50.6666 20.538C51.1904 18.0484 53.0951 15.9418 55.4761 15.1279C55.7142 15.0321 56.2856 15.2715 56.5237 15.3194C56.857 15.3672 57.0951 15.463 57.3808 15.5588C58.7618 16.1812 60.0475 16.8514 61.3332 17.6654C61.9523 18.0484 62.5713 18.4793 63.1904 18.9102C63.4285 19.1017 63.6189 19.2453 63.7142 19.4368C63.857 19.6762 63.9999 19.9156 64.0951 20.2986C64.2856 20.7774 64.3808 21.304 64.4285 21.8307C64.2856 21.5434 64.0951 21.304 63.9999 21.1604C63.7618 20.7295 63.4761 20.3465 63.1428 19.9635C62.6666 19.4368 62.1428 18.958 61.5713 18.5271C61.4285 18.4314 61.238 18.2878 61.0475 18.192C58.5713 16.6599 55.0951 16.3727 53.1904 18.9102C51.9523 20.538 51.9523 22.9318 53.0475 24.6075C53.7618 25.6608 54.7618 26.2354 55.8094 26.5226C54.7142 26.7141 53.6666 27.0493 52.7142 27.5759C50.9999 25.7566 50.1427 23.0276 50.6666 20.538Z" fill="#D6D2D2"/>
<path d="M62.9523 25.7088C63.2857 25.5172 63.5714 25.1821 63.8095 24.847C63.8571 24.7512 64.0476 24.5597 64.238 24.3203C64.1428 24.7512 63.9999 25.1821 63.7618 25.613C63.6666 25.7566 62.9523 27.1451 62.7618 27.0972C62.0476 26.8099 61.2857 26.6184 60.4761 26.4748C60.5237 26.4748 60.5237 26.4748 60.5714 26.4748C61.4285 26.3312 62.2857 26.0918 62.9523 25.7088Z" fill="#D6D2D2"/>
<path d="M35.9998 21.3044C36.1427 20.2032 36.7618 19.3414 36.9998 18.2881C37.5713 18.0487 37.9522 17.7615 38.476 17.4742C39.2856 16.9954 40.1903 16.7082 41.0951 16.4209C41.7618 16.2294 42.476 15.99 43.1427 16.1337H43.1903C44.2379 16.373 45.0951 17.3785 45.6189 18.4318C45.3332 18.1445 44.9998 17.8572 44.6665 17.6178C43.6189 16.9954 42.3332 16.7561 41.1427 16.9954C39.5713 17.3306 38.1903 18.4318 37.5237 19.9638C36.9998 21.1608 37.0951 22.6928 38.0475 23.6025C38.3332 23.8419 38.6665 24.0334 38.9998 24.177C38.1903 24.177 37.3332 24.2728 36.5237 24.5122C36.3808 24.56 35.9999 23.1716 35.9522 23.028C35.9046 22.4056 35.9046 21.831 35.9998 21.3044Z" fill="#D6D2D2"/>
<path d="M46.3809 22.3105C46.238 23.2202 45.9523 24.1299 45.4761 24.8959C44.8571 24.8002 44.0951 24.9917 43.6666 25.4704C43.238 25.2311 42.8094 24.9917 42.3332 24.8002C43.238 24.8002 44.0951 24.5608 44.9047 24.0341C45.4761 23.5554 45.9999 22.9808 46.3809 22.3105Z" fill="#D6D2D2"/>
<path d="M54.7143 24.3192C55.0477 25.8034 56.5715 26.7131 58.0477 26.378C59.5238 26.0428 60.4286 24.5107 60.0953 23.0266C59.7619 21.5424 58.2381 20.6327 56.7619 20.9678C55.2381 21.303 54.3334 22.835 54.7143 24.3192Z" fill="#196EAF"/>
<path d="M42.4286 24.7984C41.6667 24.4633 40.8096 24.3197 40.0001 24.3197C39.8096 24.0803 39.7143 23.793 39.6191 23.5058C39.2858 22.1652 40.1429 20.7768 41.4763 20.4416C42.8096 20.1065 44.1905 20.9683 44.5239 22.3088C44.8096 23.4579 44.2382 24.6548 43.1905 25.1336C42.9524 25.0378 42.6667 24.8942 42.4286 24.7984Z" fill="#196EAF"/>
<path d="M55.5714 24.1276C55.8095 25.1331 56.8095 25.7555 57.8095 25.5161C58.8095 25.2767 59.4286 24.2713 59.1905 23.2658C58.9524 22.2604 57.9524 21.638 56.9524 21.8774C55.9524 22.0689 55.3334 23.1222 55.5714 24.1276Z" fill="black"/>
<path d="M58.6667 21.8769C58.1429 21.7333 57.7143 22.0206 57.6191 22.4993C57.5714 22.9781 57.9048 23.5048 58.4286 23.6484C58.9524 23.792 59.381 23.5048 59.4762 23.026C59.5238 22.5472 59.1905 22.0206 58.6667 21.8769Z" fill="white"/>
<path d="M55.5238 24.2708C55.381 24.3666 55.3334 24.5581 55.4286 24.6538C55.5238 24.7975 55.7143 24.8453 55.8096 24.7496C55.9524 24.6538 56 24.4623 55.9048 24.3666C55.8572 24.2229 55.6667 24.2229 55.5238 24.2708Z" fill="white"/>
<path d="M42.4761 24.5591C42.2856 24.607 42.0475 24.607 41.857 24.607C41.7142 24.5591 41.5713 24.5113 41.4285 24.4634C40.9523 24.2719 40.5713 23.841 40.4285 23.3143C40.1904 22.4047 40.7618 21.495 41.6666 21.2556C42.5713 21.0162 43.4761 21.5907 43.7142 22.5004C43.9523 23.4101 43.3808 24.3676 42.4761 24.5591Z" fill="black"/>
<path d="M43.2382 21.303C42.762 21.1594 42.381 21.4466 42.2858 21.8775C42.2382 22.3084 42.5239 22.7872 43.0001 22.9308C43.4763 23.0744 43.8572 22.7872 43.9525 22.3563C44.0477 21.8775 43.7144 21.3987 43.2382 21.303Z" fill="white"/>
<path d="M40.3811 22.7861C40.2382 22.8819 40.2382 23.0255 40.2859 23.1692C40.3811 23.3128 40.524 23.3128 40.6668 23.2649C40.8097 23.1692 40.8097 23.0255 40.762 22.8819C40.6668 22.7383 40.524 22.6904 40.3811 22.7861Z" fill="white"/>
<path d="M70.0477 102.073C70.7144 101.881 71.4287 102.025 71.9525 102.456C72.0477 101.977 72.3811 101.45 72.762 101.163C73.1906 100.876 73.762 100.732 74.2382 100.828C74.2858 100.253 74.8572 99.7746 75.4287 99.7267C76.0001 99.6789 76.5715 99.9183 77.0001 100.349C77.3334 100.636 77.5715 101.067 77.5715 101.546C77.5239 102.025 77.143 102.456 76.7144 102.695C76.2858 102.935 75.762 102.982 75.2858 103.03C75.0477 103.605 74.6192 103.892 74.0953 104.131C73.5715 104.371 72.9049 104.419 72.3811 104.227C71.7144 104.754 71.0953 105.233 70.2858 105.52C69.4763 105.807 68.5239 105.807 67.9049 105.233C68.0001 104.562 68.143 103.892 68.5239 103.318C68.8572 102.743 69.3811 102.264 70.0477 102.073Z" fill="#EBE1C1"/>
<path d="M20.8573 101.164C20.9525 100.637 21.3335 100.111 21.8096 99.919C22.2382 99.7275 22.762 99.7275 23.1906 99.919C23.6192 100.111 23.9049 100.494 24.0477 100.924C24.5715 100.829 25.0954 100.924 25.5239 101.212C25.9525 101.499 26.3334 101.978 26.4287 102.504C27.2858 102.026 28.4287 102.073 29.2382 102.648C30.0477 103.223 30.5239 104.276 30.3811 105.233C29.6192 105.569 28.762 105.808 27.9525 105.569C27.143 105.329 26.4287 104.85 25.9525 104.18C25.3811 104.324 24.762 104.276 24.2382 104.084C23.7144 103.845 23.2858 103.414 23.0001 102.887C22.4763 103.127 21.8573 103.031 21.4287 102.696C21.0001 102.265 20.762 101.69 20.8573 101.164Z" fill="#EBE1C1"/>
<path d="M70.0953 102.026C69.8096 102.409 69.5239 102.744 69.4286 103.223C69.2858 103.653 69.381 104.18 69.762 104.467C70.0477 104.707 70.4763 104.707 70.9048 104.659C71.3334 104.611 71.7144 104.515 72.0477 104.228C72.381 103.989 72.6191 103.606 72.6191 103.175C72.6191 102.744 72.2858 102.361 71.8572 102.361C72.1429 101.786 72.5715 101.26 73.1429 100.972C73.0001 101.403 72.9525 101.834 73.0953 102.265C73.2382 102.696 73.5715 103.031 74.0001 103.127C74.2382 103.175 74.4763 103.127 74.6667 103.031C74.9525 102.935 75.2382 102.744 75.3334 102.457C75.4763 102.121 75.3334 101.738 75.0953 101.451C74.8572 101.164 74.5239 100.972 74.1905 100.829C74.381 100.302 74.8572 99.8711 75.4286 99.7754C75.0477 100.302 75.1429 101.164 75.6667 101.547C75.9525 101.786 76.381 101.834 76.762 101.786C76.9525 101.738 77.0953 101.69 77.2858 101.547C77.381 101.499 77.7144 101.26 77.7144 101.164C77.6191 101.69 77.3334 102.169 76.9048 102.504C76.4763 102.84 75.9525 102.983 75.4286 102.935C74.8572 103.414 74.1905 103.797 73.5239 104.084C73.2382 104.228 72.8096 104.324 72.5715 104.132C71.5239 105.186 70.0001 105.76 68.5239 105.569C68.3334 105.569 68.1429 105.521 68.0001 105.377C67.8096 105.186 67.9048 104.85 68.0001 104.611C68.381 103.51 69.1429 102.6 70.0953 102.026Z" fill="#C4B46E"/>
<path d="M22.2859 99.7754C21.6668 100.111 21.3811 100.972 21.7145 101.595C21.8097 101.786 22.0002 101.978 22.1906 102.073C22.3811 102.169 22.6668 102.169 22.8573 102.026C23.0478 101.882 23.1907 101.643 23.3335 101.451C23.6668 101.02 24.2383 100.781 24.7621 100.877C24.0954 101.116 23.6668 101.978 23.9526 102.696C24.0478 102.983 24.2859 103.27 24.5716 103.414C24.8573 103.558 25.1907 103.558 25.4764 103.414C25.8097 103.27 26.0002 102.935 26.2383 102.648C26.5716 102.313 27.0002 102.073 27.4764 102.026C26.9526 102.313 26.8097 103.079 27.0478 103.653C27.2859 104.228 27.9049 104.563 28.4764 104.707C28.7621 104.802 30.3335 105.042 30.2383 104.515C30.3811 104.802 30.4764 105.185 30.2383 105.425C30.0954 105.616 29.8097 105.664 29.524 105.616C28.524 105.616 27.5716 105.377 26.6668 104.898C26.2859 104.707 25.9049 104.467 25.8097 104.036C24.8573 104.228 23.8573 103.893 23.1906 103.175C22.8097 103.175 22.3811 103.079 22.0478 102.887C21.4287 102.552 21.0002 101.882 21.0002 101.164C21.0478 100.541 21.6192 99.8711 22.2859 99.7754Z" fill="#C4B46E"/>
<path d="M78.476 83.1132C78.1427 83.209 77.7141 83.2569 77.3808 83.1132C76.9998 82.9217 76.857 82.4908 76.8093 82.0599C76.7617 81.6291 76.857 81.1982 77.0474 80.8151C77.2855 80.4321 77.6665 80.1449 78.0951 80.1449C78.5236 80.097 78.9046 80.3364 79.2379 80.5279C79.5236 80.6715 80.2379 80.9109 80.4284 81.1503C80.6189 81.3897 80.3332 81.7248 80.1427 81.9642C79.7617 82.443 79.1427 82.8739 78.476 83.1132Z" fill="#EBE1C1"/>
<path d="M77.7616 81.6297C77.4283 81.1988 77.4759 80.5285 77.9045 80.1934C77.3807 80.3849 76.9997 80.9115 76.9521 81.486C76.9045 82.0606 77.2378 82.6351 77.714 82.9224C78.0474 83.1139 78.4283 83.1617 78.7616 83.1139C79.2378 83.0181 79.714 82.7787 79.9997 82.3957C80.1902 82.1563 80.5235 81.5818 80.4283 81.2467C80.2855 81.2945 80.1902 81.486 80.095 81.6297C79.9045 81.8691 79.6664 82.0127 79.3807 82.1084C78.8093 82.2521 78.1426 82.1084 77.7616 81.6297Z" fill="#C4B46E"/>
<path d="M50.2382 41.7469C50.2858 41.699 50.3334 41.699 50.381 41.6512C50.6191 41.5554 51.1429 41.5554 51.1906 41.2203C51.0953 41.0288 50.9525 40.7894 51.1429 40.5979L51.1906 40.55H51.2382C51.3334 40.5979 51.3334 40.7415 51.3334 40.7894C51.4287 40.9809 51.4763 41.1245 51.5715 41.1724C51.7144 41.2203 51.9048 41.1724 52.0953 41.1245C52.4763 41.0288 52.9049 40.8851 53.1906 40.6936C53.3334 40.5979 53.4763 40.4542 53.4763 40.3106C53.5239 40.167 53.4763 39.9755 53.4287 39.784C53.3334 39.4009 53.1906 39.0179 53.0477 38.6828C52.8096 38.204 52.6668 37.7731 52.7144 37.7252C52.8096 37.6774 53.0953 38.0125 53.3334 38.5392C53.5239 38.9222 53.6191 39.3052 53.762 39.7361C53.8096 39.8797 53.8096 40.0233 53.8572 40.167C53.9049 40.2149 53.9525 40.3106 54.0953 40.3106C54.2858 40.3585 54.5239 40.3106 54.762 40.2627C55.2382 40.1191 55.6191 39.8797 55.6668 39.9276C55.7144 39.9755 55.4287 40.4064 54.8572 40.55C54.5715 40.6457 54.2858 40.6936 54.0001 40.5979C53.9525 40.5979 53.9525 40.55 53.9049 40.55C53.9525 40.6936 54.0001 40.8851 54.0477 41.0766C54.1429 41.6033 54.3334 42.0821 54.5715 42.5608C54.6668 42.7523 54.7144 42.896 54.8096 43.0396C54.7144 43.0875 54.6668 43.1354 54.5715 43.1832C54.4763 43.0396 54.381 42.896 54.2858 42.7045C54.0477 42.1778 53.8572 41.6512 53.7144 41.1245C53.6668 40.9809 53.6668 40.8851 53.6668 40.7415C53.5715 40.8373 53.5239 40.8851 53.4287 40.933C53.0477 41.1724 52.6668 41.2681 52.2382 41.4118C52.0953 41.4597 51.9525 41.4597 51.8096 41.5075C51.8572 41.699 51.8572 41.8906 51.9049 42.1299C51.9525 42.4172 52.0001 42.7045 52.0953 42.9917C52.1906 43.279 52.2858 43.5184 52.3334 43.7099C52.2858 43.7099 52.1906 43.7578 52.1429 43.7578C52.0477 43.6141 51.9049 43.3747 51.8096 43.0875C51.7144 42.8002 51.6191 42.4651 51.5715 42.1299C51.5239 41.8427 51.5239 41.6033 51.5715 41.4118C51.5715 41.4118 51.5715 41.4118 51.5239 41.4118C51.5239 41.4118 51.5239 41.4118 51.4763 41.4118C51.4763 41.4597 51.4287 41.4597 51.4287 41.5075C51.3334 41.6512 51.1906 41.7469 51.0001 41.7948C50.8572 41.8427 50.381 41.9863 50.2858 41.8906C50.2382 41.8906 50.1906 41.7948 50.2382 41.7469Z" fill="#ADADAD"/>
<path d="M49.7621 42.6086C49.8097 42.4649 49.8573 42.3692 49.9525 42.2734C50.0478 42.5128 50.0954 42.8001 50.1906 43.0873C50.2859 43.4225 50.3811 43.7576 50.4287 43.9013C50.3335 43.9013 50.2859 43.8534 50.1906 43.8534C50.0954 43.7098 49.9525 43.4704 49.8573 43.1831C49.762 42.9916 49.7144 42.7522 49.7621 42.6086Z" fill="#ADADAD"/>
<path d="M37.9049 26.3799C38.7144 26.7629 39.4763 26.5714 39.5239 26.6672C39.5239 26.715 39.3811 26.8108 39.0477 26.8587C38.7144 26.9065 38.2382 26.9066 37.762 26.715C37.2858 26.5235 36.9525 26.1884 36.762 25.9011C36.5715 25.6139 36.5239 25.4224 36.5715 25.4224C36.6668 25.3745 37.0477 26.0448 37.9049 26.3799Z" fill="#545454"/>
<path d="M51.9523 17.3783C52.619 16.4687 53.4761 15.8941 54.238 15.559C54.3809 15.5111 54.5237 15.4632 54.6666 15.4154C54.3809 15.3675 54.0951 15.3675 53.8094 15.3196C52.4285 15.2239 51.5713 15.2717 51.5237 15.176C51.5237 15.0802 52.3809 14.8408 53.8094 14.793C54.5237 14.793 55.3809 14.8408 56.3332 15.0324C57.2856 15.2239 58.2856 15.5111 59.2856 15.942C60.2856 16.3729 61.1904 16.9474 61.9999 17.522C62.7618 18.0965 63.4285 18.671 63.9047 19.2455C64.857 20.3467 65.2856 21.1128 65.1904 21.1606C65.1428 21.2085 64.8094 20.8734 64.238 20.2988C64.5713 21.0649 64.7618 22.0703 64.6666 23.1715C64.5237 24.7035 63.8094 25.9483 63.238 26.7144C63.1904 26.8101 63.0951 26.858 63.0475 26.9538C63.857 27.3847 64.2856 27.7677 64.238 27.8634C64.1904 27.9592 63.5237 27.5762 62.3809 27.1931C61.8094 27.0016 61.1428 26.8101 60.3809 26.6665C59.619 26.5229 58.7618 26.475 57.857 26.475C56.9523 26.5229 56.0951 26.6186 55.3332 26.8101C54.5713 27.0016 53.9047 27.1931 53.3332 27.4325C52.238 27.8634 51.5713 28.2943 51.5237 28.1986C51.4761 28.1507 51.7618 27.8156 52.3809 27.4325C52.1904 27.241 52.0475 27.0495 51.857 26.858C51.3809 26.1877 50.857 25.3259 50.5713 24.2726C50.2856 23.2193 50.1904 21.9745 50.4285 20.6819C50.7618 19.3892 51.2856 18.288 51.9523 17.3783ZM51.0951 24.129C51.3332 25.1344 51.8094 25.9962 52.238 26.6665C52.3809 26.9059 52.5713 27.0974 52.7142 27.2889C52.857 27.1931 53.0475 27.0974 53.1904 27.0016C53.7618 26.7144 54.4285 26.4271 55.238 26.1877C56.0475 25.9962 56.9523 25.8047 57.9047 25.8047C58.857 25.8047 59.7618 25.9005 60.5713 26.0441C61.3809 26.2356 62.0951 26.475 62.6666 26.7623C62.7142 26.8101 62.8094 26.8101 62.857 26.858C62.9047 26.7623 62.9523 26.6665 62.9999 26.5707C63.4761 25.7568 64.0951 24.5599 64.1904 23.1715C64.3332 21.7352 63.9047 20.4903 63.4761 19.6764C63.4761 19.6764 63.4761 19.6764 63.4761 19.6286C62.9523 19.1498 62.3332 18.671 61.619 18.1444C60.857 17.6177 59.9999 17.1389 58.9999 16.7081C58.0475 16.2772 57.0475 15.9899 56.1904 15.7984C55.9047 15.7505 55.6666 15.7026 55.4285 15.6548C55.0951 15.7026 54.7142 15.7984 54.3332 15.9899C53.619 16.325 52.857 16.8996 52.2856 17.7614C51.6666 18.6231 51.1904 19.6764 50.9523 20.8734C50.7618 21.9267 50.8094 23.1236 51.0951 24.129Z" fill="#545454"/>
<path d="M38.0001 84.4059C38.1906 84.3101 38.2382 84.0707 38.3334 84.0707C38.381 84.0707 38.4287 84.1186 38.4763 84.2144C38.5239 84.358 38.4763 84.5495 38.3334 84.741C38.1906 84.9325 37.9525 85.124 37.5715 85.124C37.1906 85.124 36.8572 84.8846 36.6668 84.5495C36.4763 84.2144 36.4763 83.8313 36.5715 83.5441C36.7144 83.2568 36.9049 83.0653 37.0953 82.9696C37.4763 82.778 37.762 82.8259 37.762 82.9217C37.762 83.0174 37.5715 83.1611 37.4287 83.3526C37.2382 83.592 37.143 83.8792 37.2858 84.1665C37.5239 84.5016 37.762 84.5495 38.0001 84.4059Z" fill="#545454"/>
<path d="M26.6192 94.5089C26.762 94.461 27.0001 94.9877 27.524 95.1792C28.0478 95.4186 28.5716 95.1792 28.6668 95.275C28.7144 95.3228 28.6192 95.4665 28.3811 95.6101C28.143 95.7058 27.762 95.8016 27.3811 95.658C27.0001 95.5143 26.7621 95.1792 26.6668 94.9398C26.524 94.7004 26.5716 94.5089 26.6192 94.5089Z" fill="#545454"/>
<path d="M67.7143 94.317C67.4762 94.2212 67.3333 94.0776 67.381 94.0297C67.4286 93.8861 68 94.0297 68.6667 93.8382C69.3333 93.6946 69.7143 93.2637 69.8571 93.3594C69.9048 93.4073 69.8571 93.551 69.7143 93.7903C69.5238 93.9818 69.2381 94.2212 68.8095 94.317C68.3333 94.4127 67.9524 94.4127 67.7143 94.317Z" fill="#545454"/>
<path d="M56.857 43.0396C57.1903 42.6087 57.238 42.082 57.3808 42.082C57.4284 42.082 57.5237 42.2257 57.5237 42.465C57.5237 42.7044 57.4761 43.0396 57.238 43.3747C56.9999 43.662 56.6665 43.8056 56.4284 43.8535C56.1903 43.9014 56.0475 43.8535 56.0475 43.7577C55.9999 43.6141 56.5237 43.4705 56.857 43.0396Z" fill="#545454"/>
<path d="M0.0476379 44.4289C0.095253 44.1895 0.142876 43.998 0.238113 43.8065C0.333351 43.615 0.476212 43.4235 0.71431 43.2799C1.00002 43.1362 1.1905 43.1362 1.38097 43.1362C1.57145 43.0883 1.7143 43.0405 1.85716 42.9926C1.90478 42.9926 1.90478 42.9447 1.9524 42.9447C2.00002 42.0829 2.00002 41.0296 2.00002 39.8327C2.00002 38.6358 2.00002 37.3431 2.19049 35.9068C2.38097 34.5183 2.80954 33.1778 3.52383 32.1724C4.23811 31.1669 5.1905 30.4488 6.04764 30.1136C6.28574 30.0179 6.4762 29.97 6.7143 29.8742C6.76192 29.7785 6.76192 29.7306 6.80955 29.6349C7.09526 29.1082 7.52383 28.5816 8.1905 28.1507C8.85716 27.7198 9.66669 27.4325 10.5238 27.3368C11.4286 27.241 12.3334 27.2889 13.0953 27.4325C13.1905 27.3846 13.2381 27.3846 13.3334 27.3368C13.9048 27.1453 14.6667 27.0495 15.4762 27.0974C15.5238 27.0974 15.5238 27.0974 15.5714 27.0974C17.4762 25.4217 19.0953 23.4108 20.4762 21.2564C21.3334 19.8679 22.0953 18.4316 22.7619 16.9474C23.4286 15.4632 23.9524 13.9312 24.3334 12.3512C24.7619 10.7713 25.0953 9.19132 25.4286 7.5635C25.7143 5.98355 25.9524 4.30785 26.6191 2.77578C27.2381 1.24372 28.8095 -0.240476 30.7143 0.0946638C31.1905 0.238295 31.5714 0.525558 31.8572 0.812821C32.1905 1.10008 32.4286 1.38735 32.7143 1.62673C33.2857 2.15338 33.9524 2.63215 34.5714 3.06305C37.1905 4.8345 40.1905 6.12718 43.2857 6.70171C43.381 6.70171 43.4286 6.74959 43.5238 6.74959C45.5238 6.12718 47.6191 5.69629 49.7619 5.60054C52.5238 5.4569 55.3334 5.74417 58 6.46232C59.3333 6.84534 60.6191 7.32411 61.8572 7.94652C62.6667 8.32953 63.4286 8.8083 64.1429 9.38283C64.1905 9.38283 64.1905 9.38283 64.2381 9.38283C67.1429 8.95194 69.9524 7.75501 72.2381 5.93568C72.8095 5.4569 73.381 4.97813 73.9048 4.45148C74.381 3.92484 74.9524 3.30243 75.7143 2.91942C76.4762 2.5364 77.381 2.5364 78.1429 2.82366C78.9524 3.06305 79.6191 3.63757 80.0476 4.30785C80.9524 5.69629 81.2381 7.22836 81.4762 8.76043C81.7143 10.2925 81.8095 11.8246 82.0953 13.2609C82.7143 16.2293 83.6667 19.1498 84.9048 21.9266C86.1429 24.7035 87.6667 27.3846 89.381 29.9221C89.8095 30.5445 90.2381 31.2148 90.6667 31.8372C90.8572 32.1724 91.0953 32.5075 91.2857 32.8426C91.4762 33.1778 91.6667 33.5129 91.8095 33.9438C92.0476 34.8056 91.8572 35.7153 91.4762 36.4334C91.1905 37.2473 90.5714 37.8219 89.9048 38.3006C88.5714 39.2582 87.0476 39.6891 85.5238 40.12C84 40.503 82.4286 40.7424 80.8572 40.7902C79.1429 40.8381 77.4286 40.6945 75.7619 40.3593C76.5238 41.1254 77.1429 42.035 77.7143 42.9447C79.0953 45.1949 80.0953 47.6845 80.7143 50.2699C81.3333 52.8553 81.5714 55.5364 81.381 58.1696C81.1905 60.8508 80.5238 63.4361 79.6191 65.9736C79 67.6014 78.2381 69.2293 77.4286 70.7613C77.2857 71.9583 77.0953 73.1073 76.8095 74.2564C76.381 75.8363 75.8095 77.3684 75.0953 78.8047C75.5714 79.6665 76.3333 80.3846 77.1429 80.8155C77.0476 81.007 77 81.2464 76.9524 81.4858C76.0476 81.0549 75.2857 80.3368 74.7143 79.5229C74.7143 79.5707 74.6667 79.6186 74.6191 79.6665C74.5238 80.3368 74.4286 80.9592 74.381 81.6294C75.2381 81.8688 76.0953 81.9167 76.9524 81.7731C76.9524 82.0125 77.0476 82.2518 77.1429 82.4434C76.7619 82.5391 76.381 82.5391 76 82.5391C75.4286 82.5391 74.9048 82.4433 74.3333 82.2997C74.0476 85.6032 74.1905 88.9068 74.7143 92.1624C74.9048 93.4072 75.1905 94.652 75.4762 95.849C75.6191 96.4714 75.8095 97.0459 76 97.6683C76.1429 98.0992 76.2857 98.5301 76.4762 98.961C76.6191 99.3919 76.8572 99.7749 76.9524 100.206C76.9524 100.158 76.7143 100.062 76.6667 100.014C76.5714 99.9664 76.4286 99.9185 76.3333 99.8706C76.2381 99.8228 76.1429 99.8228 76.0953 99.7749C76.0476 99.6791 76 99.5355 75.9524 99.4397C75.7619 98.9131 75.5714 98.4343 75.381 97.9077C75.1905 97.2853 75 96.6629 74.8572 96.0405C74.5238 94.7957 74.2857 93.5508 74.0476 92.306C73.4762 88.6195 73.381 84.8851 73.8095 81.1507C73.2381 82.1082 72.5714 83.0179 71.8572 83.8797C71.1429 84.7415 70.381 85.2681 70.2381 85.1723C70.0953 85.0287 70.6191 84.3106 71.3333 83.4488C73.6191 80.7198 75.2857 77.512 76.1429 74.1127C76.2857 73.4903 76.4286 72.9158 76.5238 72.2934C76.3333 72.5807 76.1905 72.8679 76 73.1552C75.2381 74.2564 74.2381 75.3097 72.9048 75.8842C71.6191 76.4108 70.2857 76.6981 68.9524 76.8896C64 77.5599 58.9524 76.8896 54.1905 75.4054C54.1429 75.4054 53.8572 75.2618 53.5714 75.166C53.381 75.3575 53.1905 75.549 52.9048 75.6927C52.2381 76.1236 51.4762 76.363 50.7619 76.5545C50 76.746 49.2381 76.8896 48.4286 76.9375C46.8572 76.9854 45.2381 76.6502 43.8095 75.8842C43.6667 75.8363 43.5714 75.7406 43.4286 75.6927C43.381 75.7884 43.2381 75.9321 43 76.0757C42.6191 76.2672 42 76.3151 41.4286 76.0757C40.5238 75.7405 39.9524 74.8309 39.7619 73.9691C39.6667 73.5382 39.6191 73.1073 39.6667 72.6285C39.7143 72.1976 39.8095 71.7667 40.0476 71.3359C40.1429 71.1443 40.2857 71.0007 40.4286 70.8571C40.381 70.7134 40.3334 70.6177 40.2857 70.4741C40.0476 69.708 39.9048 68.8941 40 68.0323C40.0953 67.2184 40.4286 66.3566 41.0476 65.83C41.0953 65.7821 41.0953 65.7821 41.1429 65.7821C41 65.3512 40.9048 64.9203 40.9048 64.4415C40.9048 63.867 41 63.2925 41.1905 62.7658C41.2857 62.4786 41.4286 62.2392 41.5714 61.9998C41.7619 61.7604 41.9524 61.521 42.1905 61.3774C42.6667 61.0423 43.1905 60.8508 43.7619 60.7071C44.6667 60.4677 45.6191 60.372 46.5714 60.4677C46.3334 59.7496 46.1429 58.9357 46.1429 58.1218C46.1905 57.1642 46.4762 56.1588 47.0953 55.3449C47.7143 54.531 48.6667 54.0043 49.6667 53.9086C50.6667 53.7649 51.7143 54.1001 52.4762 54.7225C52.5714 54.8182 52.7143 54.914 52.8095 55.1534C52.8572 55.3449 52.8572 55.5364 52.8572 55.6322L52.7143 56.3024C52.6667 56.7333 52.6191 57.1642 52.6667 57.5951C52.7619 58.4569 53.0953 59.2708 53.5238 60.0368C53.9524 60.8029 54.4286 61.5689 54.8572 62.4307C54.9524 62.6701 55.0953 62.9095 55.1905 63.1489C57.9048 61.5689 60.9048 60.6593 63.9048 60.372C63.4286 58.1696 63.4286 55.9194 63.9524 53.8128C64.1905 52.7116 64.7143 51.9456 64.8572 51.9935C65.0476 52.0892 64.8572 52.9032 64.6191 53.9565C64.1429 55.9673 64.1429 58.2175 64.6191 60.3241C65.1429 60.2762 65.6667 60.2762 66.1905 60.2762C67.2857 60.3241 68.1905 60.5635 68.1429 60.755C68.0953 60.9465 67.2381 60.9944 66.1905 60.9465C62.5238 60.8986 58.7143 61.8562 55.4286 63.8191C55.5714 64.25 55.6667 64.6809 55.6667 65.1597C55.7143 65.7342 55.5714 66.3088 55.381 66.6439C55.1905 66.979 55 67.1705 54.9524 67.1227C54.8095 67.0269 55.0953 66.2609 55 65.2076C54.9048 63.484 53.8572 61.9998 52.9524 60.4199C52.5238 59.606 52.1429 58.6963 52.0476 57.7387C52 57.26 52 56.7812 52.0953 56.3024C52.1429 56.063 52.1905 55.8237 52.2381 55.6322C52.2381 55.3928 52.2857 55.4885 52.1429 55.3449C51.4762 54.8661 50.6191 54.5789 49.8095 54.6746C49 54.7704 48.1905 55.2013 47.6667 55.8715C47.1429 56.5418 46.9048 57.4036 46.8572 58.2654C46.8572 59.0793 47.0476 59.8932 47.3333 60.6593C48.2857 60.8508 49.2381 61.138 50.0476 61.6168C51.0476 62.1913 51.6191 62.9095 51.4762 63.0531C51.3334 63.1967 50.6191 62.718 49.7143 62.1913C48 61.2338 45.9048 60.8986 43.9048 61.4253C43.4286 61.5689 42.9524 61.7125 42.5714 61.9998C42.1905 62.2871 41.9524 62.6701 41.7619 63.1489C41.4286 63.9149 41.4762 64.7767 41.6667 65.5906C41.9524 65.4948 42.1905 65.3991 42.4286 65.3991C42.8095 65.3991 43.0476 65.5427 43.0476 65.5906C43 65.7821 42.1905 65.7821 41.4762 66.5003C41 66.9312 40.7143 67.6014 40.6191 68.3196C40.5238 69.0378 40.6667 69.7559 40.8572 70.4741C40.9048 70.5698 40.9048 70.6656 40.9524 70.7613C41.0953 70.7135 41.2381 70.7134 41.381 70.7134C41.8095 70.7613 42 71.0007 41.9524 71.0486C41.9048 71.1443 41.7143 71.0965 41.4286 71.1443C41.1429 71.2401 40.8095 71.4316 40.5714 71.8146C39.9524 73.0116 40.2857 75.0703 41.6191 75.5969C42.0476 75.7884 42.5238 75.7884 42.8095 75.7405C42.9524 75.7405 43.0953 75.6927 43.1905 75.6927C42.5238 75.2139 42.1905 74.6873 42.2857 74.5915C42.4286 74.4479 43.1429 74.9745 44.0953 75.4533C45.381 76.1714 46.9048 76.4587 48.381 76.4108C49.1429 76.363 49.8572 76.2672 50.5714 76.0278C51.2857 75.8363 52 75.5969 52.5714 75.2139C53 74.9745 53.3333 74.6873 53.5238 74.4479C53.7143 74.2085 53.7619 73.9691 53.8572 73.9691C53.9524 73.9691 54.0476 74.2085 53.9048 74.6394C53.9048 74.6872 53.8572 74.6873 53.8572 74.7351C58.4762 76.3151 63.8095 76.9375 68.6667 76.363C68.7143 76.363 68.7619 76.363 68.8095 76.363C70.0953 76.1714 71.381 75.8842 72.5714 75.4054C73.7143 74.8788 74.6191 73.9691 75.381 72.9158C76.8095 70.7613 77.9524 68.3196 78.9048 65.8779C79.8095 63.4361 80.4762 60.8508 80.6667 58.2654C80.8572 55.68 80.6191 53.0468 80 50.5572C79.381 48.0676 78.4286 45.6258 77.0953 43.4235C76.381 42.2266 75.4762 41.1254 74.4762 40.2157C73.6667 40.0242 72.9048 39.7848 72.1429 39.4976C72.0476 39.4497 71.9048 39.4018 71.8095 39.3539C71.6667 39.5933 71.5714 39.8327 71.4286 40.0721C69.9048 42.5617 67.6191 44.4768 65.0953 45.7695C62.5714 47.0621 59.7619 47.9239 56.9524 48.4027C55.5714 48.6421 54.1905 48.7857 52.8095 48.8336C51.381 48.8815 50 48.8336 48.5714 48.7378C46.8572 48.5942 45.1905 48.2591 43.5238 47.8761C41.9524 48.5463 40.3334 48.9772 38.6667 49.1687C35.1905 49.5518 31.6667 48.9294 28.5238 47.5409C28.381 47.493 28.2381 47.3973 28.0953 47.3494C27.9048 47.6367 27.6667 48.0197 27.381 48.4027C25.381 50.9402 23.7619 53.8607 22.8095 57.0206C21.4286 61.6168 21 66.5481 21.8572 71.3359C22.2381 73.5382 22.9524 75.7405 23.9048 77.7514C26.0476 82.1561 29.4286 85.9863 33.5238 88.7153C35.5714 90.1037 37.8095 91.2049 40.1429 92.0188C42.4762 92.8327 44.9048 93.503 47.3333 93.5987C47.9524 93.6466 48.6667 93.6945 49.2857 94.0775C49.5714 94.269 49.8572 94.5084 50.0953 94.7478C50.3334 94.9872 50.5238 95.2265 50.7619 95.4659C51.5714 96.4714 52.2381 97.5725 52.8572 98.6737C53.4762 99.8228 53.7619 101.068 54.3334 102.169C54.4762 102.456 54.6191 102.695 54.8095 102.887C54.9048 102.983 55 103.078 55.0953 103.174L55.4762 103.414C56 103.749 56.5238 104.036 57.0953 104.275C58.2381 104.754 59.4286 105.041 60.6667 105.233C61.9048 105.424 63.1429 105.52 64.381 105.52C65.6191 105.52 66.9048 105.377 68.1429 105.137C68.2381 105.377 68.4286 105.568 68.6191 105.712C67.2381 105.999 65.8095 106.19 64.381 106.19C63.0953 106.19 61.8095 106.095 60.5714 105.903C59.2857 105.712 58.0476 105.377 56.8572 104.898C56.2381 104.658 55.6667 104.371 55.1429 103.988L54.7143 103.701C54.5714 103.605 54.4286 103.461 54.3334 103.318C54.0953 103.031 53.9048 102.743 53.7619 102.456C53.1429 101.307 52.8572 100.014 52.2857 98.961C51.7143 97.8598 51.0476 96.8065 50.2857 95.849C49.9048 95.3702 49.4762 94.8914 49.0476 94.6041C48.9524 94.5563 48.8572 94.5084 48.7143 94.4605C47.9524 95.2265 47.2381 96.1362 46.6667 97.0459C46.0476 98.0513 45.6667 99.1525 45.3334 100.302L44.8095 102.025C44.7619 102.169 44.7143 102.312 44.6667 102.456C44.6191 102.648 44.5238 102.791 44.4286 102.935C44.2381 103.222 43.9524 103.461 43.7143 103.653C42.6667 104.419 41.4286 104.754 40.2857 105.089C37.9524 105.807 35.4286 106.143 32.9524 105.999C32 105.951 31.0476 105.807 30.1429 105.616C30.1905 105.568 30.2381 105.52 30.2857 105.424C30.3333 105.281 30.3334 105.137 30.3334 104.946C31.1905 105.137 32.0953 105.281 33 105.329C35.381 105.52 37.7619 105.137 40.0953 104.467C41.2381 104.132 42.381 103.749 43.3334 103.126C43.5714 102.983 43.7619 102.791 43.9048 102.552C44 102.456 44.0476 102.36 44.0953 102.217C44.1429 102.073 44.1905 101.929 44.2381 101.786L44.7619 100.062C45.0953 98.9131 45.5238 97.7162 46.1905 96.6629C46.7143 95.8011 47.3333 94.9872 48.0476 94.2211C47.8572 94.2211 47.6667 94.1732 47.4286 94.1732C44.8572 94.0296 42.4286 93.4072 40.0476 92.5454C37.6667 91.6836 35.381 90.5346 33.2857 89.1461C29.5714 86.6565 26.4286 83.3051 24.2381 79.4271C25.1905 85.7947 24.9524 92.9763 22.8572 99.8706C22.8572 99.8228 22.0476 99.9664 22.0476 100.11C22.1905 99.4397 25.7619 90.1516 23.2381 77.4163C22.0476 74.783 21.3334 72.0061 21.0953 69.1814C20.9048 69.325 20.6191 69.4208 20.381 69.5165C20.381 69.8517 20.3334 70.1868 20.2381 70.4741C20 71.1922 19.4762 71.8625 18.8095 72.2455C18.0953 72.6285 17.2857 72.6764 16.5714 72.5807C16.3334 72.5328 16.1429 72.4849 15.9524 72.437C15.381 72.82 14.7619 73.2509 14.0953 73.5382C13.2857 73.9212 12.3334 73.9691 11.4762 73.7297C10.6191 73.4903 9.85716 73.0594 9.1905 72.4849C8.52383 71.9104 8.00002 71.1922 7.66669 70.4262C7.33335 69.6602 7.09526 68.8462 6.90479 68.0323C6.71431 67.2184 6.57144 66.4045 6.4762 65.5427C6.33335 63.867 6.47621 62.1913 6.80955 60.5635C7.14288 58.9836 7.52383 57.4036 7.28574 55.8237C7.23812 55.4406 7.09526 55.1055 7.00002 54.6746C6.85716 54.2916 6.80954 53.7649 7.00002 53.2862C7.1905 52.8074 7.47621 52.4723 7.80954 52.185C8.14288 51.8977 8.57145 51.7062 9.00002 51.6105C9.90478 51.3711 10.8572 51.6583 11.5238 52.2329C12.1905 52.8074 12.6667 53.6213 12.8095 54.4831C12.9524 55.2491 12.9048 56.0152 12.7143 56.6855C14.8572 54.914 17.4762 53.8128 20.1905 53.4777C20.1905 53.3819 20.2381 53.2862 20.2381 53.1904C21.0476 50.1263 22.5714 47.2537 24.6191 45.0034C23.6191 44.2853 22.6667 43.4714 21.7619 42.6096C21.2857 42.1308 20.8572 41.6999 20.4286 41.1733C19.9048 40.5987 19.4286 39.9763 18.9524 39.4018C18.8095 39.3539 18.6667 39.306 18.5238 39.2582C16.9524 38.6358 15.4762 37.6782 14.381 36.3377C14.1905 36.0983 14.0476 35.8589 13.9048 35.6195C13.5714 35.5716 13.1905 35.5238 12.8095 35.5238C11.2381 35.5238 9.61906 36.1462 8.52383 37.2473C7.42859 38.3964 6.80954 39.9763 6.76192 41.5563C6.76192 41.8914 6.76192 42.1787 6.76192 42.4181C6.85716 42.4181 6.90479 42.4659 7.00002 42.4659C7.33335 42.4659 7.7143 42.2266 8.28574 42.2266C8.57145 42.2266 8.85716 42.4181 9.00002 42.6096C9.19049 42.8011 9.28574 43.0405 9.38097 43.232C9.57145 43.6629 9.57145 44.2374 9.38097 44.6683C9.04764 45.4822 7.9524 46.2482 7.04764 45.961C6.52383 45.8173 6.09526 45.4343 5.61907 45.1949C5.14288 44.9556 4.66669 44.8119 4.1905 44.8119C4.09526 44.9555 4.00002 45.0992 3.90479 45.2428C3.61906 45.6737 3.28574 46.0567 2.80954 46.2961C1.9524 46.6791 0.904785 46.3919 0.380974 45.6258C0.0476456 45.3386 1.52588e-05 44.8598 0.0476379 44.4289ZM34.2381 3.5897C33.5714 3.11092 32.9048 2.63215 32.2857 2.05763C31.6667 1.53098 31.1429 0.860698 30.5238 0.66919C29.9048 0.525558 29.0953 0.812821 28.5238 1.19584C27.9048 1.62673 27.4762 2.29701 27.1905 2.96729C26.5714 4.40361 26.3334 6.03143 26.0476 7.61138C25.7143 9.2392 25.381 10.8191 24.9524 12.3991C24.5238 13.979 24 15.559 23.3334 17.0911C22.6667 18.6231 21.8572 20.0594 21 21.4957C19.7143 23.5545 18.1905 25.4695 16.4286 27.0974C16.8095 27.1453 17.1905 27.241 17.6191 27.3368C18.6667 26.3792 19.6667 25.278 20.6191 24.0332C22.1429 21.9745 23.4762 19.5807 24.5238 16.8995C25.6191 14.2184 26.6191 11.3458 27.1429 8.23378C27.2857 7.46774 27.3334 6.65383 27.4762 5.83992C27.6667 5.02601 27.8095 4.2121 28.381 3.44606C28.5238 3.25456 28.7143 3.11092 28.9048 2.96729C29 2.91942 29.1429 2.87154 29.2857 2.87154C29.4286 2.87154 29.5238 2.82366 29.6667 2.87154C30.1905 2.91942 30.5714 3.30243 30.8572 3.5897C31.381 4.25998 31.9048 4.93026 32.3334 5.64841C33.5238 7.51562 34.4286 9.57434 35 11.7767C35.7143 10.5798 36.8095 9.71797 37.9048 8.99981C39.0953 8.23378 40.381 7.65925 41.6667 7.18048C41.8572 7.08473 42.0953 7.03685 42.2857 6.9411C39.4286 6.46232 36.6667 5.2654 34.2381 3.5897ZM34.6191 12.6864L34.6667 12.6385C34.0953 10.2925 33.1429 8.09015 31.9048 6.12718C31.4762 5.40903 30.9524 4.73875 30.4762 4.11634C30 3.44606 29.1905 3.30243 28.8095 3.92484C28.381 4.49936 28.1905 5.31327 28 6.07931C27.8572 6.84534 27.7619 7.65925 27.6191 8.42529C27.0953 11.5852 26.0476 14.4578 24.9524 17.1389C23.8572 19.82 22.4762 22.2618 20.9524 24.3205C20.0476 25.5174 19.0476 26.5707 18.0476 27.4804C19.8095 28.007 21.1905 28.9167 22.0953 29.7306C22.1429 29.7306 22.1429 29.7306 22.1905 29.7306C23.2381 29.7306 24.6667 29.9221 26.1429 30.4967C26.8095 30.736 27.4286 31.0712 27.9524 31.4063C27.9524 31.3584 27.9524 31.3584 27.9524 31.3106C28.1429 29.8743 28.7143 28.4858 29.5238 27.2889C30.381 26.0441 31.6191 25.1823 32.4762 23.8896C34.2381 21.2085 34.7143 17.8092 34.4286 14.6493C34.2857 13.9312 34.3334 13.4045 34.6191 12.6864ZM80.8572 40.12C82.381 40.0721 83.9048 39.8327 85.381 39.4976C86.8572 39.1145 88.3333 38.6358 89.5238 37.8219C89.8095 37.6303 90.0953 37.3431 90.3333 37.1037C90.3333 36.6728 90.381 36.2898 90.3333 35.8589C90.2857 34.9492 90.0953 34.0396 89.7143 33.1778C89.3333 32.316 88.8095 31.4542 88.1429 30.6403C87.4762 29.8264 86.7143 29.0125 86 28.1028C85.2381 27.1931 84.5714 26.2356 83.9524 25.1344C82.7143 22.9321 81.8095 20.4424 81.1429 17.7135C80.8095 16.3729 80.5238 14.9366 80.2381 13.5003C79.9524 12.0639 79.7619 10.5798 79.2857 9.14344C79.0476 8.42529 78.7619 7.70713 78.3333 7.18048C78.0953 6.89322 77.8095 6.65383 77.5238 6.60596C77.2381 6.55808 77 6.70171 76.7619 6.98897C76.5238 7.27624 76.3333 7.61138 76.0476 7.94652C75.8095 8.28166 75.5238 8.56892 75.2381 8.85618C74.6667 9.43071 74.0953 10.0052 73.4762 10.5319C72.2857 11.6331 71 12.6864 70.0476 14.0269C69.4762 14.7929 69.0476 15.6069 68.6667 16.4686C68.7143 18.9583 69 21.4479 69.6191 23.8417C69.9524 25.2302 70.2381 26.5707 71 27.7198C71.381 28.2943 71.8095 28.8688 72.1905 29.4912C72.4762 30.1615 72.7619 30.8318 72.9524 31.5499C73.5714 33.9438 73.1905 36.4334 72.1905 38.6358C74.9524 39.7369 77.9524 40.2157 80.8572 40.12ZM12.0476 54.6267C11.9048 53.9086 11.5238 53.2383 10.9524 52.8074C10.381 52.3765 9.66669 52.1371 9.00002 52.3286C8.33335 52.5201 7.66669 52.9989 7.42859 53.6213C7.19049 54.1958 7.66669 54.914 7.76192 55.8237C8.00002 57.5472 7.57145 59.1751 7.28574 60.755C6.9524 62.335 6.80954 63.9149 6.9524 65.5427C7.00002 66.3566 7.1905 67.1227 7.38097 67.9366C7.57145 68.7026 7.76192 69.5165 8.09526 70.2347C8.42859 70.9528 8.85716 71.5752 9.47621 72.054C10.0476 72.5807 10.7619 72.9637 11.4762 73.1552C12.1905 73.3467 12.9524 73.2988 13.6667 73.0116C14.381 72.7243 15.0476 72.2455 15.7143 71.7667C16.6191 71.1443 17.4762 70.7613 17.5714 70.9528C17.6667 71.0965 17.1905 71.5274 16.5238 72.0061C17.1429 72.1019 17.7619 72.0061 18.2857 71.7189C18.8095 71.4316 19.2381 70.905 19.4286 70.3304C19.6191 69.7559 19.6191 69.0856 19.3334 68.559C19.0476 68.0323 18.5714 67.6014 18 67.4099C17.0953 67.0269 16.2381 67.2184 16.1905 67.0748C16.1429 66.979 16.3334 66.8354 16.7143 66.6918C17.0953 66.596 17.6667 66.5481 18.1905 66.7875C18.3334 66.5003 18.5238 66.0694 18.6667 65.5906C18.8572 64.8246 18.7143 64.0106 18.3334 63.3882C17.9048 62.7658 17.2381 62.3349 16.5238 62.1913C15.5714 61.9519 14.7619 62.2392 14.6667 62.0477C14.6191 61.9519 14.8095 61.8083 15.1429 61.6168C15.5238 61.4732 16.0476 61.3774 16.6667 61.521C17.0953 61.6168 17.5238 61.8083 17.9524 62.0477C18 61.7604 18.0476 61.4732 18.0953 61.0901C18.1429 60.2762 18 59.3666 17.5238 58.8399C17 58.2654 16.1429 57.9781 15.3334 57.8824C14.4762 57.7387 13.6667 57.7866 12.8095 57.9303C11.9524 58.026 11.1429 58.2654 10.4286 58.6484C9.52383 59.1272 8.90478 59.7496 8.76192 59.606C8.61906 59.5102 9.04764 58.6484 10.0953 58.0739C10.6191 57.7866 11.1429 57.5951 11.7143 57.4994C11.7619 57.3557 11.8572 57.1642 11.9048 56.9727C12.0953 56.1109 12.1905 55.3449 12.0476 54.6267ZM20.7619 53.3819V53.4298C20.8095 53.4298 20.8572 53.4298 20.8572 53.4298C22 53.3819 22.8572 53.6213 22.8572 53.7649C22.8572 53.9565 21.9524 54.0043 20.9048 54.1001C18.1905 54.2437 15.4286 55.3449 13.2381 57.1163C13.9524 57.0685 14.7143 57.0206 15.4286 57.1642C16.3334 57.3079 17.2857 57.5951 18 58.3612C18.6667 59.1751 18.8095 60.1805 18.7619 61.138C18.7143 61.6647 18.5714 62.0477 18.4286 62.3828C18.6191 62.5743 18.8095 62.7658 18.9524 62.9574C19.4762 63.7713 19.5714 64.7288 19.381 65.6385C19.2381 66.1651 19 66.596 18.7143 66.8833C19.2381 67.1705 19.7143 67.6014 19.9524 68.176C20.0476 68.3675 20.0953 68.559 20.1429 68.7984C20.381 68.7026 20.6191 68.559 20.8572 68.4632C20.7143 66.7396 20.7619 65.0161 20.9048 63.2446C21.0953 61.0423 21.4762 58.792 22.1429 56.6855C23.1429 53.4298 24.8095 50.4614 26.8095 47.8282C27.0953 47.4452 27.381 47.1579 27.6191 46.9185C26.7143 46.4876 25.8572 45.961 25.0476 45.3864C23.0476 47.5888 21.5238 50.4135 20.7619 53.3819ZM14.8095 35.9546C15.6191 36.9601 16.7619 37.7261 17.9524 38.3485C17.6667 38.0134 17.381 37.6782 17.0476 37.391C16.4762 36.8164 15.8095 36.3377 15.0476 36.0504C15 36.0025 14.9048 35.9546 14.8095 35.9546ZM2.47621 45.9131C3.04764 45.6258 3.38097 44.9077 3.90479 44.2374C4.23811 43.8544 4.90478 43.4235 5.42859 43.615C5.52383 43.6629 5.61906 43.7107 5.66669 43.7586C5.7143 43.8065 5.76192 43.9023 5.76192 43.9501C5.80954 44.1416 5.7143 44.3331 5.52383 44.381C5.14288 44.4768 4.85716 43.8544 4.47621 44.2853C4.42859 44.381 4.38097 44.4289 4.33335 44.5247C4.4762 44.5247 4.57144 44.5725 4.57144 44.5725C5.14288 44.7162 5.7143 44.9556 6.23811 45.1949C6.66669 45.3864 7.14288 45.7216 7.61907 45.5779C8.04764 45.4822 8.47621 45.1471 8.76192 44.764C8.90478 44.5725 9.00002 44.381 9.00002 44.1416C9.00002 43.7107 8.57145 42.9447 8.09526 42.8968C7.76192 42.849 7.42859 43.0883 6.90479 43.1362C6.61907 43.1362 6.38097 43.0883 6.14288 42.9447C5.9524 42.849 5.7143 42.6574 5.57145 42.4659C5.23811 42.035 5.14288 41.5084 5.19049 41.1733C5.23811 40.8381 5.38097 40.6466 5.47621 40.6945C5.61907 40.7424 5.52383 41.4605 5.9524 42.035C5.9524 41.8914 5.90478 41.7957 5.90478 41.652C5.90478 39.8806 6.57145 38.157 7.80954 36.8643C9.04764 35.5716 10.8095 34.9014 12.5714 34.9014C13.4286 34.9014 14.3334 35.045 15.1429 35.428C15.9524 35.7631 16.7143 36.2898 17.3334 36.9122C18.6191 38.1091 19.5238 39.5454 20.6667 40.7902C22.8572 43.2799 25.5714 45.3864 28.6667 46.7749C31.7143 48.1633 35.1429 48.7378 38.4762 48.3548C41.8095 48.0197 45 46.5834 47.5714 44.3331C48.4762 43.5671 49.2381 42.7053 49.9524 41.7478C51.0476 40.2636 52.0953 38.6836 52.7143 36.9122C52.0476 36.2419 51.8572 35.5238 52 35.4759C52.1905 35.3801 52.6667 36.0983 53.4762 36.7207C53.8572 37.0079 54.2381 37.1995 54.6667 37.2952C55.6191 37.5825 56.4762 37.4867 56.5238 37.6782C56.5714 37.8219 56.0476 38.0612 55.2381 38.0612C55.5238 38.4921 55.7143 38.923 55.9048 39.4018C56.0953 39.9763 56.2381 40.5987 56.2381 41.2211C56.2381 41.3648 56.2381 41.5563 56.1905 41.6999C56.1429 41.8914 56.0953 42.0829 56 42.2266C55.8095 42.5138 55.5714 42.7532 55.2857 42.9447C54.2381 43.6629 53.0476 43.998 51.8095 44.1416C50.8095 44.2374 49.7619 44.1895 48.7619 43.998C48.4762 44.2853 48.2381 44.5247 47.9524 44.8119C46.8572 45.7695 45.6191 46.5834 44.3334 47.2537C45.7143 47.5409 47.0953 47.7803 48.4762 47.9239C49.8572 48.0676 51.2381 48.1154 52.6191 48.0197C55.4762 47.8761 58.3334 47.493 61.0476 46.5834C62.2857 46.1525 63.4762 45.6737 64.6667 45.0513C67.1429 43.8065 69.3333 41.9393 70.7619 39.5933C72.1905 37.2952 72.8572 34.3747 72.1429 31.7415C71.9524 31.0712 71.7143 30.4488 71.3333 29.8742C71 29.2997 70.5714 28.7252 70.1429 28.1028C69.7619 27.4804 69.4286 26.8101 69.1905 26.092C68.9524 25.4217 68.8095 24.7035 68.6191 24.0332C68.1429 22.0224 67.8095 19.9637 67.7143 17.905C67.6191 18.0965 67.5238 18.3359 67.4286 18.5274C67.381 18.7189 67.3333 18.9104 67.1905 19.1019C67.0953 19.1976 67.0953 18.671 67.0953 18.671C67.0953 18.5752 67.1429 18.4795 67.1429 18.3837C67.4286 16.708 68.2857 15.0802 69.2857 13.7396C70.3333 12.3512 71.6191 11.25 72.8095 10.1967C73.4286 9.67009 74 9.09557 74.5714 8.52104C74.8572 8.23378 75.0953 7.94652 75.3333 7.65925C75.5714 7.37199 75.7619 6.98897 76.0476 6.70171C76.1905 6.55808 76.3333 6.36657 76.5714 6.27082C76.7619 6.12718 77.0476 6.07931 77.2857 6.17506C77.7619 6.27082 78.0953 6.60596 78.381 6.89322C78.9048 7.5635 79.1905 8.28166 79.4286 9.04769C79.9048 10.5319 80.0953 12.0161 80.381 13.4524C80.6667 14.8887 80.9524 16.2771 81.2857 17.6177C81.9524 20.2988 82.8572 22.8363 84.0476 24.9429C84.6191 25.9962 85.3333 27.0016 86.0476 27.8634C86.7619 28.7252 87.5238 29.587 88.1905 30.4009C88.8572 31.2627 89.4286 32.1245 89.7619 33.0341C90.381 33.9917 90.5714 34.9013 90.6191 35.7631C90.6191 36.0983 90.6191 36.3855 90.6191 36.7207C90.7619 36.577 90.8572 36.3855 90.9524 36.194C91.2857 35.5716 91.4286 34.8535 91.2381 34.1832C91.1429 33.8959 90.9524 33.5608 90.7619 33.2257C90.5714 32.8905 90.381 32.5554 90.1905 32.2681C89.7619 31.6457 89.3333 30.9754 88.9048 30.353C87.1429 27.7677 85.6191 25.0865 84.3333 22.2618C83.0476 19.437 82.0953 16.4686 81.4762 13.4524C81.1429 11.9203 81.0476 10.3882 80.8095 8.90406C80.5714 7.41987 80.2381 5.93568 79.4762 4.73875C79.0953 4.16422 78.5238 3.68545 77.9048 3.49394C77.2381 3.25456 76.5714 3.25456 75.9524 3.54182C75.3333 3.82908 74.8572 4.35573 74.3333 4.93026C73.8095 5.4569 73.2381 5.98355 72.6191 6.46232C70.1905 8.37741 67.2857 9.57434 64.2857 10.0531C63.1905 10.1967 62.2857 10.0531 62.2857 9.90948C62.2857 9.76585 62.6191 9.67009 63.1905 9.57434C62.6667 9.19132 62.1429 8.85618 61.5714 8.6168C60.381 8.04227 59.0953 7.5635 57.8095 7.18048C55.2381 6.46232 52.4762 6.17506 49.8095 6.31869C47.0953 6.46232 44.4286 7.1326 41.9048 8.09015C40.6191 8.56892 39.381 9.14344 38.2381 9.8616C37.0953 10.5798 36 11.4415 35.4286 12.5906C34.8572 13.6918 34.9048 14.9366 34.9048 16.1335C34.9048 17.2826 34.8095 18.4795 34.6191 19.6285C34.1905 22.0224 33.0953 24.6556 31.3334 26.2835C30.8572 26.7622 30.4286 27.2889 30.0476 27.8155C29.2857 28.9167 28.7619 30.2094 28.5714 31.5499C28.5714 31.6936 28.5238 31.8372 28.5238 32.0287C28.8572 32.0287 29.2381 32.0287 29.6667 31.9808C30.4286 31.933 31.2381 31.7893 32.1429 31.6457C33.0476 31.5021 33.9048 31.4542 34.7143 31.5021C34.9524 31.5021 35.1429 31.5499 35.3334 31.5978C36.0953 31.0233 36.9524 30.1136 38.1429 29.2997C38.8095 28.8688 39.4762 28.4858 40.1905 28.3422C40.2857 28.3422 40.3334 28.2943 40.4286 28.2943C40.8572 27.3846 41.6191 26.2835 42.8572 25.5653C42.9524 25.5174 43 25.4696 43.0953 25.4696C42.381 25.2302 41.5238 25.0387 40.6191 24.895C37.6667 24.4641 35.2857 25.0865 35.1905 24.8471C35.1905 24.7514 35.5714 24.5599 36.2857 24.3684C36 23.6023 35.8095 22.6448 35.9048 21.5915C36 20.6818 36.2857 19.82 36.6191 19.1976C36.1429 19.5328 35.8572 19.7243 35.8095 19.6764C35.7619 19.6285 36.0953 19.1019 36.9048 18.3837C37.6667 17.7135 38.9048 16.8995 40.4286 16.3729C41.9524 15.8462 43.381 15.7026 44.4286 15.7505C45.4762 15.7984 46.0953 15.9899 46.0476 16.0856C46.0476 16.2293 45.1429 16.1814 43.8095 16.325C44 16.4686 44.2381 16.6123 44.5238 16.8038C45.4286 17.5219 46.4762 18.9104 46.7143 20.7297C46.9048 22.3097 46.4762 23.6981 45.9048 24.6556C46.2381 24.6556 46.5714 24.6556 46.9048 24.7514C47.9524 24.9429 48.5238 25.3259 48.4762 25.3738C48.4286 25.4696 47.8572 25.278 46.8572 25.2302C45.9048 25.1823 44.5238 25.3738 43.2381 26.092C42.3334 26.6665 41.6191 27.4325 41.1905 28.1028C41.5238 28.1028 41.8095 28.1507 42.0953 28.1985C43.1429 28.4379 43.5714 29.0603 43.4762 29.1082C43.381 29.204 42.9048 28.7731 42 28.6773C41.5238 28.6294 41 28.6773 40.381 28.8688C39.8095 29.0603 39.1905 29.3476 38.5714 29.7785C37.6667 30.4488 36.8095 31.1191 36.0953 31.6457C36.3334 31.7415 36.5714 31.7893 36.8095 31.8851C37.9524 32.4117 38.3334 33.1299 38.2857 33.1778C38.1905 33.2735 37.7143 32.699 36.6191 32.3639C36.0953 32.1724 35.4286 32.0766 34.7143 32.0766C34 32.0766 33.1429 32.1724 32.2857 32.2681C31.4286 32.4117 30.5714 32.5075 29.7619 32.5554C29.5714 32.5554 29.4286 32.5554 29.2381 32.5554C29.3334 32.6511 29.381 32.7469 29.4762 32.8426C30.0953 33.7523 30.0476 34.4705 29.9524 34.4705C29.8572 34.4705 29.7143 33.8481 29.0476 33.1778C28.4286 32.4596 27.2857 31.7415 25.8572 31.2148C24.7143 30.7839 23.6191 30.5445 22.7143 30.4009C23.1905 30.9275 23.381 31.3106 23.3334 31.3584C23.2381 31.4542 22.7143 30.9275 21.8095 30.2573C20.8572 29.587 19.4762 28.7731 17.8095 28.2464C16.9524 28.007 16.1429 27.8634 15.4286 27.7677C15 27.7198 14.6191 27.7198 14.2381 27.7198C14.4286 27.8155 14.6191 27.8634 14.8095 27.9592C15.8095 28.4379 16.3334 28.9167 16.2857 29.0125C16.2381 29.1082 15.6191 28.7731 14.6191 28.4379C13.6191 28.1028 12.1905 27.8155 10.6191 28.007C9.85716 28.1028 9.14288 28.3422 8.57145 28.6773C8.04764 28.9646 7.66669 29.3476 7.38097 29.7306C7.71431 29.6827 8.00002 29.7306 8.23812 29.7306C8.76192 29.8264 9.00002 29.97 9.00002 30.0179C9.00002 30.0658 8.71431 30.0179 8.23812 30.0179C7.76192 30.0179 7.04764 30.1136 6.28574 30.4967C5.52383 30.8797 4.7143 31.55 4.09525 32.4596C3.4762 33.4172 3.09525 34.6141 2.90478 35.9546C2.7143 37.2952 2.7143 38.5879 2.66669 39.7369C2.66669 40.7424 2.61907 41.652 2.52383 42.4659C2.57145 42.4181 2.66669 42.3702 2.7143 42.3223C3.33335 41.6999 3.52383 40.9817 3.66669 40.9817C3.76192 40.9817 3.80954 41.2211 3.76192 41.5563C3.7143 41.8914 3.52383 42.3223 3.14288 42.7053C2.85716 42.9926 2.52383 43.232 2.14288 43.4235C1.76192 43.615 1.38097 43.3277 1.00002 43.615C0.761925 43.8065 0.619064 44.0459 0.571449 44.3331C0.333351 45.4822 1.52383 46.344 2.47621 45.9131ZM54.5238 37.8697C54.0953 37.7261 53.6191 37.5346 53.2381 37.2473C53.0953 38.2049 52.5238 39.1624 52.0476 39.9763C51.4286 41.0296 50.7619 41.9872 49.9524 42.8968C49.8095 43.0883 49.6667 43.232 49.4762 43.4235C50.2857 43.5671 51.0953 43.5671 51.9048 43.4714C53.0476 43.3277 54.1905 42.9926 55.0476 42.3702C55.2857 42.2266 55.4286 42.035 55.5714 41.8435C55.6191 41.7478 55.6667 41.652 55.7143 41.5563C55.7619 41.4605 55.7619 41.3169 55.7619 41.1733C55.7619 40.6466 55.6667 40.12 55.4762 39.5933C55.2381 38.9709 54.9524 38.3964 54.5238 37.8697ZM43.8095 24.9429C44.3334 24.7514 44.9048 24.6556 45.381 24.6078C45.9048 23.6502 46.3333 22.2618 46.1429 20.7297C45.9048 19.054 45 17.7135 44.2381 16.9953C43.9048 16.708 43.6191 16.4686 43.381 16.2771C42.5714 16.3729 41.5714 16.6123 40.5714 16.9474C39.1905 17.4262 38.0953 18.0486 37.2857 18.5752C36.8572 19.2934 36.4286 20.2988 36.3334 21.4957C36.2381 22.5012 36.381 23.4108 36.6191 24.129H36.6667C37.6667 23.8896 39.0953 23.7938 40.6191 24.0332C41.8572 24.1769 42.9524 24.5599 43.8095 24.9429Z" fill="#545454"/>
<path d="M20.4763 101.402C20.5239 100.875 20.8572 100.349 21.3334 99.9655C21.8096 99.5825 22.381 99.4388 22.9525 99.5346C23.4763 99.6303 24.0001 99.9655 24.3334 100.444C24.381 100.492 24.381 100.54 24.4286 100.588C24.5715 100.588 24.6667 100.588 24.762 100.588C25.4763 100.732 26.0477 101.21 26.4286 101.833C26.4763 101.928 26.5239 101.976 26.5715 102.072C26.8096 101.928 27.0953 101.833 27.381 101.785C28.2858 101.641 29.2382 102.024 29.9048 102.79C30.4763 103.461 30.762 104.37 30.7144 105.328V105.519L30.5239 105.615C30.0953 105.807 29.5715 105.902 29.0001 105.902C28.5239 105.902 28.0001 105.806 27.5239 105.663C26.8572 105.471 26.3334 105.088 25.8572 104.562C25.3334 104.562 24.8096 104.418 24.2382 104.179C23.8096 103.987 23.2382 103.652 22.9048 103.221C22.7144 103.221 22.5239 103.221 22.3334 103.221C22.0001 103.173 21.6667 103.03 21.381 102.838C20.8572 102.551 20.381 102.024 20.4763 101.402ZM26.2382 104.035C26.4286 104.274 26.6667 104.418 26.9048 104.61C27.1429 104.801 27.4286 104.945 27.7144 105.04C28.1906 105.184 28.6667 105.232 29.1429 105.232C29.381 105.232 29.6191 105.184 29.8572 105.136C29.9525 105.136 29.9525 105.088 30.0001 105.088C30.0477 105.04 30.0477 105.04 30.0477 104.945C30.0477 104.801 30.0953 104.657 30.0477 104.562C30.0001 104.227 29.8572 103.891 29.6667 103.604C29.3334 103.077 28.9048 102.551 28.2858 102.359C27.5715 102.12 26.7144 102.359 26.2858 102.934C26.1906 103.077 26.0953 103.269 26.0477 103.413C26.0477 103.652 26.0953 103.891 26.2382 104.035ZM23.7144 103.269C24.0001 103.508 24.3334 103.652 24.7144 103.748C24.8572 103.796 25.0477 103.844 25.1905 103.891C25.2382 103.891 25.2858 103.891 25.381 103.891C25.381 103.796 25.381 103.7 25.381 103.556C25.4286 103.269 25.5715 102.982 25.762 102.742C25.8572 102.647 25.9525 102.551 26.0477 102.455C26.0477 102.407 26.0001 102.359 26.0001 102.311C25.9048 102.024 25.7144 101.737 25.5239 101.498C25.1905 101.162 24.7144 100.923 24.2382 101.067C23.9525 101.162 23.6667 101.354 23.5239 101.593C23.381 101.785 23.1905 102.024 23.1429 102.311C23.1429 102.647 23.4763 103.03 23.7144 103.269ZM21.6667 102.216C21.9525 102.407 22.2382 102.551 22.5239 102.647C22.5239 102.599 22.5239 102.599 22.4763 102.551C22.381 102.12 22.762 101.593 23.0953 101.306C23.1429 101.258 23.1429 101.258 23.1906 101.21C23.3334 101.067 23.5715 100.923 23.762 100.779C23.762 100.732 23.7144 100.684 23.7144 100.684C23.6191 100.54 23.4763 100.396 23.381 100.301C23.1429 100.109 22.8572 99.9655 22.5715 100.013C22.1905 100.013 21.8572 100.205 21.6191 100.444C21.381 100.636 21.0953 100.971 21.0477 101.258C20.9525 101.689 21.3334 102.024 21.6667 102.216Z" fill="#85774A"/>
<path d="M71 101.785C71.2857 101.833 71.5714 101.928 71.8095 102.072C71.8571 101.976 71.9048 101.928 71.9524 101.833C72.3333 101.21 72.9048 100.732 73.6191 100.588C73.7143 100.588 73.8571 100.588 73.9524 100.588C74 100.54 74 100.492 74.0476 100.444C74.381 99.9655 74.9048 99.6303 75.4286 99.5346C75.9524 99.4388 76.5714 99.5825 77.0476 99.9655C77.5238 100.301 77.8571 100.827 77.9048 101.402C78 102.024 77.5238 102.551 77 102.886C76.7143 103.077 76.381 103.221 76.0476 103.269C75.8571 103.317 75.6667 103.317 75.4762 103.269C75.0952 103.7 74.5714 104.035 74.1429 104.227C73.5714 104.466 73.0476 104.61 72.5238 104.61C72.0952 105.136 71.5238 105.471 70.8571 105.711C70.381 105.854 69.9048 105.95 69.381 105.95C68.8571 105.95 68.2857 105.854 67.8571 105.663L67.6667 105.567V105.376C67.6191 104.418 67.9048 103.508 68.4762 102.838C69.0952 102.024 70.0952 101.641 71 101.785ZM75.8571 102.503C75.8571 102.551 75.8571 102.551 75.8095 102.599C76.0952 102.503 76.4286 102.359 76.6667 102.168C77 101.928 77.381 101.641 77.2857 101.162C77.2381 100.875 76.9524 100.54 76.7143 100.349C76.4286 100.109 76.0952 99.9176 75.7619 99.9176C75.4762 99.9176 75.1905 100.013 74.9524 100.205C74.8095 100.301 74.7143 100.444 74.6191 100.588C74.5714 100.636 74.5714 100.684 74.5714 100.684C74.8095 100.779 75 100.923 75.1429 101.115C75.1905 101.162 75.1905 101.162 75.2381 101.21C75.5238 101.593 75.9048 102.072 75.8571 102.503ZM72.5714 102.694C72.7619 102.934 72.9048 103.221 72.9524 103.508C72.9524 103.652 72.9524 103.748 72.9524 103.844C73.0476 103.844 73.0952 103.844 73.1429 103.844C73.2857 103.796 73.4762 103.748 73.6191 103.7C73.9524 103.604 74.3333 103.461 74.6191 103.221C74.9048 103.03 75.2381 102.599 75.2381 102.264C75.2381 101.976 75.0476 101.785 74.8571 101.545C74.6667 101.306 74.4286 101.115 74.1429 101.019C73.6667 100.875 73.1905 101.115 72.8571 101.45C72.6191 101.689 72.4762 101.976 72.381 102.264C72.381 102.311 72.3333 102.359 72.3333 102.407C72.381 102.503 72.4762 102.599 72.5714 102.694ZM68.2857 104.945C68.2857 105.04 68.3333 105.04 68.3333 105.088C68.381 105.136 68.381 105.136 68.4762 105.136C68.7143 105.184 68.9524 105.232 69.1905 105.232C69.6667 105.232 70.1905 105.184 70.6191 105.04C70.9048 104.945 71.1905 104.801 71.4286 104.61C71.6667 104.418 71.9048 104.274 72.0952 104.035C72.2381 103.844 72.2857 103.652 72.2857 103.413C72.2857 103.221 72.1905 103.078 72.0476 102.934C71.5714 102.359 70.7143 102.12 70.0476 102.359C69.4762 102.551 69 103.077 68.6667 103.604C68.4762 103.891 68.3333 104.227 68.2857 104.562C68.2857 104.657 68.2857 104.801 68.2857 104.945Z" fill="#85774A"/>
<path d="M80.8096 80.7683C80.762 80.7683 80.6667 80.7683 80.6191 80.7683C80.381 80.7683 80.1905 80.6726 79.9524 80.5768C79.5715 80.3853 79.2382 80.0023 78.8572 79.8587C78.381 79.6672 77.8096 79.8108 77.4286 80.0981C76.9048 80.4811 76.6667 81.1035 76.6667 81.7259C76.6667 82.3483 76.9524 83.0186 77.5715 83.258C78.1429 83.4495 78.8096 83.3058 79.3334 83.0665C79.8096 82.8271 80.1429 82.4919 80.4286 82.061C80.5715 81.8695 80.7144 81.6301 80.8096 81.3908C80.8572 81.295 81.1905 80.7205 80.8096 80.7683ZM78.4763 81.9174C78.0953 82.0132 77.762 82.0132 77.381 82.061C77.3334 82.061 77.2858 82.061 77.1905 82.061C77.1905 82.0132 77.1429 81.9174 77.1429 81.8695C77.7144 81.5344 78.3334 81.3908 78.9524 81.3908C79.1905 81.3908 79.4286 81.4386 79.6191 81.3908C79.762 81.3908 79.9524 81.295 80.0953 81.1992C80.1429 81.2471 80.1905 81.295 80.1905 81.3908C79.6191 81.5823 79.0477 81.7738 78.4763 81.9174ZM77.8572 80.9599C78.2382 80.8641 78.6191 80.8162 78.9524 80.8641C79.1429 80.8641 79.381 80.912 79.5715 80.9599C79.7144 81.0556 79.8096 81.1035 79.9524 81.1514C79.6191 81.1992 79.3334 81.1514 79.0001 81.1514C78.8096 81.1514 78.6191 81.1514 78.4286 81.1992C78.0953 81.2471 77.762 81.3429 77.4763 81.4865C77.3334 81.5344 77.2382 81.5823 77.1429 81.678C77.1429 81.6301 77.1429 81.5344 77.1429 81.4865C77.3334 81.1992 77.6191 81.0556 77.8572 80.9599ZM77.4763 80.7205C77.8572 80.2896 78.4763 80.1459 78.9524 80.4811C79.0477 80.529 79.1429 80.6247 79.2382 80.6726C79.0953 80.6726 79.0001 80.6247 78.8572 80.6247C78.6667 80.6247 78.4763 80.6247 78.2858 80.6726C77.9524 80.7205 77.6667 80.8162 77.3334 81.0077C77.2858 81.0077 77.2382 81.0556 77.2382 81.0556C77.2858 80.9599 77.381 80.8162 77.4763 80.7205ZM77.5239 82.5877H77.5715C77.762 82.6356 77.9524 82.6356 78.1429 82.5877C78.5239 82.5398 78.8572 82.444 79.1905 82.3483C79.1905 82.3483 79.1905 82.3483 79.2382 82.3483C79.0953 82.444 78.9524 82.5398 78.8096 82.6356C78.4286 82.7792 77.8572 82.8271 77.5239 82.5877ZM79.6191 82.0132C79.5715 82.061 79.5239 82.061 79.4763 82.1089C79.1429 82.2047 78.8096 82.3004 78.4763 82.3483C78.1905 82.3962 77.9048 82.4441 77.6191 82.3962C77.5239 82.3962 77.4286 82.3483 77.3334 82.3483C77.3334 82.3004 77.2858 82.3004 77.2858 82.2525C77.2858 82.2047 77.2858 82.2047 77.2382 82.1568C77.5239 82.1568 77.8096 82.1568 78.0953 82.1089C78.8096 82.0132 79.5239 81.7738 80.1429 81.3429C80.0953 81.3907 80.0953 81.4386 80.0477 81.4865C79.9524 81.7259 79.8096 81.8695 79.6191 82.0132Z" fill="#85774A"/>
<path d="M53.3334 8.71156C56.2381 8.90306 57.7143 12.7811 56.9524 12.446C56.1429 12.063 55.2857 11.6799 54.4286 11.3927C53.6667 11.1533 51.8572 10.7224 52.0953 9.57334C52.2381 8.99882 52.8095 8.66368 53.3334 8.71156Z" fill="#1A1A1A"/>
<path d="M44.2381 9.28592C44.7619 9.19017 45.2857 9.47743 45.4762 9.9562C45.9524 11.1053 44.0953 11.7277 43.3333 12.0149C42.4762 12.3979 41.6667 12.8767 40.9048 13.3076C40.1905 13.6906 41.3333 9.71682 44.2381 9.28592Z" fill="#1A1A1A"/>
</svg>
