<svg width="93" height="103" viewBox="0 0 93 103" fill="none" xmlns="http://www.w3.org/2000/svg">
<path d="M85.8607 66.4493C85.8607 66.3542 85.8134 66.3067 85.7661 66.2116L85.6716 65.9264L85.7661 65.8314C87.3264 64.3579 88.4138 62.8369 88.9812 61.411C91.3924 55.4696 85.0569 47.9596 82.2201 45.0127L81.8419 44.6325L82.3619 44.5849C89.123 44.0621 91.5343 39.3565 92.1017 37.9306C92.9527 35.8392 92.7636 34.0806 92.1962 33.4151C92.0071 33.1775 91.6289 32.7972 91.2033 32.3219C88.0356 28.9472 79.5724 19.9638 78.7214 5.75199V5.56186C78.7214 5.27667 78.6741 4.94396 78.6268 4.65877C78.3431 3.23284 77.1139 2.23468 76.0737 1.75937C75.1281 1.33159 74.1352 1.23653 73.6151 1.56924C73.5206 1.61678 73.3314 1.75937 73.1423 1.90196C71.7239 2.94765 68.367 5.37174 62.5989 4.84889H62.5043L62.457 4.80136C57.4453 0.761216 48.2257 0.0957794 40.9918 3.28037H40.8973C36.0747 3.70815 33.0488 1.85443 31.394 0.856278C30.9685 0.618622 30.6848 0.428497 30.4484 0.333435C29.8337 0.14331 28.9827 0.285904 28.1789 0.761215C27.1388 1.33159 26.2877 2.28221 26.004 3.28037C25.8149 3.85074 25.8149 4.46865 25.7676 5.08655V5.27667C25.6258 8.79398 24.9166 12.4063 23.64 16.0187L23.5455 16.2564L23.3564 16.1613C22.7417 16.0187 22.1744 15.9237 21.5597 15.9712H21.4652L21.3706 15.9237C18.912 13.8798 14.1367 13.7848 11.4418 16.8267L11.3472 16.9218H11.2526C8.93592 16.9693 6.85559 18.4428 6.05183 20.6292L5.95727 20.8669C5.57903 21.8175 5.29535 22.578 4.49159 23.1959L4.44431 23.2435H4.34975C3.87694 23.2435 3.54598 23.1484 3.16774 23.0058C2.83678 22.9107 2.5531 22.8157 2.12758 22.8157C1.32382 22.8157 0.614616 23.386 0.330935 24.1941C0.0472544 25.0021 0.283655 25.7626 0.945577 26.333C2.12758 27.2836 3.16774 26.7132 4.06607 26.1904C4.20791 26.0953 4.34975 26.0003 4.49159 25.9527L4.58615 25.9052L4.68071 25.9527C5.67359 26.2379 6.38279 26.9033 6.71375 27.854C6.80831 28.1392 6.80831 28.4719 6.80831 28.8046C6.80831 29.5651 6.80831 30.183 7.70663 30.5157C8.17944 30.7058 8.79408 30.6583 9.31416 30.3731C9.88152 30.0879 10.307 29.5651 10.4489 28.9947C10.7798 27.8064 10.1652 27.141 9.59784 26.4756C9.36144 26.1904 9.12504 25.9527 8.9832 25.6675L8.88864 25.5249L8.9832 25.3824C9.59784 24.3367 10.307 23.386 12.2455 22.8632C13.3802 22.578 14.515 22.4354 15.6024 22.578C16.9735 22.7206 18.2974 23.1959 19.5739 24.099L19.7631 24.2416L19.6212 24.4317C17.8246 27.2836 16.1698 29.1373 14.9405 30.4682C13.8531 31.704 13.0966 32.512 13.0493 33.225C12.9074 37.2176 15.5551 40.7349 19.8103 42.1608L20.1886 42.3034L19.9049 42.5886C14.5623 47.9121 13.3802 55.7072 14.2786 57.7511C14.7514 58.7017 15.8388 60.3653 17.3991 62.0289L17.4463 62.0764V62.3141C17.4936 63.5499 17.5882 64.6906 17.6355 65.8314C18.061 73.6265 18.3919 79.2827 17.4936 87.6957C17.4936 87.7907 17.4463 87.8858 17.4463 87.9809C17.3991 88.3136 17.3991 88.4562 17.5882 88.6463C18.0137 88.979 18.5338 89.5019 19.0066 89.9772C19.5739 90.5476 20.4723 91.4031 20.7087 91.4506C20.7087 91.4031 20.7087 91.3081 20.6614 90.9753C20.3304 89.1216 20.1413 87.6957 20.0467 86.6025V86.4124L20.2359 86.3173C21.7016 85.6519 22.9781 86.4599 24.3965 87.458C25.484 88.171 26.666 88.979 28.2262 89.3117L28.699 89.4068C29.5501 89.5969 30.3065 89.7395 31.1103 90.1198L31.2521 90.1673V90.3099C31.2521 92.021 31.1103 93.9223 30.6848 96.1562V96.2513L30.6375 96.2988C30.5902 96.3464 30.4957 96.3939 30.4957 96.4414C30.1174 96.8217 29.8337 97.297 29.7392 97.8198C29.6919 97.9624 29.7392 98.105 29.8337 98.2476C30.0701 98.5803 30.5902 98.818 30.9685 98.8655H31.1576L31.2049 99.0556C31.4413 100.149 32.6705 101.052 34.1835 100.719L34.3726 100.672L34.4672 100.814C34.7036 101.195 35.2709 101.527 35.9801 101.67C36.9257 101.86 38.0605 101.765 38.5806 101.432L38.6751 101.385H38.7697C43.4504 102.05 47.8475 100.909 50.2587 98.3902L50.4951 98.1525L50.637 98.4853C51.1571 99.5309 52.1499 100.101 55.365 101.052L55.4596 101.099L55.5068 101.195C55.8378 101.812 57.3035 103.333 59.2892 102.24L59.4311 102.145L59.5729 102.24C60.3767 102.858 61.3696 102.858 62.0315 102.716C63.2135 102.478 64.1118 101.86 64.2537 101.575L64.3482 101.385L64.5373 101.432C65.6721 101.812 67.2323 101.67 67.9888 100.006L68.0834 99.7686L68.1306 99.7211C70.5419 98.0099 70.4001 96.584 70.1637 93.6846V93.3994H70.5419C70.6365 93.3994 70.6838 93.3994 70.7783 93.3994C71.9603 93.3519 73.0478 93.6846 74.0879 93.9223C75.79 94.3501 77.3975 94.7778 79.5251 94.0649C80.4707 93.7321 81.1799 93.3994 81.8419 93.0667C83.3076 92.3537 84.726 91.6883 88.3192 91.2605L88.6502 91.213L88.6029 91.5457C88.5084 92.4013 88.3665 93.1142 88.1774 93.5895C87.9883 94.1599 87.7992 94.6352 87.61 94.968C87.5155 95.1581 87.4682 95.3007 87.4209 95.4433C88.3665 95.2056 91.6761 93.7321 92.4326 91.0704C92.8109 89.7871 92.8109 89.7871 89.4067 78.4271C88.5084 75.3851 87.3264 71.44 85.8607 66.4493Z" fill="#BFBFBF"/>
<path d="M54.9869 7.89017C55.8852 8.22289 56.689 8.65067 57.4928 9.07845C58.2493 9.4587 56.8781 5.51361 53.9468 5.18089C53.4267 5.13336 52.812 5.41855 52.6702 5.98892C52.4338 7.08214 54.2777 7.60498 54.9869 7.89017Z" fill="#969696"/>
<path d="M39.4317 9.69749C40.1882 9.26971 40.8974 8.84193 41.7011 8.50921C42.4103 8.22403 44.1124 7.65365 43.6869 6.56044C43.4978 6.08512 42.9777 5.84747 42.5049 5.94253C39.8099 6.32278 38.7698 10.0302 39.4317 9.69749Z" fill="#969696"/>
<path d="M40.6612 15.7335C41.5123 17.8248 41.8905 20.1539 41.8432 22.4354C42.4579 22.5304 43.0725 22.6255 43.6872 22.5779C44.3018 22.5304 44.9164 22.2928 45.342 21.8175C45.862 21.2471 45.9566 20.439 46.0039 19.6786C46.0512 18.4427 45.9566 17.2069 45.5311 16.0662C45.1056 14.9254 44.3491 13.8798 43.3089 13.3094C42.5997 12.8816 41.7014 12.739 40.8976 12.8816C40.3303 12.9767 39.432 13.0717 39.0537 13.5946C39.8575 14.0699 40.283 14.8304 40.6612 15.7335Z" fill="#969696"/>
<path d="M38.5809 24.1937C38.8173 24.2888 39.432 24.669 39.4793 24.9542C39.3847 24.5264 39.3374 24.1462 39.2429 23.7184C39.1483 23.1955 38.8173 23.1955 38.3918 23.3857C38.25 23.4332 37.6826 23.6233 37.6826 23.8134C37.7772 24.0036 38.4391 24.1462 38.5809 24.1937Z" fill="#969696"/>
<path d="M22.4109 17.5402C22.4582 17.6353 22.5055 17.7779 22.5528 17.873C22.5528 17.873 22.5528 17.873 22.6 17.9205C22.931 18.2532 23.262 17.968 23.6402 17.968C24.0657 17.968 24.5385 18.2532 24.9168 18.4909C25.6733 19.0137 26.3352 19.7267 26.6661 20.5822C26.8553 21.1051 26.9971 21.723 27.4226 22.1508C27.8954 22.6261 28.5573 22.7211 29.172 22.9113C29.8812 23.1489 30.4958 23.4816 31.0632 23.9569C31.3469 24.1946 31.536 24.4323 31.7251 24.7174C31.9615 25.0026 32.2452 25.2403 32.5289 25.4779C32.9544 25.8107 32.9071 25.2403 32.9544 24.9551C33.0017 24.6699 33.0489 24.4323 33.1435 24.1946C33.4272 23.7668 33.9946 23.6242 34.5146 23.4816C34.1837 23.339 33.8054 23.3866 33.4745 23.3866C33.8054 23.2915 34.1837 23.244 34.5619 23.244C34.6092 23.2915 34.7038 23.3866 34.751 23.4341C34.7983 23.3866 34.7983 23.339 34.8456 23.244C35.082 23.244 35.3657 23.2915 35.6021 23.339C35.413 23.1489 35.2238 23.0538 35.0347 22.9113C35.5548 21.818 35.5075 20.5347 35.413 19.2989C35.2711 17.873 35.1293 16.3995 35.7439 15.1161C35.2711 15.639 34.8456 16.3044 34.2782 16.7797C32.9544 17.8254 32.387 19.8693 33.1435 21.3903C33.3799 21.818 33.6636 22.2458 33.9946 22.6261C33.5218 22.5785 33.0017 22.6736 32.5761 22.9113C32.6707 22.8637 32.1979 21.9606 32.1506 21.9131C31.9615 21.5804 31.6778 21.2952 31.3941 21.0575C31.1105 20.8199 30.8268 20.6298 30.5431 20.8674L30.4958 20.9149C30.4958 20.8674 30.4485 20.8674 30.4485 20.8674C30.0703 20.5347 29.6448 20.297 29.172 20.1069C28.9829 20.0594 28.7465 19.9168 28.4628 19.8693C28.4155 19.2514 28.2737 18.681 28.0373 18.1106C27.659 17.2075 27.0917 16.4945 26.477 15.7816C26.4297 15.6865 26.3352 15.5915 26.2406 15.4964C26.5243 14.5933 26.7607 13.7377 27.0444 12.8346C27.659 10.8859 28.2264 8.93709 29.1247 7.08338C29.5502 6.22782 30.0703 5.32473 30.8268 4.80188C32.0088 3.99385 33.569 4.08892 34.7038 4.89695C34.1364 4.27904 33.4745 3.70867 32.7653 3.23336C31.8197 2.61545 30.6849 2.18767 29.5975 2.33026C28.4628 2.42533 27.3753 3.13829 26.9971 4.18398C26.808 4.70682 26.808 5.22966 26.7607 5.75251C26.5716 8.74697 26.0042 11.6939 25.0586 14.5458C24.8695 14.4507 24.6331 14.4507 24.444 14.4507C24.0657 14.5458 23.9239 14.8785 23.8293 15.2112C23.782 15.3063 23.7348 15.7816 23.6402 16.1618C23.3565 16.0668 23.0256 16.0192 22.6946 15.9717C22.2691 15.8766 21.6072 15.639 21.1816 15.734C21.418 16.0192 21.7017 16.2569 21.9381 16.5421C22.2218 16.9223 22.3164 17.2075 22.4109 17.5402Z" fill="#969696"/>
<path d="M7.23398 26.1895C7.09214 25.5716 6.43022 25.1438 5.7683 25.0963C5.10637 25.0487 4.49173 25.2864 3.87709 25.4765C3.26245 25.7142 2.64781 25.9043 1.98589 25.8568C1.60765 25.8092 1.18212 25.6191 0.945723 25.3339C0.851163 25.2388 0.662043 24.716 0.520202 24.716C0.000120819 24.6685 0.614762 26.0944 0.803883 26.2845C1.27668 26.7123 1.98589 26.8549 2.60053 26.7598C3.21517 26.6648 3.82981 26.3321 4.39717 26.0469C5.43734 25.9993 6.4775 26.7598 6.76118 27.8055C7.04486 27.2827 7.37582 26.7598 7.23398 26.1895Z" fill="#969696"/>
<path d="M10.1651 23.9079C10.7798 23.4326 11.489 23.1474 12.1982 22.9097C14.704 22.1968 17.4935 22.6245 19.6684 24.0505C18.6755 22.577 17.1153 21.5313 15.4132 21.056C13.7111 20.5807 11.8199 20.7708 10.2597 21.5313C9.69231 21.8165 9.17223 22.1492 8.74671 22.6245C8.32119 23.0998 8.03751 23.6702 8.03751 24.3357C8.03751 24.811 8.17935 25.2863 8.36847 25.7616C8.55759 26.1894 8.79399 26.6172 8.98311 27.0925C9.12495 27.5678 9.21951 28.0431 9.12495 28.5184C9.03039 28.9937 8.69943 29.4215 8.22663 29.5641C7.99023 29.6116 7.70655 29.6116 7.47015 29.469C7.28103 29.374 7.13918 28.9937 6.95006 29.1838C6.6191 29.5641 7.28103 30.3246 7.61199 30.4672C8.13207 30.7048 8.74671 30.5622 9.21951 30.2295C9.78687 29.8493 10.1651 29.2789 10.307 28.6135C10.4488 27.9005 10.1178 27.2826 9.69231 26.7122C9.55047 26.5221 9.40863 26.332 9.21951 26.1894C9.12495 26.0943 8.88855 26.0468 8.84127 25.9517C8.60487 25.3338 9.83415 24.1931 10.1651 23.9079Z" fill="#969696"/>
<path d="M56.3108 38.3583C56.0744 38.691 55.838 39.0237 55.5071 39.2614C54.8924 39.7842 54.136 40.1644 53.3322 40.2595C53.1904 40.2595 53.0012 40.3546 53.2376 40.4496C53.4268 40.4972 53.6632 40.5922 53.8996 40.6398C54.8452 40.7824 55.7908 40.0219 56.2636 39.2614C56.4054 39.0237 56.5 38.786 56.5472 38.5484C56.5472 38.4533 56.5945 38.4058 56.5945 38.3107C56.5945 38.2632 56.6891 38.0256 56.5945 37.978C56.5472 37.883 56.3581 38.2632 56.3108 38.3583Z" fill="#969696"/>
<path d="M91.4399 32.6545C91.4872 32.7495 91.4872 32.8921 91.4872 32.9872C91.0616 32.4643 90.5888 31.894 90.1633 31.3711C88.6976 29.6125 87.2792 27.9013 85.9554 26.0476C84.0169 23.3384 82.4094 20.3439 81.1328 17.2544C79.9035 14.2599 79.2416 11.2179 78.9579 7.98579C78.8634 7.03517 78.8161 6.03701 78.5797 5.08639C78.3433 4.13577 77.965 3.23268 77.2558 2.56724C76.4993 1.85427 75.4592 1.47402 74.419 1.52156C74.6554 1.66415 74.8445 1.80674 75.0809 1.9018C76.3575 2.42465 77.2085 3.66046 77.6341 4.99133C78.0596 6.3222 78.1069 7.7006 78.2487 9.07901C78.7688 13.8797 80.4709 18.4902 82.8822 22.6254C85.1989 26.5705 88.1775 30.0402 91.4872 33.1298C91.5817 34.6032 90.8252 36.0767 89.6905 37.0273C88.4139 38.073 86.6646 38.5008 85.0098 38.4533C84.1587 38.4533 83.2604 38.3107 82.4094 38.1205C82.2202 37.7403 82.0311 37.36 81.842 37.0273C81.3692 36.1718 80.7546 35.3637 79.8562 34.9835C79.0998 34.6508 78.2014 34.6983 77.3977 34.7458C76.0265 34.8884 74.6554 35.0785 73.3316 35.3162C73.6153 34.0329 73.8989 32.797 73.9935 31.4662C74.1826 29.3273 73.9462 27.0933 72.9533 25.1445C72.4333 24.0989 71.7241 23.1482 71.204 22.1025C70.3529 20.2013 70.3057 18.0149 70.1638 15.9235C70.1165 14.9729 69.9747 13.9747 69.7383 13.0241C69.5965 12.5488 69.4546 11.9309 69.2182 11.408C70.4002 9.36419 72.055 7.55801 74.0881 6.3222C74.6081 6.03701 75.1282 5.75183 75.6956 5.7043C76.263 5.65676 76.9249 5.98948 77.114 6.51233C77.0194 5.94195 76.9249 5.32405 76.6412 4.8012C76.263 3.94564 75.601 3.37527 74.6554 3.56539C73.237 3.80305 71.5822 4.04071 70.3057 4.75367C69.0291 5.41911 67.9889 6.46479 66.6178 6.98764C65.7668 7.32035 64.8212 7.46295 64.0174 7.93826C62.7408 8.69876 62.1735 10.1722 62.0316 11.5506C61.9371 12.5013 61.7007 14.1648 60.3296 13.4994C60.3296 13.4994 60.2823 13.4994 60.2823 13.4519C59.904 13.2617 58.9584 12.7389 58.5802 12.929C57.9655 13.1667 58.9111 14.4025 59.1003 14.7827C59.7149 16.3037 59.9986 17.9673 59.8095 19.5834C59.5258 22.055 58.2965 24.384 56.4053 26.0001C56.5471 25.8575 57.3982 26.0001 57.6346 26.0001C58.1074 26.0001 58.5329 25.9526 59.0057 25.905C59.8568 25.81 60.5187 25.5248 61.3224 25.2871C63.781 24.4791 66.5232 26.4279 66.9015 28.947C67.1379 30.373 66.3341 31.9415 65.6722 33.2248C64.963 34.6032 64.0174 35.9341 62.9772 37.0749C61.1806 39.0236 58.9584 40.5446 56.4526 41.3527C53.7103 42.2082 50.9208 41.923 48.084 41.6854C45.8146 41.4952 43.5451 41.115 41.2757 40.6872C42.0794 40.6397 42.8359 40.5446 43.5924 40.402C45.72 39.9743 47.8003 39.1187 49.6442 37.9304C50.5426 37.3125 51.4409 36.6471 52.1974 35.8866C52.5756 35.5063 53.0011 35.1261 53.3321 34.6983C53.6631 34.2705 53.7576 33.7952 54.2304 33.4625C54.6087 33.2248 55.0815 33.1298 55.507 33.3199C56.1689 33.6526 56.3107 34.5082 56.1216 35.1261C55.8852 35.8866 55.7907 36.552 55.6961 37.36C56.0271 36.4094 56.5471 35.5539 57.1145 34.7458C57.6346 34.0804 58.4383 33.4625 58.5802 32.6069C58.6275 32.0365 58.2019 32.0841 57.7764 32.3217C57.2091 32.6069 56.5471 32.797 55.8852 32.7495C54.7032 32.6545 52.8593 31.5137 53.4267 30.0878C53.5685 29.7075 53.8995 29.3748 53.8522 28.9946C53.8049 28.7094 53.5685 28.4717 53.2848 28.3291C53.0011 28.1865 52.7175 28.1865 52.3865 28.0915C51.2518 27.8538 50.2116 27.1408 49.597 26.0952C49.4551 25.8575 49.3133 25.5248 49.4078 25.2396C49.5497 24.7643 50.0698 24.8118 50.4007 25.0019C50.779 25.2396 51.1099 25.2396 51.5354 25.3822C50.779 24.6217 50.3534 23.576 50.117 22.5303C49.8806 21.4846 49.9279 20.3914 50.117 19.3457C50.6371 16.3037 52.3865 13.5469 54.8923 11.7883C54.7032 11.9309 53.994 11.8833 53.7576 11.8833C53.5212 11.8833 53.2848 11.8833 53.0484 11.8833C52.4338 11.8358 51.8664 11.9309 51.299 12.0735C50.117 12.4537 49.0769 13.2142 48.3677 14.2124C47.233 15.7809 46.8547 17.7772 46.9493 19.726C46.9966 20.534 47.233 21.247 47.3275 22.0075C47.3748 22.3402 47.4221 22.7204 47.3275 23.0532C47.2802 23.3384 47.0911 23.576 47.0438 23.8612C46.8547 24.7643 46.7602 25.4297 47.2802 26.2853C47.6585 26.9032 48.1313 27.426 48.415 28.0915C48.7932 28.9946 48.7459 30.0402 48.415 30.9433C48.084 31.8464 47.5166 32.6545 46.8547 33.3674C42.9305 37.6928 36.5949 39.3088 31.205 36.8847C31.1104 36.8372 31.0159 36.7897 30.9686 36.7897C30.023 36.3619 29.2665 35.6489 28.3209 35.2687C27.5644 34.2705 26.8079 33.2248 26.0987 32.2267C24.8695 32.7495 24.2075 34.1279 23.2619 35.0785C22.2218 36.1242 20.7561 36.6471 19.2904 36.552C18.0611 36.4569 16.4536 35.744 15.6498 34.7458C14.8933 33.8427 15.5553 32.0841 16.2172 31.2761C16.5482 30.8958 16.9264 30.6106 17.2574 30.2304C17.6829 29.7551 18.1084 29.2797 18.5339 28.7569C19.4322 27.6637 20.567 26.618 21.3234 25.4773C20.8034 24.4791 20.1887 25.3347 19.7159 25.8575C19.1486 26.5229 18.6285 27.1884 18.0611 27.8538C17.3046 28.8044 16.359 29.7075 15.6026 30.7057C15.1297 31.181 14.6569 31.7038 14.2787 32.2267C13.9005 32.702 13.5695 33.2724 13.3804 33.8427C12.9549 35.1736 13.3804 36.1242 13.9477 37.0749C15.0825 39.0712 16.7846 40.6872 18.8176 41.7329C19.7159 42.2082 20.8979 42.5409 21.749 41.8755C22.4582 41.3527 22.5527 40.402 22.8364 39.5465C23.2619 38.3582 24.0657 37.36 25.1531 36.6946C26.2406 36.0767 27.5171 35.7915 28.7464 36.0292C28.6046 35.839 28.4627 35.6489 28.3209 35.4588C28.5573 35.6489 28.7464 35.8866 28.9355 36.0292C29.3138 36.3144 29.6447 36.6946 30.023 36.9798C30.7795 37.5977 31.6305 38.1681 32.4816 38.6434C32.8125 38.8335 33.1435 38.9761 33.4744 39.1187C33.1908 39.0712 32.9544 39.0236 32.6707 38.9761C32.3397 38.881 30.9686 38.5483 30.7795 38.2631C32.9071 41.6854 36.6895 43.8243 40.6137 44.6323C44.538 45.4403 48.6041 45.1551 52.5756 44.5848C55.8852 44.1095 59.2421 43.4916 62.268 42.0656C64.3484 41.115 66.2868 39.7366 67.7525 38.0255C70.3057 37.4076 73.0952 37.5502 75.3646 38.8335C77.6341 40.1168 79.2416 42.7786 78.9106 45.3453C80.0454 44.8224 81.2746 44.4897 82.5039 44.3471C82.5039 44.3946 82.5039 44.3946 82.5039 44.3946C86.2391 44.2996 89.7851 42.1132 91.629 38.8335C92.1964 37.8353 92.5746 36.7421 92.6219 35.6014C92.6692 34.6032 92.2909 33.4625 91.4399 32.6545Z" fill="#969696"/>
<path d="M74.4664 72.5334C74.1354 72.2007 74.0881 72.2958 73.7099 72.4859C72.8588 72.9137 71.6296 72.9137 70.7312 72.676C70.022 72.4384 69.5492 71.9155 68.9819 71.4878C68.4145 71.06 67.8471 70.6797 67.2325 70.252C67.2325 70.6322 67.4216 71.0125 67.7053 71.2976C67.9417 71.5828 68.2727 71.8205 68.5563 72.1057C69.5019 73.0563 69.6911 74.197 69.8802 75.4804C69.9747 76.0032 70.2111 76.5736 70.7312 76.8113C71.1567 77.0014 71.6295 76.9063 72.0551 76.7162C72.4333 76.5261 72.8116 76.2409 73.1425 75.9557C72.7643 75.9557 72.386 76.1458 72.1023 75.8606C71.7241 75.5279 71.8187 74.9575 72.1969 74.6724C72.4333 74.4822 72.7643 74.3872 73.048 74.3396C73.3789 74.2921 73.7572 74.3396 73.899 74.6724C73.9463 74.7674 73.9936 74.91 74.0408 75.0051C74.23 75.1477 74.5136 74.9575 74.6555 75.1952C75.1283 76.0508 73.1898 77.0964 72.6224 77.3341C71.6296 77.7619 70.4948 77.9045 69.4074 77.7143C69.5965 77.7619 69.7383 77.8094 69.8802 77.9045C69.7856 77.9045 69.7383 77.8569 69.6438 77.8569C69.1237 79.2353 67.658 79.9483 66.3342 80.6137C64.443 81.5168 62.4099 82.2773 60.6133 83.2755C61.6062 83.5607 62.6463 83.2755 63.5446 83.8934C64.7266 84.7014 65.294 86.0798 65.7668 87.3632C66.5706 89.5496 67.2325 91.8311 67.3271 94.2077C67.3743 95.5385 67.1852 96.9169 66.7597 98.2003C66.476 98.2003 66.1923 98.2953 65.9086 98.4379C65.1522 98.9132 64.9631 99.9114 64.8212 100.814C64.443 100.149 63.8283 99.5787 63.1664 99.246C62.6936 99.0083 62.079 98.9132 61.7007 99.246C61.4643 99.4836 61.3698 99.8639 61.4643 100.149C61.5589 100.482 61.8898 100.719 62.2208 100.719C61.5116 101.005 60.6606 101.337 60.0932 100.862C59.6677 100.529 59.5731 100.006 59.1949 99.6262C58.2493 98.6281 55.9325 99.8639 56.7836 101.147C57.0673 101.575 57.5874 101.67 58.1074 101.765C59.9041 102.05 61.7953 102.193 63.5919 101.718C64.3484 101.527 65.0576 101.195 65.7195 100.767C67.7999 100.529 69.6438 98.9132 70.1166 96.8694C70.4003 95.6811 70.2584 94.3978 70.1639 93.162C69.7856 88.1712 70.353 83.1329 71.8187 78.3322C71.7714 78.3322 71.6768 78.2847 71.6295 78.2847C71.7714 78.2847 71.8659 78.2372 72.0078 78.2372C73.2371 78.0471 74.1354 77.4292 75.0337 76.6211C75.7429 75.9557 76.1684 75.2903 75.932 74.2921C75.6956 73.3415 74.9864 73.0563 74.4664 72.5334Z" fill="#969696"/>
<path d="M23.5927 65.973C22.5998 65.8304 21.7015 65.26 21.1341 64.452C20.9923 64.2618 19.9048 65.1649 19.8103 65.3075C19.3847 65.6878 18.9592 66.4007 19.1011 66.9711C19.3847 66.4483 19.9048 66.7334 20.3303 66.7334C20.614 66.7334 20.8977 66.7334 21.0868 66.9236C21.3232 67.1137 21.3705 67.4464 21.3232 67.7316C21.2759 68.0168 21.0868 68.5396 20.8504 68.397C20.614 68.302 20.4722 67.4939 20.3776 67.2563C20.1885 67.3513 20.0467 67.5415 19.9521 67.7316C19.763 68.4921 20.8977 69.8705 21.7015 69.6804C21.9852 69.6328 22.1743 69.3952 22.2216 69.11C22.2216 69.0149 22.2216 68.8723 22.2688 68.7773C22.4107 67.9693 23.2144 69.0149 23.2617 69.3952C23.2617 69.823 22.8835 70.2032 22.5052 70.2983C22.0797 70.4409 21.6542 70.3458 21.2287 70.2983C21.4178 70.3458 21.796 70.7261 22.0324 70.8211C22.8835 71.2964 23.8764 71.6291 24.822 71.2964C24.7274 70.4409 24.491 69.5853 24.3019 68.7298C24.16 68.4921 23.7818 65.973 23.5927 65.973Z" fill="#969696"/>
<path d="M48.8405 88.5033C49.2187 87.3625 50.5898 86.9348 51.5354 86.4119C52.9065 85.6039 54.325 84.7959 55.6961 83.9878C53.6157 84.5582 51.5354 85.081 49.4551 85.6514C48.5568 85.8891 47.6585 86.1743 46.7129 86.3644C46.6183 86.2218 46.571 86.0792 46.4292 85.9366C45.9091 85.2236 45.1053 84.7959 44.3016 84.4631C41.4175 83.1323 38.2497 82.3718 35.0819 82.1816C35.3183 82.1816 35.8384 82.7995 36.0748 82.9421C36.3585 83.1323 36.5949 83.2273 36.8313 83.465C37.3987 84.0354 37.9187 84.7008 38.3443 85.3662C39.2899 86.7922 39.9991 88.3132 40.661 89.8817C41.0392 90.7848 41.3702 91.6403 41.7012 92.5434C42.2212 93.9694 42.7886 95.4904 42.6468 97.0114C42.4576 98.8175 41.1811 100.434 39.479 101.099C39.0535 100.434 38.628 99.7682 38.2024 99.1027C37.966 98.7225 37.6823 98.2947 37.2095 98.2472C36.8786 98.1996 36.5003 98.3422 36.2167 98.5799C35.933 98.8175 35.7911 99.1503 35.602 99.483C35.4602 98.9601 35.3183 98.3898 35.0347 97.962C34.751 97.4867 34.2309 97.1064 33.7108 97.1064C33.1435 97.1064 32.6234 97.5817 32.6234 98.1046C32.4343 97.5342 32.2451 96.9163 32.056 96.3459C31.8669 95.728 31.2995 95.2527 30.874 95.9181C30.4958 96.4885 30.4958 97.3441 30.874 97.9144C31.2523 98.4848 31.8669 98.8175 32.4815 99.1503C34.5146 100.148 36.6895 100.861 38.9589 101.289C38.9116 101.289 38.9116 101.289 38.8644 101.337C42.1267 101.907 45.5781 101.337 48.4622 99.7206C49.1241 99.3404 49.8333 98.8651 50.1643 98.1521L50.2116 98.1996C50.8735 99.0077 51.6773 99.7206 52.6701 99.9583C51.8191 98.9126 51.2517 97.6768 50.7789 96.3934C50.5898 95.8706 50.2589 95.2527 50.1643 94.6823C50.0225 94.0644 50.1643 93.494 49.8806 92.8761C49.3133 91.5453 48.4622 90.2619 48.6513 88.7409C48.7932 88.6934 48.7932 88.5983 48.8405 88.5033Z" fill="#969696"/>
<path d="M36.5475 92.4486C36.5003 92.6387 35.5074 92.5912 35.3655 92.5912C34.94 92.5437 34.609 92.306 34.2308 92.2109C33.9944 92.7338 34.7509 93.2566 35.1764 93.3517C35.791 93.3992 36.4057 93.019 36.5475 92.4486Z" fill="#969696"/>
<path d="M60.5187 93.3517C61.086 93.3517 61.6534 92.9714 61.8898 92.4961C60.8969 92.9239 60.1404 92.5912 59.1948 92.5912C59.3367 93.0665 59.9986 93.3517 60.5187 93.3517Z" fill="#969696"/>
<path d="M84.3004 68.3977C84.726 68.065 85.0096 67.4947 85.3406 67.0669C85.5297 66.8767 85.6716 66.6866 85.8607 66.4965C85.8607 66.4965 85.8607 66.4965 85.8607 66.449C85.8607 66.3539 85.8134 66.3064 85.7661 66.2113L85.6716 65.9261L85.7661 65.8311C87.3264 64.3576 88.4138 62.8366 88.9812 61.4107C91.3925 55.4693 85.0569 47.9594 82.2201 45.0124L81.8419 44.6322H82.1255C80.7544 43.6816 79.4306 42.5408 78.2486 41.3525C77.0666 40.2593 75.79 39.071 74.1825 38.9284C73.0005 38.8334 71.8658 39.3087 70.7783 39.7365C65.1047 42.018 59.5729 43.9192 53.4738 44.2995C49.4077 44.5371 45.3416 44.7748 41.2755 44.2519C37.2567 43.7291 33.2379 42.3982 30.0701 39.784C29.3137 39.1661 28.5572 38.4531 27.6116 38.4531C27.1388 38.4531 26.666 38.6432 26.2404 38.7858C24.9639 39.3087 23.1672 39.6889 22.0798 40.592C21.4179 41.1624 20.6614 41.6852 19.9049 42.2081L20.1413 42.3031L19.8576 42.5883C14.515 47.9118 13.333 55.7069 14.2313 57.7508C14.7041 58.7014 15.7915 60.365 17.3518 62.0286L17.3991 62.0761V62.3138C17.3991 62.5989 17.4463 62.8366 17.4463 63.0743C18.2028 63.3119 19.0066 63.5971 19.6685 64.0249C20.6141 64.6428 21.4652 65.4033 22.5053 65.9261C23.2145 66.3064 23.1672 66.7817 23.4036 67.4946C23.5928 68.0175 23.7346 68.5403 23.9237 69.0632C24.2547 70.0138 24.5384 70.9644 24.822 71.9626C25.153 73.1509 25.6731 74.3391 26.1932 75.4324C26.5714 76.2404 26.9496 77.8564 27.8007 78.2367C35.2709 81.8015 43.5922 83.6077 51.8663 83.5126C55.034 83.4651 58.2491 83.1799 61.275 82.2293C64.3009 81.3262 67.3741 79.9478 69.6436 77.7614C67.5633 77.2385 65.8139 75.67 65.0574 73.6737C64.3009 71.6774 64.5373 69.3484 65.7666 67.5897C66.7595 70.3465 69.7854 73.2934 72.8586 72.6755C76.0737 72.0576 79.1942 70.8694 82.1255 69.4434C82.882 69.1107 83.7331 68.8255 84.3004 68.3977Z" fill="#FAC934"/>
<path d="M26.4298 47.8659C26.5243 47.5808 26.2406 47.248 25.957 47.248C25.5787 47.248 25.295 47.5808 25.1532 47.9135C25.0113 48.2462 24.9641 48.6264 24.8222 48.9592C24.6331 49.4345 24.2549 49.8147 23.8766 50.1474C22.6946 51.2407 21.5126 52.3339 20.3306 53.4271C21.3235 53.4271 22.0327 54.4253 22.1273 55.4234C22.2218 56.4216 21.9381 57.3722 21.7963 58.3703C21.6545 59.5111 21.749 60.6994 22.08 61.7926C21.9381 61.9827 21.749 62.1253 21.5599 62.2204C21.1344 62.458 20.6616 62.5055 20.1415 62.5055C19.0541 62.458 18.203 62.0302 17.3047 61.4599C17.3047 62.3154 18.7231 63.2185 19.3377 63.6463C20.567 64.5494 21.8436 65.4049 23.0729 66.308C22.6473 65.1198 22.4109 63.8839 22.3637 62.6006C22.4582 62.8383 22.6001 63.1235 22.7419 63.3611C22.2691 62.6006 22.4109 60.937 22.4109 60.0815C22.4109 58.9407 22.5528 57.8 22.7892 56.6592C23.262 54.4252 24.2076 52.2863 25.5787 50.4326C25.9569 49.9573 27.6118 48.5314 27.2335 47.961C27.0917 47.6283 26.6189 47.6758 26.4298 47.8659Z" fill="#E2AA13"/>
<path d="M89.1232 56.0883C88.6977 53.9969 87.7048 52.0957 86.5701 50.337C85.1517 48.1031 83.4023 46.1068 81.4638 44.3006C80.2818 43.2074 78.958 42.3043 77.8232 41.116C77.2559 40.4981 76.8304 39.9277 75.932 39.7376C74.9392 39.4999 73.899 39.6901 72.9061 39.9752C69.8329 40.7833 66.9961 42.2567 64.1593 43.6351C61.3225 45.0136 58.3911 46.3444 55.3179 46.9623C53.2849 47.3426 51.2045 47.3901 49.1715 46.9148C48.9351 46.8673 47.8004 46.3444 47.0912 46.1068C46.8075 45.7265 46.5238 45.3463 46.2401 44.9185C45.8619 45.679 45.1527 46.2969 44.3016 46.5821C43.687 46.7722 43.0251 46.7722 42.4577 46.5346C42.0322 46.3444 41.7485 45.9642 41.6067 45.5364C41.5594 45.1561 41.4648 44.7759 41.4175 44.3956C39.4791 46.0592 36.595 46.3444 34.1837 45.4413C31.7724 44.5382 29.8339 42.6845 28.4155 40.5932C27.8482 39.7851 27.2335 38.8345 26.2879 38.6444C25.295 38.4543 24.3494 39.1197 23.6875 39.7376C24.113 39.6901 24.5385 39.6901 24.9641 39.8802C25.4841 40.0703 25.9097 40.4506 26.2879 40.8308C28.3682 42.7321 30.0703 45.2512 32.718 46.2969C34.1364 46.8673 35.6967 46.9148 37.2096 46.7722C38.4862 46.6296 39.7627 46.2969 40.992 45.9166C41.1339 46.487 41.8431 47.1525 42.2686 47.3901C43.0724 47.8179 44.018 47.8654 44.869 47.6753C45.5309 47.5327 46.0983 47.2 46.6184 46.8197C46.9966 47.295 47.6112 47.7228 47.8004 47.8179C48.5568 48.1981 49.4552 48.2932 50.3062 48.3407C54.7033 48.6259 59.1476 47.8179 63.1664 46.0592C64.7267 45.3463 66.2396 44.5382 67.7999 43.7777C69.171 43.0648 70.6367 42.2567 72.1969 42.1142C73.3789 42.0191 74.6082 42.3518 75.6956 42.8746C78.5797 44.2531 81.6529 46.6771 83.1186 49.5765C84.1115 51.5729 85.1044 53.6167 85.719 55.7556C86.3337 57.847 86.8065 60.1285 85.5772 62.0772C84.9153 63.0754 84.0169 63.8359 83.0241 64.5489C78.4379 67.876 72.9061 69.9199 67.2325 70.2526C67.2798 70.2526 68.2727 71.2983 68.4618 71.4409C69.4547 72.1538 70.6367 73.0569 71.8659 73.0569C72.7643 73.0569 73.6626 72.7717 74.5136 72.4866C78.0596 71.2508 81.5111 69.6822 84.4425 67.3057C85.2935 66.6402 86.0973 65.7847 86.8537 64.9766C87.6575 64.1686 88.3194 63.218 88.8395 62.2198C89.7378 60.1285 89.5487 58.0846 89.1232 56.0883Z" fill="#E2AA13"/>
<path d="M65.5777 74.7201C65.3885 74.3874 65.0103 73.7694 65.0103 73.3417C64.6321 72.0108 64.2538 68.4935 66.0505 67.9231C65.8613 67.3052 66.0032 66.6398 66.3341 66.1169C66.6651 65.5941 67.1852 65.1663 67.658 64.7385C70.7312 62.1243 73.7571 59.5101 77.3504 57.6089C76.5939 58.0366 74.6554 56.7058 73.9935 56.373C71.4877 54.9946 68.84 52.9033 67.5634 50.2891C67.9417 51.0496 67.6107 52.2378 67.5634 53.0459C67.5161 54.2817 67.3743 55.5175 67.1852 56.7533C67.1379 57.1335 67.0433 57.5613 66.9961 57.9416C66.0977 62.6947 64.1593 67.2577 61.0388 70.9651C57.6346 75.0053 53.4739 78.5226 48.3204 79.901C44.1125 81.0417 39.9518 80.4238 35.6966 79.9485C35.0347 79.8534 34.3255 79.8534 33.6636 79.6158C37.5878 81.1368 41.6066 82.1825 45.7673 82.5627C47.9422 82.7528 50.1643 82.8004 52.3392 82.6578C56.358 82.4201 60.3296 81.6121 64.0647 80.0436C65.7668 79.3306 67.3743 78.475 68.9345 77.4769C68.0362 77.0016 67.1852 76.7164 66.476 75.9083C66.0977 75.5756 65.8141 75.1478 65.5777 74.7201Z" fill="#E2AA13"/>
<path d="M18.912 67.6366C18.8174 66.8761 19.1011 66.1156 19.5739 65.4977C19.6212 64.9749 19.763 64.4521 19.8103 63.9292C19.1956 63.7391 18.8174 63.1687 18.2973 62.7409C18.0609 62.5508 17.7772 62.3607 17.4936 62.2656C17.5408 63.5014 17.6354 64.6422 17.6827 65.7829C18.1082 73.578 18.4392 79.2342 17.5408 87.6472C17.5408 87.7423 17.4936 87.8374 17.4936 87.9324C17.4463 88.2652 17.4463 88.4077 17.6354 88.5979C18.0609 88.9306 18.581 89.4534 19.0538 89.9287C19.6212 90.4991 20.5195 91.3547 20.7559 91.4022C20.7559 91.3547 20.7559 91.2596 20.7086 90.9269C20.6613 90.6417 20.614 90.4041 20.5668 90.1664C19.9994 88.075 19.9521 85.8411 20.1412 83.7022C20.3304 81.3731 20.7086 79.0441 20.7559 76.7151C20.8032 74.3861 20.7086 71.9144 20.0467 69.6805C19.4793 69.1101 19.0538 68.3971 18.912 67.6366Z" fill="#196EAF"/>
<path d="M78.2961 37.5978C76.4521 35.3163 68.6509 36.4095 67.3271 37.3126C65.7668 38.4059 61.5589 45.0127 41.7012 43.2065C36.595 42.7312 31.7724 40.1645 28.7465 36.0293C27.7536 36.1244 26.808 36.1719 25.8624 36.4571C23.0256 37.2176 22.2218 39.2139 22.4109 40.5923C23.7348 39.8318 25.1059 39.2139 26.4298 38.4059C29.9285 42.3034 31.4887 44.5849 34.4674 45.488C39.9046 47.1041 41.654 42.9688 44.3962 44.4423C45.3418 44.9651 46.3347 45.488 47.2803 46.0108C49.2188 47.0565 50.9209 48.2448 58.4384 46.1534C66.5706 43.9195 69.5492 40.1645 73.9936 39.5941C75.8375 39.3565 76.1212 39.6892 76.7831 40.1645C77.7287 40.8775 78.627 41.638 79.3835 42.4935C79.4308 41.1151 79.1471 38.6435 78.2961 37.5978Z" fill="#196EAF"/>
<path d="M89.454 78.4753C88.5084 75.3858 87.3264 71.4407 85.8607 66.4499C85.8607 66.3549 85.8134 66.3073 85.7661 66.2123L85.6715 65.9746C85.3406 66.2123 84.9623 66.4499 84.6314 66.6876C84.064 73.0568 84.3477 79.4735 85.8607 85.6525C86.3335 87.5538 86.9008 89.5976 86.6171 91.4988C87.1372 91.4038 87.6573 91.3562 88.272 91.2612L88.6029 91.2137L88.5556 91.5464C88.4611 92.4019 88.3192 93.1149 88.1301 93.5902C87.941 94.1606 87.7519 94.6359 87.5627 94.9686C87.4682 95.1587 87.4209 95.3013 87.3736 95.4439C88.3192 95.2063 91.6288 93.7328 92.3853 91.0711C92.8581 89.8353 92.8581 89.8353 89.454 78.4753Z" fill="#196EAF"/>
<path d="M19.7156 64.1211C19.6683 64.5489 19.621 64.9767 19.5737 65.3569C19.9047 65.1192 20.2829 64.9767 20.6139 64.739C20.3302 64.5489 19.952 64.2637 19.7156 64.1211Z" fill="#196EAF"/>
<path d="M24.7743 71.2515C23.0249 71.4891 21.181 70.8712 19.999 69.5879C20.9446 73.2003 20.9919 77.0027 20.4245 80.6626C20.1881 82.0886 19.8572 83.5145 19.999 84.988C20.0463 85.4158 20.0936 85.796 20.2354 86.2238L20.33 86.1763C21.7956 85.5108 23.0722 86.3188 24.4906 87.317C25.578 88.03 26.7601 88.838 28.3203 89.1707L28.7931 89.2658C29.5496 89.4084 30.2588 89.5985 30.968 89.8837C31.1098 89.3608 31.2044 88.7905 31.2044 88.2201C31.2989 85.701 30.2588 83.3244 29.2186 81.0429C27.6584 77.8108 26.24 74.5787 24.7743 71.2515Z" fill="#196EAF"/>
<path d="M88.6028 82.5636C88.0827 79.8543 86.7116 77.3827 85.9078 74.816C85.5296 73.5802 85.2932 72.2968 85.0568 71.0135C84.7731 69.5876 84.584 68.1141 84.8204 66.6406C81.6999 69.1598 78.0593 71.2511 74.2296 72.487C75.1752 72.6771 75.7898 73.6752 75.7898 74.6734C75.7426 75.7191 75.0334 76.6697 74.2296 77.2876C73.8041 77.6203 73.3313 77.9055 72.8112 78.0481C72.2438 78.2382 71.8183 77.953 71.5819 78.5234C71.2982 79.1413 71.251 79.9969 71.1091 80.6623C70.9673 81.3753 70.8254 82.0882 70.6836 82.8012C70.4472 84.1796 70.2108 85.6056 70.1162 86.984C70.0217 88.3148 70.0217 89.6457 69.9744 90.9766C69.9271 91.8321 70.0689 92.6402 70.3054 93.4482H70.589C70.6836 93.4482 70.7309 93.4482 70.8254 93.4482C72.0074 93.4007 73.0949 93.7334 74.135 93.971C75.8371 94.3988 77.4447 94.8266 79.5723 94.1136C80.5179 93.7809 81.2271 93.4482 81.889 93.1155C83.3547 92.4025 84.7731 91.7371 88.2718 91.3568C88.3191 91.2142 88.4136 91.0716 88.4609 90.929C89.4065 88.2198 89.1228 85.3204 88.6028 82.5636Z" fill="#196EAF"/>
<path d="M27.233 82.6108C27.1858 80.6144 26.9494 78.7607 26.1929 76.907C25.9565 76.3842 26.2402 76.2416 26.382 75.7663C26.5238 75.3385 26.1456 74.7206 26.0038 74.2928C25.6255 73.2471 25.2473 72.2014 24.869 71.1557C23.0724 71.4885 21.1812 70.9656 19.8101 69.7773C20.5665 72.2014 20.9448 74.7206 20.8502 77.2873C20.8029 78.7132 20.6611 80.1391 20.472 81.5651C20.2829 83.1811 20.0937 84.7972 19.9046 86.4132C20.2829 85.8904 20.9448 85.7003 21.6067 85.7478C22.4577 85.8429 23.2142 85.7478 24.018 86.1281C24.6799 86.4608 25.2473 86.8886 25.8619 87.2688C26.2874 87.5065 26.7602 87.8392 27.233 87.9342C27.4694 87.9818 27.7531 88.0293 27.8004 87.7441C27.8477 87.4589 27.4694 86.9361 27.4222 86.6509C27.233 85.32 27.233 83.9416 27.233 82.6108Z" fill="#002891"/>
<path d="M89.0283 85.1303C88.8392 83.0864 88.5082 81.1376 87.5626 79.3315C85.766 75.9567 84.9622 71.8691 84.9149 68.019C84.9149 67.8289 84.7731 66.5931 84.8676 66.498C81.8417 69.2549 78.2484 71.1086 74.3714 72.487C76.8773 73.7228 75.6953 76.7648 72.9058 77.9531C72.7639 78.0006 71.3455 78.4284 71.3455 78.3808C71.2982 79.6166 70.8727 80.6623 70.6363 81.8031C69.8798 85.558 70.0217 90.3587 70.1635 93.4482C71.2509 92.8778 72.6694 93.5908 74.3242 93.9711C74.7497 94.0661 75.1279 94.0186 75.5534 94.1136C76.1681 94.2087 76.6882 94.3513 77.3028 94.3513C77.4446 94.3513 78.9576 94.2562 78.9103 94.1612C78.6267 92.5927 79.3831 91.3093 79.7141 89.8358C80.4706 86.0334 80.2815 84.8451 80.3287 84.1796C80.4706 81.4228 79.7141 81.6605 79.5723 80.092C79.3831 77.9055 81.4635 76.2895 81.9363 74.8635C82.1254 74.2932 82.3618 73.295 83.0237 74.008C83.5911 74.5783 83.9693 75.8142 84.3475 76.5271C84.9622 77.7154 85.4823 78.9037 86.3806 79.8543C87.2789 80.8525 87.7517 82.2309 88.0354 83.5617C89.4065 89.8834 83.7329 90.5013 80.8488 93.5908C83.3074 92.2124 86.0024 91.3568 88.7919 91.4994C89.1701 91.4044 89.0756 85.6531 89.0283 85.1303Z" fill="#002891"/>
<path d="M86.2385 68.1135C86.1439 67.7808 85.482 66.3073 85.7184 65.9746C84.2054 66.6876 84.3946 70.2999 85.3402 71.5833C87.2787 74.1975 87.0423 75.8611 87.6569 77.9049C88.8862 82.1352 89.8318 84.179 89.8791 86.1754C89.9263 87.3161 89.4535 88.4569 89.5481 89.5976C89.6899 90.7383 90.6828 91.6414 90.6355 92.8297C90.5883 93.3526 90.3046 93.8754 89.7845 94.018C90.541 93.8279 90.7301 93.8279 91.2029 93.1624C93.7087 89.6927 93.1887 92.5445 86.2385 68.1135Z" fill="#002891"/>
<path d="M19.0064 66.0699C18.5809 66.5452 18.4863 67.1631 18.5336 67.781C18.5809 68.3989 18.8173 68.9692 19.0537 69.5396C19.621 71.0131 20.2357 72.4865 20.803 74.0075C20.4721 72.6767 20.1411 71.3933 19.7629 70.0625C19.5737 69.2544 19.3373 68.4464 19.1482 67.5908C19.0537 67.1631 18.9118 66.7353 19.0064 66.3075C19.0537 65.8797 19.3373 65.4519 19.7629 65.3569C19.7629 64.8816 19.7629 64.4063 19.7629 63.9785C19.2428 63.7884 18.77 63.4556 18.3445 63.0279C17.9662 62.6476 17.6353 62.2674 17.6353 63.0754C17.6353 63.6458 17.7771 64.2161 18.0135 64.6915C18.1081 64.834 18.9118 66.1649 19.0064 66.0699Z" fill="#002891"/>
<path d="M19.6208 88.0764C19.6681 88.4092 19.7154 88.8369 19.3844 89.0271C18.7225 89.3598 18.5334 88.2666 18.1551 88.0764C17.4932 87.6962 17.8241 88.5042 18.1551 88.7894C19.0534 89.5499 19.9518 90.3579 20.8501 91.1184C20.5664 89.3122 20.2354 87.4585 19.9518 85.6523C19.6208 86.3653 19.5262 87.2209 19.6208 88.0764Z" fill="#002891"/>
<path d="M52.481 45.8689C51.5826 46.0591 50.637 46.0115 49.786 45.7263C49.6914 45.6788 49.5496 45.6313 49.5023 45.5362C49.3132 45.0609 50.2115 45.2035 50.4006 45.156C50.968 45.156 51.4881 45.156 52.0554 45.156C53.3793 45.156 54.6558 45.156 55.9797 45.0134C56.4525 44.9659 56.9726 44.8708 57.4454 44.7757C60.1403 44.2529 62.6935 43.1597 64.9156 41.5911C65.9558 40.8306 66.9487 40.0226 68.1307 39.4047C68.7453 39.1195 69.36 38.8343 69.9746 38.6442C70.4474 38.5016 70.9202 38.359 71.3457 38.264C70.7784 37.5985 68.7453 38.0263 68.178 38.5016C68.5089 38.2164 68.8872 37.9312 69.2654 37.6461C69.8328 37.2658 70.4474 36.8856 71.1093 36.6954C71.4876 36.6004 72.0077 36.5528 72.3386 36.3152C72.2441 36.3627 71.393 36.2201 71.2039 36.2677C70.7784 36.3152 70.3529 36.4578 69.9273 36.5528C69.1236 36.743 68.3671 36.7905 67.6579 37.2183C67.3269 37.4084 67.0432 37.6461 66.7596 37.9312C65.6248 38.9294 64.632 39.785 63.3081 40.4504C61.9843 41.0683 60.6131 41.5436 59.1947 41.9714C55.0814 43.1597 50.7789 43.8251 46.5237 43.9202C46.3818 44.443 46.24 44.9183 46.0981 45.4412C46.8546 45.5362 47.3274 46.2017 48.0366 46.4868C48.6513 46.7245 49.4078 46.8196 49.9278 47.1523C49.786 47.0572 48.0366 46.2017 48.7931 45.964C49.0295 45.8689 49.5969 46.2017 49.786 46.2492C50.6843 46.4868 51.6772 46.5344 52.6228 46.3443C52.7646 46.2967 52.9065 46.2492 52.9065 46.1066C52.8119 45.8214 52.6228 45.8214 52.481 45.8689Z" fill="#002891"/>
<path d="M74.5605 36.5534C75.2697 36.8386 75.979 37.1238 76.6882 37.4565C77.0191 37.5991 77.3501 37.7892 77.3501 38.122C77.3501 38.3596 77.0664 38.5497 76.83 38.5497C76.5936 38.5973 76.3572 38.5022 76.1208 38.4547C74.6551 38.122 73.1421 38.4547 71.771 39.025C70.3999 39.5954 69.1233 40.4035 67.8468 41.1639C66.8066 41.7819 65.7192 42.3522 64.6317 42.9226C60.9911 44.7288 56.9251 46.2973 52.9062 47.0578C53.3318 46.9628 53.8519 47.1053 54.2774 47.0578C54.7975 47.0103 55.3175 46.9628 55.7903 46.8677C56.7832 46.6776 57.7288 46.2973 58.7217 46.1072C59.5255 45.9171 60.1401 45.7269 60.8966 45.3942C61.8422 44.9189 62.7878 44.4436 63.7807 44.0158C65.2464 43.3029 66.7593 42.5424 68.225 41.8294C69.6434 41.1164 71.0618 40.3559 72.6221 39.9281C73.5677 39.6905 74.5605 39.5004 75.5534 39.6905C77.161 40.0232 78.343 41.3541 79.3831 42.5899C79.2413 41.0689 79.1467 39.5004 78.343 38.1695C77.6338 36.8861 75.9317 35.9831 74.5605 36.5534Z" fill="#002891"/>
<path d="M37.3985 42.3516C35.0345 41.401 32.3395 40.0226 30.732 37.9787C30.401 37.551 30.1173 37.2658 29.6445 36.9331C29.2663 36.6479 28.888 36.3152 28.7462 35.8398C27.5642 36.125 26.3349 36.3627 25.2002 36.7429C26.6659 36.7905 27.9897 36.9331 29.1244 37.9312C29.1717 37.9312 29.1717 37.9787 29.219 37.9787C29.6918 38.4065 30.2592 38.8343 30.6847 39.3096C31.2993 39.975 31.7249 40.7831 32.2922 41.5436C32.4813 41.7812 32.6705 42.0189 32.8596 42.209C32.6705 42.114 32.4813 42.0664 32.3395 41.9714C32.1504 41.6862 31.914 41.401 31.7249 41.1158C31.0157 39.9751 30.2119 38.4541 28.7462 38.1213C28.1788 37.9787 28.2261 38.2164 28.5571 38.5966C29.1717 39.3096 29.8336 40.0226 30.4483 40.7831C30.9684 41.3535 31.4412 41.9238 32.0558 42.3991C32.4813 42.7319 32.9541 43.017 33.4742 43.2072C33.4742 43.2072 33.4742 43.2072 33.5215 43.2072C33.9943 43.4448 34.4671 43.6825 34.9872 43.8251C35.2236 43.9201 35.4127 44.0152 35.6491 44.0627C36.0746 44.1578 36.5474 44.2053 37.0202 44.2053C37.6349 44.2053 38.2495 44.2053 38.8169 44.2529C38.9587 44.2529 39.0533 44.2529 39.1951 44.3004L39.1478 44.3479C38.5805 44.9183 37.7294 45.1084 36.9257 45.0609C36.1219 45.0134 35.3654 44.7282 34.6089 44.443C33.7579 44.1103 32.9541 43.8251 32.1504 43.3973C31.5357 43.0646 31.0157 42.6843 30.4483 42.3516C31.3466 43.5874 32.765 44.8708 34.278 45.251C35.3654 45.6313 36.5474 45.7738 37.7294 45.6313C39.1006 45.5837 40.4717 45.251 41.701 44.6331C41.701 44.1103 41.8901 43.6349 42.221 43.2547C40.4717 43.3498 38.8642 42.922 37.3985 42.3516Z" fill="#002891"/>
<path d="M25.9092 37.9789C25.3418 37.7888 24.7272 37.7888 24.1598 38.0265C23.2142 38.4067 22.5996 39.4524 22.6941 40.4506C22.6941 40.1654 23.9234 39.4999 24.1598 39.3573C24.7272 39.0722 25.2945 38.8345 25.9092 38.6919C26.051 38.6444 26.6657 38.6444 26.6184 38.4067C26.6184 38.2641 26.051 38.0265 25.9092 37.9789Z" fill="#002891"/>
<path d="M28.5573 79.9008C27.8954 79.1403 27.328 78.3322 26.9025 77.4291C26.7134 77.0964 26.5715 76.7162 26.7134 76.3359C26.9498 76.3359 27.1389 76.431 27.328 76.5736C27.9427 76.9538 28.5573 77.3341 29.1719 77.7143C29.1719 77.7143 29.2192 77.8094 29.2665 77.7619C31.5832 78.9977 34.0418 79.9008 36.5476 80.5662C37.3041 80.7563 37.9661 81.1366 38.7698 81.3267C42.4577 82.1823 46.2401 82.6576 49.9752 82.6576C53.3321 82.6576 56.6417 82.1823 59.904 81.3742C63.0245 80.6137 66.0032 79.2829 68.7454 77.5717C69.2182 77.9045 69.8329 78.0471 70.4475 78.0471C68.178 80.7563 64.963 82.6576 61.5116 83.4181C60.5187 83.6557 59.5258 83.7508 58.4856 83.8934C56.4999 84.131 54.5141 84.4162 52.5756 85.0817C52.0555 85.2718 51.5354 85.4619 51.0154 85.7471C50.5426 85.9847 50.2116 86.2699 49.7861 86.5551C48.8878 87.173 47.8476 87.5057 46.8074 87.6008C45.4363 87.6959 44.0652 87.2681 42.9777 86.4601C42.2685 85.9372 41.4648 85.6996 40.7083 85.2718C39.81 84.7489 38.9117 84.2736 37.9661 83.8458C37.0205 83.3705 36.0748 83.0378 35.1292 82.61C33.7108 81.9921 32.2924 81.4218 30.874 80.8514C30.1648 80.4711 29.1247 80.5187 28.5573 79.9008Z" fill="#196EAF"/>
<path d="M45.862 87.4573C46.5712 87.2197 47.2331 86.8869 47.895 86.6017C48.6042 86.3166 49.1716 85.7462 49.7862 85.3184C51.441 84.1777 53.5214 83.7974 55.5544 83.6548C57.5874 83.4647 59.6205 83.4647 61.559 82.9419C61.7954 82.8943 62.0791 82.7993 62.2682 82.6091C62.4573 82.419 62.5519 82.1338 62.4573 81.8962C62.2682 81.5635 61.8427 81.5635 61.4644 81.611C59.7623 81.8011 58.0602 82.0388 56.3582 82.2289C59.9987 81.706 63.4975 80.5178 66.6652 78.6641C67.2326 78.3313 67.8472 77.9511 68.5092 77.761C69.1711 77.5708 69.9276 77.6184 70.4476 77.9986C67.7527 80.803 64.1594 82.7993 60.2824 83.5122C57.9184 83.9875 55.5071 83.9875 53.285 84.7956C52.1029 85.2233 51.0155 85.8888 49.8808 86.4592C49.2189 86.7919 48.5097 87.1721 47.8005 87.3622C47.0913 87.5524 46.3821 87.4573 45.6729 87.4573C45.7201 87.5048 45.8147 87.5048 45.862 87.4573Z" fill="#002891"/>
<path d="M49.7386 53.5206C49.975 53.8533 50.1641 54.2811 50.3533 54.6614C50.7315 55.5169 51.0625 56.3725 51.3461 57.2281C51.8189 58.654 52.2445 60.0799 52.5754 61.5534C52.7646 62.2188 52.9064 62.8843 52.9064 63.5497C52.9064 64.0725 52.9537 64.6429 52.7173 65.1182C52.5282 65.4509 52.2918 65.7361 52.0081 66.0213C51.6771 66.5442 51.0625 67.0195 50.5897 67.4473C50.1169 67.9226 49.6441 68.3503 49.124 68.7306C48.0838 69.5386 46.9491 70.2516 45.8144 70.917C44.5378 71.6775 43.1667 72.6281 41.701 72.9133C41.0391 73.0559 40.3299 72.8658 39.7152 72.4856C39.1006 72.1528 38.6278 71.6775 38.1077 71.1547C37.5404 70.6318 36.973 70.0615 36.4056 69.5386C35.7437 68.8732 35.2236 68.3028 34.5144 67.6374C32.8123 65.9263 31.3467 64.3102 30.3538 62.1238C30.0701 61.5059 30.2119 60.7929 30.4011 60.1275C30.9211 58.2737 31.5831 56.5151 32.4341 54.804C32.8596 53.9484 33.3324 53.1404 33.8525 52.3324C34.0889 51.9996 34.278 51.5243 34.609 51.2867C35.3182 50.7638 36.1692 50.7638 37.0203 50.8589C38.2968 51.0015 39.5261 51.1916 40.8027 51.3342C43.0248 51.6194 45.0579 51.9996 47.2801 52.3324C47.7529 52.3799 48.2729 52.4274 48.6985 52.6651C49.2185 52.9027 49.5022 53.1879 49.7386 53.5206Z" fill="#E2A83A"/>
<path d="M49.1714 53.4731C49.4078 53.8058 49.5969 54.1861 49.7861 54.5663C50.1643 55.3743 50.4953 56.2299 50.7789 57.0855C51.2517 58.4639 51.63 59.8898 52.0082 61.3157C52.1501 61.9812 52.3392 62.5991 52.3392 63.2645C52.3392 63.7874 52.3865 64.3577 52.1501 64.7855C51.9609 65.1182 51.7245 65.4034 51.4409 65.6886C51.1099 66.2114 50.4953 66.6392 50.0697 67.067C49.5969 67.4948 49.1714 67.9226 48.6513 68.3503C47.6112 69.1108 46.5237 69.8713 45.389 70.5368C44.1597 71.2973 42.7413 72.2004 41.3229 72.4855C40.661 72.6281 39.9518 72.438 39.3844 72.0578C38.8171 71.7251 38.297 71.2497 37.8242 70.7744C37.2568 70.2516 36.6895 69.6812 36.1221 69.1584C35.4602 68.5405 34.9401 67.9701 34.2782 67.3047C32.5761 65.6411 31.1577 64.025 30.1648 61.8861C29.8811 61.2682 30.023 60.5552 30.2121 59.9373C30.6849 58.1311 31.3941 56.3725 32.2451 54.7089C32.6707 53.8533 33.1435 53.0453 33.6635 52.2848C33.8999 51.9521 34.0891 51.4768 34.42 51.2867C35.1292 50.7638 35.9803 50.7638 36.784 50.8589C38.0133 51.0015 39.2899 51.1916 40.5192 51.3342C42.694 51.6194 44.7271 51.9996 46.902 52.3324C47.3748 52.3799 47.8949 52.4274 48.2731 52.6651C48.6513 52.9027 48.935 53.1404 49.1714 53.4731Z" fill="#C9270B"/>
<path d="M48.8879 54.5666C48.1787 52.998 47.7059 53.2832 36.2168 51.6196C35.4131 51.477 34.7039 51.8573 34.3256 52.5227C32.8599 55.1845 31.9143 57.0857 30.8742 60.2228C30.685 60.8407 30.7323 61.5536 31.1106 62.124C33.3327 65.6413 35.5549 68.0179 39.6683 71.25C40.3302 71.7728 41.1812 71.8679 41.8432 71.5352C45.7674 69.5864 48.4151 67.9704 51.1573 64.8808C51.5356 64.453 51.6774 63.7876 51.5829 63.1222C50.8737 59.6999 50.1645 57.4184 48.8879 54.5666ZM50.7318 64.5481C48.0368 67.5901 45.4364 69.1586 41.5595 71.0599C41.0394 71.2975 40.4247 71.2025 39.9519 70.8222C35.9331 67.6376 33.711 65.2611 31.5361 61.7913C31.2524 61.3635 31.2051 60.7932 31.347 60.3178C32.3871 57.2283 33.3327 55.3271 34.7511 52.7129C35.3185 51.6672 35.4603 51.9999 47.044 53.6635C47.6113 53.7585 48.1787 54.1863 48.4151 54.7092C49.6444 57.561 50.3536 59.795 51.0155 63.2172C51.1573 63.7401 51.0155 64.2629 50.7318 64.5481Z" fill="#E2A83A"/>
<path d="M47.0441 56.3726C46.9968 56.3251 46.9968 56.3251 46.9495 56.3251L44.2073 55.8498C44.16 55.8498 44.1127 55.8498 44.1127 55.8498C44.0654 55.8498 44.0654 55.8973 44.0654 55.9448L44.0181 56.4677C44.0181 56.5152 44.0181 56.5627 44.0654 56.5627C44.1127 56.6103 44.1127 56.6103 44.16 56.6103C44.3491 56.6578 44.5382 56.7529 44.6328 56.8479C44.7273 56.943 44.8219 56.9905 44.8219 57.0856C44.8692 57.1806 44.8692 57.2282 44.8692 57.3232C44.8692 57.4183 44.8692 57.4658 44.8692 57.5609L44.4437 62.4566L39.1956 55.0417L39.1483 54.9942C39.101 54.9942 39.101 54.9942 39.101 54.9467L36.0751 54.4238C36.0278 54.4238 35.9805 54.4238 35.9805 54.4238C35.9332 54.4238 35.9332 54.4714 35.9332 54.5189L35.886 55.0417C35.886 55.0893 35.886 55.1368 35.9332 55.1843C35.9805 55.2319 36.0278 55.2319 36.0278 55.2319C36.2169 55.2319 36.3588 55.2794 36.4533 55.3745C36.5479 55.422 36.5952 55.517 36.6424 55.6121C36.6424 55.6596 36.6897 55.7072 36.6897 55.7547C36.6897 55.8022 36.6897 55.8498 36.737 55.8498C36.737 55.8973 36.737 55.9448 36.737 56.0399C36.737 56.0874 36.737 56.1349 36.737 56.1825L36.2169 63.5973C36.2169 63.6449 36.2169 63.6924 36.2169 63.7399C36.2169 63.7875 36.2169 63.835 36.1696 63.8825C36.1224 63.9776 36.0751 64.0726 35.9332 64.1202C35.8387 64.2152 35.6496 64.2152 35.3659 64.2152C35.3186 64.2152 35.2713 64.2152 35.2713 64.2628C35.224 64.2628 35.224 64.3103 35.224 64.3578L35.1768 64.8807C35.1768 64.9282 35.1768 64.9757 35.224 64.9757C35.2713 65.0233 35.2713 65.0233 35.3186 65.0233L38.0136 65.4986C38.0608 65.4986 38.1081 65.4986 38.1554 65.4511C38.2027 65.4511 38.2027 65.4035 38.2027 65.356L38.25 64.8331C38.25 64.7856 38.25 64.7381 38.2027 64.7381C38.1554 64.6906 38.1554 64.6906 38.1081 64.6906C37.919 64.643 37.7772 64.5955 37.6826 64.5004C37.588 64.4054 37.4935 64.3578 37.4462 64.2628C37.3989 64.2152 37.3989 64.1677 37.3989 64.1202C37.3989 64.0726 37.3516 64.0251 37.3989 63.9776C37.3989 63.9776 37.3989 63.9301 37.3989 63.8825C37.3989 63.835 37.3989 63.835 37.3989 63.7875L37.8717 57.5134L44.2545 66.4967L44.3018 66.5443C44.3018 66.5443 44.3491 66.5443 44.3491 66.5918L45.2001 66.7344C45.2474 66.7344 45.2947 66.7344 45.342 66.6869C45.3893 66.6869 45.3893 66.6393 45.3893 66.5918L46.1457 57.751C46.1457 57.7035 46.1457 57.6559 46.1457 57.6084C46.1457 57.5609 46.193 57.4658 46.2403 57.4183C46.2876 57.3232 46.3821 57.2757 46.4767 57.1806C46.5713 57.1331 46.7604 57.0856 46.9968 57.0856C47.0441 57.0856 47.0913 57.0856 47.0913 57.038C47.1386 57.038 47.1386 56.9905 47.1386 56.943L47.1859 56.4201C47.0913 56.4677 47.0441 56.4201 47.0441 56.3726Z" fill="#E2A83A"/>
<g opacity="0.32">
<path opacity="0.32" d="M46.9018 52.3314C36.6892 50.8104 35.6491 50.3827 34.4198 51.2857C33.3796 52.0462 29.3135 59.9839 30.1646 61.9327C31.0629 63.9766 32.3868 65.4976 33.947 67.0661C39.6206 63.6439 44.1595 58.558 47.3273 52.4265C47.1854 52.379 47.0436 52.379 46.9018 52.3314Z" fill="white"/>
<path opacity="0.32" d="M51.9605 61.3617C51.6295 60.1734 51.3458 59.1277 51.1094 58.2246C51.535 64.2135 47.5162 69.1568 42.2681 72.1988C44.3484 71.3432 48.0835 69.0617 50.022 67.1605C52.1023 65.1642 52.9061 64.9265 51.9605 61.3617Z" fill="white"/>
</g>
<path d="M41.9375 43.3965C41.843 43.3965 41.7011 43.3965 41.6066 43.444C41.5593 43.4915 41.512 43.5866 41.4647 43.6341C41.2756 44.157 41.1811 44.7274 41.3702 45.2977C41.5593 46.0107 42.1267 46.3909 42.7886 46.5811C43.4978 46.8187 44.2543 46.6761 44.8689 46.3434C45.7672 45.773 46.3346 44.7749 46.571 43.7292C46.571 43.7767 45.4363 43.6817 45.2944 43.6817C44.8689 43.6817 44.4434 43.6341 43.9706 43.6341C43.5451 43.5866 43.0723 43.5866 42.6467 43.4915C42.4576 43.444 42.2212 43.444 42.0321 43.3965C42.0794 43.3965 42.0321 43.3965 41.9375 43.3965Z" fill="#F7D512"/>
<path d="M45.6252 45.7255C46.1453 45.1551 46.4763 44.3947 46.4763 43.6342C45.6725 43.7768 44.8215 43.7767 44.0177 43.6817C43.2139 43.5866 42.4102 43.3965 41.6064 43.2539C41.5118 43.5866 41.4173 43.9193 41.3227 44.2521C41.2754 44.3947 41.2282 44.5372 41.2754 44.6798C41.3227 44.87 41.5591 44.87 41.7482 44.965C41.9846 45.0601 42.221 45.1076 42.4574 45.1076C42.9302 45.1552 43.403 45.1552 43.8286 45.1552C44.6796 45.2027 44.2068 46.0107 43.6394 46.2008C43.2139 46.3434 42.7411 46.2959 42.2683 46.2484C43.0248 46.6286 43.9704 46.6761 44.7269 46.3434C45.1051 46.2008 45.3888 46.0107 45.6252 45.7255Z" fill="#F0BE0F"/>
<path d="M44.4433 45.8679C44.4433 45.8679 43.6869 46.0105 42.8831 45.7253C42.5521 45.5827 42.1266 45.3926 41.8429 45.155C41.7956 45.1074 41.7484 45.1074 41.7011 45.1074C41.6538 45.1074 41.6538 45.2025 41.6538 45.25C42.0793 46.2006 43.2613 46.3908 44.0651 46.2006C44.1597 46.1531 44.5379 45.963 44.4433 45.8679Z" fill="#E3F178"/>
<path d="M37.9184 99.4843C37.682 99.009 37.3983 98.4862 36.8783 98.296C36.5 98.1534 36.0745 98.2485 35.6963 98.4386C35.3653 98.6288 35.0343 98.9139 34.7507 99.1991C34.5143 98.6763 34.3251 98.1534 34.0887 97.6306C33.9942 97.4405 33.8996 97.2503 33.7578 97.1078C33.5214 96.8701 33.1431 96.8701 32.8122 96.9652C32.4812 97.0602 32.1503 97.2028 31.8666 97.3929C31.772 97.0127 31.6302 96.6324 31.5356 96.2522C31.4883 96.1096 31.4411 95.9195 31.2992 95.8244C31.2047 95.7294 31.0155 95.7769 30.921 95.8244C30.7791 95.8719 30.6846 95.967 30.59 96.0621C30.259 96.3473 30.0226 96.68 29.739 97.0602C29.408 97.488 29.3134 98.1534 29.7862 98.5337C30.1172 98.8189 30.59 98.7713 31.0155 98.7238C30.9683 99.4368 31.4883 100.102 32.1503 100.387C32.8122 100.673 33.5214 100.673 34.2306 100.53C34.2306 100.768 34.3724 100.958 34.5615 101.148C34.7507 101.29 35.0343 101.386 35.2707 101.481C36.1691 101.718 37.1619 101.718 38.0603 101.433C38.2494 101.386 38.4858 101.243 38.5331 101.053C38.5331 100.91 38.4858 100.815 38.4385 100.673C38.2967 100.292 38.1076 99.8646 37.9184 99.4843Z" fill="#EBE1C1"/>
<path d="M67.4214 98.9147C67.1377 98.7246 66.854 98.5345 66.4757 98.4394C66.1448 98.3443 65.7665 98.3443 65.4829 98.5345C65.2465 98.677 65.0573 98.9622 64.9155 99.1999C64.5845 99.7227 64.3481 100.341 64.1117 100.911C63.6862 100.341 63.1189 99.8178 62.4569 99.4375C62.1733 99.295 61.8896 99.1524 61.6059 99.1999C61.2749 99.2474 60.9912 99.4851 60.7548 99.7227C60.3293 100.151 59.9511 100.673 59.6201 101.196C59.5728 101.054 59.5256 101.054 59.4783 100.911C59.2892 100.483 59.0528 100.008 58.7218 99.6752C58.3908 99.295 57.918 99.0573 57.4452 99.1048C57.067 99.1524 56.7833 99.3425 56.4524 99.5801C56.216 99.7227 55.9796 99.9129 55.7904 100.151C55.6013 100.388 55.4595 100.673 55.4595 100.959C55.4595 101.339 55.7432 101.672 56.0741 101.909C57.0197 102.622 58.4381 102.67 59.431 102.052C60.1875 102.575 61.0385 102.765 61.9369 102.622C62.8352 102.48 63.6862 102.004 64.2536 101.291C64.7737 101.672 65.5301 101.672 66.1448 101.434C66.7594 101.244 67.2795 100.816 67.7523 100.341C67.9414 100.151 68.1306 99.8653 68.1306 99.5801C67.9887 99.295 67.705 99.0573 67.4214 98.9147Z" fill="#EBE1C1"/>
<path d="M31.9139 96.6322C31.8193 96.2995 31.5357 95.9668 31.2047 95.8242C31.4411 96.4421 31.3465 97.1551 30.9683 97.6779C30.8265 97.9156 30.5901 98.0582 30.3537 98.1532C30.2591 98.2008 30.1645 98.2008 30.0227 98.1532C29.9281 98.1532 29.739 98.0106 29.6917 98.0106C29.4553 98.0582 29.6445 98.3909 29.7863 98.486C29.9281 98.6286 30.1645 98.6761 30.3537 98.6761C30.6373 98.7236 30.8737 98.8187 31.1574 98.8662C31.2047 98.3909 31.6302 98.1057 31.8193 97.6779C31.9612 97.3927 32.0085 96.965 31.9139 96.6322Z" fill="#C4B46E"/>
<path d="M34.3252 100.435C34.2779 100.15 34.5616 99.8171 34.6561 99.532C34.7507 99.3894 34.798 99.1993 34.798 99.0091C34.798 98.8665 34.7034 98.6764 34.6089 98.5338C34.4197 98.2011 34.1833 97.8684 33.9942 97.4881C33.8997 97.298 33.7578 97.1554 33.616 97.0128C33.4741 96.9178 33.1905 96.8227 33.0486 96.9653C33.5214 97.298 33.8997 97.6783 33.8997 98.2962C33.9469 98.8665 33.616 99.4369 33.1432 99.7221C32.6704 100.007 32.0084 100.055 31.5356 99.7696C32.0084 100.055 32.3867 100.34 32.9068 100.435C33.3323 100.53 33.8051 100.578 34.2306 100.72C34.3252 100.72 34.4197 100.768 34.5143 100.815C34.4197 100.673 34.3252 100.578 34.3252 100.435C34.3252 100.483 34.3252 100.483 34.3252 100.435Z" fill="#C4B46E"/>
<path d="M38.4384 100.339C38.2493 99.8635 38.0129 99.3882 37.6819 98.9604C37.351 98.5326 36.9254 98.2474 36.4054 98.1523C36.7363 98.5326 37.0673 98.9604 37.1618 99.4357C37.3037 99.911 37.2091 100.481 36.8309 100.814C36.2162 101.384 35.2706 101.052 34.5142 100.814C34.5614 100.862 34.6087 100.957 34.656 101.004C34.987 101.384 35.4125 101.575 35.9326 101.67C36.5945 101.765 37.2091 101.575 37.8238 101.432C38.1075 101.384 38.3911 101.289 38.4857 101.004C38.6275 100.862 38.533 100.576 38.4384 100.339Z" fill="#C4B46E"/>
<path d="M57.5872 99.1504C57.9181 99.4356 58.2018 99.7683 58.3909 100.149C58.58 100.529 58.6273 101.004 58.4382 101.384C58.1545 101.812 57.5872 101.955 57.0671 101.86C56.6888 101.765 56.4052 101.622 56.0742 101.432C55.9324 101.337 55.696 101.194 55.5068 101.194C55.5541 101.479 55.9796 101.812 56.216 102.002C56.547 102.24 56.878 102.43 57.3035 102.478C58.06 102.668 58.8637 102.478 59.5256 102.05C59.4784 101.67 59.5729 101.242 59.8093 100.909C59.3365 100.101 58.5328 99.4356 57.5872 99.1504Z" fill="#C4B46E"/>
<path d="M62.5041 99.5321C62.0786 99.3895 61.3693 99.2469 60.9911 99.4845C61.2748 99.6271 61.7003 99.6271 61.984 99.7222C62.5041 99.9123 63.0242 100.293 63.1187 100.91C63.166 101.528 62.6932 102.051 62.1258 102.241C61.5585 102.431 60.9438 102.384 60.3765 102.336C61.3221 102.717 62.4568 102.669 63.3551 102.241C63.6861 102.099 64.017 101.861 64.1116 101.528C64.2062 101.196 64.0643 100.863 63.8752 100.578C63.5442 100.055 63.0242 99.6747 62.5041 99.5321Z" fill="#C4B46E"/>
<path d="M67.2796 98.7705C66.9014 98.5804 66.4759 98.5329 66.0503 98.4378C65.9085 98.4378 65.5303 98.3428 65.483 98.5329C65.3884 98.723 65.7194 98.723 65.8139 98.7705C66.1922 98.8656 66.5231 99.0557 66.8068 99.2934C66.9014 99.3884 66.9959 99.531 67.0432 99.6261C67.2796 100.101 67.2323 100.387 66.8068 100.672C66.2867 101.005 65.8139 101.29 65.2466 101.48C65.9085 101.527 66.6177 101.337 67.1851 100.957C67.6106 100.672 68.0361 100.196 67.9888 99.6736C67.9416 99.3409 67.6579 98.9607 67.2796 98.7705Z" fill="#C4B46E"/>
<path d="M47.8477 38.6425C50.5899 37.4067 53.0485 35.5055 54.8924 33.1289C55.3652 33.4616 55.9798 33.6042 56.5472 33.6042C56.4999 34.6499 56.3108 35.553 55.9798 36.5512C55.6489 37.5018 55.0815 38.4524 54.1832 38.9277C53.7104 39.1654 53.1903 39.308 52.7175 39.403C51.0154 39.6407 49.3606 39.3555 47.8477 38.6425Z" fill="white"/>
<path d="M56.5944 33.6036C56.1216 33.461 55.6488 33.3659 55.1287 33.2233C55.0341 33.2233 54.9869 33.1758 54.8923 33.1758C54.7032 33.1758 54.5613 33.3659 54.4668 33.5085C52.6701 35.6949 50.448 37.6437 47.8003 38.6894C48.1313 38.7369 48.4149 38.7845 48.6986 38.927C48.935 39.0221 49.1241 39.2598 49.3605 39.3548C49.7861 39.545 50.448 38.9746 50.8262 38.832C51.0626 38.7369 51.299 38.8795 51.2517 39.1647C51.2517 39.3073 51.1572 39.4024 51.0626 39.4974C51.2045 39.5449 51.3463 39.4974 51.4881 39.4024C51.63 39.3073 51.5827 39.1647 51.6773 39.0221C51.7245 38.8795 51.8191 38.7845 51.9137 38.6419C52.1028 38.4042 52.3392 38.2141 52.6229 38.119C52.812 38.0715 53.0011 38.024 53.1902 38.119C53.3793 38.2616 53.3793 38.5943 53.2375 38.7845C53.0957 38.9746 52.8593 39.0696 52.6229 39.1647C52.9065 39.3073 53.2375 39.2598 53.4739 39.0696C53.7103 38.8795 53.8521 38.5943 53.8049 38.2616C53.8049 38.0715 53.7103 37.9289 53.7576 37.7388C53.8049 37.5011 54.0413 37.311 54.2304 37.2159C54.3722 37.1209 54.6086 36.9783 54.7977 37.1209C54.9396 37.2159 54.9396 37.406 54.9396 37.5486C54.8923 37.9764 54.6559 38.4042 54.2777 38.6894C54.4668 38.4993 54.7505 38.4042 54.9869 38.2616C55.2233 38.119 55.3651 37.8814 55.4597 37.6437C55.7434 37.1209 55.9798 36.598 56.027 35.9801C56.0743 35.5999 56.027 35.1721 56.0743 34.7918C56.2634 34.3641 56.358 33.9363 56.5944 33.6036ZM52.9538 37.3585C52.9065 37.5011 52.7647 37.5962 52.6229 37.6912C52.3392 37.8814 51.9609 38.024 51.63 38.024C52.0555 37.6912 52.481 37.2635 52.9065 36.8832C52.9065 36.8832 52.9065 36.8832 52.9538 36.9307C53.0484 37.0258 53.0011 37.2159 52.9538 37.3585ZM54.1358 36.8832C53.8049 37.0733 53.3793 36.9783 53.1429 36.6931L53.0957 36.6456C53.4266 36.3128 53.7103 35.9326 53.994 35.5523C54.0885 35.4097 54.1831 35.2671 54.3249 35.1246C54.3722 35.1721 54.3722 35.2196 54.4195 35.2671C54.5141 35.4573 54.6086 35.6949 54.6086 35.9326C54.6086 36.3604 54.4195 36.6931 54.1358 36.8832ZM54.6559 35.3622C54.6086 35.2196 54.5613 35.1246 54.4668 34.982C54.5141 34.9344 54.5141 34.9344 54.5613 34.8869C54.7977 34.6968 55.1287 34.6017 55.3651 34.7443C55.6015 34.8394 55.7906 35.1246 55.8379 35.3622C55.8379 35.4573 55.8379 35.5048 55.8379 35.5999C55.8379 35.7425 55.176 36.0752 55.0341 36.0752C54.845 36.0276 54.7505 35.5523 54.6559 35.3622ZM54.9396 36.1227C55.0341 36.1702 55.176 36.2178 55.2706 36.2178C55.2233 36.2178 55.176 36.2178 55.1287 36.2178C55.0341 36.2178 54.9869 36.2178 54.9396 36.1227Z" fill="#DFDCDC"/>
<path d="M40.7553 13.1192C39.7151 12.8815 38.7222 13.4994 38.013 13.9272C37.2093 14.4025 36.0746 14.7352 35.4599 15.4482C34.5616 16.4939 33.8997 17.7772 33.7578 19.2031C33.616 20.5815 33.9469 22.055 34.798 23.1482C35.7909 22.8155 37.3984 23.5285 38.1076 23.9087C39.6678 22.6254 41.8427 22.1025 43.8285 22.4353C46.1452 18.7278 44.0649 13.8797 40.7553 13.1192Z" fill="white"/>
<path d="M60.9912 15.3536C60.2347 14.1653 59.4309 12.6919 55.554 11.9789C54.7502 11.8363 53.9937 11.5986 53.3318 12.0264C52.1498 12.7869 50.8732 13.4048 49.9276 14.498C48.0364 16.6845 47.6109 19.9641 48.7456 22.5783C49.0293 23.1962 49.3603 23.8141 49.8331 24.337C50.2113 24.8123 50.5423 25.3827 51.1096 25.6203C51.3933 25.7629 51.7243 25.8105 52.008 25.953C52.3862 26.1432 52.7644 26.2382 53.1427 26.3333C54.372 26.6185 55.6485 26.8086 56.9251 26.571C59.951 26.0006 61.7477 23.1962 62.2205 20.3444C62.4569 18.5382 61.8895 16.8271 60.9912 15.3536Z" fill="white"/>
<path d="M40.7554 13.1192C39.7152 12.8815 38.7223 13.4994 38.0131 13.9272C37.2093 14.4025 36.0746 14.7352 35.46 15.4482C34.9872 15.971 34.6089 16.5414 34.3253 17.1593C34.6089 16.8741 34.8453 16.5889 35.1763 16.3513C36.1219 15.6383 37.0675 14.9729 38.1549 14.5926C38.3913 14.4976 38.6277 14.45 38.8641 14.4025C39.6206 14.2124 40.4717 14.2124 41.1809 14.4976C42.1265 14.8778 42.8357 15.8284 43.0721 16.8266C43.3085 17.8247 43.0721 18.918 42.5047 19.821C41.9374 20.8192 40.9918 21.5322 39.9989 22.0075C38.8169 22.5303 37.4457 22.768 36.2165 22.4353C35.2236 22.1976 34.3725 21.5797 33.8052 20.7717C33.947 21.6748 34.278 22.4828 34.8453 23.1958C35.8382 22.863 37.4457 23.576 38.1549 23.9563C39.7152 22.6729 41.8901 22.1501 43.8758 22.4828C46.1453 18.7278 44.065 13.8797 40.7554 13.1192Z" fill="#D6D2D2"/>
<path d="M60.9914 15.3536C60.2349 14.1653 59.4311 12.6919 55.5542 11.9789C54.7504 11.8363 53.9939 11.5986 53.332 12.0264C52.7174 12.4067 52.1027 12.7394 51.5354 13.1672C51.7245 13.0721 51.9609 13.0246 52.15 12.977C53.6157 12.5493 55.2232 12.6443 56.6416 13.2147C58.2019 13.8801 59.5257 15.211 60.1403 16.8271C60.755 18.4431 60.6604 20.2968 59.8094 21.8178C58.6274 23.9567 56.027 25.145 53.5684 24.8123C51.3935 24.5271 49.4078 23.0536 48.3203 21.1049C48.4149 21.6277 48.5567 22.103 48.7458 22.5783C49.0295 23.1962 49.3605 23.8141 49.8333 24.337C50.2115 24.8123 50.5425 25.3827 51.1098 25.6203C51.3935 25.7629 51.7245 25.8105 52.0082 25.953C52.3864 26.1432 52.7646 26.2382 53.1429 26.3333C54.3722 26.6185 55.6487 26.8086 56.9253 26.571C59.9512 26.0006 61.7479 23.1962 62.2207 20.3444C62.4571 18.5382 61.8897 16.8271 60.9914 15.3536Z" fill="#D6D2D2"/>
<path d="M40.0718 23.0151C41.4329 22.7634 42.3333 21.4501 42.083 20.0818C41.8326 18.7134 40.5263 17.8082 39.1652 18.0599C37.8041 18.3116 36.9036 19.6249 37.154 20.9932C37.4043 22.3615 38.7107 23.2668 40.0718 23.0151Z" fill="#196EAF"/>
<path d="M57.0084 23.5788C58.5218 22.6453 58.9958 20.6551 58.0671 19.1337C57.1385 17.6123 55.1588 17.1358 53.6455 18.0694C52.1321 19.0029 51.6581 20.9931 52.5867 22.5145C53.5154 24.0359 55.495 24.5124 57.0084 23.5788Z" fill="#196EAF"/>
<path d="M56.9661 22.2616C57.7526 21.349 57.6542 19.9681 56.7464 19.1774C55.8386 18.3868 54.465 18.4856 53.6785 19.3983C52.892 20.3109 52.9903 21.6918 53.8982 22.4825C54.806 23.2731 56.1796 23.1743 56.9661 22.2616Z" fill="black"/>
<path d="M53.852 18.7295C54.4194 18.5394 54.9867 18.8721 55.034 19.4425C55.1286 20.0128 54.703 20.6307 54.1357 20.7733C53.5683 20.9635 53.001 20.6307 52.9537 20.0604C52.9064 19.49 53.2374 18.9196 53.852 18.7295Z" fill="white"/>
<path d="M57.3133 22.1521C57.4961 22.148 57.6409 21.9958 57.6369 21.8121C57.6328 21.6283 57.4814 21.4827 57.2987 21.4868C57.1159 21.4908 56.9711 21.6431 56.9751 21.8268C56.9791 22.0105 57.1306 22.1561 57.3133 22.1521Z" fill="white"/>
<path d="M41.2756 20.9631C41.0392 21.8662 40.1408 22.4366 39.2425 22.1989C38.3442 21.9613 37.7768 21.0582 38.0132 20.1551C38.2496 19.252 39.148 18.6816 40.0463 18.9193C40.9446 19.1094 41.512 20.06 41.2756 20.9631Z" fill="black"/>
<path d="M38.4861 18.9668C38.9589 18.8242 39.3372 19.1094 39.4317 19.5372C39.479 19.9649 39.1953 20.4402 38.7225 20.5828C38.2497 20.7254 37.8715 20.4402 37.7769 20.0125C37.6824 19.5372 38.0133 19.0618 38.4861 18.9668Z" fill="white"/>
<path d="M41.323 21.1046C41.4649 21.1997 41.4649 21.3423 41.4176 21.4848C41.323 21.6274 41.1812 21.6274 41.0393 21.5799C40.8975 21.4848 40.8975 21.3423 40.9448 21.1997C41.0393 21.0571 41.1812 21.0571 41.323 21.1046Z" fill="white"/>
<path d="M25.7206 87.6953C24.4914 86.8873 22.0801 84.7009 19.8579 85.9367C19.8579 86.1744 19.9052 86.412 19.9052 86.6497C22.5529 84.9385 24.3495 88.5509 28.1792 89.4065C29.3612 89.6441 30.3068 89.7867 31.2997 90.4046C31.2997 90.2145 31.347 90.167 31.2997 89.6917C29.4558 88.6935 27.7064 89.0737 25.7206 87.6953Z" fill="#002361"/>
<path d="M79.3833 93.6836C76.0265 94.8243 73.9461 92.9706 70.7311 93.0181C70.4474 93.0181 70.211 93.0657 69.9746 93.1132C69.9746 93.3033 70.0219 93.4935 70.0219 93.7311C70.211 93.7311 70.4474 93.6836 70.6838 93.7311C73.7097 93.6836 75.9792 95.5848 79.5252 94.3966C82.6457 93.3033 83.1185 92.1626 88.6975 91.5922C88.7448 91.3546 88.7448 91.212 88.7921 90.9743C84.9624 90.7367 81.3218 93.0182 79.3833 93.6836Z" fill="#002361"/>
<path d="M29.0772 79.9486C28.7935 79.901 28.5571 79.8535 28.2734 79.8535C31.3466 85.89 31.4412 90.4054 30.401 96.4419C30.6374 96.2042 30.8738 95.9666 31.2048 95.824C32.0086 91.4511 31.914 87.2208 30.3065 82.848C29.9755 81.8023 29.55 80.8517 29.0772 79.9486Z" fill="#545454"/>
<path d="M55.5542 100.672C48.1312 98.2004 52.5283 99.151 47.753 88.4565C47.6111 88.0762 47.422 87.791 47.2802 87.5059C47.0911 87.5534 46.9019 87.5059 46.7128 87.5059C46.8074 87.8386 46.9492 88.2664 47.1856 88.7417C49.4078 93.7324 49.5969 96.2991 50.0697 97.9152C46.9492 100.91 42.9304 101.623 38.5806 100.957C38.5806 101.195 38.4861 101.432 38.3442 101.575C43.2141 102.336 47.8475 101.147 50.3534 98.5806C50.9208 99.7689 52.1028 100.339 55.6488 101.385C55.5542 101.147 55.5069 100.91 55.5542 100.672Z" fill="#545454"/>
<path d="M71.8659 78.0469C71.6768 78.0469 71.5349 78.0469 71.3458 78.0469C71.204 78.3321 71.1094 78.7598 70.9676 79.1876C69.3128 85.842 69.5019 89.8821 69.7856 94.7303C69.8801 97.297 70.3057 97.6772 67.9416 99.3884C68.0362 99.6736 67.9416 99.9587 67.7998 100.291C73.568 96.6316 67.8944 94.3025 71.6295 79.3777C71.7241 78.8549 71.8186 78.4271 71.8659 78.0469Z" fill="#545454"/>
<path d="M60.4242 92.591C59.6204 92.6385 58.9585 92.3534 58.864 92.4484C58.7694 92.5435 59.4313 93.0663 60.4242 93.0663C61.4171 93.0663 62.0317 92.4959 61.9371 92.4009C61.8899 92.2583 61.228 92.5435 60.4242 92.591Z" fill="#545454"/>
<path d="M35.1765 92.355C34.4673 92.2124 34.0418 91.737 33.9472 91.7846C33.8999 91.8321 33.9472 92.0222 34.1363 92.2124C34.3255 92.45 34.6564 92.6877 35.0819 92.7827C35.5075 92.8778 35.933 92.8303 36.2167 92.7352C36.5004 92.6401 36.5949 92.4975 36.5949 92.45C36.5004 92.3549 35.8857 92.5451 35.1765 92.355Z" fill="#545454"/>
<path d="M35.0347 98.6756C34.751 97.9151 34.3728 97.3448 33.9 96.8695C33.4272 96.4417 32.718 96.8219 32.1506 97.1546C32.1034 96.6318 32.0088 96.1565 31.7724 95.6812C31.4887 95.0633 30.5431 95.9664 30.3067 96.204C29.8812 96.6318 29.5975 97.1546 29.4557 97.725C29.2665 98.3905 30.2594 99.0084 30.9213 99.0559C31.205 100.244 32.4816 101.29 34.1837 100.91C35.1293 102.431 39.0062 102.193 38.959 101.147C38.9117 100.529 38.2498 99.3886 37.8715 98.8658C37.3042 98.1053 36.7841 97.1071 35.0347 98.6756ZM30.8268 96.204C31.536 95.6336 31.7724 96.8695 31.7251 97.5349C31.3941 97.8201 31.1105 98.1528 30.9686 98.533C29.9285 98.6756 28.7937 97.8201 30.8268 96.204ZM34.0418 100.292C32.1979 100.767 30.0703 99.1985 32.3398 97.5349C33.0017 97.0121 33.4745 96.9645 33.9473 97.725C34.231 98.2003 34.4201 98.7232 34.5146 99.246C34.3255 99.5312 34.1364 99.9114 34.0418 100.292ZM38.0606 101.147C37.3987 101.575 34.5146 101.432 34.5146 100.339C34.5146 99.7689 35.8858 98.2954 36.5004 98.3429C37.0678 98.3905 37.7297 99.4837 37.9188 100.007C38.0606 100.292 38.3916 100.957 38.0606 101.147Z" fill="#85774A"/>
<path d="M67.327 98.5814C65.1048 97.2981 64.5847 99.1042 64.0646 100.34C63.9228 100.15 63.7337 100.007 63.5918 99.8647C61.6061 98.1536 60.6132 99.0567 59.6203 100.53C59.1475 99.6746 58.4383 99.0567 58.0128 98.8666C57.0672 98.3913 54.8923 100.293 55.0814 100.958C55.2705 101.623 56.9726 103.62 59.3366 102.336C61.1333 103.81 64.0174 102.289 64.3956 101.623C65.814 102.099 67.4215 101.718 68.1307 100.055C68.509 99.437 68.509 99.2944 67.327 98.5814ZM59.1475 101.861C57.7291 102.812 55.3178 101.861 55.7906 100.483C56.0743 99.7697 57.4927 98.8191 58.2965 99.4845C58.722 99.8647 59.2893 100.625 59.4312 100.958C59.2421 101.243 59.1475 101.576 59.1475 101.861ZM60.7077 102.336C59.5257 102.099 59.4785 101.766 60.0931 100.815C60.8969 99.5796 61.3697 99.2468 62.0316 99.4845C62.6462 99.7222 64.0646 100.483 63.9701 101.148C63.8755 101.718 62.268 102.669 60.7077 102.336ZM64.5847 101.005C64.3483 100.578 65.1994 98.9617 65.5776 98.6765C66.0977 98.2962 66.8069 98.8666 67.2797 99.0567C69.3127 99.9123 65.2466 102.289 64.5847 101.005Z" fill="#85774A"/>
<path d="M86.0969 66.3543C86.0024 66.0691 85.9551 65.8314 85.8605 65.5938C85.7187 65.7363 85.5296 65.9265 85.3877 66.0691C85.435 66.2117 85.4823 66.3542 85.5295 66.4968C92.527 90.0248 92.5743 89.5019 92.1488 90.9754C91.676 92.6865 90.163 93.7797 88.5555 94.5877C88.1772 94.7779 88.3664 94.4452 88.4136 94.255C89.5956 91.3081 89.5956 83.8932 88.6028 80.8037C87.7044 78.0469 85.0567 74.0068 85.104 67.0197C85.104 66.782 85.104 66.4968 85.104 66.3067C84.9149 66.4968 84.6785 66.687 84.4894 66.8296C84.4894 66.8771 84.4894 66.9722 84.4894 67.0197C84.4421 74.1494 87.1371 78.2846 88.0354 80.9938C89.0756 84.2735 88.8392 91.118 88.0354 93.447C87.5153 95.0155 86.8534 95.7285 87.468 95.681C88.2718 95.5859 91.9596 94.0174 92.7634 91.118C93.2362 89.4544 93.0471 89.8822 86.0969 66.3543Z" fill="#002361"/>
<path d="M20.9924 78.9029C21.5124 74.8628 20.6141 72.1059 20.2832 69.967C19.9522 69.6819 19.6685 69.2541 19.4794 68.8738C19.9049 72.4387 20.9451 74.4825 20.3777 78.8078C19.8103 83.7036 19.1011 84.3215 20.3777 90.1203C20.5196 90.8332 19.5739 89.6449 17.9191 88.219C19.0066 78.285 18.4865 72.6763 17.9664 62.5047C17.8719 62.3621 17.73 62.2195 17.6355 62.0769C17.5409 61.9343 17.3991 61.7917 17.3045 61.6016C17.3045 61.7917 17.3045 62.0293 17.3045 62.267C17.8246 72.0109 18.3447 77.9523 17.3518 87.6011C17.3045 88.0764 17.1154 88.4091 17.5409 88.7419C19.0539 89.9301 21.4652 93.0197 21.0396 90.7857C19.7631 83.7511 20.425 83.8461 20.9924 78.9029Z" fill="#002361"/>
<path d="M19.2905 65.9749C19.4324 65.6897 19.6688 65.452 19.9052 65.2619C19.9052 65.1193 19.9052 64.9767 19.9052 64.8341C19.9052 64.7866 19.9524 64.0261 19.9052 64.0261C19.716 63.9785 19.5269 63.836 19.4324 63.6934C19.2905 64.0261 19.2905 64.4539 19.2905 64.7866C19.2905 65.2144 19.2905 65.6421 19.2905 66.1175C19.2905 66.0699 19.2905 66.0224 19.2905 65.9749Z" fill="#002361"/>
<path d="M28.9827 36.2195C28.7936 36.0769 28.6518 35.9343 28.5099 35.7441C27.1861 35.7917 25.7204 36.0769 24.3966 36.5997C22.6945 37.3127 22.4581 38.2633 21.938 41.0201C22.9309 40.3071 22.3635 40.6874 22.789 40.4497C23.3091 38.0732 23.4037 37.6929 25.484 36.9324C26.6187 36.5046 27.8007 36.3145 28.9827 36.2195Z" fill="#002361"/>
<path d="M41.3701 44.3477C32.3396 48.4829 29.3137 39.9273 26.3351 38.1687C25.5786 37.6934 24.8221 37.8835 24.5384 38.2637C24.4438 38.4063 24.4438 38.5014 24.4438 38.5014C24.4911 38.5489 24.6802 38.1687 25.2003 38.1687C25.4367 38.1687 25.6731 38.2162 25.9095 38.3588C26.0987 38.4539 26.3351 38.644 26.5242 38.8341C28.1317 40.3076 29.9283 44.015 33.238 45.3934C35.9329 46.5817 38.7697 46.249 41.3701 44.9656C41.3701 44.728 41.3701 44.5379 41.3701 44.3477Z" fill="#002361"/>
<path d="M27.5641 37.9316C27.5168 37.9791 28.5097 38.1217 29.5026 39.215C32.0085 41.8767 31.5357 44.4434 40.4716 42.9699C40.1879 42.9224 39.9042 42.8273 39.6206 42.7798C38.9114 42.8748 38.0603 42.9699 37.1147 43.0174C30.7319 43.3502 31.2993 38.9298 28.226 37.9791C27.8005 37.8841 27.5641 37.8841 27.5641 37.9316Z" fill="#002361"/>
<path d="M38.9115 43.9675C38.0605 44.2527 37.2094 44.2527 36.6421 44.2052C36.0274 44.1577 35.7438 43.92 35.6965 43.9675C35.6492 44.0151 35.9329 44.3953 36.5475 44.5379C37.1622 44.6805 38.1078 44.728 39.0061 44.3953C39.4789 44.2527 39.9044 44.0626 40.2826 43.92C40.6136 43.7774 40.9918 43.6348 41.2755 43.5397C41.4174 43.4922 41.5592 43.4447 41.6538 43.3972C41.4646 43.3496 41.3228 43.2546 41.181 43.207C40.8973 43.2546 40.519 43.3496 40.1408 43.4922C39.7626 43.6823 39.337 43.8249 38.9115 43.9675Z" fill="#002361"/>
<path d="M33.7582 41.7809C35.1766 42.7791 36.7841 42.6365 38.2971 42.4464C37.777 42.2087 37.777 42.1612 37.5879 42.0186C36.3586 42.1136 35.1766 42.1612 33.9473 41.4482C33.0963 40.9729 32.7653 40.4025 32.6707 40.45C32.6235 40.4976 32.8599 41.2105 33.7582 41.7809Z" fill="#002361"/>
<path d="M51.8192 46.0582C51.11 46.1057 50.1171 46.0106 49.077 45.6304C48.0368 45.2501 47.233 44.6797 46.6657 44.2044C46.6184 44.1569 46.5711 44.1094 46.5238 44.1094C46.5238 44.252 46.5238 44.3946 46.4766 44.4896C46.9966 45.0125 47.8477 45.6779 48.9351 46.0582C50.0226 46.4859 51.11 46.5335 51.8665 46.3909C52.623 46.2483 53.0485 46.0106 53.0012 45.9156C53.0012 45.868 52.5284 46.0106 51.8192 46.0582Z" fill="#002361"/>
<path d="M69.2179 38.4532C68.556 38.6908 67.7049 39.2137 66.7593 39.9742C65.8137 40.7346 64.679 41.5427 63.2606 42.3032C61.8895 43.0637 60.282 43.7291 58.5326 44.2044C55.0339 45.2026 51.677 45.155 49.313 44.8223C48.131 44.6322 47.2326 44.252 46.7598 43.8242C46.6653 43.7766 46.618 43.7291 46.5707 43.6341H46.5234C46.5234 43.7291 46.5234 43.7766 46.5234 43.8717C46.5707 43.9192 46.5707 43.9192 46.618 43.9668C47.1381 44.4421 48.0364 44.9174 49.2657 45.155C51.6297 45.5828 55.0811 45.6779 58.6744 44.6797C60.4711 44.1569 62.0786 43.4915 63.497 42.6834C64.9154 41.8754 66.0501 40.9723 66.9484 40.2118C67.8941 39.4513 68.6505 38.8809 69.2652 38.5957C69.8798 38.3106 70.2108 38.2155 70.2108 38.168C70.2108 38.168 69.8325 38.168 69.2179 38.4532Z" fill="#002361"/>
<path d="M76.2155 39.4505C68.8398 38.5949 63.8281 46.6277 51.3934 46.9129C50.2114 46.9129 49.124 46.7227 48.2257 46.295C47.4692 45.9622 46.8545 45.4394 46.3345 44.9166C46.2399 45.0592 46.1453 45.2493 46.0508 45.3919C46.5709 45.9147 47.1855 46.4376 47.942 46.8178C48.9349 47.3406 50.1641 47.5308 51.3934 47.5783C63.639 47.4832 68.3197 39.9733 75.5063 39.7357C75.7427 39.7357 75.9318 39.7357 76.1682 39.7357C76.3573 39.7357 76.4992 39.7357 76.641 39.7357C77.3502 39.7832 77.7285 39.8783 77.7285 39.8307C77.7757 39.7832 77.2084 39.5455 76.2155 39.4505Z" fill="#002361"/>
<path d="M78.5794 37.5027C77.4919 35.9817 72.5748 35.5064 69.6434 36.362C67.6577 36.9323 66.6648 37.6928 66.7121 37.7404C66.7593 37.8354 67.8468 37.265 69.7853 36.8373C71.6765 36.4095 74.466 36.4095 77.3028 37.3601C78.4848 37.7404 78.863 40.1644 79.1467 41.9231C79.4304 42.0657 79.6195 42.3033 79.8559 42.5885C79.7141 41.1626 79.4304 38.6434 78.5794 37.5027Z" fill="#002361"/>
<path d="M46.098 43.5866C46.0507 43.5866 46.0507 43.5866 46.0507 43.5866C46.2398 43.9193 46.1925 44.4897 46.0034 44.8224C45.9089 45.0601 45.7197 45.2502 45.5306 45.4403C44.6796 46.2959 43.403 46.8187 42.2683 46.2008C41.7955 45.9632 41.5591 45.5354 41.4645 45.0126C41.4172 44.6798 41.4645 44.3947 41.5591 44.0619C41.6064 43.9193 41.7009 43.7768 41.7955 43.6342C41.8428 43.5391 41.9373 43.4916 41.9846 43.3965C41.9373 43.3965 41.5591 43.2539 41.5591 43.2539C41.2754 43.8718 41.0863 44.5372 41.1808 45.1076C41.2754 45.9157 41.7009 46.486 42.4574 46.8663C42.7411 47.0089 43.1193 47.1039 43.4503 47.1039C43.9704 47.1039 44.4905 46.9613 45.0105 46.6761C45.9561 46.1533 46.6181 45.2502 46.7599 44.2996C46.8072 44.0619 46.8072 43.8243 46.8072 43.5866C46.6653 43.5866 46.5235 43.5391 46.3817 43.5391C46.3344 43.5391 46.1925 43.5866 46.098 43.5866Z" fill="#F59B10"/>
<path d="M56.3582 35.7912L56.3109 35.7437C56.1691 35.6961 55.8854 35.9338 55.7436 35.9813C55.5544 36.0289 55.3653 36.1239 55.1762 36.1239C55.1289 36.0289 55.0816 35.8863 55.0344 35.7912C55.0344 35.7437 54.9871 35.6961 54.9871 35.6486C54.8452 35.2208 54.467 34.4603 54.2306 34.0801L53.9469 34.2227C54.136 34.5554 54.5143 35.3634 54.6561 35.7437C54.6561 35.7912 54.7034 35.8387 54.7034 35.8863C54.798 36.0764 54.8925 36.3616 54.8452 36.5042C54.6561 36.8369 53.8524 37.1221 53.4268 37.1221C53.3795 36.9795 53.3323 36.8369 53.285 36.7418C53.285 36.6943 53.2377 36.6468 53.2377 36.5992C53.0959 36.219 52.9067 35.7912 52.6703 35.411L52.3867 35.5535C52.5758 35.9338 52.7649 36.314 52.9067 36.6943C52.9067 36.7418 52.954 36.7894 52.954 36.8369C53.0486 37.027 53.1432 37.3122 53.0959 37.4548C52.8595 37.7875 51.9139 38.1202 51.5356 38.0727C51.3465 38.0252 51.0628 37.2647 50.9683 36.9319C50.921 36.7894 50.8737 36.6468 50.8264 36.5517L50.4955 36.6943C50.5427 36.7894 50.59 36.8844 50.59 37.027C50.7319 37.5023 50.8737 37.9301 51.1101 38.1678C51.1101 38.2153 51.1101 38.2153 51.1101 38.2628C50.8737 38.5955 49.9281 38.9283 49.5499 38.8807C49.3607 38.8332 49.1716 38.2628 49.0298 37.9301C48.9352 37.9776 48.8407 38.0727 48.7461 38.1202C48.9352 38.6906 49.1716 39.1659 49.5026 39.2134C49.5499 39.2134 49.5971 39.2134 49.6917 39.2134C50.1645 39.2134 50.921 38.9283 51.2992 38.5955C51.2992 38.6431 51.3465 38.6906 51.3465 38.6906C51.4883 39.0233 51.6302 39.5937 52.0557 39.6888C52.103 39.6888 52.1503 39.6888 52.2448 39.6888C52.8122 39.6888 53.7105 39.356 53.9469 38.9283C54.136 38.6431 53.9469 38.2628 53.8524 37.9776C53.8524 37.9301 53.8051 37.8826 53.8051 37.835C53.7578 37.74 53.7105 37.5499 53.616 37.4073C54.136 37.3597 54.798 37.027 55.0816 36.6943C55.1762 36.9319 55.318 37.5499 55.6017 37.5974C55.6963 37.5974 55.7436 37.5974 55.7908 37.5023C55.8381 37.4548 55.8381 37.3597 55.8381 37.3122C55.7908 37.2171 55.649 37.1221 55.6017 37.027C55.5072 36.8369 55.4599 36.6468 55.4126 36.4566C55.4126 36.4091 55.3653 36.3616 55.3653 36.314C55.6963 36.2665 56.1218 36.1715 56.3582 35.9338C56.3582 35.9813 56.4055 35.8863 56.3582 35.7912ZM53.7105 38.8332C53.4741 39.1659 52.5285 39.4986 52.1503 39.4511C51.9139 39.4036 51.772 38.8332 51.6775 38.6431C51.6775 38.5955 51.6302 38.548 51.6302 38.548C51.6302 38.548 51.6302 38.548 51.6775 38.548C52.1975 38.548 53.0486 38.2153 53.3323 37.835C53.3796 37.9301 53.4741 38.0252 53.4741 38.1202C53.4741 38.1678 53.5214 38.2153 53.5214 38.2628C53.6632 38.4054 53.8051 38.6906 53.7105 38.8332Z" fill="#ADADAD"/>
<path d="M57.2092 12.1201C55.1761 11.4546 53.1431 11.5497 51.8192 11.8824C50.4481 12.2151 49.7389 12.6904 49.7862 12.7855C49.8335 12.8806 50.6372 12.5954 51.9138 12.4053C52.1502 12.3577 52.3866 12.3577 52.623 12.3102C52.2448 12.4528 51.7247 12.738 51.11 13.1658C49.8335 14.0688 48.3205 15.8275 47.895 18.2991C47.5168 20.7232 48.4151 22.9572 49.408 24.1454C49.5971 24.3831 49.7862 24.5732 49.9753 24.7634C49.928 24.7158 49.8335 24.7158 49.7862 24.6683C48.6515 24.0979 47.9896 23.5751 47.9423 23.6701C47.895 23.7177 48.4151 24.3831 49.5498 25.0961C50.6372 25.809 52.3866 26.6171 54.4197 26.8547C56.4527 27.1399 58.3439 26.8072 59.5732 26.3794C60.8497 25.9516 61.5117 25.4763 61.4644 25.4288C61.4171 25.3337 60.6606 25.6189 59.4313 25.9041C59.1477 25.9516 58.8167 26.0467 58.4385 26.0942C58.7221 25.9516 59.0531 25.7615 59.4313 25.5239C60.5661 24.7158 61.9372 23.0998 62.3627 20.9609C62.7882 18.7744 62.079 16.7781 61.3225 15.6374C61.2753 15.5423 61.228 15.4948 61.1807 15.3997C61.228 15.4473 61.3225 15.4948 61.3698 15.5423C62.3154 16.4929 62.7882 17.2059 62.8828 17.1108C62.9774 17.0633 62.6464 16.2553 61.7481 15.1621C60.8025 14.0688 59.2422 12.7855 57.2092 12.1201ZM61.8426 20.8183C61.4644 22.8621 60.2351 24.3831 59.1949 25.2387C58.6276 25.714 58.1548 25.9992 57.7765 26.1893C56.7837 26.2844 55.6489 26.3319 54.4669 26.1418C53.0012 25.9516 51.6774 25.5239 50.6372 25.0485C50.3536 24.7634 50.0226 24.3831 49.6444 23.9078C48.7933 22.7195 47.9896 20.6281 48.3678 18.3466C48.746 16.0652 50.1644 14.354 51.2992 13.4034C52.0556 12.7855 52.7176 12.4528 53.0958 12.2627C54.2305 12.2151 55.6017 12.3577 56.9728 12.7855C58.2493 13.2133 59.2895 13.8312 60.1878 14.4966C60.4242 14.7818 60.7079 15.2096 60.9916 15.7324C61.6535 16.8732 62.2209 18.7744 61.8426 20.8183Z" fill="#545454"/>
<path d="M92.4327 33.2249C90.7779 31.1811 79.998 21.8174 79.0051 5.7519C79.0051 5.41918 78.9579 5.03893 78.9106 4.61115C78.3905 2.092 74.9391 0.523472 73.5207 1.3315C72.6696 1.80681 69.2182 5.18152 62.6462 4.61115C57.2563 0.285816 47.8475 0.0481604 40.8974 3.09015C34.8928 3.56547 31.5832 0.42841 30.5903 0.0956917C29.1246 -0.37962 26.4769 0.998783 25.815 3.18522C25.5786 3.85065 25.5786 4.56362 25.5313 5.22906C25.3895 8.84142 24.633 12.4538 23.451 15.9236C22.8364 15.781 22.2217 15.6859 21.5598 15.7334C19.0067 13.5945 14.0423 13.5945 11.3 16.6365C11.2054 16.6365 11.1582 16.6365 11.0636 16.6365C8.84144 16.7316 6.71383 18.2051 5.86279 20.4866C5.43727 21.5322 5.20087 22.3403 4.39711 22.9582C3.54607 22.9582 3.02598 22.5304 2.17494 22.5304C0.331017 22.5779 -0.850986 25.0495 0.851098 26.523C2.36406 27.8064 3.78247 26.6181 4.63351 26.1903C5.57911 26.4755 6.24103 27.0934 6.47743 27.9014C6.76111 28.757 6.14647 30.1829 7.61216 30.7058C8.84144 31.1335 10.3071 30.3255 10.6381 28.9946C11.1109 27.1409 9.6452 26.4279 9.12512 25.5249C9.69248 24.5742 10.3544 23.6236 12.2456 23.1008C13.2858 22.8156 14.4205 22.673 15.5079 22.8156C16.8791 22.9582 18.2029 23.481 19.3849 24.289C17.8247 26.7607 15.8862 29.0422 13.9477 31.1811C13.7113 31.4663 13.4749 31.7039 13.2385 32.0366C13.0021 32.3218 12.813 32.7971 12.813 33.1774C12.7657 34.6984 13.0967 36.1718 13.8059 37.5027C14.5151 38.8336 15.5079 39.9743 16.6899 40.8299C17.7301 41.5904 18.9121 42.1132 20.0941 42.4935C20.2832 42.3509 20.4724 42.2083 20.6615 42.0657C20.6615 42.0657 20.6615 42.0182 20.7087 42.0182C19.3849 41.6855 18.1556 41.1151 17.0682 40.307C15.9335 39.499 14.9879 38.4533 14.3732 37.2175C13.995 36.457 13.7113 35.649 13.5695 34.7934C13.8059 34.1755 14.1368 33.5101 14.5623 32.8447C16.1699 30.3255 18.5811 28.4243 20.3778 26.0477C20.5196 25.8576 20.6615 25.6674 20.8033 25.4773C20.9452 25.6199 21.1343 25.7625 21.2761 25.9526C22.0326 26.7607 22.7418 27.7113 23.3092 28.6619C23.8765 29.6125 24.3966 30.7058 25.0112 31.7039C26.146 33.6052 27.4698 35.3638 29.1719 36.8848C33.8053 44.0145 45.3417 45.0602 54.7504 43.5392C69.4546 41.1626 73.6625 31.2761 68.8399 23.481C66.0977 19.1082 69.4073 14.6402 67.327 10.8853C69.0763 4.08831 76.4993 4.32596 76.4993 5.79943C77.4449 7.60561 76.452 19.5359 87.4683 30.0403C88.7921 31.3237 91.1561 33.5101 92.2436 36.1243C91.7235 39.2614 88.6503 44.0145 81.7474 44.2046C81.8892 44.3947 82.0311 44.6324 82.1256 44.8225C91.8181 44.3472 94.2293 35.2212 92.4327 33.2249ZM25.3895 11.4081C25.7677 9.55439 26.0514 7.65315 26.146 5.7519C26.1932 4.75375 26.0987 1.28397 29.361 0.713597C30.2593 0.523472 30.6376 0.808659 31.2995 1.28397C33.8999 3.04262 37.3041 3.85065 39.4317 3.80312C38.3442 4.3735 37.3986 4.94387 36.1693 5.98955C34.5145 4.08831 31.9141 3.04262 29.4556 3.42287C25.7204 3.94571 28.6518 7.22537 25.2004 16.6365C24.8694 16.4464 24.4912 16.2563 24.1602 16.1137C24.633 14.5927 25.0585 13.0242 25.3895 11.4081ZM35.7438 6.32227C33.7581 8.08092 30.874 11.5982 31.0158 13.3094C31.1577 15.0205 33.238 17.6347 29.8811 21.4847C28.9828 20.8668 28.1317 20.4866 27.5644 20.344C27.1388 18.918 26.8552 17.8723 25.484 16.8742C29.0773 7.36796 26.0514 4.27843 29.5974 3.89818C31.9141 3.66053 34.2309 4.61115 35.7438 6.32227ZM19.6213 26.4755C18.723 27.6638 17.6828 28.757 16.6427 29.8027C15.7916 30.7058 14.9879 31.6088 14.3259 32.6545C13.995 33.2249 13.7113 33.7477 13.5222 34.2706C13.4749 33.8903 13.4749 33.5576 13.4749 33.1774C13.5222 32.8447 13.5695 32.607 13.8059 32.3693C13.995 32.0842 14.2314 31.8465 14.4678 31.5613C15.6498 30.278 16.7372 28.8996 17.7774 27.5687C18.5339 26.6181 19.2431 25.6199 19.905 24.6218C20.1414 24.8119 20.3305 24.9545 20.5669 25.1446C20.2832 25.6199 19.9523 26.0477 19.6213 26.4755ZM92.2909 35.6965C90.5888 31.7039 87.2319 30.2304 83.4022 24.7644C76.9248 15.4007 77.9177 7.51055 76.9248 5.51424C75.9319 3.66053 68.6981 3.89818 66.9487 10.0772C66.3814 12.0735 66.996 13.4995 66.996 12.834C66.996 12.4063 67.0906 12.026 67.1378 11.5982C68.2726 15.4958 66.996 16.7316 67.3742 20.344C67.847 24.4316 71.5349 26.7131 69.5964 32.6545C67.8943 37.883 63.0245 40.7348 57.7291 42.1132C49.8806 44.2521 37.8242 44.0145 31.6777 38.691C36.1693 41.3052 42.2212 41.828 47.6584 39.2138C49.5969 39.9743 51.9136 40.307 53.8521 39.3564C56.9726 37.9305 56.3107 35.3638 56.7362 34.0329C58.0128 33.9854 58.9111 33.0823 58.722 32.8922C58.6274 32.7971 58.391 32.9872 57.9182 33.1298C56.7362 33.5101 55.5069 33.2724 54.5613 32.3218C54.2304 31.9891 54.0412 31.7039 53.9467 31.7514C53.8521 31.799 53.8521 32.4169 54.514 33.0823C45.389 43.0163 35.0819 41.02 29.8811 36.5996C28.1317 35.1262 26.7133 33.2724 25.5313 31.2761C24.9167 30.278 24.3966 29.2798 23.8292 28.2341C23.2146 27.236 22.5054 26.2854 21.7016 25.3823C20.0941 23.6711 17.9665 22.2927 15.5552 22.1026C13.5222 21.9125 10.1653 22.3878 8.84144 24.7168C8.74688 24.2415 8.84144 23.8137 8.936 23.5285C9.03056 23.1483 9.1724 22.9582 9.12512 22.9106C9.07784 22.8631 8.88872 23.0057 8.65232 23.4335C7.28119 26.0002 10.5435 26.7131 9.92888 28.8045C9.69248 29.7551 8.60504 30.3255 7.80128 30.0403C6.80839 29.7076 7.42304 28.757 6.99751 27.7113C6.66655 26.8557 6.00463 26.1903 5.10631 25.9526C5.29543 25.9051 5.53183 25.8576 5.67367 25.8576C6.00463 25.9051 6.19375 26.2854 6.52471 26.4279C6.99751 26.6181 7.09207 26.0952 6.76111 25.7625C6.24103 25.1921 5.10631 25.4298 4.49167 25.6199C3.78247 25.8576 3.07326 26.3804 2.31678 26.3804C1.5603 26.3804 0.709258 25.715 0.661978 24.8594C0.614698 24.0039 1.37118 23.1958 2.12766 23.1958C2.88414 23.1483 4.68079 24.1465 6.09919 22.673C6.38287 22.3878 6.47743 22.1501 6.43015 22.1501C6.38287 22.1026 6.24103 22.2927 5.91007 22.4829C5.72095 22.6255 5.43727 22.7681 5.05903 22.8631C6.52471 21.6273 6.57199 17.9199 11.0636 17.1594C12.0565 16.9692 12.7657 17.0643 12.7657 16.9693C12.7657 16.9217 12.4347 16.7316 11.8201 16.6841C15.1297 14.26 19.1012 14.6402 21.2761 16.2088C22.269 16.9217 22.6 17.6347 22.6945 17.5872C22.7418 17.5872 22.6472 16.9692 21.9853 16.2088C26.5715 17.1594 26.3824 19.7261 27.2807 21.3421C27.7535 22.3403 28.4154 22.673 28.4627 22.5779C28.51 22.4829 28.0844 22.0551 27.7535 21.152C27.7062 21.0569 27.7062 21.0094 27.6589 20.9143C28.2736 21.2946 29.1246 21.865 30.0229 22.6255C31.6305 24.0039 32.5761 25.5249 32.7652 25.3823C32.8597 25.3347 32.6706 24.8119 32.2451 24.0514C34.3727 23.3384 36.4058 23.4335 38.4388 24.4792C39.148 24.8594 39.5735 25.1446 39.6681 25.0495C39.7154 25.002 39.4317 24.5267 38.7225 24.0514C38.6279 23.9563 38.4861 23.9088 38.3915 23.8137C41.0392 22.3403 42.9777 22.673 43.8287 22.6255C44.7743 22.5779 45.1526 22.1501 45.058 22.0551C45.0107 22.0076 44.6798 22.1501 44.1124 22.1501C44.8216 20.9143 45.058 19.4884 44.9162 18.1575C44.6325 15.4483 42.8831 13.8322 41.5593 13.3094C42.0321 13.3094 42.4576 13.4044 42.7886 13.5945C43.9233 14.1174 44.1597 14.9729 44.2543 14.9254C44.3015 14.9254 44.3015 14.6878 44.1597 14.355C42.8831 11.4081 36.7367 12.5964 33.8999 16.6841C33.1434 17.7773 32.907 18.5853 33.0016 18.6328C33.0961 18.6804 33.3798 18.2051 33.9472 17.4446C33.1907 19.0131 33.238 20.7717 33.9945 22.2927C33.1907 21.8174 33.4744 22.4353 34.1363 23.0057C33.4271 23.1008 32.6706 23.3384 32.056 23.7187C31.5359 23.0057 30.9685 22.4353 30.3539 21.9125C30.874 21.1995 31.3468 20.439 31.6305 19.5835C33.4271 14.8303 30.4485 14.8779 32.2451 11.7408C38.3915 0.808659 53.8521 -0.474682 61.4169 4.61115C59.9985 4.56362 61.3224 5.22906 62.6935 5.37165C69.2654 5.98955 73.0951 2.37719 73.757 2.04447C74.419 1.66422 76.4993 1.90188 77.8231 3.99325C78.4378 4.80128 78.2014 5.37165 78.4851 8.03339C80.1871 22.4829 88.934 30.0878 91.8653 33.7477C92.2436 34.0329 92.3854 34.7459 92.2909 35.6965ZM48.5095 38.786C50.6843 37.5978 53.0011 35.8391 55.0814 33.5101C55.4596 33.7953 55.7906 33.8903 56.1216 33.9379C55.7906 34.936 55.9797 36.0768 55.5542 36.9323C54.8923 38.3107 52.7647 40.0694 48.5095 38.786ZM34.5145 22.4829C33.4744 20.4866 33.5689 18.11 35.1292 16.0662C36.8786 14.4026 39.0062 13.4519 40.7082 13.2618C42.363 13.547 44.3015 15.5908 44.4907 18.11C44.6325 19.3933 44.3961 20.8193 43.7342 22.0551C41.7011 21.7699 39.7154 21.96 37.9187 23.481C37.0677 23.1008 36.1221 22.8631 35.1765 22.8631C34.8928 22.7205 34.7037 22.6255 34.5145 22.4829Z" fill="#545454"/>
<path d="M52.5284 62.9315C51.8192 59.3667 51.11 57.0852 49.8335 54.0907C49.3607 53.0451 48.3678 52.2846 47.2803 52.142L36.3586 50.5734C35.1766 50.3833 34.0419 50.9537 33.4745 51.9518C32.0089 54.5661 31.016 56.6099 29.9285 59.842C29.5976 60.7926 29.7394 61.8383 30.2595 62.6939C32.5289 66.3062 34.8457 68.7779 39.0536 72.105C39.9519 72.818 41.1812 73.0081 42.2214 72.4853C46.2402 70.489 48.9824 68.8254 51.8665 65.5933C52.4811 64.9278 52.7175 63.9297 52.5284 62.9315ZM51.4883 65.3081C48.6987 68.4451 46.0038 70.1087 42.0322 72.0575C41.1812 72.4853 40.141 72.3427 39.3846 71.7248C35.2239 68.4451 32.9545 66.0211 30.7323 62.4562C30.2595 61.7433 30.1649 60.8402 30.4486 60.0321C31.4888 56.8475 32.4817 54.8512 33.9473 52.237C34.4201 51.3815 35.3657 50.9537 36.3113 51.0963L47.2331 52.6648C48.1314 52.8074 48.9824 53.4728 49.3607 54.3284C50.6372 57.2753 51.3464 59.5568 52.0556 63.0266C52.1975 63.8822 52.0083 64.7377 51.4883 65.3081Z" fill="#8C0F06"/>
<path d="M20.4253 67.0659C20.3307 67.0184 20.1416 67.256 20.1416 67.6838C20.1416 68.1116 20.4253 68.6819 20.9926 69.0147C21.2763 69.1573 21.6073 69.2523 21.9382 69.2048C21.9855 69.2999 21.9855 69.3474 22.0328 69.4425C22.2219 69.7752 22.411 69.9178 22.5056 69.8702C22.6474 69.7752 22.2692 69.0147 22.3638 68.0165C22.3638 67.7313 22.411 67.4937 22.5056 67.2085C22.6474 66.7332 22.9311 66.3529 23.1203 66.0677C22.9784 66.0202 22.8366 65.9251 22.6947 65.8301C22.411 66.0677 22.0801 66.448 21.9382 66.9708C21.8437 67.3035 21.7491 67.6363 21.7491 67.969C21.7491 68.1591 21.7491 68.3492 21.7964 68.5394C21.6546 68.5394 21.4654 68.4918 21.3236 68.3968C20.9454 68.2066 20.709 67.8264 20.6144 67.5887C20.5198 67.3035 20.5198 67.1134 20.4253 67.0659Z" fill="#545454"/>
<path d="M24.7749 71.3445C24.7276 71.2019 24.6803 71.0593 24.633 70.9167C24.5858 70.9167 24.5385 70.9167 24.4912 70.9167C23.7347 71.0118 22.9782 70.9642 22.269 70.7266C21.5598 70.4889 20.9452 70.0611 20.3778 69.5858C19.8577 69.063 19.4322 68.4451 19.2431 67.7797C19.054 67.1142 19.2431 66.4012 19.6686 65.8309C19.905 65.5457 20.1414 65.3556 20.4724 65.1654C20.6142 65.0704 20.7561 65.0228 20.8979 64.9753C20.8033 64.9278 20.7561 64.8327 20.6615 64.7852C20.5669 64.6901 20.4251 64.5951 20.3305 64.5C20.2833 64.5475 20.1887 64.5475 20.1414 64.5951C19.7632 64.7852 19.4322 65.0704 19.1485 65.4031C19.0067 65.5932 18.8649 65.7358 18.8176 65.9735C18.723 66.1636 18.6285 66.4012 18.5812 66.5914C18.4866 67.0192 18.4866 67.4945 18.5812 67.9222C18.8176 68.7778 19.2904 69.4908 19.905 70.0611C20.5197 70.6315 21.2289 71.1068 22.0326 71.3445C22.8364 71.6297 23.6874 71.6772 24.5385 71.5821C24.633 71.5821 24.7276 71.5346 24.7749 71.5346C24.8222 71.4871 24.8222 71.4395 24.7749 71.3445Z" fill="#545454"/>
<path d="M27.4697 76.7151C27.2806 76.5725 26.8078 76.3823 26.6187 76.4774C25.2476 73.6255 23.8291 70.0607 22.9781 66.4959C17.8246 63.7866 14.8932 59.5563 14.0422 57.7977C12.7656 54.9933 15.3187 42.3976 25.9095 38.3574C26.0986 38.4525 26.335 38.6426 26.5241 38.8327C15.8861 42.5402 13.6166 55.1835 14.6568 57.5125C15.5551 59.4613 18.4392 63.1687 22.789 65.6403C22.1743 62.7884 21.9379 59.9841 22.3635 57.5125C22.5526 56.2767 22.8835 55.1835 23.2618 54.1378C22.8835 53.9001 22.5053 53.7575 22.1271 53.71C21.1815 53.5674 20.3777 53.9001 20.2831 53.7575C20.2359 53.6625 20.3777 53.4723 20.7559 53.2822C21.0869 53.0921 21.6543 52.9495 22.2216 53.0445C22.6944 53.0921 23.1199 53.2822 23.4982 53.5199C24.1601 51.9513 24.9166 50.7155 25.6258 49.7649C25.5785 48.8143 25.5312 48.0062 25.7204 47.9587C25.8622 47.9112 26.0513 48.3865 26.1932 49.0519C26.8551 48.2914 27.3279 47.9587 27.4697 48.0538C27.6116 48.1964 27.0915 48.9093 26.4296 49.7174C20.2359 57.7501 22.9781 67.5891 27.4697 76.7151Z" fill="#D67D11"/>
<path d="M70.2108 77.9029C69.6434 78.4257 69.2652 79.0436 68.6505 79.5665C62.4568 84.7949 57.6815 83.1313 53.5209 84.4147C50.0222 85.5079 50.8259 85.9357 49.0293 86.7912C44.8214 88.8826 42.5046 85.4128 38.2967 83.6066C30.59 80.2794 28.1788 80.1844 27.1859 77.7128C27.0913 77.4751 26.4767 76.5245 27.2332 76.7146C27.375 76.7621 27.5168 76.8572 27.6587 76.9523C31.3938 79.8041 47.5163 86.6486 63.5916 80.422C66.4284 79.3288 67.4212 78.5208 68.1777 78.1881C68.556 77.9979 68.9815 77.9979 69.2652 77.7128C69.0288 77.6177 68.7924 77.5226 68.6033 77.38C61.984 81.7529 45.6724 86.7437 26.4767 76.0967C26.2403 75.9541 26.2876 76.1918 26.2876 76.3344C26.3821 77.1899 26.8076 77.8078 27.8951 79.614C28.2733 80.2794 28.5097 80.2319 29.7863 80.7072C45.6251 86.7912 41.7009 87.5992 47.0908 87.8369C50.5895 87.5042 50.6368 84.7949 58.9108 84.177C64.4426 83.7492 68.6978 80.3745 70.92 78.093C70.7309 78.0455 70.4945 77.9504 70.2108 77.9029Z" fill="#002361"/>
<path d="M76.1212 74.4812C76.0739 74.101 75.9794 73.7683 75.7902 73.4831C75.4593 72.9127 74.8919 72.2948 74.0881 72.2473C73.8045 72.2473 73.6153 72.3899 73.4735 72.4849L73.0953 72.7701C73.0007 72.8652 72.9061 72.9127 72.7643 72.9127C72.6225 72.9602 72.5279 72.9602 72.3861 72.9602C72.1024 72.9602 71.8187 72.9602 71.4877 72.9602C71.3932 72.9602 71.3459 72.9602 71.2513 73.0078C71.0149 72.7226 70.8258 72.58 70.7313 72.6275C70.5894 72.7701 71.0149 73.4831 71.2041 74.4812C71.2513 74.6238 71.2513 74.7664 71.2513 74.909C71.3932 75.9547 71.2986 76.8103 71.4877 76.8578C71.535 76.9053 71.6769 76.7152 71.7714 76.4775C72.0078 76.5726 72.2442 76.5726 72.4806 76.5726C72.8589 76.5251 73.1425 76.3825 73.3789 76.1924C73.5208 76.2399 73.7099 76.2399 73.8517 76.2874C73.899 76.2874 73.899 76.2874 73.9463 76.2874C73.9463 76.2874 73.9463 76.2874 73.9936 76.2874C73.9936 76.2874 74.0409 76.2399 74.0409 76.1924C74.0409 76.1448 73.9936 76.0973 73.9936 76.0973C73.9463 76.0022 73.8517 75.9547 73.7572 75.8596C73.8045 75.7646 73.8517 75.7171 73.899 75.622C74.0409 75.1942 73.9463 74.9566 73.8517 74.9566C73.7572 74.9566 73.7099 75.1467 73.5208 75.3843C73.3317 75.622 73.0007 75.8596 72.5752 75.9072C72.3861 75.9072 72.2442 75.9072 72.0551 75.8121C72.1024 75.5269 72.1024 75.1942 72.0551 74.814C72.0551 74.6714 72.0078 74.4812 71.9605 74.3386C71.9133 74.101 71.8187 73.8633 71.7241 73.6257C72.0078 73.6257 72.2915 73.6257 72.5752 73.6257C72.7643 73.6257 72.9061 73.5781 73.0953 73.5781C73.2844 73.5306 73.4735 73.4356 73.6153 73.3405C73.899 73.1504 74.1354 72.9602 74.23 72.9602C75.1283 73.0078 75.9794 74.4812 75.4593 75.2893C74.9392 76.2874 73.9936 77.1905 72.9534 77.6658C72.6697 77.7609 72.4333 77.856 72.1497 77.856C71.866 77.856 71.5823 77.856 71.2513 77.856C70.6367 77.8084 70.0693 77.6658 69.502 77.4757C68.3672 77.0479 67.3744 76.335 66.6179 75.4319C65.8614 74.4812 65.3886 73.3405 65.1995 72.1522C65.0576 70.9639 65.1522 69.6806 65.7196 68.6824C65.8614 68.3972 66.0505 68.1596 66.2396 67.9695C66.1924 67.7793 66.1451 67.5417 66.1451 67.3516C65.8141 67.5417 65.4359 67.8744 65.1522 68.3497C64.4903 69.538 64.3484 70.9639 64.5376 72.2473C64.7267 73.5781 65.2468 74.814 66.0978 75.8596C66.9488 76.9053 68.0363 77.6658 69.2656 78.0936C69.8802 78.3313 70.5421 78.4739 71.1568 78.5214C71.4877 78.5689 71.8187 78.5689 72.1497 78.5214C72.4806 78.5214 72.8589 78.3788 73.1425 78.2837C74.3718 77.7134 75.3647 76.7627 75.9793 75.622C76.0266 75.4794 76.1212 75.2893 76.1685 75.0991C76.1685 74.8615 76.1685 74.6714 76.1212 74.4812Z" fill="#545454"/>
<path d="M76.6415 39.7363C76.4997 39.7363 76.3579 39.7363 76.1687 39.7363C75.9323 39.7363 75.6959 39.7363 75.5068 39.7363C75.6014 39.8314 75.7432 39.8789 75.8378 39.974C81.7951 44.1567 91.4402 54.1858 88.6507 61.2204C86.1921 67.5896 74.0411 73.0081 71.2043 72.3427C69.975 72.0575 65.2943 68.7779 66.4763 66.5439C66.8073 65.8785 71.3934 61.2679 76.2633 58.4161C77.2089 57.8457 77.9181 57.3704 77.8235 57.1803C77.6344 56.8475 76.2633 57.5605 74.5139 58.7488C71.9608 56.9901 70.0223 54.6611 68.6512 52.0944C67.942 50.7636 67.6583 49.908 67.5637 49.908C67.2801 50.0031 68.3675 54.0432 71.5826 57.2278C72.339 57.9883 73.1428 58.6062 73.9466 59.129C70.7315 61.363 66.6654 64.7377 65.9089 66.2112C64.4433 68.968 69.5495 72.5804 71.0625 72.9606C74.2775 73.6736 86.7122 68.0649 89.2653 61.4105C92.244 54.1383 82.5988 44.0617 76.6415 39.7363Z" fill="#D67D11"/>
<path d="M53.3316 4.42113C52.8115 4.37359 52.1968 4.65878 52.055 5.22916C51.7713 6.3699 53.568 6.84521 54.3244 7.1304C55.2228 7.46312 56.0265 7.8909 56.8303 8.31868C57.5868 8.6514 56.2156 4.70631 53.3316 4.42113Z" fill="#1A1A1A"/>
<path d="M41.8428 5.1349C39.1478 5.56268 38.0603 9.27011 38.7695 8.88986C39.526 8.46208 40.2352 8.0343 41.039 7.70159C41.7482 7.4164 43.4503 6.84603 43.0248 5.75281C42.8356 5.32503 42.3156 5.08737 41.8428 5.1349Z" fill="#1A1A1A"/>
</svg>
