<svg width="23" height="23" viewBox="0 0 23 23" fill="none" xmlns="http://www.w3.org/2000/svg">
<path d="M11.5101 0C5.17148 0 0 5.16696 0 11.5C0 17.833 5.17148 23 11.5101 23C17.8486 23 23 17.8531 23 11.5201C23 5.16696 17.8486 0 11.5101 0ZM11.5101 20.6075C6.49956 20.6075 2.4147 16.5262 2.4147 11.5201C2.4147 6.51399 6.49956 2.43269 11.5101 2.43269C16.5206 2.43269 20.5853 6.51399 20.5853 11.5201C20.5853 16.5262 16.5206 20.6075 11.5101 20.6075Z" fill="white"/>
<path d="M12.4557 6.81492V5.66895H10.5843V6.81492C9.2562 7.19692 8.35069 8.30269 8.35069 9.56929C8.35069 11.1576 9.75926 12.4443 11.5099 12.4443C12.2343 12.4443 12.8179 12.9067 12.8179 13.4696C12.8179 14.0326 12.2343 14.495 11.5099 14.495C10.7855 14.495 10.202 14.0326 10.202 13.4696V13.2686H8.33057V13.4696C8.33057 14.7362 9.23608 15.842 10.5642 16.224V17.37H12.4356V16.224C13.7636 15.842 14.6691 14.7362 14.6691 13.4696C14.6691 11.8814 13.2606 10.5946 11.5099 10.5946C10.7855 10.5946 10.202 10.1322 10.202 9.56929C10.202 9.00636 10.7855 8.54394 11.5099 8.54394C12.2343 8.54394 12.8179 9.00636 12.8179 9.56929V9.77034H14.6893V9.56929C14.6893 8.30269 13.7838 7.19692 12.4557 6.81492Z" fill="white"/>
</svg>