<svg width="57" height="58" viewBox="0 0 57 58" fill="none" xmlns="http://www.w3.org/2000/svg">
<rect y="7" width="51" height="51" rx="4" fill="#0071CE"/>
<path d="M40.0019 43.5178C37.7526 41.2685 35.1088 39.6112 32.2281 38.6246C35.3455 36.4937 37.358 32.9028 37.358 28.8383C37.358 22.3272 32.0308 17 25.5197 17C19.0087 17 13.6814 22.3272 13.6814 28.8383C13.6814 32.9028 15.7334 36.4543 18.8114 38.6246C15.8912 39.6112 13.2474 41.2685 11.0375 43.5178C7.1309 47.385 5 52.5149 5 58H8.19634C8.19634 48.4504 15.9702 40.7161 25.4803 40.7161C34.9904 40.7161 42.7642 48.4899 42.7642 58H45.9605C46 52.5149 43.8691 47.385 40.0019 43.5178ZM25.5197 37.5197C20.7449 37.5197 16.8383 33.6131 16.8383 28.8383C16.8383 24.0635 20.7449 20.1963 25.5197 20.1963C30.2945 20.1963 34.1617 24.103 34.1617 28.8383C34.1617 33.5736 30.2945 37.5197 25.5197 37.5197Z" fill="white"/>
<circle cx="50" cy="7" r="7" fill="#FF7F30"/>
</svg>