<svg width="58" height="58" viewBox="0 0 58 58" fill="none" xmlns="http://www.w3.org/2000/svg">
<rect width="58" height="58" rx="1.91736" fill="#0071CE"/>
<path d="M45.4924 41.5301C42.9344 38.9721 39.9276 37.0872 36.6516 35.9653C40.1969 33.5419 42.4856 29.4581 42.4856 24.8357C42.4856 17.431 36.4272 11.3726 29.0224 11.3726C21.6177 11.3726 15.5593 17.431 15.5593 24.8357C15.5593 29.4581 17.8929 33.497 21.3933 35.9653C18.0724 37.0872 15.0656 38.9721 12.5525 41.5301C8.10965 45.928 5.68628 51.7621 5.68628 58H9.32134C9.32134 47.1397 18.1622 38.3438 28.9776 38.3438C39.793 38.3438 48.6338 47.1846 48.6338 58H52.2688C52.3137 51.7621 49.8904 45.928 45.4924 41.5301ZM29.0224 34.7087C23.5923 34.7087 19.1494 30.2659 19.1494 24.8357C19.1494 19.4056 23.5923 15.0076 29.0224 15.0076C34.4526 15.0076 38.8506 19.4505 38.8506 24.8357C38.8506 30.221 34.4526 34.7087 29.0224 34.7087Z" fill="white"/>
</svg>

